ply
format ascii 1.0
element vertex 42
property float x
property float y
property float z
element face 80
property list uchar int vertex_indices
end_header
0 -0.525731 0.850651
0.850651 0 0.525731
0.850651 0 -0.525731
-0.850651 0 -0.525731
-0.850651 0 0.525731
-0.525731 0.850651 0
0.525731 0.850651 0
0.525731 -0.850651 0
-0.525731 -0.850651 0
0 -0.525731 -0.850651
0 0.525731 -0.850651
0 0.525731 0.850651
0.783297 0.484104 -0.299193
0.968208 0 0
0.783297 0.484104 0.299193
0.783297 -0.484104 -0.299193
0.783297 -0.484104 0.299193
-0.783297 0.484104 0.299193
-0.968208 0 0
-0.783297 0.484104 -0.299193
-0.783297 -0.484104 -0.299193
-0.783297 -0.484104 0.299193
-0.299193 0.783297 0.484104
0 0.968208 0
0.299193 0.783297 0.484104
0.299193 0.783297 -0.484104
-0.299193 0.783297 -0.484104
0.484104 0.299193 -0.783297
0 0 -0.968208
0.484104 -0.299193 -0.783297
-0.484104 -0.299193 -0.783297
-0.484104 0.299193 -0.783297
-0.299193 -0.783297 -0.484104
0 -0.968208 0
0.299193 -0.783297 -0.484104
0.299193 -0.783297 0.484104
-0.299193 -0.783297 0.484104
0.484104 -0.299193 0.783297
0 0 0.968208
0.484104 0.299193 0.783297
-0.484104 0.299193 0.783297
-0.484104 -0.299193 0.783297
3 13 14 12
3 15 16 13
3 18 19 17
3 18 21 20
3 23 24 22
3 23 26 25
3 28 29 27
3 28 31 30
3 33 34 32
3 33 36 35
3 38 39 37
3 38 41 40
3 25 27 12
3 14 39 24
3 19 31 26
3 22 40 17
3 29 34 15
3 35 37 16
3 20 32 30
3 21 41 36
3 14 13 1
3 12 14 6
3 13 12 2
3 16 15 7
3 13 16 1
3 15 13 2
3 19 18 3
3 17 19 5
3 18 17 4
3 21 18 4
3 20 21 8
3 18 20 3
3 24 23 6
3 22 24 11
3 23 22 5
3 26 23 5
3 25 26 10
3 23 25 6
3 29 28 9
3 27 29 2
3 28 27 10
3 31 28 10
3 30 31 3
3 28 30 9
3 34 33 7
3 32 34 9
3 33 32 8
3 36 33 8
3 35 36 0
3 33 35 7
3 39 38 11
3 37 39 1
3 38 37 0
3 41 38 0
3 40 41 4
3 38 40 11
3 27 25 10
3 12 27 2
3 25 12 6
3 39 14 1
3 24 39 11
3 14 24 6
3 31 19 3
3 26 31 10
3 19 26 5
3 40 22 11
3 17 40 4
3 22 17 5
3 34 29 9
3 15 34 7
3 29 15 2
3 37 35 0
3 16 37 1
3 35 16 7
3 32 20 8
3 30 32 9
3 20 30 3
3 41 21 4
3 36 41 0
3 21 36 8
