ply
format ascii 1.0
element vertex 162
property float x
property float y
property float z
element face 320
property list uchar int vertex_indices
end_header
0 -0.525731 0.850651
0.850651 0 0.525731
0.850651 0 -0.525731
-0.850651 0 -0.525731
-0.850651 0 0.525731
-0.525731 0.850651 0
0.525731 0.850651 0
0.525731 -0.850651 0
-0.525731 -0.850651 0
0 -0.525731 -0.850651
0 0.525731 -0.850651
0 0.525731 0.850651
0.783297 0.484104 -0.299193
0.968208 0 0
0.783297 0.484104 0.299193
0.783297 -0.484104 -0.299193
0.783297 -0.484104 0.299193
-0.783297 0.484104 0.299193
-0.968208 0 0
-0.783297 0.484104 -0.299193
-0.783297 -0.484104 -0.299193
-0.783297 -0.484104 0.299193
-0.299193 0.783297 0.484104
0 0.968208 0
0.299193 0.783297 0.484104
0.299193 0.783297 -0.484104
-0.299193 0.783297 -0.484104
0.484104 0.299193 -0.783297
0 0 -0.968208
0.484104 -0.299193 -0.783297
-0.484104 -0.299193 -0.783297
-0.484104 0.299193 -0.783297
-0.299193 -0.783297 -0.484104
0 -0.968208 0
0.299193 -0.783297 -0.484104
0.299193 -0.783297 0.484104
-0.299193 -0.783297 0.484104
0.484104 -0.299193 0.783297
0 0 0.968208
0.484104 0.299193 0.783297
-0.484104 0.299193 0.783297
-0.484104 -0.299193 0.783297
0.91476 0.260956 0.143116
0.826309 0.492523 1.86265e-09
0.91476 0.260956 -0.143116
0.826309 -0.492523 -1.86265e-09
0.91476 -0.260956 0.143116
0.91476 -0.260956 -0.143116
-0.91476 0.260956 -0.143116
-0.826309 0.492523 -1.86265e-09
-0.91476 0.260956 0.143116
-0.91476 -0.260956 0.143116
-0.826309 -0.492523 1.86265e-09
-0.91476 -0.260956 -0.143116
0.143116 0.91476 0.260956
1.86265e-09 0.826309 0.492523
-0.143116 0.91476 0.260956
-0.143116 0.91476 -0.260956
-1.86265e-09 0.826309 -0.492523
0.143116 0.91476 -0.260956
0.260956 -0.143116 -0.91476
0.492523 -1.86265e-09 -0.826309
0.260956 0.143116 -0.91476
-0.260956 0.143116 -0.91476
-0.492523 1.86265e-09 -0.826309
-0.260956 -0.143116 -0.91476
0.143116 -0.91476 -0.260956
1.86265e-09 -0.826309 -0.492523
-0.143116 -0.91476 -0.260956
-0.143116 -0.91476 0.260956
-1.86265e-09 -0.826309 0.492523
0.143116 -0.91476 0.260956
0.260956 0.143116 0.91476
0.492523 1.86265e-09 0.826309
0.260956 -0.143116 0.91476
-0.260956 -0.143116 0.91476
-0.492523 -1.86265e-09 0.826309
-0.260956 0.143116 0.91476
0.422236 0.565353 -0.653803
0.653803 0.422236 -0.565353
0.565353 0.653803 -0.422236
0.653803 0.422236 0.565353
0.422236 0.565353 0.653803
0.565353 0.653803 0.422236
-0.653803 0.422236 -0.565353
-0.422236 0.565353 -0.653803
-0.565353 0.653803 -0.422236
-0.422236 0.565353 0.653803
-0.653803 0.422236 0.565353
-0.565353 0.653803 0.422236
0.422236 -0.565353 -0.653803
0.565353 -0.653803 -0.422236
0.653803 -0.422236 -0.565353
0.422236 -0.565353 0.653803
0.653803 -0.422236 0.565353
0.565353 -0.653803 0.422236
-0.565353 -0.653803 -0.422236
-0.422236 -0.565353 -0.653803
-0.653803 -0.422236 -0.565353
-0.653803 -0.422236 0.565353
-0.422236 -0.565353 0.653803
-0.565353 -0.653803 0.422236
0.946942 -1.11759e-08 0.286049
0.854486 0.242052 0.435646
0.677698 0.70489 0.149596
0.677698 0.70489 -0.149596
0.854486 0.242052 -0.435646
0.946942 1.11759e-08 -0.286049
0.677698 -0.70489 -0.149596
0.677698 -0.70489 0.149596
0.854486 -0.242052 0.435646
0.854486 -0.242052 -0.435646
-0.946942 -1.11759e-08 -0.286049
-0.854486 0.242052 -0.435646
-0.677698 0.70489 -0.149596
-0.677698 0.70489 0.149596
-0.854486 0.242052 0.435646
-0.946942 1.11759e-08 0.286049
-0.854486 -0.242052 0.435646
-0.677698 -0.70489 0.149596
-0.677698 -0.70489 -0.149596
-0.854486 -0.242052 -0.435646
0.286049 0.946942 -1.11759e-08
0.435646 0.854486 0.242052
0.149596 0.677698 0.70489
-0.149596 0.677698 0.70489
-0.435646 0.854486 0.242052
-0.286049 0.946942 1.11759e-08
-0.435646 0.854486 -0.242052
-0.149596 0.677698 -0.70489
0.149596 0.677698 -0.70489
0.435646 0.854486 -0.242052
-1.11759e-08 -0.286049 -0.946942
0.242052 -0.435646 -0.854486
0.70489 -0.149596 -0.677698
0.70489 0.149596 -0.677698
0.242052 0.435646 -0.854486
1.11759e-08 0.286049 -0.946942
-0.242052 0.435646 -0.854486
-0.70489 0.149596 -0.677698
-0.70489 -0.149596 -0.677698
-0.242052 -0.435646 -0.854486
0.286049 -0.946942 1.11759e-08
0.435646 -0.854486 -0.242052
0.149596 -0.677698 -0.70489
-0.149596 -0.677698 -0.70489
-0.435646 -0.854486 -0.242052
-0.286049 -0.946942 -1.11759e-08
-0.435646 -0.854486 0.242052
-0.149596 -0.677698 0.70489
0.149596 -0.677698 0.70489
0.435646 -0.854486 0.242052
-1.11759e-08 0.286049 0.946942
0.242052 0.435646 0.854486
0.70489 0.149596 0.677698
0.70489 -0.149596 0.677698
0.242052 -0.435646 0.854486
1.11759e-08 -0.286049 0.946942
-0.242052 -0.435646 0.854486
-0.70489 -0.149596 0.677698
-0.70489 0.149596 0.677698
-0.242052 0.435646 0.854486
3 43 44 42
3 46 47 45
3 49 50 48
3 52 53 51
3 55 56 54
3 58 59 57
3 61 62 60
3 64 65 63
3 67 68 66
3 70 71 69
3 73 74 72
3 76 77 75
3 79 80 78
3 82 83 81
3 85 86 84
3 88 89 87
3 91 92 90
3 94 95 93
3 97 98 96
3 100 101 99
3 102 103 42
3 104 105 43
3 106 107 44
3 108 109 45
3 46 110 102
3 107 111 47
3 112 113 48
3 114 115 49
3 116 117 50
3 117 118 51
3 119 120 52
3 53 121 112
3 122 123 54
3 124 125 55
3 126 127 56
3 127 128 57
3 129 130 58
3 59 131 122
3 132 133 60
3 134 135 61
3 136 137 62
3 137 138 63
3 139 140 64
3 65 141 132
3 142 143 66
3 144 145 67
3 146 147 68
3 147 148 69
3 149 150 70
3 71 151 142
3 152 153 72
3 154 155 73
3 156 157 74
3 157 158 75
3 159 160 76
3 77 161 152
3 130 136 78
3 79 135 106
3 105 131 80
3 103 154 81
3 82 153 124
3 83 123 104
3 113 139 84
3 85 138 129
3 86 128 114
3 125 161 87
3 88 160 116
3 115 126 89
3 133 144 90
3 91 143 108
3 111 134 92
3 150 156 93
3 94 155 110
3 109 151 95
3 120 146 96
3 97 145 141
3 98 140 121
3 118 159 99
3 100 158 149
3 101 148 119
3 44 43 12
3 42 44 13
3 43 42 14
3 47 46 13
3 45 47 15
3 46 45 16
3 50 49 17
3 48 50 18
3 49 48 19
3 53 52 20
3 51 53 18
3 52 51 21
3 56 55 22
3 54 56 23
3 55 54 24
3 59 58 25
3 57 59 23
3 58 57 26
3 62 61 27
3 60 62 28
3 61 60 29
3 65 64 30
3 63 65 28
3 64 63 31
3 68 67 32
3 66 68 33
3 67 66 34
3 71 70 35
3 69 71 33
3 70 69 36
3 74 73 37
3 72 74 38
3 73 72 39
3 77 76 40
3 75 77 38
3 76 75 41
3 80 79 12
3 78 80 25
3 79 78 27
3 83 82 24
3 81 83 14
3 82 81 39
3 86 85 26
3 84 86 19
3 85 84 31
3 89 88 17
3 87 89 22
3 88 87 40
3 92 91 15
3 90 92 29
3 91 90 34
3 95 94 16
3 93 95 35
3 94 93 37
3 98 97 30
3 96 98 20
3 97 96 32
3 101 100 36
3 99 101 21
3 100 99 41
3 103 102 1
3 42 103 14
3 102 42 13
3 105 104 6
3 43 105 12
3 104 43 14
3 107 106 2
3 44 107 13
3 106 44 12
3 109 108 7
3 45 109 16
3 108 45 15
3 110 46 16
3 102 110 1
3 46 102 13
3 111 107 2
3 47 111 15
3 107 47 13
3 113 112 3
3 48 113 19
3 112 48 18
3 115 114 5
3 49 115 17
3 114 49 19
3 117 116 4
3 50 117 18
3 116 50 17
3 118 117 4
3 51 118 21
3 117 51 18
3 120 119 8
3 52 120 20
3 119 52 21
3 121 53 20
3 112 121 3
3 53 112 18
3 123 122 6
3 54 123 24
3 122 54 23
3 125 124 11
3 55 125 22
3 124 55 24
3 127 126 5
3 56 127 23
3 126 56 22
3 128 127 5
3 57 128 26
3 127 57 23
3 130 129 10
3 58 130 25
3 129 58 26
3 131 59 25
3 122 131 6
3 59 122 23
3 133 132 9
3 60 133 29
3 132 60 28
3 135 134 2
3 61 135 27
3 134 61 29
3 137 136 10
3 62 137 28
3 136 62 27
3 138 137 10
3 63 138 31
3 137 63 28
3 140 139 3
3 64 140 30
3 139 64 31
3 141 65 30
3 132 141 9
3 65 132 28
3 143 142 7
3 66 143 34
3 142 66 33
3 145 144 9
3 67 145 32
3 144 67 34
3 147 146 8
3 68 147 33
3 146 68 32
3 148 147 8
3 69 148 36
3 147 69 33
3 150 149 0
3 70 150 35
3 149 70 36
3 151 71 35
3 142 151 7
3 71 142 33
3 153 152 11
3 72 153 39
3 152 72 38
3 155 154 1
3 73 155 37
3 154 73 39
3 157 156 0
3 74 157 38
3 156 74 37
3 158 157 0
3 75 158 41
3 157 75 38
3 160 159 4
3 76 160 40
3 159 76 41
3 161 77 40
3 152 161 11
3 77 152 38
3 136 130 10
3 78 136 27
3 130 78 25
3 135 79 27
3 106 135 2
3 79 106 12
3 131 105 6
3 80 131 25
3 105 80 12
3 154 103 1
3 81 154 39
3 103 81 14
3 153 82 39
3 124 153 11
3 82 124 24
3 123 83 24
3 104 123 6
3 83 104 14
3 139 113 3
3 84 139 31
3 113 84 19
3 138 85 31
3 129 138 10
3 85 129 26
3 128 86 26
3 114 128 5
3 86 114 19
3 161 125 11
3 87 161 40
3 125 87 22
3 160 88 40
3 116 160 4
3 88 116 17
3 126 115 5
3 89 126 22
3 115 89 17
3 144 133 9
3 90 144 34
3 133 90 29
3 143 91 34
3 108 143 7
3 91 108 15
3 134 111 2
3 92 134 29
3 111 92 15
3 156 150 0
3 93 156 37
3 150 93 35
3 155 94 37
3 110 155 1
3 94 110 16
3 151 109 7
3 95 151 35
3 109 95 16
3 146 120 8
3 96 146 32
3 120 96 20
3 145 97 32
3 141 145 9
3 97 141 30
3 140 98 30
3 121 140 3
3 98 121 20
3 159 118 4
3 99 159 41
3 118 99 21
3 158 100 41
3 149 158 0
3 100 149 36
3 148 101 36
3 119 148 8
3 101 119 21
