ply
format ascii 1.0
element vertex 362
property float x
property float y
property float z
element face 360
property list uchar int vertex_indices
end_header
-0.00456365 -0.417174 0.663053
0.663053 -0.0193319 0.417174
0.67105 1.49012e-10 -0.414732
-0.663053 -0.0193319 -0.417174
-0.663053 0.0193319 0.417174
-0.420242 0.664691 0.00583436
0.420242 0.664691 -0.00583436
0.40979 -0.667617 0.00738411
-0.417174 -0.663053 0.00456365
-0.0193319 -0.417174 -0.663053
-0.00456365 0.417174 -0.663053
0.00456365 0.417174 0.663053
0.617962 0.381921 -0.23604
0.765458 0.0265499 0.0164087
0.628286 0.365512 0.248689
0.627472 -0.387799 -0.206855
0.627472 -0.387799 0.206855
-0.617962 0.381921 0.23604
-0.7679 -8.27842e-10 -4.13921e-10
-0.628286 0.365512 -0.248689
-0.600922 -0.404208 -0.249814
-0.628286 -0.365512 0.248689
-0.249814 0.600922 0.404208
4.13921e-10 0.7679 -8.27842e-10
0.223264 0.637613 0.361249
0.249814 0.600922 -0.404208
-0.223264 0.637613 -0.361249
0.377658 0.266223 -0.611064
-8.27842e-10 -4.13921e-10 -0.7679
0.365512 -0.248689 -0.628286
-0.381921 -0.23604 -0.617962
-0.38395 0.237294 -0.621244
-0.266223 -0.611064 -0.377658
4.13921e-10 -0.7679 8.27842e-10
0.237294 -0.621244 -0.38395
0.249814 -0.600922 0.404208
-0.223264 -0.637613 0.361249
0.377658 -0.266223 0.611064
-8.27842e-10 4.13921e-10 0.7679
0.38395 0.237294 0.621244
-0.377658 0.266223 0.611064
-0.38395 -0.237294 0.621244
0.708764 0.288394 -0.0285906
0.726434 -0.242133 0
-0.708764 0.288394 0.0285906
-0.708764 -0.288394 -0.0285906
-0.0285906 0.708764 0.288394
0.0285906 0.708764 -0.288394
0.288394 0.0285906 -0.708764
-0.288394 -0.0285906 -0.708764
-0.0285906 -0.708764 -0.288394
0.0285906 -0.708764 0.288394
0.288394 -0.0285906 0.708764
-0.288394 0.0285906 0.708764
0.466631 0.438041 -0.420371
0.420371 0.466631 0.438041
-0.420371 0.466631 -0.438041
-0.466631 0.438041 0.420371
0.466631 -0.438041 -0.420371
0.466631 -0.438041 0.420371
-0.438041 -0.420371 -0.466631
-0.420371 -0.466631 0.438041
0.679915 0.341909 0.102555
0.752708 0.151333 -0.0152273
0.720053 0.189566 0.138293
0.736563 0.00955825 0.199202
0.657182 0.186448 0.334944
0.689326 -0.31727 0.117782
0.689326 -0.31727 -0.117782
0.634584 -0.413329 0
0.539114 -0.526486 -0.120276
0.539114 -0.526486 0.120276
-0.679915 0.341909 -0.102555
-0.752708 0.151333 0.0152273
-0.720053 0.189566 -0.138293
-0.736563 0.00955825 -0.199202
-0.657182 0.186448 -0.334944
-0.679915 -0.341909 0.102555
-0.752708 -0.151333 -0.0152273
-0.720053 -0.189566 0.138293
-0.736563 -0.00955825 0.199202
-0.657182 -0.186448 0.334944
0.102555 0.679915 0.341909
-0.0152273 0.752708 0.151333
0.138293 0.720053 0.189566
0.199202 0.736563 0.00955825
0.319479 0.662228 0.20417
-0.102555 0.679915 -0.341909
0.0152273 0.752708 -0.151333
-0.138293 0.720053 -0.189566
-0.199202 0.736563 -0.00955825
-0.319479 0.662228 -0.20417
0.341909 -0.102555 -0.679915
0.151333 0.0152273 -0.752708
0.189566 -0.138293 -0.720053
0.00955825 -0.199202 -0.736563
0.186448 -0.334944 -0.657182
-0.341909 0.102555 -0.679915
-0.151333 -0.0152273 -0.752708
-0.189566 0.138293 -0.720053
-0.00955825 0.199202 -0.736563
-0.20417 0.319479 -0.662228
0.102555 -0.679915 -0.341909
-0.0152273 -0.752708 -0.151333
0.138293 -0.720053 -0.189566
0.199202 -0.736563 -0.00955825
0.319479 -0.662228 -0.20417
-0.102555 -0.679915 0.341909
0.0152273 -0.752708 0.151333
-0.138293 -0.720053 0.189566
-0.199202 -0.736563 0.00955825
-0.319479 -0.662228 0.20417
0.341909 0.102555 0.679915
0.151333 -0.0152273 0.752708
0.189566 0.138293 0.720053
0.00955825 0.199202 0.736563
0.20417 0.319479 0.662228
-0.341909 -0.102555 0.679915
-0.151333 0.0152273 0.752708
-0.189566 -0.138293 0.720053
-0.00955825 -0.199202 0.736563
-0.20417 -0.319479 0.662228
0.435438 0.347417 -0.528582
0.362644 0.537992 -0.4108
0.306724 0.445017 -0.530487
0.135742 0.529556 -0.532393
0.210077 0.334944 -0.652669
0.4108 0.362644 0.537992
0.528582 0.435438 0.347417
0.530487 0.306724 0.445017
0.532393 0.135742 0.529556
-0.4108 0.362644 -0.537992
-0.528582 0.435438 -0.347417
-0.530487 0.306724 -0.445017
-0.532393 0.135742 -0.529556
-0.435438 0.347417 0.528582
-0.362644 0.537992 0.4108
-0.306724 0.445017 0.530487
-0.135742 0.529556 0.532393
-0.210077 0.334944 0.652669
0.362644 -0.537992 -0.4108
0.435438 -0.347417 -0.528582
0.306724 -0.445017 -0.530487
0.135742 -0.529556 -0.532393
0.435438 -0.347417 0.528582
0.362644 -0.537992 0.4108
0.306724 -0.445017 0.530487
0.135742 -0.529556 0.532393
0.210077 -0.334944 0.652669
-0.347417 -0.528582 -0.435438
-0.537992 -0.4108 -0.362644
-0.445017 -0.530487 -0.306724
-0.529556 -0.532393 -0.135742
-0.334944 -0.652669 -0.210077
-0.4108 -0.362644 0.537992
-0.528582 -0.435438 0.347417
-0.530487 -0.306724 0.445017
-0.532393 -0.135742 0.529556
0.547278 0.516927 -0.140787
0.671366 0.341909 -0.138293
0.595398 0.473649 0
0.547278 0.516927 0.140787
0.744727 0 -0.178691
0.718511 0.151333 -0.199202
0.657715 0.227799 -0.319479
0.756836 -0.118146 0
0.718511 -0.151333 0.199202
0.657715 -0.227799 0.319479
0.657715 -0.227799 -0.319479
0.718512 -0.151333 -0.199202
-0.547278 0.516927 0.140787
-0.671366 0.341909 0.138293
-0.595398 0.473649 0
-0.547278 0.516927 -0.140787
-0.718511 0.151333 0.199202
-0.657715 0.227799 0.319479
-0.671366 -0.341909 -0.138293
-0.595398 -0.473649 0
-0.547278 -0.516927 0.140787
-0.718511 -0.151333 -0.199202
-0.657715 -0.227799 -0.319479
-0.138293 0.671366 0.341909
0 0.595398 0.473649
0.140787 0.547278 0.516927
-0.199202 0.718511 0.151333
-0.319479 0.657715 0.227799
0.138293 0.671366 -0.341909
0 0.595398 -0.473649
-0.140787 0.547278 -0.516927
0.199202 0.718511 -0.151333
0.319479 0.657715 -0.227799
0.516927 0.140787 -0.547278
0.341909 0.138293 -0.671366
0.473649 0 -0.595398
0.516927 -0.140787 -0.547278
0.151333 0.199202 -0.718511
-0.516927 -0.140787 -0.547278
-0.341909 -0.138293 -0.671366
-0.473649 0 -0.595398
-0.151333 -0.199202 -0.718511
-0.227799 -0.319479 -0.657715
-0.140787 -0.547278 -0.516927
-0.138293 -0.671366 -0.341909
0 -0.595398 -0.473649
-0.199202 -0.718511 -0.151333
0.138293 -0.671366 0.341909
0 -0.595398 0.473649
-0.140787 -0.547278 0.516927
0.199202 -0.718511 0.151333
0.319479 -0.657715 0.227799
0.516927 -0.140787 0.547278
0.341909 -0.138293 0.671366
0.473649 0 0.595398
0.151333 -0.199202 0.718511
-0.516927 0.140787 0.547278
-0.341909 0.138293 0.671366
-0.473649 0 0.595398
-0.151333 0.199202 0.718511
0.55322 0.414927 -0.329457
0.567178 0.244862 -0.444065
0.444065 0.567178 -0.244862
0.329457 0.55322 0.414927
0.244862 0.444065 0.567178
0.444065 0.567178 0.244862
-0.329457 0.55322 -0.414927
-0.244862 0.444065 -0.567178
-0.444065 0.567178 -0.244862
-0.55322 0.414927 0.329457
-0.567178 0.244862 0.444065
-0.444065 0.567178 0.244862
0.55322 -0.414927 -0.329457
0.444065 -0.567178 -0.244862
0.567178 -0.244862 -0.444065
0.55322 -0.414927 0.329457
0.567178 -0.244862 0.444065
0.444065 -0.567178 0.244862
-0.414927 -0.329457 -0.55322
-0.244862 -0.444065 -0.567178
-0.567178 -0.244862 -0.444065
-0.329457 -0.55322 0.414927
-0.244862 -0.444065 0.567178
-0.444065 -0.567178 0.244862
0.727741 0.227266 0.0820437
0.711595 0.13275 0.224997
0.677035 -0.360016 0
0.57254 -0.496802 0
-0.727741 0.227266 -0.0820437
-0.711595 0.13275 -0.224997
-0.727741 -0.227266 0.0820437
-0.711595 -0.13275 0.224997
0.0820437 0.727741 0.227266
0.224997 0.711595 0.13275
-0.0820437 0.727741 -0.227266
-0.224997 0.711595 -0.13275
0.227266 -0.0820437 -0.727741
0.13275 -0.224997 -0.711595
-0.227266 0.0820437 -0.727741
-0.13275 0.224997 -0.711595
0.0820437 -0.727741 -0.227266
0.224997 -0.711595 -0.13275
-0.0820437 -0.727741 0.227266
-0.224997 -0.711595 0.13275
0.227266 0.0820437 0.727741
0.13275 0.224997 0.711595
-0.227266 -0.0820437 0.727741
-0.13275 -0.224997 0.711595
0.367725 0.449768 -0.500474
0.214793 0.43979 -0.578846
0.500474 0.367725 0.449768
0.578846 0.214793 0.43979
-0.500474 0.367725 -0.449768
-0.578846 0.214793 -0.43979
-0.367725 0.449768 0.500474
-0.214793 0.43979 0.578846
0.367725 -0.449768 -0.500474
0.214793 -0.43979 -0.578846
0.367725 -0.449768 0.500474
0.214793 -0.43979 0.578846
-0.449768 -0.500474 -0.367725
-0.43979 -0.578846 -0.214793
-0.500474 -0.367725 0.449768
-0.578846 -0.214793 0.43979
0.605194 0.458569 -0.0820437
0.605194 0.458569 0.0820437
0.74425 0.0945167 -0.142953
0.693544 0.227266 -0.224997
0.74425 -0.0945167 0.142953
0.693544 -0.227266 0.224997
0.693544 -0.227266 -0.224997
0.74425 -0.0945167 -0.142953
-0.605194 0.458569 0.0820437
-0.605194 0.458569 -0.0820437
-0.74425 0.0945167 0.142953
-0.693544 0.227266 0.224997
-0.605194 -0.458569 -0.0820437
-0.605194 -0.458569 0.0820437
-0.74425 -0.0945167 -0.142953
-0.693544 -0.227266 -0.224997
-0.0820437 0.605194 0.458569
0.0820437 0.605194 0.458569
-0.142953 0.74425 0.0945167
-0.224997 0.693544 0.227266
0.0820437 0.605194 -0.458569
-0.0820437 0.605194 -0.458569
0.142953 0.74425 -0.0945167
0.224997 0.693544 -0.227266
0.458569 0.0820437 -0.605194
0.458569 -0.0820437 -0.605194
0.0945167 0.142953 -0.74425
0.227266 0.224997 -0.693544
-0.458569 -0.0820437 -0.605194
-0.458569 0.0820437 -0.605194
-0.0945167 -0.142953 -0.74425
-0.227266 -0.224997 -0.693544
-0.0820437 -0.605194 -0.458569
0.0820437 -0.605194 -0.458569
-0.142953 -0.74425 -0.0945167
-0.224997 -0.693544 -0.227266
0.0820437 -0.605194 0.458569
-0.0820437 -0.605194 0.458569
0.142953 -0.74425 0.0945167
0.224997 -0.693544 0.227266
0.458569 -0.0820437 0.605194
0.458569 0.0820437 0.605194
0.0945167 -0.142953 0.74425
0.227266 -0.224997 0.693544
-0.458569 0.0820437 0.605194
-0.458569 -0.0820437 0.605194
-0.0945167 0.142953 0.74425
-0.227266 0.224997 0.693544
0.599027 0.285681 -0.377928
0.516984 0.234975 -0.510678
0.377928 0.599027 -0.285681
0.510678 0.516984 -0.234975
0.234975 0.510678 0.516984
0.285681 0.377928 0.599027
0.510678 0.516984 0.234975
0.377928 0.599027 0.285681
-0.234975 0.510678 -0.516984
-0.285681 0.377928 -0.599027
-0.510678 0.516984 -0.234975
-0.377928 0.599027 -0.285681
-0.599027 0.285681 0.377928
-0.516984 0.234975 0.510678
-0.377928 0.599027 0.285681
-0.510678 0.516984 0.234975
0.510678 -0.516984 -0.234975
0.377928 -0.599027 -0.285681
0.516984 -0.234975 -0.510678
0.599027 -0.285681 -0.377928
0.599027 -0.285681 0.377928
0.516984 -0.234975 0.510678
0.377928 -0.599027 0.285681
0.510678 -0.516984 0.234975
-0.285681 -0.377928 -0.599027
-0.234975 -0.510678 -0.516984
-0.599027 -0.285681 -0.377928
-0.516984 -0.234975 -0.510678
-0.234975 -0.510678 0.516984
-0.285681 -0.377928 0.599027
-0.510678 -0.516984 0.234975
-0.377928 -0.599027 0.285681
4 64 242 63 13
4 66 243 65 1
4 69 244 68 15
4 71 245 70 7
4 74 246 73 18
4 76 247 75 3
4 79 248 78 18
4 81 249 80 4
4 84 250 83 23
4 86 251 85 6
4 89 252 88 23
4 91 253 90 5
4 94 254 93 28
4 96 255 95 9
4 99 256 98 28
4 101 257 100 10
4 104 258 103 33
4 106 259 105 7
4 109 260 108 33
4 111 261 110 8
4 114 262 113 38
4 116 263 115 11
4 119 264 118 38
4 121 265 120 0
4 124 266 123 25
4 126 267 125 10
4 129 268 128 14
4 130 269 66 1
4 133 270 132 19
4 134 271 76 3
4 137 272 136 22
4 139 273 138 11
4 142 274 141 29
4 143 275 96 9
4 146 276 145 35
4 148 277 147 0
4 151 278 150 20
4 153 279 152 8
4 156 280 155 21
4 157 281 81 4
4 160 282 159 42
4 161 283 62 14
4 163 284 63 42
4 164 285 159 12
4 166 286 165 43
4 167 287 67 16
4 169 288 68 43
4 169 289 162 2
4 172 290 171 44
4 173 291 72 19
4 174 292 73 44
4 175 293 171 17
4 177 294 176 45
4 178 295 77 21
4 179 296 78 45
4 180 297 176 20
4 182 298 181 46
4 183 299 82 24
4 184 300 83 46
4 185 301 181 22
4 187 302 186 47
4 188 303 87 26
4 189 304 88 47
4 190 305 186 25
4 193 306 192 48
4 194 307 92 29
4 195 308 93 48
4 195 309 126 10
4 198 310 197 49
4 198 311 134 3
4 199 312 98 49
4 200 313 197 30
4 203 314 202 50
4 203 315 143 9
4 204 316 103 50
4 204 317 153 8
4 206 318 205 51
4 207 319 107 36
4 208 320 108 51
4 209 321 205 35
4 212 322 211 52
4 212 323 130 1
4 213 324 113 52
4 213 325 148 0
4 216 326 215 53
4 216 327 157 4
4 217 328 118 53
4 217 329 139 11
4 219 330 218 54
4 219 331 191 2
4 220 332 123 54
4 220 333 158 6
4 222 334 221 55
4 222 335 116 11
4 223 336 128 55
4 223 337 86 6
4 225 338 224 56
4 225 339 101 10
4 226 340 132 56
4 226 341 91 5
4 228 342 227 57
4 228 343 214 4
4 229 344 136 57
4 229 345 170 5
4 231 346 230 58
4 231 347 106 7
4 232 348 141 58
4 232 349 168 2
4 234 350 233 59
4 234 351 210 1
4 235 352 145 59
4 235 353 71 7
4 237 354 236 60
4 237 355 201 9
4 238 356 150 60
4 238 357 196 3
4 240 358 239 61
4 240 359 121 0
4 241 360 155 61
4 241 361 111 8
4 14 62 242 64
4 42 63 242 62
4 14 64 243 66
4 13 65 243 64
4 16 67 244 69
4 43 68 244 67
4 16 69 245 71
4 15 70 245 69
4 19 72 246 74
4 44 73 246 72
4 19 74 247 76
4 18 75 247 74
4 21 77 248 79
4 45 78 248 77
4 21 79 249 81
4 18 80 249 79
4 24 82 250 84
4 46 83 250 82
4 24 84 251 86
4 23 85 251 84
4 26 87 252 89
4 47 88 252 87
4 26 89 253 91
4 23 90 253 89
4 29 92 254 94
4 48 93 254 92
4 29 94 255 96
4 28 95 255 94
4 31 97 256 99
4 49 98 256 97
4 31 99 257 101
4 28 100 257 99
4 34 102 258 104
4 50 103 258 102
4 34 104 259 106
4 33 105 259 104
4 36 107 260 109
4 51 108 260 107
4 36 109 261 111
4 33 110 261 109
4 39 112 262 114
4 52 113 262 112
4 39 114 263 116
4 38 115 263 114
4 41 117 264 119
4 53 118 264 117
4 41 119 265 121
4 38 120 265 119
4 27 122 266 124
4 54 123 266 122
4 27 124 267 126
4 25 125 267 124
4 39 127 268 129
4 55 128 268 127
4 39 129 269 130
4 14 66 269 129
4 31 131 270 133
4 56 132 270 131
4 31 133 271 134
4 19 76 271 133
4 40 135 272 137
4 57 136 272 135
4 40 137 273 139
4 22 138 273 137
4 34 140 274 142
4 58 141 274 140
4 34 142 275 143
4 29 96 275 142
4 37 144 276 146
4 59 145 276 144
4 37 146 277 148
4 35 147 277 146
4 32 149 278 151
4 60 150 278 149
4 32 151 279 153
4 20 152 279 151
4 41 154 280 156
4 61 155 280 154
4 41 156 281 157
4 21 81 281 156
4 6 158 282 160
4 12 159 282 158
4 6 160 283 161
4 42 62 283 160
4 2 162 284 163
4 13 63 284 162
4 2 163 285 164
4 42 159 285 163
4 1 65 286 166
4 13 165 286 65
4 1 166 287 167
4 43 67 287 166
4 2 168 288 169
4 15 68 288 168
4 43 165 289 169
4 13 162 289 165
4 5 170 290 172
4 17 171 290 170
4 5 172 291 173
4 44 72 291 172
4 4 80 292 174
4 18 73 292 80
4 4 174 293 175
4 44 171 293 174
4 8 152 294 177
4 20 176 294 152
4 8 177 295 178
4 45 77 295 177
4 3 75 296 179
4 18 78 296 75
4 3 179 297 180
4 45 176 297 179
4 11 138 298 182
4 22 181 298 138
4 11 182 299 183
4 46 82 299 182
4 5 90 300 184
4 23 83 300 90
4 5 184 301 185
4 46 181 301 184
4 10 125 302 187
4 25 186 302 125
4 10 187 303 188
4 47 87 303 187
4 6 85 304 189
4 23 88 304 85
4 6 189 305 190
4 47 186 305 189
4 2 191 306 193
4 27 192 306 191
4 2 193 307 194
4 48 92 307 193
4 10 100 308 195
4 28 93 308 100
4 48 192 309 195
4 27 126 309 192
4 3 196 310 198
4 30 197 310 196
4 49 97 311 198
4 31 134 311 97
4 9 95 312 199
4 28 98 312 95
4 9 199 313 200
4 49 197 313 199
4 9 201 314 203
4 32 202 314 201
4 50 102 315 203
4 34 143 315 102
4 8 110 316 204
4 33 103 316 110
4 50 202 317 204
4 32 153 317 202
4 0 147 318 206
4 35 205 318 147
4 0 206 319 207
4 51 107 319 206
4 7 105 320 208
4 33 108 320 105
4 7 208 321 209
4 51 205 321 208
4 1 210 322 212
4 37 211 322 210
4 52 112 323 212
4 39 130 323 112
4 0 120 324 213
4 38 113 324 120
4 52 211 325 213
4 37 148 325 211
4 4 214 326 216
4 40 215 326 214
4 53 117 327 216
4 41 157 327 117
4 11 115 328 217
4 38 118 328 115
4 53 215 329 217
4 40 139 329 215
4 2 164 330 219
4 12 218 330 164
4 54 122 331 219
4 27 191 331 122
4 6 190 332 220
4 25 123 332 190
4 54 218 333 220
4 12 158 333 218
4 11 183 334 222
4 24 221 334 183
4 55 127 335 222
4 39 116 335 127
4 6 161 336 223
4 14 128 336 161
4 55 221 337 223
4 24 86 337 221
4 10 188 338 225
4 26 224 338 188
4 56 131 339 225
4 31 101 339 131
4 5 173 340 226
4 19 132 340 173
4 56 224 341 226
4 26 91 341 224
4 4 175 342 228
4 17 227 342 175
4 57 135 343 228
4 40 214 343 135
4 5 185 344 229
4 22 136 344 185
4 57 227 345 229
4 17 170 345 227
4 7 70 346 231
4 15 230 346 70
4 58 140 347 231
4 34 106 347 140
4 2 194 348 232
4 29 141 348 194
4 58 230 349 232
4 15 168 349 230
4 1 167 350 234
4 16 233 350 167
4 59 144 351 234
4 37 210 351 144
4 7 209 352 235
4 35 145 352 209
4 59 233 353 235
4 16 71 353 233
4 9 200 354 237
4 30 236 354 200
4 60 149 355 237
4 32 201 355 149
4 3 180 356 238
4 20 150 356 180
4 60 236 357 238
4 30 196 357 236
4 0 207 358 240
4 36 239 358 207
4 61 154 359 240
4 41 121 359 154
4 8 178 360 241
4 21 155 360 178
4 61 239 361 241
4 36 111 361 239
