ply
format ascii 1.0
element vertex 62
property float x
property float y
property float z
element face 60
property list uchar int vertex_indices
end_header
0 -0.428859 0.693908
0.693908 0 0.428859
0.693908 0 -0.428859
-0.693908 0 -0.428859
-0.693908 0 0.428859
-0.428859 0.693908 0
0.428859 0.693908 0
0.428859 -0.693908 0
-0.428859 -0.693908 0
0 -0.428859 -0.693908
0 0.428859 -0.693908
0 0.428859 0.693908
0.64438 0.398249 -0.246131
0.796498 0 0
0.64438 0.398249 0.246131
0.64438 -0.398249 -0.246131
0.64438 -0.398249 0.246131
-0.64438 0.398249 0.246131
-0.796498 0 0
-0.64438 0.398249 -0.246131
-0.64438 -0.398249 -0.246131
-0.64438 -0.398249 0.246131
-0.246131 0.64438 0.398249
0 0.796498 0
0.246131 0.64438 0.398249
0.246131 0.64438 -0.398249
-0.246131 0.64438 -0.398249
0.398249 0.246131 -0.64438
0 0 -0.796498
0.398249 -0.246131 -0.64438
-0.398249 -0.246131 -0.64438
-0.398249 0.246131 -0.64438
-0.246131 -0.64438 -0.398249
0 -0.796498 0
0.246131 -0.64438 -0.398249
0.246131 -0.64438 0.398249
-0.246131 -0.64438 0.398249
0.398249 -0.246131 0.64438
0 0 0.796498
0.398249 0.246131 0.64438
-0.398249 0.246131 0.64438
-0.398249 -0.246131 0.64438
0.742344 0.28355 0
0.742344 -0.28355 0
-0.742344 0.28355 0
-0.742344 -0.28355 0
0 0.742344 0.28355
0 0.742344 -0.28355
0.28355 0 -0.742344
-0.28355 0 -0.742344
0 -0.742344 -0.28355
0 -0.742344 0.28355
0.28355 0 0.742344
-0.28355 0 0.742344
0.458794 0.458794 -0.458794
0.458794 0.458794 0.458794
-0.458794 0.458794 -0.458794
-0.458794 0.458794 0.458794
0.458794 -0.458794 -0.458794
0.458794 -0.458794 0.458794
-0.458794 -0.458794 -0.458794
-0.458794 -0.458794 0.458794
4 14 42 13 1
4 16 43 15 7
4 19 44 18 3
4 21 45 18 4
4 24 46 23 6
4 26 47 23 5
4 29 48 28 9
4 31 49 28 10
4 34 50 33 7
4 36 51 33 8
4 39 52 38 11
4 41 53 38 0
4 27 54 25 10
4 39 55 14 1
4 31 56 19 3
4 40 57 22 11
4 34 58 29 9
4 37 59 35 0
4 32 60 20 8
4 41 61 21 4
4 6 12 42 14
4 2 13 42 12
4 1 13 43 16
4 2 15 43 13
4 5 17 44 19
4 4 18 44 17
4 8 20 45 21
4 3 18 45 20
4 11 22 46 24
4 5 23 46 22
4 10 25 47 26
4 6 23 47 25
4 2 27 48 29
4 10 28 48 27
4 3 30 49 31
4 9 28 49 30
4 9 32 50 34
4 8 33 50 32
4 0 35 51 36
4 7 33 51 35
4 1 37 52 39
4 0 38 52 37
4 4 40 53 41
4 11 38 53 40
4 2 12 54 27
4 6 25 54 12
4 11 24 55 39
4 6 14 55 24
4 10 26 56 31
4 5 19 56 26
4 4 17 57 40
4 5 22 57 17
4 7 15 58 34
4 2 29 58 15
4 1 16 59 37
4 7 35 59 16
4 9 30 60 32
4 3 20 60 30
4 0 36 61 41
4 8 21 61 36
