ply
format ascii 1.0
element vertex 162
property float x
property float y
property float z
element face 320
property list uchar int vertex_indices
end_header
5.88422e-09 -0.421589 0.682145
0.682145 0 0.421589
0.682145 0 -0.421589
-0.682145 0 -0.421589
-0.682145 0 0.421589
-0.421589 0.682145 0
0.421589 0.682145 0
0.421589 -0.682145 0
-0.421589 -0.682145 0
5.88422e-09 -0.421589 -0.682145
5.88422e-09 0.421589 -0.682145
5.88422e-09 0.421589 0.682145
-0.236114 -0.618154 0.38204
-0.618154 -0.38204 0.236114
-0.38204 -0.236114 0.618154
0.236114 -0.618154 0.38204
2.32831e-09 -0.76408 0
0.38204 -0.236114 0.618154
0.618154 -0.38204 0.236114
0 0 0.76408
0.38204 0.236114 0.618154
-0.38204 0.236114 0.618154
0.618154 -0.38204 -0.236114
0.76408 0 0
0.618154 0.38204 -0.236114
0.618154 0.38204 0.236114
0.236114 0.618154 0.38204
0.236114 -0.618154 -0.38204
0.38204 -0.236114 -0.618154
0.38204 0.236114 -0.618154
0 0 -0.76408
0.236114 0.618154 -0.38204
-0.236114 -0.618154 -0.38204
-0.38204 -0.236114 -0.618154
-0.618154 -0.38204 -0.236114
-0.76408 0 0
-0.618154 0.38204 0.236114
-0.618154 0.38204 -0.236114
-0.236114 0.618154 -0.38204
-0.38204 0.236114 -0.618154
-0.236114 0.618154 0.38204
2.32831e-09 0.76408 0
-0.183171 -0.350022 0.679554
-0.202509 -0.120658 0.725404
1.39698e-09 -0.236816 0.749519
-0.113206 -0.533194 0.566348
-0.327666 -0.448325 0.522895
0.113206 -0.533194 0.566348
9.31323e-10 -0.650833 0.397738
0.183171 -0.350022 0.679554
0.327666 -0.448325 0.522895
0.202509 -0.120658 0.725404
0.566348 0.113206 0.533194
0.522895 0.327666 0.448325
0.679554 0.183171 0.350022
0.566348 -0.113206 0.533194
0.397738 0 0.650833
0.679554 -0.183171 0.350022
0.522895 -0.327666 0.448325
0.749519 0 0.236816
0.725404 -0.202509 0.120658
0.725404 0.202509 0.120658
0.679554 0.183171 -0.350022
0.522895 0.327666 -0.448325
0.566348 0.113206 -0.533194
0.749519 0 -0.236816
0.725404 0.202509 -0.120658
0.679554 -0.183171 -0.350022
0.725404 -0.202509 -0.120658
0.566348 -0.113206 -0.533194
0.522895 -0.327666 -0.448325
0.397738 0 -0.650833
-0.566348 0.113206 -0.533194
-0.522895 0.327666 -0.448325
-0.679554 0.183171 -0.350022
-0.566348 -0.113206 -0.533194
-0.397738 0 -0.650833
-0.679554 -0.183171 -0.350022
-0.522895 -0.327666 -0.448325
-0.749519 0 -0.236816
-0.725404 -0.202509 -0.120658
-0.725404 0.202509 -0.120658
-0.749519 0 0.236816
-0.725404 0.202509 0.120658
-0.679554 0.183171 0.350022
-0.679554 -0.183171 0.350022
-0.725404 -0.202509 0.120658
-0.566348 -0.113206 0.533194
-0.522895 -0.327666 0.448325
-0.566348 0.113206 0.533194
-0.397738 0 0.650833
-0.522895 0.327666 0.448325
-0.533194 0.566348 -0.113206
-0.448325 0.522895 -0.327666
-0.350022 0.679554 -0.183171
-0.533194 0.566348 0.113206
-0.650833 0.397738 0
-0.350022 0.679554 0.183171
-0.448325 0.522895 0.327666
-0.236816 0.749519 0
-0.120658 0.725404 0.202509
-0.120658 0.725404 -0.202509
0.350022 0.679554 -0.183171
0.448325 0.522895 -0.327666
0.533194 0.566348 -0.113206
0.236817 0.749519 0
0.120658 0.725404 -0.202509
0.350022 0.679554 0.183171
0.120658 0.725404 0.202509
0.533194 0.566348 0.113206
0.448325 0.522895 0.327666
0.650833 0.397738 0
0.533194 -0.566348 -0.113206
0.448325 -0.522895 -0.327666
0.350022 -0.679554 -0.183171
0.533194 -0.566348 0.113206
0.650833 -0.397738 0
0.350022 -0.679554 0.183171
0.448325 -0.522895 0.327666
0.236817 -0.749519 0
0.120658 -0.725404 0.202509
0.120658 -0.725404 -0.202509
-0.533194 -0.566348 -0.113206
-0.650833 -0.397738 0
-0.533194 -0.566348 0.113206
-0.350022 -0.679554 -0.183171
-0.448325 -0.522895 -0.327666
-0.236816 -0.749519 0
-0.120658 -0.725404 -0.202509
-0.350022 -0.679554 0.183171
-0.120658 -0.725404 0.202509
-0.448325 -0.522895 0.327666
-0.183171 -0.350022 -0.679554
-0.327666 -0.448325 -0.522895
-0.113206 -0.533194 -0.566348
1.39698e-09 -0.236816 -0.749519
-0.202509 -0.120658 -0.725404
0.183171 -0.350022 -0.679554
0.202509 -0.120658 -0.725404
0.113206 -0.533194 -0.566348
0.327666 -0.448325 -0.522895
9.31323e-10 -0.650833 -0.397738
-0.113206 0.533194 -0.566348
-0.327666 0.448325 -0.522895
-0.183171 0.350022 -0.679554
0.113206 0.533194 -0.566348
9.31323e-10 0.650833 -0.397738
0.183171 0.350022 -0.679554
0.327666 0.448325 -0.522895
1.39698e-09 0.236816 -0.749519
0.202509 0.120658 -0.725404
-0.202509 0.120658 -0.725404
0.113206 0.533194 0.566348
0.327666 0.448325 0.522895
0.183171 0.350022 0.679554
-0.113206 0.533194 0.566348
9.31323e-10 0.650833 0.397738
-0.183171 0.350022 0.679554
-0.327666 0.448325 0.522895
1.39698e-09 0.236816 0.749519
-0.202509 0.120658 0.725404
0.202509 0.120658 0.725404
3 93 73 143
3 39 143 73
3 37 73 93
3 38 93 143
3 83 81 96
3 37 96 81
3 35 81 83
3 36 83 96
3 133 78 126
3 34 126 78
3 33 78 133
3 32 133 126
3 106 101 146
3 38 146 101
3 41 101 106
3 31 106 146
3 136 151 76
3 39 76 151
3 30 151 136
3 33 136 76
3 150 138 71
3 28 71 138
3 30 138 150
3 29 150 71
3 100 108 156
3 26 156 108
3 41 108 100
3 40 100 156
3 63 103 148
3 31 148 103
3 24 103 63
3 29 63 148
3 66 61 111
3 25 111 61
3 23 61 66
3 24 66 111
3 113 70 140
3 28 140 70
3 22 70 113
3 27 113 140
3 91 98 158
3 40 158 98
3 36 98 91
3 21 91 158
3 110 53 153
3 20 153 53
3 25 53 110
3 26 110 153
3 116 60 68
3 23 68 60
3 18 60 116
3 22 116 68
3 51 161 56
3 20 56 161
3 19 161 51
3 17 51 56
3 128 121 141
3 27 141 121
3 16 121 128
3 32 128 141
3 58 118 50
3 15 50 118
3 18 118 58
3 17 58 50
3 160 43 90
3 14 90 43
3 19 43 160
3 21 160 90
3 80 86 123
3 13 123 86
3 35 86 80
3 34 80 123
3 131 88 46
3 14 46 88
3 13 88 131
3 12 131 46
3 120 130 48
3 12 48 130
3 16 130 120
3 15 120 48
3 0 42 44
3 14 43 42
3 19 44 43
3 42 43 44
3 0 45 42
3 12 46 45
3 14 42 46
3 45 46 42
3 0 47 45
3 15 48 47
3 12 45 48
3 47 48 45
3 0 49 47
3 17 50 49
3 15 47 50
3 49 50 47
3 0 44 49
3 19 51 44
3 17 49 51
3 44 51 49
3 1 52 54
3 20 53 52
3 25 54 53
3 52 53 54
3 1 55 52
3 17 56 55
3 20 52 56
3 55 56 52
3 1 57 55
3 18 58 57
3 17 55 58
3 57 58 55
3 1 59 57
3 23 60 59
3 18 57 60
3 59 60 57
3 1 54 59
3 25 61 54
3 23 59 61
3 54 61 59
3 2 62 64
3 24 63 62
3 29 64 63
3 62 63 64
3 2 65 62
3 23 66 65
3 24 62 66
3 65 66 62
3 2 67 65
3 22 68 67
3 23 65 68
3 67 68 65
3 2 69 67
3 28 70 69
3 22 67 70
3 69 70 67
3 2 64 69
3 29 71 64
3 28 69 71
3 64 71 69
3 3 72 74
3 39 73 72
3 37 74 73
3 72 73 74
3 3 75 72
3 33 76 75
3 39 72 76
3 75 76 72
3 3 77 75
3 34 78 77
3 33 75 78
3 77 78 75
3 3 79 77
3 35 80 79
3 34 77 80
3 79 80 77
3 3 74 79
3 37 81 74
3 35 79 81
3 74 81 79
3 4 82 84
3 35 83 82
3 36 84 83
3 82 83 84
3 4 85 82
3 13 86 85
3 35 82 86
3 85 86 82
3 4 87 85
3 14 88 87
3 13 85 88
3 87 88 85
3 4 89 87
3 21 90 89
3 14 87 90
3 89 90 87
3 4 84 89
3 36 91 84
3 21 89 91
3 84 91 89
3 5 92 94
3 37 93 92
3 38 94 93
3 92 93 94
3 5 95 92
3 36 96 95
3 37 92 96
3 95 96 92
3 5 97 95
3 40 98 97
3 36 95 98
3 97 98 95
3 5 99 97
3 41 100 99
3 40 97 100
3 99 100 97
3 5 94 99
3 38 101 94
3 41 99 101
3 94 101 99
3 6 102 104
3 31 103 102
3 24 104 103
3 102 103 104
3 6 105 102
3 41 106 105
3 31 102 106
3 105 106 102
3 6 107 105
3 26 108 107
3 41 105 108
3 107 108 105
3 6 109 107
3 25 110 109
3 26 107 110
3 109 110 107
3 6 104 109
3 24 111 104
3 25 109 111
3 104 111 109
3 7 112 114
3 22 113 112
3 27 114 113
3 112 113 114
3 7 115 112
3 18 116 115
3 22 112 116
3 115 116 112
3 7 117 115
3 15 118 117
3 18 115 118
3 117 118 115
3 7 119 117
3 16 120 119
3 15 117 120
3 119 120 117
3 7 114 119
3 27 121 114
3 16 119 121
3 114 121 119
3 8 122 124
3 34 123 122
3 13 124 123
3 122 123 124
3 8 125 122
3 32 126 125
3 34 122 126
3 125 126 122
3 8 127 125
3 16 128 127
3 32 125 128
3 127 128 125
3 8 129 127
3 12 130 129
3 16 127 130
3 129 130 127
3 8 124 129
3 13 131 124
3 12 129 131
3 124 131 129
3 9 132 134
3 33 133 132
3 32 134 133
3 132 133 134
3 9 135 132
3 30 136 135
3 33 132 136
3 135 136 132
3 9 137 135
3 28 138 137
3 30 135 138
3 137 138 135
3 9 139 137
3 27 140 139
3 28 137 140
3 139 140 137
3 9 134 139
3 32 141 134
3 27 139 141
3 134 141 139
3 10 142 144
3 38 143 142
3 39 144 143
3 142 143 144
3 10 145 142
3 31 146 145
3 38 142 146
3 145 146 142
3 10 147 145
3 29 148 147
3 31 145 148
3 147 148 145
3 10 149 147
3 30 150 149
3 29 147 150
3 149 150 147
3 10 144 149
3 39 151 144
3 30 149 151
3 144 151 149
3 11 152 154
3 26 153 152
3 20 154 153
3 152 153 154
3 11 155 152
3 40 156 155
3 26 152 156
3 155 156 152
3 11 157 155
3 21 158 157
3 40 155 158
3 157 158 155
3 11 159 157
3 19 160 159
3 21 157 160
3 159 160 157
3 11 154 159
3 20 161 154
3 19 159 161
3 154 161 159
