ply
format ascii 1.0
element vertex 642
property float x
property float y
property float z
element face 1280
property list uchar int vertex_indices
end_header
0 -0.373432 0.604226
0.604226 0 0.373432
0.604226 0 -0.373432
-0.604226 0 -0.373432
-0.604226 0 0.373432
-0.373432 0.604226 0
0.373432 0.604226 0
0.373432 -0.604226 0
-0.373432 -0.604226 0
0 -0.373432 -0.604226
0 0.373432 -0.604226
0 0.373432 0.604226
0.5706 0.35265 -0.217949
0.7053 0 -1.16416e-09
0.5706 0.35265 0.217949
0.5706 -0.35265 -0.217949
0.5706 -0.35265 0.217949
-0.5706 0.35265 0.217949
-0.7053 0 1.16416e-09
-0.5706 0.35265 -0.217949
-0.5706 -0.35265 -0.217949
-0.5706 -0.35265 0.217949
-0.217949 0.5706 0.35265
-1.16416e-09 0.7053 0
0.217949 0.5706 0.35265
0.217949 0.5706 -0.35265
-0.217949 0.5706 -0.35265
0.35265 0.217949 -0.5706
0 1.16416e-09 -0.7053
0.35265 -0.217949 -0.5706
-0.35265 -0.217949 -0.5706
-0.35265 0.217949 -0.5706
-0.217949 -0.5706 -0.35265
-1.16416e-09 -0.7053 0
0.217949 -0.5706 -0.35265
0.217949 -0.5706 0.35265
-0.217949 -0.5706 0.35265
0.35265 -0.217949 0.5706
0 -1.16416e-09 0.7053
0.35265 0.217949 0.5706
-0.35265 0.217949 0.5706
-0.35265 -0.217949 0.5706
0.669961 0.188694 0.108745
0.602753 0.364648 0
0.669961 0.188694 -0.108745
0.602753 -0.364648 0
0.669961 -0.188694 0.108745
0.669961 -0.188694 -0.108745
-0.669961 0.188694 -0.108745
-0.602753 0.364648 0
-0.669961 0.188694 0.108745
-0.669961 -0.188694 0.108745
-0.602753 -0.364648 0
-0.669961 -0.188694 -0.108745
0.108745 0.669961 0.188694
0 0.602753 0.364648
-0.108745 0.669961 0.188694
-0.108745 0.669961 -0.188694
0 0.602753 -0.364648
0.108745 0.669961 -0.188694
0.188694 -0.108745 -0.669961
0.364648 0 -0.602753
0.188694 0.108745 -0.669961
-0.188694 0.108745 -0.669961
-0.364648 0 -0.602753
-0.188694 -0.108745 -0.669961
0.108745 -0.669961 -0.188694
0 -0.602753 -0.364648
-0.108745 -0.669961 -0.188694
-0.108745 -0.669961 0.188694
0 -0.602753 0.364648
0.108745 -0.669961 0.188694
0.188694 0.108745 0.669961
0.364648 0 0.602753
0.188694 -0.108745 0.669961
-0.188694 -0.108745 0.669961
-0.364648 0 0.602753
-0.188694 0.108745 0.669961
0.305314 0.414059 -0.481267
0.481267 0.305314 -0.414059
0.414059 0.481267 -0.305314
0.481267 0.305314 0.414059
0.305314 0.414059 0.481267
0.414059 0.481267 0.305314
-0.481267 0.305314 -0.414059
-0.305314 0.414059 -0.481267
-0.414059 0.481267 -0.305314
-0.305314 0.414059 0.481267
-0.481267 0.305314 0.414059
-0.414059 0.481267 0.305314
0.305314 -0.414059 -0.481267
0.414059 -0.481267 -0.305314
0.481267 -0.305314 -0.414059
0.305314 -0.414059 0.481267
0.481267 -0.305314 0.414059
0.414059 -0.481267 0.305314
-0.414059 -0.481267 -0.305314
-0.305314 -0.414059 -0.481267
-0.481267 -0.305314 -0.414059
-0.481267 -0.305314 0.414059
-0.305314 -0.414059 0.481267
-0.414059 -0.481267 0.305314
0.676782 0 0.208911
0.612086 0.169378 0.313593
0.482971 0.507404 0.104682
0.482971 0.507404 -0.104682
0.612086 0.169378 -0.313593
0.676782 0 -0.208911
0.482971 -0.507404 -0.104682
0.482971 -0.507404 0.104682
0.612086 -0.169378 0.313593
0.612086 -0.169378 -0.313593
-0.676782 0 -0.208911
-0.612086 0.169378 -0.313593
-0.482971 0.507404 -0.104682
-0.482971 0.507404 0.104682
-0.612086 0.169378 0.313593
-0.676782 0 0.208911
-0.612086 -0.169378 0.313593
-0.482971 -0.507404 0.104682
-0.482971 -0.507404 -0.104682
-0.612086 -0.169378 -0.313593
0.208911 0.676782 0
0.313593 0.612086 0.169378
0.104682 0.482971 0.507404
-0.104682 0.482971 0.507404
-0.313593 0.612086 0.169378
-0.208911 0.676782 0
-0.313593 0.612086 -0.169378
-0.104682 0.482971 -0.507404
0.104682 0.482971 -0.507404
0.313593 0.612086 -0.169378
0 -0.208911 -0.676782
0.169378 -0.313593 -0.612086
0.507404 -0.104682 -0.482971
0.507404 0.104682 -0.482971
0.169378 0.313593 -0.612086
0 0.208911 -0.676782
-0.169378 0.313593 -0.612086
-0.507404 0.104682 -0.482971
-0.507404 -0.104682 -0.482971
-0.169378 -0.313593 -0.612086
0.208911 -0.676782 0
0.313593 -0.612086 -0.169378
0.104682 -0.482971 -0.507404
-0.104682 -0.482971 -0.507404
-0.313593 -0.612086 -0.169378
-0.208911 -0.676782 0
-0.313593 -0.612086 0.169378
-0.104682 -0.482971 0.507404
0.104682 -0.482971 0.507404
0.313593 -0.612086 0.169378
0 0.208911 0.676782
0.169378 0.313593 0.612086
0.507404 0.104682 0.482971
0.507404 -0.104682 0.482971
0.169378 -0.313593 0.612086
0 -0.208911 0.676782
-0.169378 -0.313593 0.612086
-0.507404 -0.104682 0.482971
-0.507404 0.104682 0.482971
-0.169378 0.313593 0.612086
0.643369 0.279867 -0.0552097
0.67749 0.190535 -2.32831e-10
0.643369 0.279867 0.0552097
0.67749 -0.190535 -2.32831e-10
0.643369 -0.279867 -0.0552097
0.643369 -0.279867 0.0552097
-0.643369 0.279867 0.0552097
-0.67749 0.190535 2.32831e-10
-0.643369 0.279867 -0.0552097
-0.643369 -0.279867 -0.0552097
-0.67749 -0.190535 2.32831e-10
-0.643369 -0.279867 0.0552097
-0.0552097 0.643369 0.279867
-2.32831e-10 0.67749 0.190535
0.0552097 0.643369 0.279867
0.0552097 0.643369 -0.279867
-2.32831e-10 0.67749 -0.190535
-0.0552097 0.643369 -0.279867
0.279867 0.0552097 -0.643369
0.190535 2.32831e-10 -0.67749
0.279867 -0.0552097 -0.643369
-0.279867 -0.0552097 -0.643369
-0.190535 2.32831e-10 -0.67749
-0.279867 0.0552097 -0.643369
-0.0552097 -0.643369 -0.279867
-2.32831e-10 -0.67749 -0.190535
0.0552097 -0.643369 -0.279867
0.0552097 -0.643369 0.279867
-2.32831e-10 -0.67749 0.190535
-0.0552097 -0.643369 0.279867
0.279867 -0.0552097 0.643369
0.190535 -2.32831e-10 0.67749
0.279867 0.0552097 0.643369
-0.279867 0.0552097 0.643369
-0.190535 -2.32831e-10 0.67749
-0.279867 -0.0552097 0.643369
0.452834 0.397624 -0.363503
0.363503 0.452834 -0.397624
0.397624 0.363503 -0.452834
0.363503 0.452834 0.397624
0.452834 0.397624 0.363503
0.397624 0.363503 0.452834
-0.363503 0.452834 -0.397624
-0.452834 0.397624 -0.363503
-0.397624 0.363503 -0.452834
-0.452834 0.397624 0.363503
-0.363503 0.452834 0.397624
-0.397624 0.363503 0.452834
0.452834 -0.397624 -0.363503
0.397624 -0.363503 -0.452834
0.363503 -0.452834 -0.397624
0.452834 -0.397624 0.363503
0.363503 -0.452834 0.397624
0.397624 -0.363503 0.452834
-0.397624 -0.363503 -0.452834
-0.452834 -0.397624 -0.363503
-0.363503 -0.452834 -0.397624
-0.363503 -0.452834 0.397624
-0.452834 -0.397624 0.363503
-0.397624 -0.363503 0.452834
0.653566 0.0892895 0.259452
0.647722 0.182261 0.214652
0.68148 0.0938815 0.160031
0.493216 0.509093 0
0.548817 0.441197 -0.0546215
0.548817 0.441197 0.0546215
0.653566 0.0892895 -0.259452
0.68148 0.0938815 -0.160031
0.647722 0.182261 -0.214652
0.493216 -0.509093 0
0.548817 -0.441197 0.0546215
0.548817 -0.441197 -0.0546215
0.647722 -0.182261 0.214652
0.653566 -0.0892895 0.259452
0.68148 -0.0938815 0.160031
0.653566 -0.0892895 -0.259452
0.647722 -0.182261 -0.214652
0.68148 -0.0938815 -0.160031
-0.653566 0.0892895 -0.259452
-0.647722 0.182261 -0.214652
-0.68148 0.0938815 -0.160031
-0.493216 0.509093 0
-0.548817 0.441197 0.0546215
-0.548817 0.441197 -0.0546215
-0.653566 0.0892895 0.259452
-0.68148 0.0938815 0.160031
-0.647722 0.182261 0.214652
-0.653566 -0.0892895 0.259452
-0.647722 -0.182261 0.214652
-0.68148 -0.0938815 0.160031
-0.493216 -0.509093 0
-0.548817 -0.441197 -0.0546215
-0.548817 -0.441197 0.0546215
-0.647722 -0.182261 -0.214652
-0.653566 -0.0892895 -0.259452
-0.68148 -0.0938815 -0.160031
0.259452 0.653566 0.0892895
0.214652 0.647722 0.182261
0.160031 0.68148 0.0938815
0 0.493216 0.509093
-0.0546215 0.548817 0.441197
0.0546215 0.548817 0.441197
-0.259452 0.653566 0.0892895
-0.160031 0.68148 0.0938815
-0.214652 0.647722 0.182261
-0.259452 0.653566 -0.0892895
-0.214652 0.647722 -0.182261
-0.160031 0.68148 -0.0938815
0 0.493216 -0.509093
0.0546215 0.548817 -0.441197
-0.0546215 0.548817 -0.441197
0.214652 0.647722 -0.182261
0.259452 0.653566 -0.0892895
0.160031 0.68148 -0.0938815
0.0892895 -0.259452 -0.653566
0.182261 -0.214652 -0.647722
0.0938815 -0.160031 -0.68148
0.509093 0 -0.493216
0.441197 0.0546215 -0.548817
0.441197 -0.0546215 -0.548817
0.0892895 0.259452 -0.653566
0.0938815 0.160031 -0.68148
0.182261 0.214652 -0.647722
-0.0892895 0.259452 -0.653566
-0.182261 0.214652 -0.647722
-0.0938815 0.160031 -0.68148
-0.509093 0 -0.493216
-0.441197 -0.0546215 -0.548817
-0.441197 0.0546215 -0.548817
-0.182261 -0.214652 -0.647722
-0.0892895 -0.259452 -0.653566
-0.0938815 -0.160031 -0.68148
0.259452 -0.653566 -0.0892895
0.214652 -0.647722 -0.182261
0.160031 -0.68148 -0.0938815
0 -0.493216 -0.509093
-0.0546215 -0.548817 -0.441197
0.0546215 -0.548817 -0.441197
-0.259452 -0.653566 -0.0892895
-0.160031 -0.68148 -0.0938815
-0.214652 -0.647722 -0.182261
-0.259452 -0.653566 0.0892895
-0.214652 -0.647722 0.182261
-0.160031 -0.68148 0.0938815
0 -0.493216 0.509093
0.0546215 -0.548817 0.441197
-0.0546215 -0.548817 0.441197
0.214652 -0.647722 0.182261
0.259452 -0.653566 0.0892895
0.160031 -0.68148 0.0938815
0.0892895 0.259452 0.653566
0.182261 0.214652 0.647722
0.0938815 0.160031 0.68148
0.509093 0 0.493216
0.441197 -0.0546215 0.548817
0.441197 0.0546215 0.548817
0.0892895 -0.259452 0.653566
0.0938815 -0.160031 0.68148
0.182261 -0.214652 0.647722
-0.0892895 -0.259452 0.653566
-0.182261 -0.214652 0.647722
-0.0938815 -0.160031 0.68148
-0.509093 0 0.493216
-0.441197 0.0546215 0.548817
-0.441197 -0.0546215 0.548817
-0.182261 0.214652 0.647722
-0.0892895 0.259452 0.653566
-0.0938815 0.160031 0.68148
0.144474 0.403926 -0.564277
0.240283 0.366556 -0.553841
0.206525 0.454936 -0.499219
0.499219 0.206525 -0.454936
0.564277 0.144474 -0.403926
0.553841 0.240283 -0.366556
0.403926 0.564277 -0.144474
0.366556 0.553841 -0.240283
0.454936 0.499219 -0.206525
0.564277 0.144474 0.403926
0.499219 0.206525 0.454936
0.553841 0.240283 0.366556
0.240283 0.366556 0.553841
0.144474 0.403926 0.564277
0.206525 0.454936 0.499219
0.366556 0.553841 0.240283
0.403926 0.564277 0.144474
0.454936 0.499219 0.206525
-0.564277 0.144474 -0.403926
-0.499219 0.206525 -0.454936
-0.553841 0.240283 -0.366556
-0.240283 0.366556 -0.553841
-0.144474 0.403926 -0.564277
-0.206525 0.454936 -0.499219
-0.366556 0.553841 -0.240283
-0.403926 0.564277 -0.144474
-0.454936 0.499219 -0.206525
-0.144474 0.403926 0.564277
-0.240283 0.366556 0.553841
-0.206525 0.454936 0.499219
-0.499219 0.206525 0.454936
-0.564277 0.144474 0.403926
-0.553841 0.240283 0.366556
-0.403926 0.564277 0.144474
-0.366556 0.553841 0.240283
-0.454936 0.499219 0.206525
0.144474 -0.403926 -0.564277
0.206525 -0.454936 -0.499219
0.240283 -0.366556 -0.553841
0.366556 -0.553841 -0.240283
0.403926 -0.564277 -0.144474
0.454936 -0.499219 -0.206525
0.564277 -0.144474 -0.403926
0.499219 -0.206525 -0.454936
0.553841 -0.240283 -0.366556
0.144474 -0.403926 0.564277
0.240283 -0.366556 0.553841
0.206525 -0.454936 0.499219
0.499219 -0.206525 0.454936
0.564277 -0.144474 0.403926
0.553841 -0.240283 0.366556
0.403926 -0.564277 0.144474
0.366556 -0.553841 0.240283
0.454936 -0.499219 0.206525
-0.403926 -0.564277 -0.144474
-0.366556 -0.553841 -0.240283
-0.454936 -0.499219 -0.206525
-0.206525 -0.454936 -0.499219
-0.144474 -0.403926 -0.564277
-0.240283 -0.366556 -0.553841
-0.499219 -0.206525 -0.454936
-0.564277 -0.144474 -0.403926
-0.553841 -0.240283 -0.366556
-0.564277 -0.144474 0.403926
-0.499219 -0.206525 0.454936
-0.553841 -0.240283 0.366556
-0.240283 -0.366556 0.553841
-0.144474 -0.403926 0.564277
-0.206525 -0.454936 0.499219
-0.366556 -0.553841 0.240283
-0.403926 -0.564277 0.144474
-0.454936 -0.499219 0.206525
0.594628 0.361876 -0.110394
0.627889 0.274798 -0.16421
0.696115 0.0961775 -0.0538166
0.696115 0.0961775 0.0538166
0.627889 0.274798 0.16421
0.594628 0.361876 0.110394
0.696115 -0.0961775 0.0538166
0.696115 -0.0961775 -0.0538166
0.627889 -0.274798 -0.16421
0.594628 -0.361876 -0.110394
0.594628 -0.361876 0.110394
0.627889 -0.274798 0.16421
-0.594628 0.361876 0.110394
-0.627889 0.274798 0.16421
-0.696115 0.0961775 0.0538166
-0.696115 0.0961775 -0.0538166
-0.627889 0.274798 -0.16421
-0.594628 0.361876 -0.110394
-0.594628 -0.361876 -0.110394
-0.627889 -0.274798 -0.16421
-0.696115 -0.0961775 -0.0538166
-0.696115 -0.0961775 0.0538166
-0.627889 -0.274798 0.16421
-0.594628 -0.361876 0.110394
-0.110394 0.594628 0.361876
-0.16421 0.627889 0.274798
-0.0538166 0.696115 0.0961775
0.0538166 0.696115 0.0961775
0.16421 0.627889 0.274798
0.110394 0.594628 0.361876
0.110394 0.594628 -0.361876
0.16421 0.627889 -0.274798
0.0538166 0.696115 -0.0961775
-0.0538166 0.696115 -0.0961775
-0.16421 0.627889 -0.274798
-0.110394 0.594628 -0.361876
0.361876 0.110394 -0.594628
0.274798 0.16421 -0.627889
0.0961775 0.0538166 -0.696115
0.0961775 -0.0538166 -0.696115
0.274798 -0.16421 -0.627889
0.361876 -0.110394 -0.594628
-0.361876 -0.110394 -0.594628
-0.274798 -0.16421 -0.627889
-0.0961775 -0.0538166 -0.696115
-0.0961775 0.0538166 -0.696115
-0.274798 0.16421 -0.627889
-0.361876 0.110394 -0.594628
-0.110394 -0.594628 -0.361876
-0.16421 -0.627889 -0.274798
-0.0538166 -0.696115 -0.0961775
0.0538166 -0.696115 -0.0961775
0.16421 -0.627889 -0.274798
0.110394 -0.594628 -0.361876
0.110394 -0.594628 0.361876
0.16421 -0.627889 0.274798
0.0538166 -0.696115 0.0961775
-0.0538166 -0.696115 0.0961775
-0.16421 -0.627889 0.274798
-0.110394 -0.594628 0.361876
0.361876 -0.110394 0.594628
0.274798 -0.16421 0.627889
0.0961775 -0.0538166 0.696115
0.0961775 0.0538166 0.696115
0.274798 0.16421 0.627889
0.361876 0.110394 0.594628
-0.361876 0.110394 0.594628
-0.274798 0.16421 0.627889
-0.0961775 0.0538166 0.696115
-0.0961775 -0.0538166 0.696115
-0.274798 -0.16421 0.627889
-0.361876 -0.110394 0.594628
0.531711 0.33424 -0.319829
0.49845 0.421317 -0.266013
0.319829 0.531711 -0.33424
0.266013 0.49845 -0.421317
0.33424 0.319829 -0.531711
0.421317 0.266013 -0.49845
0.266013 0.49845 0.421317
0.319829 0.531711 0.33424
0.49845 0.421317 0.266013
0.531711 0.33424 0.319829
0.421317 0.266013 0.49845
0.33424 0.319829 0.531711
-0.266013 0.49845 -0.421317
-0.319829 0.531711 -0.33424
-0.49845 0.421317 -0.266013
-0.531711 0.33424 -0.319829
-0.421317 0.266013 -0.49845
-0.33424 0.319829 -0.531711
-0.531711 0.33424 0.319829
-0.49845 0.421317 0.266013
-0.319829 0.531711 0.33424
-0.266013 0.49845 0.421317
-0.33424 0.319829 0.531711
-0.421317 0.266013 0.49845
0.49845 -0.421317 -0.266013
0.531711 -0.33424 -0.319829
0.421317 -0.266013 -0.49845
0.33424 -0.319829 -0.531711
0.266013 -0.49845 -0.421317
0.319829 -0.531711 -0.33424
0.531711 -0.33424 0.319829
0.49845 -0.421317 0.266013
0.319829 -0.531711 0.33424
0.266013 -0.49845 0.421317
0.33424 -0.319829 0.531711
0.421317 -0.266013 0.49845
-0.33424 -0.319829 -0.531711
-0.421317 -0.266013 -0.49845
-0.531711 -0.33424 -0.319829
-0.49845 -0.421317 -0.266013
-0.319829 -0.531711 -0.33424
-0.266013 -0.49845 -0.421317
-0.266013 -0.49845 0.421317
-0.319829 -0.531711 0.33424
-0.49845 -0.421317 0.266013
-0.531711 -0.33424 0.319829
-0.421317 -0.266013 0.49845
-0.33424 -0.319829 0.531711
0.643699 0 0.300566
0.613644 0.0786864 0.349197
0.597623 0.262843 0.268954
0.698019 0 0.106508
0.427883 0.565013 0.0486309
0.427883 0.565013 -0.0486309
0.531797 0.435177 -0.162445
0.531797 0.435177 0.162445
0.613644 0.0786864 -0.349197
0.643699 0 -0.300566
0.698019 0 -0.106508
0.597623 0.262843 -0.268954
0.427883 -0.565013 -0.0486309
0.427883 -0.565013 0.0486309
0.531797 -0.435177 0.162445
0.531797 -0.435177 -0.162445
0.597623 -0.262843 0.268954
0.613644 -0.0786864 0.349197
0.613644 -0.0786864 -0.349197
0.597623 -0.262843 -0.268954
-0.643699 0 -0.300566
-0.613644 0.0786864 -0.349197
-0.597623 0.262843 -0.268954
-0.698019 0 -0.106508
-0.427883 0.565013 -0.0486309
-0.427883 0.565013 0.0486309
-0.531797 0.435177 0.162445
-0.531797 0.435177 -0.162445
-0.613644 0.0786864 0.349197
-0.643699 0 0.300566
-0.698019 0 0.106508
-0.597623 0.262843 0.268954
-0.613644 -0.0786864 0.349197
-0.597623 -0.262843 0.268954
-0.427883 -0.565013 0.0486309
-0.427883 -0.565013 -0.0486309
-0.531797 -0.435177 -0.162445
-0.531797 -0.435177 0.162445
-0.597623 -0.262843 -0.268954
-0.613644 -0.0786864 -0.349197
0.300566 0.643699 0
0.349197 0.613644 0.0786864
0.268954 0.597623 0.262843
0.106508 0.698019 0
0.0486309 0.427883 0.565013
-0.0486309 0.427883 0.565013
-0.162445 0.531797 0.435177
0.162445 0.531797 0.435177
-0.349197 0.613644 0.0786864
-0.300566 0.643699 0
-0.106508 0.698019 0
-0.268954 0.597623 0.262843
-0.349197 0.613644 -0.0786864
-0.268954 0.597623 -0.262843
-0.0486309 0.427883 -0.565013
0.0486309 0.427883 -0.565013
0.162445 0.531797 -0.435177
-0.162445 0.531797 -0.435177
0.268954 0.597623 -0.262843
0.349197 0.613644 -0.0786864
0 -0.300566 -0.643699
0.0786864 -0.349197 -0.613644
0.262843 -0.268954 -0.597623
0 -0.106508 -0.698019
0.565013 -0.0486309 -0.427883
0.565013 0.0486309 -0.427883
0.435177 0.162445 -0.531797
0.435177 -0.162445 -0.531797
0.0786864 0.349197 -0.613644
0 0.300566 -0.643699
0 0.106508 -0.698019
0.262843 0.268954 -0.597623
-0.0786864 0.349197 -0.613644
-0.262843 0.268954 -0.597623
-0.565013 0.0486309 -0.427883
-0.565013 -0.0486309 -0.427883
-0.435177 -0.162445 -0.531797
-0.435177 0.162445 -0.531797
-0.262843 -0.268954 -0.597623
-0.0786864 -0.349197 -0.613644
0.300566 -0.643699 0
0.349197 -0.613644 -0.0786864
0.268954 -0.597623 -0.262843
0.106508 -0.698019 0
0.0486309 -0.427883 -0.565013
-0.0486309 -0.427883 -0.565013
-0.162445 -0.531797 -0.435177
0.162445 -0.531797 -0.435177
-0.349197 -0.613644 -0.0786864
-0.300566 -0.643699 0
-0.106508 -0.698019 0
-0.268954 -0.597623 -0.262843
-0.349197 -0.613644 0.0786864
-0.268954 -0.597623 0.262843
-0.0486309 -0.427883 0.565013
0.0486309 -0.427883 0.565013
0.162445 -0.531797 0.435177
-0.162445 -0.531797 0.435177
0.268954 -0.597623 0.262843
0.349197 -0.613644 0.0786864
0 0.300566 0.643699
0.0786864 0.349197 0.613644
0.262843 0.268954 0.597623
0 0.106508 0.698019
0.565013 0.0486309 0.427883
0.565013 -0.0486309 0.427883
0.435177 -0.162445 0.531797
0.435177 0.162445 0.531797
0.0786864 -0.349197 0.613644
0 -0.300566 0.643699
0 -0.106508 0.698019
0.262843 -0.268954 0.597623
-0.0786864 -0.349197 0.613644
-0.262843 -0.268954 0.597623
-0.565013 -0.0486309 0.427883
-0.565013 0.0486309 0.427883
-0.435177 0.162445 0.531797
-0.435177 -0.162445 0.531797
-0.262843 0.268954 0.597623
-0.0786864 0.349197 0.613644
3 163 164 162
3 166 167 165
3 169 170 168
3 172 173 171
3 175 176 174
3 178 179 177
3 181 182 180
3 184 185 183
3 187 188 186
3 190 191 189
3 193 194 192
3 196 197 195
3 199 200 198
3 202 203 201
3 205 206 204
3 208 209 207
3 211 212 210
3 214 215 213
3 217 218 216
3 220 221 219
3 223 224 222
3 226 227 225
3 229 230 228
3 232 233 231
3 235 236 234
3 238 239 237
3 241 242 240
3 244 245 243
3 247 248 246
3 250 251 249
3 253 254 252
3 256 257 255
3 259 260 258
3 262 263 261
3 265 266 264
3 268 269 267
3 271 272 270
3 274 275 273
3 277 278 276
3 280 281 279
3 283 284 282
3 286 287 285
3 289 290 288
3 292 293 291
3 295 296 294
3 298 299 297
3 301 302 300
3 304 305 303
3 307 308 306
3 310 311 309
3 313 314 312
3 316 317 315
3 319 320 318
3 322 323 321
3 325 326 324
3 328 329 327
3 331 332 330
3 334 335 333
3 337 338 336
3 340 341 339
3 343 344 342
3 346 347 345
3 349 350 348
3 352 353 351
3 355 356 354
3 358 359 357
3 361 362 360
3 364 365 363
3 367 368 366
3 370 371 369
3 373 374 372
3 376 377 375
3 379 380 378
3 382 383 381
3 385 386 384
3 388 389 387
3 391 392 390
3 394 395 393
3 397 398 396
3 400 401 399
3 402 403 162
3 404 405 163
3 406 407 164
3 408 409 165
3 410 411 166
3 412 413 167
3 414 415 168
3 416 417 169
3 418 419 170
3 420 421 171
3 422 423 172
3 424 425 173
3 426 427 174
3 428 429 175
3 430 431 176
3 432 433 177
3 434 435 178
3 436 437 179
3 438 439 180
3 440 441 181
3 442 443 182
3 444 445 183
3 446 447 184
3 448 449 185
3 450 451 186
3 452 453 187
3 454 455 188
3 456 457 189
3 458 459 190
3 460 461 191
3 462 463 192
3 464 465 193
3 466 467 194
3 468 469 195
3 470 471 196
3 472 473 197
3 474 475 198
3 476 477 199
3 478 479 200
3 480 481 201
3 482 483 202
3 484 485 203
3 486 487 204
3 488 489 205
3 490 491 206
3 492 493 207
3 494 495 208
3 496 497 209
3 498 499 210
3 500 501 211
3 502 503 212
3 504 505 213
3 506 507 214
3 508 509 215
3 510 511 216
3 512 513 217
3 514 515 218
3 516 517 219
3 518 519 220
3 520 521 221
3 522 523 222
3 223 524 406
3 405 525 224
3 526 527 225
3 226 528 402
3 407 529 227
3 530 531 228
3 229 532 404
3 403 533 230
3 534 535 231
3 232 536 412
3 411 537 233
3 413 538 234
3 235 539 522
3 236 525 408
3 531 540 237
3 238 541 410
3 409 532 239
3 542 543 240
3 241 544 418
3 417 545 242
3 546 547 243
3 244 548 414
3 419 549 245
3 550 551 246
3 247 552 416
3 415 553 248
3 551 554 249
3 250 555 424
3 423 552 251
3 556 557 252
3 253 558 420
3 425 559 254
3 421 560 255
3 256 561 542
3 257 545 422
3 562 563 258
3 259 564 430
3 429 565 260
3 566 567 261
3 262 568 426
3 431 569 263
3 570 571 264
3 265 572 428
3 427 573 266
3 571 574 267
3 268 575 436
3 435 572 269
3 576 577 270
3 271 578 432
3 437 579 272
3 433 580 273
3 274 581 562
3 275 565 434
3 582 583 276
3 277 584 442
3 441 585 278
3 586 587 279
3 280 588 438
3 443 589 281
3 590 591 282
3 283 592 440
3 439 593 284
3 591 594 285
3 286 595 448
3 447 592 287
3 596 597 288
3 289 598 444
3 449 599 290
3 445 600 291
3 292 601 582
3 293 585 446
3 602 603 294
3 295 604 454
3 453 605 296
3 606 607 297
3 298 608 450
3 455 609 299
3 610 611 300
3 301 612 452
3 451 613 302
3 611 614 303
3 304 615 460
3 459 612 305
3 616 617 306
3 307 618 456
3 461 619 308
3 457 620 309
3 310 621 602
3 311 605 458
3 622 623 312
3 313 624 466
3 465 625 314
3 626 627 315
3 316 628 462
3 467 629 317
3 630 631 318
3 319 632 464
3 463 633 320
3 631 634 321
3 322 635 472
3 471 632 323
3 636 637 324
3 325 638 468
3 473 639 326
3 469 640 327
3 328 641 622
3 329 625 470
3 577 590 330
3 331 593 478
3 477 578 332
3 479 588 333
3 334 587 530
3 335 533 474
3 527 581 336
3 337 580 476
3 475 528 338
3 523 626 339
3 340 629 484
3 483 524 341
3 485 624 342
3 343 623 566
3 344 569 480
3 481 564 345
3 346 563 526
3 347 529 482
3 543 596 348
3 349 599 490
3 489 544 350
3 491 595 351
3 352 594 576
3 353 579 486
3 487 575 354
3 355 574 546
3 356 549 488
3 567 641 357
3 358 640 496
3 495 568 359
3 497 638 360
3 361 637 550
3 362 553 492
3 547 570 363
3 364 573 494
3 493 548 365
3 583 606 366
3 367 609 502
3 501 584 368
3 503 604 369
3 370 603 534
3 371 537 498
3 540 586 372
3 373 589 500
3 499 541 374
3 617 630 375
3 376 633 508
3 507 618 377
3 509 628 378
3 379 627 539
3 380 538 504
3 535 621 381
3 382 620 506
3 505 536 383
3 557 610 384
3 385 613 514
3 513 558 386
3 515 608 387
3 388 607 601
3 389 600 510
3 511 598 390
3 391 597 561
3 392 560 512
3 554 636 393
3 394 639 520
3 519 555 395
3 521 635 396
3 397 634 616
3 398 619 516
3 517 615 399
3 400 614 556
3 401 559 518
3 164 163 42
3 162 164 43
3 163 162 44
3 167 166 45
3 165 167 46
3 166 165 47
3 170 169 48
3 168 170 49
3 169 168 50
3 173 172 51
3 171 173 52
3 172 171 53
3 176 175 54
3 174 176 55
3 175 174 56
3 179 178 57
3 177 179 58
3 178 177 59
3 182 181 60
3 180 182 61
3 181 180 62
3 185 184 63
3 183 185 64
3 184 183 65
3 188 187 66
3 186 188 67
3 187 186 68
3 191 190 69
3 189 191 70
3 190 189 71
3 194 193 72
3 192 194 73
3 193 192 74
3 197 196 75
3 195 197 76
3 196 195 77
3 200 199 78
3 198 200 79
3 199 198 80
3 203 202 81
3 201 203 82
3 202 201 83
3 206 205 84
3 204 206 85
3 205 204 86
3 209 208 87
3 207 209 88
3 208 207 89
3 212 211 90
3 210 212 91
3 211 210 92
3 215 214 93
3 213 215 94
3 214 213 95
3 218 217 96
3 216 218 97
3 217 216 98
3 221 220 99
3 219 221 100
3 220 219 101
3 224 223 42
3 222 224 102
3 223 222 103
3 227 226 43
3 225 227 104
3 226 225 105
3 230 229 44
3 228 230 106
3 229 228 107
3 233 232 45
3 231 233 108
3 232 231 109
3 236 235 102
3 234 236 46
3 235 234 110
3 239 238 47
3 237 239 107
3 238 237 111
3 242 241 48
3 240 242 112
3 241 240 113
3 245 244 49
3 243 245 114
3 244 243 115
3 248 247 50
3 246 248 116
3 247 246 117
3 251 250 51
3 249 251 117
3 250 249 118
3 254 253 52
3 252 254 119
3 253 252 120
3 257 256 112
3 255 257 53
3 256 255 121
3 260 259 54
3 258 260 122
3 259 258 123
3 263 262 55
3 261 263 124
3 262 261 125
3 266 265 56
3 264 266 126
3 265 264 127
3 269 268 57
3 267 269 127
3 268 267 128
3 272 271 58
3 270 272 129
3 271 270 130
3 275 274 122
3 273 275 59
3 274 273 131
3 278 277 60
3 276 278 132
3 277 276 133
3 281 280 61
3 279 281 134
3 280 279 135
3 284 283 62
3 282 284 136
3 283 282 137
3 287 286 63
3 285 287 137
3 286 285 138
3 290 289 64
3 288 290 139
3 289 288 140
3 293 292 132
3 291 293 65
3 292 291 141
3 296 295 66
3 294 296 142
3 295 294 143
3 299 298 67
3 297 299 144
3 298 297 145
3 302 301 68
3 300 302 146
3 301 300 147
3 305 304 69
3 303 305 147
3 304 303 148
3 308 307 70
3 306 308 149
3 307 306 150
3 311 310 142
3 309 311 71
3 310 309 151
3 314 313 72
3 312 314 152
3 313 312 153
3 317 316 73
3 315 317 154
3 316 315 155
3 320 319 74
3 318 320 156
3 319 318 157
3 323 322 75
3 321 323 157
3 322 321 158
3 326 325 76
3 324 326 159
3 325 324 160
3 329 328 152
3 327 329 77
3 328 327 161
3 332 331 78
3 330 332 130
3 331 330 136
3 335 334 106
3 333 335 79
3 334 333 135
3 338 337 80
3 336 338 105
3 337 336 131
3 341 340 81
3 339 341 103
3 340 339 154
3 344 343 124
3 342 344 82
3 343 342 153
3 347 346 104
3 345 347 83
3 346 345 123
3 350 349 84
3 348 350 113
3 349 348 139
3 353 352 129
3 351 353 85
3 352 351 138
3 356 355 114
3 354 356 86
3 355 354 128
3 359 358 87
3 357 359 125
3 358 357 161
3 362 361 116
3 360 362 88
3 361 360 160
3 365 364 89
3 363 365 115
3 364 363 126
3 368 367 90
3 366 368 133
3 367 366 144
3 371 370 108
3 369 371 91
3 370 369 143
3 374 373 92
3 372 374 111
3 373 372 134
3 377 376 93
3 375 377 150
3 376 375 156
3 380 379 110
3 378 380 94
3 379 378 155
3 383 382 95
3 381 383 109
3 382 381 151
3 386 385 96
3 384 386 120
3 385 384 146
3 389 388 141
3 387 389 97
3 388 387 145
3 392 391 121
3 390 392 98
3 391 390 140
3 395 394 99
3 393 395 118
3 394 393 159
3 398 397 149
3 396 398 100
3 397 396 158
3 401 400 119
3 399 401 101
3 400 399 148
3 403 402 12
3 162 403 44
3 402 162 43
3 405 404 13
3 163 405 42
3 404 163 44
3 407 406 14
3 164 407 43
3 406 164 42
3 409 408 13
3 165 409 47
3 408 165 46
3 411 410 15
3 166 411 45
3 410 166 47
3 413 412 16
3 167 413 46
3 412 167 45
3 415 414 17
3 168 415 50
3 414 168 49
3 417 416 18
3 169 417 48
3 416 169 50
3 419 418 19
3 170 419 49
3 418 170 48
3 421 420 20
3 171 421 53
3 420 171 52
3 423 422 18
3 172 423 51
3 422 172 53
3 425 424 21
3 173 425 52
3 424 173 51
3 427 426 22
3 174 427 56
3 426 174 55
3 429 428 23
3 175 429 54
3 428 175 56
3 431 430 24
3 176 431 55
3 430 176 54
3 433 432 25
3 177 433 59
3 432 177 58
3 435 434 23
3 178 435 57
3 434 178 59
3 437 436 26
3 179 437 58
3 436 179 57
3 439 438 27
3 180 439 62
3 438 180 61
3 441 440 28
3 181 441 60
3 440 181 62
3 443 442 29
3 182 443 61
3 442 182 60
3 445 444 30
3 183 445 65
3 444 183 64
3 447 446 28
3 184 447 63
3 446 184 65
3 449 448 31
3 185 449 64
3 448 185 63
3 451 450 32
3 186 451 68
3 450 186 67
3 453 452 33
3 187 453 66
3 452 187 68
3 455 454 34
3 188 455 67
3 454 188 66
3 457 456 35
3 189 457 71
3 456 189 70
3 459 458 33
3 190 459 69
3 458 190 71
3 461 460 36
3 191 461 70
3 460 191 69
3 463 462 37
3 192 463 74
3 462 192 73
3 465 464 38
3 193 465 72
3 464 193 74
3 467 466 39
3 194 467 73
3 466 194 72
3 469 468 40
3 195 469 77
3 468 195 76
3 471 470 38
3 196 471 75
3 470 196 77
3 473 472 41
3 197 473 76
3 472 197 75
3 475 474 12
3 198 475 80
3 474 198 79
3 477 476 25
3 199 477 78
3 476 199 80
3 479 478 27
3 200 479 79
3 478 200 78
3 481 480 24
3 201 481 83
3 480 201 82
3 483 482 14
3 202 483 81
3 482 202 83
3 485 484 39
3 203 485 82
3 484 203 81
3 487 486 26
3 204 487 86
3 486 204 85
3 489 488 19
3 205 489 84
3 488 205 86
3 491 490 31
3 206 491 85
3 490 206 84
3 493 492 17
3 207 493 89
3 492 207 88
3 495 494 22
3 208 495 87
3 494 208 89
3 497 496 40
3 209 497 88
3 496 209 87
3 499 498 15
3 210 499 92
3 498 210 91
3 501 500 29
3 211 501 90
3 500 211 92
3 503 502 34
3 212 503 91
3 502 212 90
3 505 504 16
3 213 505 95
3 504 213 94
3 507 506 35
3 214 507 93
3 506 214 95
3 509 508 37
3 215 509 94
3 508 215 93
3 511 510 30
3 216 511 98
3 510 216 97
3 513 512 20
3 217 513 96
3 512 217 98
3 515 514 32
3 218 515 97
3 514 218 96
3 517 516 36
3 219 517 101
3 516 219 100
3 519 518 21
3 220 519 99
3 518 220 101
3 521 520 41
3 221 521 100
3 520 221 99
3 523 522 1
3 222 523 103
3 522 222 102
3 524 223 103
3 406 524 14
3 223 406 42
3 525 405 13
3 224 525 102
3 405 224 42
3 527 526 6
3 225 527 105
3 526 225 104
3 528 226 105
3 402 528 12
3 226 402 43
3 529 407 14
3 227 529 104
3 407 227 43
3 531 530 2
3 228 531 107
3 530 228 106
3 532 229 107
3 404 532 13
3 229 404 44
3 533 403 12
3 230 533 106
3 403 230 44
3 535 534 7
3 231 535 109
3 534 231 108
3 536 232 109
3 412 536 16
3 232 412 45
3 537 411 15
3 233 537 108
3 411 233 45
3 538 413 16
3 234 538 110
3 413 234 46
3 539 235 110
3 522 539 1
3 235 522 102
3 525 236 102
3 408 525 13
3 236 408 46
3 540 531 2
3 237 540 111
3 531 237 107
3 541 238 111
3 410 541 15
3 238 410 47
3 532 409 13
3 239 532 107
3 409 239 47
3 543 542 3
3 240 543 113
3 542 240 112
3 544 241 113
3 418 544 19
3 241 418 48
3 545 417 18
3 242 545 112
3 417 242 48
3 547 546 5
3 243 547 115
3 546 243 114
3 548 244 115
3 414 548 17
3 244 414 49
3 549 419 19
3 245 549 114
3 419 245 49
3 551 550 4
3 246 551 117
3 550 246 116
3 552 247 117
3 416 552 18
3 247 416 50
3 553 415 17
3 248 553 116
3 415 248 50
3 554 551 4
3 249 554 118
3 551 249 117
3 555 250 118
3 424 555 21
3 250 424 51
3 552 423 18
3 251 552 117
3 423 251 51
3 557 556 8
3 252 557 120
3 556 252 119
3 558 253 120
3 420 558 20
3 253 420 52
3 559 425 21
3 254 559 119
3 425 254 52
3 560 421 20
3 255 560 121
3 421 255 53
3 561 256 121
3 542 561 3
3 256 542 112
3 545 257 112
3 422 545 18
3 257 422 53
3 563 562 6
3 258 563 123
3 562 258 122
3 564 259 123
3 430 564 24
3 259 430 54
3 565 429 23
3 260 565 122
3 429 260 54
3 567 566 11
3 261 567 125
3 566 261 124
3 568 262 125
3 426 568 22
3 262 426 55
3 569 431 24
3 263 569 124
3 431 263 55
3 571 570 5
3 264 571 127
3 570 264 126
3 572 265 127
3 428 572 23
3 265 428 56
3 573 427 22
3 266 573 126
3 427 266 56
3 574 571 5
3 267 574 128
3 571 267 127
3 575 268 128
3 436 575 26
3 268 436 57
3 572 435 23
3 269 572 127
3 435 269 57
3 577 576 10
3 270 577 130
3 576 270 129
3 578 271 130
3 432 578 25
3 271 432 58
3 579 437 26
3 272 579 129
3 437 272 58
3 580 433 25
3 273 580 131
3 433 273 59
3 581 274 131
3 562 581 6
3 274 562 122
3 565 275 122
3 434 565 23
3 275 434 59
3 583 582 9
3 276 583 133
3 582 276 132
3 584 277 133
3 442 584 29
3 277 442 60
3 585 441 28
3 278 585 132
3 441 278 60
3 587 586 2
3 279 587 135
3 586 279 134
3 588 280 135
3 438 588 27
3 280 438 61
3 589 443 29
3 281 589 134
3 443 281 61
3 591 590 10
3 282 591 137
3 590 282 136
3 592 283 137
3 440 592 28
3 283 440 62
3 593 439 27
3 284 593 136
3 439 284 62
3 594 591 10
3 285 594 138
3 591 285 137
3 595 286 138
3 448 595 31
3 286 448 63
3 592 447 28
3 287 592 137
3 447 287 63
3 597 596 3
3 288 597 140
3 596 288 139
3 598 289 140
3 444 598 30
3 289 444 64
3 599 449 31
3 290 599 139
3 449 290 64
3 600 445 30
3 291 600 141
3 445 291 65
3 601 292 141
3 582 601 9
3 292 582 132
3 585 293 132
3 446 585 28
3 293 446 65
3 603 602 7
3 294 603 143
3 602 294 142
3 604 295 143
3 454 604 34
3 295 454 66
3 605 453 33
3 296 605 142
3 453 296 66
3 607 606 9
3 297 607 145
3 606 297 144
3 608 298 145
3 450 608 32
3 298 450 67
3 609 455 34
3 299 609 144
3 455 299 67
3 611 610 8
3 300 611 147
3 610 300 146
3 612 301 147
3 452 612 33
3 301 452 68
3 613 451 32
3 302 613 146
3 451 302 68
3 614 611 8
3 303 614 148
3 611 303 147
3 615 304 148
3 460 615 36
3 304 460 69
3 612 459 33
3 305 612 147
3 459 305 69
3 617 616 0
3 306 617 150
3 616 306 149
3 618 307 150
3 456 618 35
3 307 456 70
3 619 461 36
3 308 619 149
3 461 308 70
3 620 457 35
3 309 620 151
3 457 309 71
3 621 310 151
3 602 621 7
3 310 602 142
3 605 311 142
3 458 605 33
3 311 458 71
3 623 622 11
3 312 623 153
3 622 312 152
3 624 313 153
3 466 624 39
3 313 466 72
3 625 465 38
3 314 625 152
3 465 314 72
3 627 626 1
3 315 627 155
3 626 315 154
3 628 316 155
3 462 628 37
3 316 462 73
3 629 467 39
3 317 629 154
3 467 317 73
3 631 630 0
3 318 631 157
3 630 318 156
3 632 319 157
3 464 632 38
3 319 464 74
3 633 463 37
3 320 633 156
3 463 320 74
3 634 631 0
3 321 634 158
3 631 321 157
3 635 322 158
3 472 635 41
3 322 472 75
3 632 471 38
3 323 632 157
3 471 323 75
3 637 636 4
3 324 637 160
3 636 324 159
3 638 325 160
3 468 638 40
3 325 468 76
3 639 473 41
3 326 639 159
3 473 326 76
3 640 469 40
3 327 640 161
3 469 327 77
3 641 328 161
3 622 641 11
3 328 622 152
3 625 329 152
3 470 625 38
3 329 470 77
3 590 577 10
3 330 590 136
3 577 330 130
3 593 331 136
3 478 593 27
3 331 478 78
3 578 477 25
3 332 578 130
3 477 332 78
3 588 479 27
3 333 588 135
3 479 333 79
3 587 334 135
3 530 587 2
3 334 530 106
3 533 335 106
3 474 533 12
3 335 474 79
3 581 527 6
3 336 581 131
3 527 336 105
3 580 337 131
3 476 580 25
3 337 476 80
3 528 475 12
3 338 528 105
3 475 338 80
3 626 523 1
3 339 626 154
3 523 339 103
3 629 340 154
3 484 629 39
3 340 484 81
3 524 483 14
3 341 524 103
3 483 341 81
3 624 485 39
3 342 624 153
3 485 342 82
3 623 343 153
3 566 623 11
3 343 566 124
3 569 344 124
3 480 569 24
3 344 480 82
3 564 481 24
3 345 564 123
3 481 345 83
3 563 346 123
3 526 563 6
3 346 526 104
3 529 347 104
3 482 529 14
3 347 482 83
3 596 543 3
3 348 596 139
3 543 348 113
3 599 349 139
3 490 599 31
3 349 490 84
3 544 489 19
3 350 544 113
3 489 350 84
3 595 491 31
3 351 595 138
3 491 351 85
3 594 352 138
3 576 594 10
3 352 576 129
3 579 353 129
3 486 579 26
3 353 486 85
3 575 487 26
3 354 575 128
3 487 354 86
3 574 355 128
3 546 574 5
3 355 546 114
3 549 356 114
3 488 549 19
3 356 488 86
3 641 567 11
3 357 641 161
3 567 357 125
3 640 358 161
3 496 640 40
3 358 496 87
3 568 495 22
3 359 568 125
3 495 359 87
3 638 497 40
3 360 638 160
3 497 360 88
3 637 361 160
3 550 637 4
3 361 550 116
3 553 362 116
3 492 553 17
3 362 492 88
3 570 547 5
3 363 570 126
3 547 363 115
3 573 364 126
3 494 573 22
3 364 494 89
3 548 493 17
3 365 548 115
3 493 365 89
3 606 583 9
3 366 606 144
3 583 366 133
3 609 367 144
3 502 609 34
3 367 502 90
3 584 501 29
3 368 584 133
3 501 368 90
3 604 503 34
3 369 604 143
3 503 369 91
3 603 370 143
3 534 603 7
3 370 534 108
3 537 371 108
3 498 537 15
3 371 498 91
3 586 540 2
3 372 586 134
3 540 372 111
3 589 373 134
3 500 589 29
3 373 500 92
3 541 499 15
3 374 541 111
3 499 374 92
3 630 617 0
3 375 630 156
3 617 375 150
3 633 376 156
3 508 633 37
3 376 508 93
3 618 507 35
3 377 618 150
3 507 377 93
3 628 509 37
3 378 628 155
3 509 378 94
3 627 379 155
3 539 627 1
3 379 539 110
3 538 380 110
3 504 538 16
3 380 504 94
3 621 535 7
3 381 621 151
3 535 381 109
3 620 382 151
3 506 620 35
3 382 506 95
3 536 505 16
3 383 536 109
3 505 383 95
3 610 557 8
3 384 610 146
3 557 384 120
3 613 385 146
3 514 613 32
3 385 514 96
3 558 513 20
3 386 558 120
3 513 386 96
3 608 515 32
3 387 608 145
3 515 387 97
3 607 388 145
3 601 607 9
3 388 601 141
3 600 389 141
3 510 600 30
3 389 510 97
3 598 511 30
3 390 598 140
3 511 390 98
3 597 391 140
3 561 597 3
3 391 561 121
3 560 392 121
3 512 560 20
3 392 512 98
3 636 554 4
3 393 636 159
3 554 393 118
3 639 394 159
3 520 639 41
3 394 520 99
3 555 519 21
3 395 555 118
3 519 395 99
3 635 521 41
3 396 635 158
3 521 396 100
3 634 397 158
3 616 634 0
3 397 616 149
3 619 398 149
3 516 619 36
3 398 516 100
3 615 517 36
3 399 615 148
3 517 399 101
3 614 400 148
3 556 614 8
3 400 556 119
3 559 401 119
3 518 559 21
3 401 518 101
