ply
format ascii 1.0
element vertex 42
property float x
property float y
property float z
element face 80
property list uchar int vertex_indices
end_header
3.72529e-09 -0.464634 0.751794
0.751794 0 0.464634
0.751794 0 -0.464634
-0.751794 0 -0.464634
-0.751794 0 0.464634
-0.464634 0.751794 0
0.464634 0.751794 0
0.464634 -0.751794 0
-0.464634 -0.751794 0
3.72529e-09 -0.464634 -0.751794
3.72529e-09 0.464634 -0.751794
3.72529e-09 0.464634 0.751794
-0.250315 -0.655333 0.405018
-0.655333 -0.405018 0.250315
-0.405018 -0.250315 0.655333
0.250315 -0.655333 0.405018
3.72529e-09 -0.810036 0
0.405018 -0.250315 0.655333
0.655333 -0.405018 0.250315
0 0 0.810036
0.405018 0.250315 0.655333
-0.405018 0.250315 0.655333
0.655333 -0.405018 -0.250315
0.810036 0 0
0.655333 0.405018 -0.250315
0.655333 0.405018 0.250315
0.250315 0.655333 0.405018
0.250315 -0.655333 -0.405018
0.405018 -0.250315 -0.655333
0.405018 0.250315 -0.655333
0 0 -0.810036
0.250315 0.655333 -0.405018
-0.250315 -0.655333 -0.405018
-0.405018 -0.250315 -0.655333
-0.655333 -0.405018 -0.250315
-0.810036 0 0
-0.655333 0.405018 0.250315
-0.655333 0.405018 -0.250315
-0.250315 0.655333 -0.405018
-0.405018 0.250315 -0.655333
-0.250315 0.655333 0.405018
3.72529e-09 0.810036 0
3 32 16 27
3 7 27 16
3 8 16 32
3 9 32 27
3 31 41 38
3 5 38 41
3 6 41 31
3 10 31 38
3 40 41 26
3 6 26 41
3 5 41 40
3 11 40 26
3 21 36 40
3 5 40 36
3 4 36 21
3 11 21 40
3 33 30 39
3 10 39 30
3 9 30 33
3 3 33 39
3 0 12 14
3 8 13 12
3 4 14 13
3 12 13 14
3 0 15 12
3 7 16 15
3 8 12 16
3 15 16 12
3 0 17 15
3 1 18 17
3 7 15 18
3 17 18 15
3 1 17 20
3 0 19 17
3 11 20 19
3 17 19 20
3 4 21 14
3 11 19 21
3 0 14 19
3 21 19 14
3 2 22 23
3 7 18 22
3 1 23 18
3 22 18 23
3 6 24 25
3 2 23 24
3 1 25 23
3 24 23 25
3 11 26 20
3 6 25 26
3 1 20 25
3 26 25 20
3 9 27 28
3 7 22 27
3 2 28 22
3 27 22 28
3 2 29 28
3 10 30 29
3 9 28 30
3 29 30 28
3 10 29 31
3 2 24 29
3 6 31 24
3 29 24 31
3 8 32 34
3 9 33 32
3 3 34 33
3 32 33 34
3 8 34 13
3 3 35 34
3 4 13 35
3 34 35 13
3 5 36 37
3 4 35 36
3 3 37 35
3 36 35 37
3 10 38 39
3 5 37 38
3 3 39 37
3 38 37 39
