ply
format ascii 1.0
element vertex 642
property float x
property float y
property float z
element face 1280
property list uchar int vertex_indices
end_header
2.33064e-09 -0.43553 0.704702
0.704702 0 0.43553
0.704702 0 -0.43553
-0.704702 0 -0.43553
-0.704702 0 0.43553
-0.43553 0.704702 0
0.43553 0.704702 0
0.43553 -0.704702 0
-0.43553 -0.704702 0
2.33064e-09 -0.43553 -0.704702
2.33064e-09 0.43553 -0.704702
2.33064e-09 0.43553 0.704702
-0.240551 -0.629772 0.389221
-0.629772 -0.389221 0.240551
-0.389221 -0.240551 0.629772
0.240551 -0.629772 0.389221
9.89532e-10 -0.778441 0
0.389221 -0.240551 0.629772
0.629772 -0.389221 0.240551
0 0 0.778441
0.389221 0.240551 0.629772
-0.389221 0.240551 0.629772
0.629772 -0.389221 -0.240551
0.778441 0 0
0.629772 0.389221 -0.240551
0.629772 0.389221 0.240551
0.240551 0.629772 0.389221
0.240551 -0.629772 -0.389221
0.389221 -0.240551 -0.629772
0.389221 0.240551 -0.629772
0 0 -0.778441
0.240551 0.629772 -0.389221
-0.240551 -0.629772 -0.389221
-0.389221 -0.240551 -0.629772
-0.629772 -0.389221 -0.240551
-0.778441 0 0
-0.629772 0.389221 0.240551
-0.629772 0.389221 -0.240551
-0.240551 0.629772 -0.389221
-0.389221 0.240551 -0.629772
-0.240551 0.629772 0.389221
9.89532e-10 0.778441 0
-0.189273 -0.351201 0.685232
-0.201734 -0.122007 0.725558
7.27594e-10 -0.234224 0.757527
-0.116977 -0.540474 0.568255
-0.326413 -0.448419 0.523824
0.116977 -0.540474 0.568255
-4.65661e-10 -0.650153 0.399146
0.189273 -0.351201 0.685232
0.326413 -0.448419 0.523824
0.201734 -0.122007 0.725558
0.568255 0.116977 0.540474
0.523824 0.326413 0.448419
0.685232 0.189273 0.351201
0.568255 -0.116977 0.540474
0.399146 0 0.650153
0.685232 -0.189273 0.351201
0.523824 -0.326413 0.448419
0.757527 0 0.234224
0.725558 -0.201734 0.122007
0.725558 0.201734 0.122007
0.685232 0.189273 -0.351201
0.523824 0.326413 -0.448419
0.568255 0.116977 -0.540474
0.757527 0 -0.234224
0.725558 0.201734 -0.122007
0.685232 -0.189273 -0.351201
0.725558 -0.201734 -0.122007
0.568255 -0.116977 -0.540474
0.523824 -0.326413 -0.448419
0.399146 0 -0.650153
-0.568255 0.116977 -0.540474
-0.523824 0.326413 -0.448419
-0.685232 0.189273 -0.351201
-0.568255 -0.116977 -0.540474
-0.399146 0 -0.650153
-0.685232 -0.189273 -0.351201
-0.523824 -0.326413 -0.448419
-0.757527 0 -0.234224
-0.725558 -0.201734 -0.122007
-0.725558 0.201734 -0.122007
-0.757527 0 0.234224
-0.725558 0.201734 0.122007
-0.685232 0.189273 0.351201
-0.685232 -0.189273 0.351201
-0.725558 -0.201734 0.122007
-0.568255 -0.116977 0.540474
-0.523824 -0.326413 0.448419
-0.568255 0.116977 0.540474
-0.399146 0 0.650153
-0.523824 0.326413 0.448419
-0.540474 0.568255 -0.116977
-0.448419 0.523824 -0.326413
-0.351201 0.685232 -0.189273
-0.540474 0.568255 0.116977
-0.650153 0.399146 0
-0.351201 0.685232 0.189273
-0.448419 0.523824 0.326413
-0.234224 0.757527 0
-0.122007 0.725558 0.201734
-0.122007 0.725558 -0.201734
0.351201 0.685232 -0.189273
0.448419 0.523824 -0.326413
0.540474 0.568255 -0.116977
0.234224 0.757527 0
0.122007 0.725558 -0.201734
0.351201 0.685232 0.189273
0.122007 0.725558 0.201734
0.540474 0.568255 0.116977
0.448419 0.523824 0.326413
0.650153 0.399146 0
0.540474 -0.568255 -0.116977
0.448419 -0.523824 -0.326413
0.351201 -0.685232 -0.189273
0.540474 -0.568255 0.116977
0.650153 -0.399146 0
0.351201 -0.685232 0.189273
0.448419 -0.523824 0.326413
0.234224 -0.757527 0
0.122007 -0.725558 0.201734
0.122007 -0.725558 -0.201734
-0.540474 -0.568255 -0.116977
-0.650153 -0.399146 0
-0.540474 -0.568255 0.116977
-0.351201 -0.685232 -0.189273
-0.448419 -0.523824 -0.326413
-0.234224 -0.757527 0
-0.122007 -0.725558 -0.201734
-0.351201 -0.685232 0.189273
-0.122007 -0.725558 0.201734
-0.448419 -0.523824 0.326413
-0.189273 -0.351201 -0.685232
-0.326413 -0.448419 -0.523824
-0.116977 -0.540474 -0.568255
7.27594e-10 -0.234224 -0.757527
-0.201734 -0.122007 -0.725558
0.189273 -0.351201 -0.685232
0.201734 -0.122007 -0.725558
0.116977 -0.540474 -0.568255
0.326413 -0.448419 -0.523824
-4.65661e-10 -0.650153 -0.399146
-0.116977 0.540474 -0.568255
-0.326413 0.448419 -0.523824
-0.189273 0.351201 -0.685232
0.116977 0.540474 -0.568255
-4.65661e-10 0.650153 -0.399146
0.189273 0.351201 -0.685232
0.326413 0.448419 -0.523824
7.27594e-10 0.234224 -0.757527
0.201734 0.122007 -0.725558
-0.201734 0.122007 -0.725558
0.116977 0.540474 0.568255
0.326413 0.448419 0.523824
0.189273 0.351201 0.685232
-0.116977 0.540474 0.568255
-4.65661e-10 0.650153 0.399146
-0.189273 0.351201 0.685232
-0.326413 0.448419 0.523824
7.27594e-10 0.234224 0.757527
-0.201734 0.122007 0.725558
0.201734 0.122007 0.725558
1.62054e-09 -0.340703 0.734902
0.0970243 -0.292764 0.727715
0.0918164 -0.397448 0.699831
-0.0918164 -0.397448 0.699831
-0.0970243 -0.292764 0.727715
-0.0567457 -0.489265 0.643085
-0.156989 -0.449753 0.630691
0.0567458 -0.489265 0.643085
0 -0.546777 0.570727
0.156989 -0.449753 0.630691
0.699831 0.0918164 0.397448
0.727715 0.0970243 0.292764
0.734902 0 0.340703
0.643085 0.0567458 0.489265
0.630691 0.156989 0.449753
0.643085 -0.0567458 0.489265
0.570727 0 0.546777
0.699831 -0.0918164 0.397448
0.630691 -0.156989 0.449753
0.727715 -0.0970243 0.292764
0.643085 0.0567458 -0.489265
0.570727 0 -0.546777
0.643085 -0.0567458 -0.489265
0.699831 0.0918164 -0.397448
0.630691 0.156989 -0.449753
0.734902 0 -0.340703
0.727715 0.0970243 -0.292764
0.699831 -0.0918164 -0.397448
0.727715 -0.0970243 -0.292764
0.630691 -0.156989 -0.449753
-0.699831 0.0918164 -0.397448
-0.727715 0.0970243 -0.292764
-0.734902 0 -0.340703
-0.643085 0.0567458 -0.489265
-0.630691 0.156989 -0.449753
-0.643085 -0.0567458 -0.489265
-0.570727 0 -0.546777
-0.699831 -0.0918164 -0.397448
-0.630691 -0.156989 -0.449753
-0.727715 -0.0970243 -0.292764
-0.699831 0.0918164 0.397448
-0.630691 0.156989 0.449753
-0.643085 0.0567458 0.489265
-0.734902 0 0.340703
-0.727715 0.0970243 0.292764
-0.699831 -0.0918164 0.397448
-0.727715 -0.0970243 0.292764
-0.643085 -0.0567458 0.489265
-0.630691 -0.156989 0.449753
-0.570727 0 0.546777
-0.397448 0.699831 -0.0918164
-0.292764 0.727715 -0.0970243
-0.340703 0.734902 0
-0.489265 0.643085 -0.0567458
-0.449753 0.630691 -0.156989
-0.489265 0.643085 0.0567458
-0.546777 0.570727 0
-0.397448 0.699831 0.0918164
-0.449753 0.630691 0.156989
-0.292764 0.727715 0.0970243
0.489265 0.643085 -0.0567458
0.546777 0.570727 0
0.489265 0.643085 0.0567458
0.397448 0.699831 -0.0918164
0.449753 0.630691 -0.156989
0.340703 0.734902 0
0.292764 0.727715 -0.0970243
0.397448 0.699831 0.0918164
0.292764 0.727715 0.0970243
0.449753 0.630691 0.156989
0.397448 -0.699831 -0.0918164
0.292764 -0.727715 -0.0970243
0.340703 -0.734902 0
0.489265 -0.643085 -0.0567458
0.449753 -0.630691 -0.156989
0.489265 -0.643085 0.0567458
0.546777 -0.570727 0
0.397448 -0.699831 0.0918164
0.449753 -0.630691 0.156989
0.292764 -0.727715 0.0970243
-0.489265 -0.643085 0.0567458
-0.449753 -0.630691 0.156989
-0.397448 -0.699831 0.0918164
-0.489265 -0.643085 -0.0567458
-0.546777 -0.570727 0
-0.397448 -0.699831 -0.0918164
-0.449753 -0.630691 -0.156989
-0.340703 -0.734902 0
-0.292764 -0.727715 -0.0970243
-0.292764 -0.727715 0.0970243
-0.0567457 -0.489265 -0.643085
0 -0.546777 -0.570727
0.0567458 -0.489265 -0.643085
-0.0918164 -0.397448 -0.699831
-0.156989 -0.449753 -0.630691
1.62054e-09 -0.340703 -0.734902
-0.0970243 -0.292764 -0.727715
0.0918164 -0.397448 -0.699831
0.0970243 -0.292764 -0.727715
0.156989 -0.449753 -0.630691
-0.0918164 0.397448 -0.699831
-0.0970243 0.292764 -0.727715
1.62054e-09 0.340703 -0.734902
-0.0567457 0.489265 -0.643085
-0.156989 0.449753 -0.630691
0.0567458 0.489265 -0.643085
0 0.546777 -0.570727
0.0918164 0.397448 -0.699831
0.156989 0.449753 -0.630691
0.0970243 0.292764 -0.727715
0.0918164 0.397448 0.699831
0.0970243 0.292764 0.727715
1.62054e-09 0.340703 0.734902
0.0567458 0.489265 0.643085
0.156989 0.449753 0.630691
-0.0567457 0.489265 0.643085
0 0.546777 0.570727
-0.0918164 0.397448 0.699831
-0.156989 0.449753 0.630691
-0.0970243 0.292764 0.727715
-0.297014 -0.659606 0.289672
-0.401254 -0.608486 0.259766
-0.346121 -0.580317 0.360484
-0.182288 -0.681572 0.297905
-0.238399 -0.709136 0.197561
-0.121537 -0.644026 0.396202
-0.0612914 -0.690042 0.301453
-0.179027 -0.586686 0.480578
-0.0598941 -0.598815 0.486387
-0.28537 -0.542771 0.458781
-0.22275 -0.498165 0.548592
-0.38859 -0.487761 0.42647
-0.542771 -0.458781 0.28537
-0.498165 -0.548592 0.22275
-0.586686 -0.480578 0.179027
-0.580317 -0.360484 0.346121
-0.487761 -0.42647 0.38859
-0.659606 -0.289672 0.297014
-0.608486 -0.259766 0.401254
-0.681572 -0.297905 0.182288
-0.709136 -0.197561 0.238399
-0.644026 -0.396202 0.121537
-0.690042 -0.301453 0.0612914
-0.598815 -0.486387 0.0598941
-0.480578 -0.179027 0.586686
-0.486387 -0.0598941 0.598815
-0.396202 -0.121537 0.644026
-0.458781 -0.28537 0.542771
-0.548592 -0.22275 0.498165
-0.360484 -0.346121 0.580317
-0.42647 -0.38859 0.487761
-0.289672 -0.297014 0.659606
-0.259766 -0.401254 0.608486
-0.297905 -0.182288 0.681572
-0.197561 -0.238399 0.709136
-0.301453 -0.0612914 0.690042
0.297014 -0.659606 0.289672
0.238399 -0.709136 0.197561
0.182288 -0.681572 0.297905
0.346121 -0.580317 0.360484
0.401254 -0.608486 0.259766
0.28537 -0.542771 0.458781
0.38859 -0.487761 0.42647
0.179027 -0.586686 0.480578
0.22275 -0.498165 0.548592
0.121537 -0.644026 0.396202
0.0598941 -0.598815 0.486387
0.0612914 -0.690042 0.301453
-0.117987 -0.770251 0
-0.178505 -0.746153 0.10065
-0.0607509 -0.756686 0.101255
-0.0607509 -0.756686 -0.101255
-0.178505 -0.746153 -0.10065
0.0607509 -0.756686 -0.101255
-4.65661e-10 -0.727922 -0.202282
0.117987 -0.770251 0
0.178505 -0.746153 -0.10065
0.0607509 -0.756686 0.101255
0.178505 -0.746153 0.10065
-4.65661e-10 -0.727922 0.202282
0.480578 -0.179027 0.586686
0.548592 -0.22275 0.498165
0.458781 -0.28537 0.542771
0.396202 -0.121537 0.644026
0.486387 -0.0598941 0.598815
0.297905 -0.182288 0.681572
0.301453 -0.0612914 0.690042
0.289672 -0.297014 0.659606
0.197561 -0.238399 0.709136
0.360484 -0.346121 0.580317
0.259766 -0.401254 0.608486
0.42647 -0.38859 0.487761
0.586686 -0.480578 0.179027
0.498165 -0.548592 0.22275
0.542771 -0.458781 0.28537
0.644026 -0.396202 0.121537
0.598815 -0.486387 0.0598941
0.681572 -0.297905 0.182288
0.690042 -0.301453 0.0612914
0.659606 -0.289672 0.297014
0.709136 -0.197561 0.238399
0.580317 -0.360484 0.346121
0.608486 -0.259766 0.401254
0.487761 -0.42647 0.38859
3.63797e-10 0.117987 0.770251
0.10065 0.178505 0.746153
0.101255 0.0607509 0.756686
-0.101255 0.0607509 0.756686
-0.10065 0.178505 0.746153
-0.101255 -0.0607509 0.756686
-0.202282 0 0.727922
3.63797e-10 -0.117987 0.770251
-0.10065 -0.178505 0.746153
0.101255 -0.0607509 0.756686
0.10065 -0.178505 0.746153
0.202282 0 0.727922
0.297905 0.182288 0.681572
0.197561 0.238399 0.709136
0.289672 0.297014 0.659606
0.396202 0.121537 0.644026
0.301453 0.0612914 0.690042
0.480578 0.179027 0.586686
0.486387 0.0598941 0.598815
0.458781 0.28537 0.542771
0.548592 0.22275 0.498165
0.360484 0.346121 0.580317
0.42647 0.38859 0.487761
0.259766 0.401254 0.608486
-0.289672 0.297014 0.659606
-0.197561 0.238399 0.709136
-0.297905 0.182288 0.681572
-0.360484 0.346121 0.580317
-0.259766 0.401254 0.608486
-0.458781 0.28537 0.542771
-0.42647 0.38859 0.487761
-0.480578 0.179027 0.586686
-0.548592 0.22275 0.498165
-0.396202 0.121537 0.644026
-0.486387 0.0598941 0.598815
-0.301453 0.0612914 0.690042
0.586686 -0.480578 -0.179027
0.598815 -0.486387 -0.0598941
0.644026 -0.396202 -0.121537
0.542771 -0.458781 -0.28537
0.498165 -0.548592 -0.22275
0.580317 -0.360484 -0.346121
0.487761 -0.42647 -0.38859
0.659606 -0.289672 -0.297014
0.608486 -0.259766 -0.401254
0.681572 -0.297905 -0.182288
0.709136 -0.197561 -0.238399
0.690042 -0.301453 -0.0612914
0.770251 0 -0.117987
0.746153 -0.10065 -0.178505
0.756686 -0.101255 -0.0607509
0.756686 0.101255 -0.0607509
0.746153 0.10065 -0.178505
0.756686 0.101255 0.0607509
0.727922 0.202282 0
0.770251 0 0.117987
0.746153 0.10065 0.178505
0.756686 -0.101255 0.0607509
0.746153 -0.10065 0.178505
0.727922 -0.202282 0
0.644026 0.396202 -0.121537
0.598815 0.486387 -0.0598941
0.586686 0.480578 -0.179027
0.681572 0.297905 -0.182288
0.690042 0.301453 -0.0612914
0.659606 0.289672 -0.297014
0.709136 0.197561 -0.238399
0.580317 0.360484 -0.346121
0.608486 0.259766 -0.401254
0.542771 0.458781 -0.28537
0.487761 0.42647 -0.38859
0.498165 0.548592 -0.22275
0.586686 0.480578 0.179027
0.598815 0.486387 0.0598941
0.644026 0.396202 0.121537
0.542771 0.458781 0.28537
0.498165 0.548592 0.22275
0.580317 0.360484 0.346121
0.487761 0.42647 0.38859
0.659606 0.289672 0.297014
0.608486 0.259766 0.401254
0.681572 0.297905 0.182288
0.709136 0.197561 0.238399
0.690042 0.301453 0.0612914
0.179027 0.586686 0.480578
0.0598941 0.598815 0.486387
0.121537 0.644026 0.396202
0.28537 0.542771 0.458781
0.22275 0.498165 0.548592
0.346121 0.580317 0.360484
0.38859 0.487761 0.42647
0.297014 0.659606 0.289672
0.401254 0.608486 0.259766
0.182288 0.681572 0.297905
0.238399 0.709136 0.197561
0.0612914 0.690042 0.301453
0.179027 -0.586686 -0.480578
0.0598941 -0.598815 -0.486387
0.121537 -0.644026 -0.396202
0.28537 -0.542771 -0.458781
0.22275 -0.498165 -0.548592
0.346121 -0.580317 -0.360484
0.38859 -0.487761 -0.42647
0.297014 -0.659606 -0.289672
0.401254 -0.608486 -0.259766
0.182288 -0.681572 -0.297905
0.238399 -0.709136 -0.197561
0.0612914 -0.690042 -0.301453
0.289672 -0.297014 -0.659606
0.259766 -0.401254 -0.608486
0.360484 -0.346121 -0.580317
0.297905 -0.182288 -0.681572
0.197561 -0.238399 -0.709136
0.396202 -0.121537 -0.644026
0.301453 -0.0612914 -0.690042
0.480578 -0.179027 -0.586686
0.486387 -0.0598941 -0.598815
0.458781 -0.28537 -0.542771
0.548592 -0.22275 -0.498165
0.42647 -0.38859 -0.487761
0.289672 0.297014 -0.659606
0.197561 0.238399 -0.709136
0.297905 0.182288 -0.681572
0.360484 0.346121 -0.580317
0.259766 0.401254 -0.608486
0.458781 0.28537 -0.542771
0.42647 0.38859 -0.487761
0.480578 0.179027 -0.586686
0.548592 0.22275 -0.498165
0.396202 0.121537 -0.644026
0.486387 0.0598941 -0.598815
0.301453 0.0612914 -0.690042
3.63797e-10 0.117987 -0.770251
-0.10065 0.178505 -0.746153
-0.101255 0.0607509 -0.756686
0.101255 0.0607509 -0.756686
0.10065 0.178505 -0.746153
0.101255 -0.0607509 -0.756686
0.202282 0 -0.727922
3.63797e-10 -0.117987 -0.770251
0.10065 -0.178505 -0.746153
-0.101255 -0.0607509 -0.756686
-0.10065 -0.178505 -0.746153
-0.202282 0 -0.727922
0.179027 0.586686 -0.480578
0.22275 0.498165 -0.548592
0.28537 0.542771 -0.458781
0.121537 0.644026 -0.396202
0.0598941 0.598815 -0.486387
0.182288 0.681572 -0.297905
0.0612914 0.690042 -0.301453
0.297014 0.659606 -0.289672
0.238399 0.709136 -0.197561
0.346121 0.580317 -0.360484
0.401254 0.608486 -0.259766
0.38859 0.487761 -0.42647
-0.121537 -0.644026 -0.396202
-0.0598941 -0.598815 -0.486387
-0.179027 -0.586686 -0.480578
-0.182288 -0.681572 -0.297905
-0.0612914 -0.690042 -0.301453
-0.297014 -0.659606 -0.289672
-0.238399 -0.709136 -0.197561
-0.346121 -0.580317 -0.360484
-0.401254 -0.608486 -0.259766
-0.28537 -0.542771 -0.458781
-0.38859 -0.487761 -0.42647
-0.22275 -0.498165 -0.548592
-0.289672 -0.297014 -0.659606
-0.197561 -0.238399 -0.709136
-0.297905 -0.182288 -0.681572
-0.360484 -0.346121 -0.580317
-0.259766 -0.401254 -0.608486
-0.458781 -0.28537 -0.542771
-0.42647 -0.38859 -0.487761
-0.480578 -0.179027 -0.586686
-0.548592 -0.22275 -0.498165
-0.396202 -0.121537 -0.644026
-0.486387 -0.0598941 -0.598815
-0.301453 -0.0612914 -0.690042
-0.586686 -0.480578 -0.179027
-0.498165 -0.548592 -0.22275
-0.542771 -0.458781 -0.28537
-0.644026 -0.396202 -0.121537
-0.598815 -0.486387 -0.0598941
-0.681572 -0.297905 -0.182288
-0.690042 -0.301453 -0.0612914
-0.659606 -0.289672 -0.297014
-0.709136 -0.197561 -0.238399
-0.580317 -0.360484 -0.346121
-0.608486 -0.259766 -0.401254
-0.487761 -0.42647 -0.38859
-0.770251 0 0.117987
-0.746153 -0.10065 0.178505
-0.756686 -0.101255 0.0607509
-0.756686 0.101255 0.0607509
-0.746153 0.10065 0.178505
-0.756686 0.101255 -0.0607509
-0.727922 0.202282 0
-0.770251 0 -0.117987
-0.746153 0.10065 -0.178505
-0.756686 -0.101255 -0.0607509
-0.746153 -0.10065 -0.178505
-0.727922 -0.202282 0
-0.586686 0.480578 0.179027
-0.498165 0.548592 0.22275
-0.542771 0.458781 0.28537
-0.644026 0.396202 0.121537
-0.598815 0.486387 0.0598941
-0.681572 0.297905 0.182288
-0.690042 0.301453 0.0612914
-0.659606 0.289672 0.297014
-0.709136 0.197561 0.238399
-0.580317 0.360484 0.346121
-0.608486 0.259766 0.401254
-0.487761 0.42647 0.38859
-0.586686 0.480578 -0.179027
-0.598815 0.486387 -0.0598941
-0.644026 0.396202 -0.121537
-0.542771 0.458781 -0.28537
-0.498165 0.548592 -0.22275
-0.580317 0.360484 -0.346121
-0.487761 0.42647 -0.38859
-0.659606 0.289672 -0.297014
-0.608486 0.259766 -0.401254
-0.681572 0.297905 -0.182288
-0.709136 0.197561 -0.238399
-0.690042 0.301453 -0.0612914
-0.179027 0.586686 -0.480578
-0.0598941 0.598815 -0.486387
-0.121537 0.644026 -0.396202
-0.28537 0.542771 -0.458781
-0.22275 0.498165 -0.548592
-0.346121 0.580317 -0.360484
-0.38859 0.487761 -0.42647
-0.297014 0.659606 -0.289672
-0.401254 0.608486 -0.259766
-0.182288 0.681572 -0.297905
-0.238399 0.709136 -0.197561
-0.0612914 0.690042 -0.301453
-0.297905 0.182288 -0.681572
-0.197561 0.238399 -0.709136
-0.289672 0.297014 -0.659606
-0.396202 0.121537 -0.644026
-0.301453 0.0612914 -0.690042
-0.480578 0.179027 -0.586686
-0.486387 0.0598941 -0.598815
-0.458781 0.28537 -0.542771
-0.548592 0.22275 -0.498165
-0.360484 0.346121 -0.580317
-0.42647 0.38859 -0.487761
-0.259766 0.401254 -0.608486
-0.179027 0.586686 0.480578
-0.22275 0.498165 0.548592
-0.28537 0.542771 0.458781
-0.121537 0.644026 0.396202
-0.0598941 0.598815 0.486387
-0.182288 0.681572 0.297905
-0.0612914 0.690042 0.301453
-0.297014 0.659606 0.289672
-0.238399 0.709136 0.197561
-0.346121 0.580317 0.360484
-0.401254 0.608486 0.259766
-0.38859 0.487761 0.42647
0.117987 0.770251 0
0.178505 0.746153 0.10065
0.0607509 0.756686 0.101255
0.0607509 0.756686 -0.101255
0.178505 0.746153 -0.10065
-0.0607509 0.756686 -0.101255
-4.65661e-10 0.727922 -0.202282
-0.117987 0.770251 0
-0.178505 0.746153 -0.10065
-0.0607509 0.756686 0.101255
-0.178505 0.746153 0.10065
-4.65661e-10 0.727922 0.202282
3 370 391 281
3 157 281 391
3 160 391 370
3 159 370 281
3 394 619 280
3 155 280 619
3 158 619 394
3 157 394 280
3 379 367 273
3 159 273 367
3 161 367 379
3 154 379 273
3 454 389 276
3 154 276 389
3 153 389 454
3 152 454 276
3 622 451 278
3 152 278 451
3 156 451 622
3 155 622 278
3 502 487 271
3 147 271 487
3 150 487 502
3 149 502 271
3 490 511 270
3 145 270 511
3 148 511 490
3 147 490 270
3 607 499 263
3 149 263 499
3 151 499 607
3 144 607 263
3 598 617 266
3 144 266 617
3 143 617 598
3 142 598 266
3 514 595 268
3 142 268 595
3 146 595 514
3 145 514 268
3 466 475 261
3 137 261 475
3 140 475 466
3 139 466 261
3 478 506 260
3 135 260 506
3 138 506 478
3 137 478 260
3 523 463 253
3 139 253 463
3 141 463 523
3 134 523 253
3 538 533 256
3 134 256 533
3 133 533 538
3 132 538 256
3 508 535 258
3 132 258 535
3 136 535 508
3 135 508 258
3 286 331 251
3 127 251 331
3 130 331 286
3 129 286 251
3 334 528 250
3 125 250 528
3 128 528 334
3 127 334 250
3 295 283 243
3 129 243 283
3 131 283 295
3 124 295 243
3 550 305 246
3 124 246 305
3 123 305 550
3 122 550 246
3 530 547 248
3 122 248 547
3 126 547 530
3 125 530 248
3 336 473 526
3 141 526 473
3 121 473 336
3 128 336 526
3 340 319 241
3 117 241 319
3 120 319 340
3 119 340 241
3 322 355 240
3 115 240 355
3 118 355 322
3 117 322 240
3 472 338 233
3 119 233 338
3 121 338 472
3 114 472 233
3 406 470 236
3 114 236 470
3 113 470 406
3 112 406 236
3 358 403 238
3 112 238 403
3 116 403 358
3 115 358 238
3 442 458 231
3 107 231 458
3 110 458 442
3 109 442 231
3 460 631 230
3 105 230 631
3 108 631 460
3 107 460 230
3 427 439 223
3 109 223 439
3 111 439 427
3 104 427 223
3 520 437 226
3 104 226 437
3 103 437 520
3 102 520 226
3 634 518 228
3 102 228 518
3 106 518 634
3 105 634 228
3 636 605 516
3 146 516 605
3 101 605 636
3 106 636 516
3 641 461 624
3 156 624 461
3 108 461 641
3 100 641 624
3 640 626 221
3 97 221 626
3 100 626 640
3 99 640 221
3 628 571 220
3 95 220 571
3 98 571 628
3 97 628 220
3 604 638 213
3 99 213 638
3 101 638 604
3 94 604 213
3 586 602 216
3 94 216 602
3 93 602 586
3 92 586 216
3 574 583 218
3 92 218 583
3 96 583 574
3 95 574 218
3 581 629 396
3 158 396 629
3 98 629 581
3 91 581 396
3 400 307 211
3 87 211 307
3 90 307 400
3 89 400 211
3 310 300 210
3 85 210 300
3 88 300 310
3 87 310 210
3 580 398 203
3 89 203 398
3 91 398 580
3 84 580 203
3 562 578 206
3 84 206 578
3 83 578 562
3 82 562 206
3 302 559 208
3 82 208 559
3 86 559 302
3 85 302 208
3 564 593 576
3 96 576 593
3 81 593 564
3 83 564 576
3 569 304 552
3 123 552 304
3 86 304 569
3 80 569 552
3 540 557 532
3 126 532 557
3 78 557 540
3 133 540 532
3 568 554 201
3 77 201 554
3 80 554 568
3 79 568 201
3 509 610 545
3 76 545 610
3 151 610 509
3 136 509 545
3 556 542 200
3 75 200 542
3 78 542 556
3 77 556 200
3 592 566 193
3 79 193 566
3 81 566 592
3 74 592 193
3 588 616 600
3 143 600 616
3 73 616 588
3 93 588 600
3 614 590 196
3 74 196 590
3 73 590 614
3 72 614 196
3 544 612 198
3 72 198 612
3 76 612 544
3 75 544 198
3 504 480 497
3 71 497 480
3 138 480 504
3 150 504 497
3 408 485 468
3 140 468 485
3 70 485 408
3 113 408 468
3 484 410 191
3 67 191 410
3 70 410 484
3 69 484 191
3 412 415 190
3 65 190 415
3 68 415 412
3 67 412 190
3 496 482 183
3 69 183 482
3 71 482 496
3 64 496 183
3 436 521 492
3 148 492 521
3 103 521 436
3 63 436 492
3 434 494 186
3 64 186 494
3 63 494 434
3 62 434 186
3 418 432 188
3 62 188 432
3 66 432 418
3 65 418 188
3 420 449 430
3 111 430 449
3 61 449 420
3 66 420 430
3 360 425 413
3 68 413 425
3 60 425 360
3 116 360 413
3 424 362 181
3 57 181 362
3 60 362 424
3 59 424 181
3 364 343 180
3 55 180 343
3 58 343 364
3 57 364 180
3 448 422 173
3 59 173 422
3 61 422 448
3 54 448 173
3 444 388 456
3 153 456 388
3 53 388 444
3 110 444 456
3 386 446 176
3 54 176 446
3 53 446 386
3 52 386 176
3 346 384 178
3 52 178 384
3 56 384 346
3 55 346 178
3 377 382 348
3 56 348 382
3 161 382 377
3 51 377 348
3 365 324 353
3 50 353 324
3 118 324 365
3 58 365 353
3 341 288 329
3 48 329 288
3 130 288 341
3 120 341 329
3 352 326 171
3 47 171 326
3 50 326 352
3 49 352 171
3 298 312 293
3 46 293 312
3 88 312 298
3 131 298 293
3 328 290 170
3 45 170 290
3 48 290 328
3 47 328 170
3 376 350 163
3 49 163 350
3 51 350 376
3 44 376 163
3 372 317 401
3 90 401 317
3 43 317 372
3 160 372 401
3 316 374 166
3 44 166 374
3 43 374 316
3 42 316 166
3 292 314 168
3 42 168 314
3 46 314 292
3 45 292 168
3 0 162 164
3 44 163 162
3 49 164 163
3 162 163 164
3 0 165 162
3 42 166 165
3 44 162 166
3 165 166 162
3 0 167 165
3 45 168 167
3 42 165 168
3 167 168 165
3 0 169 167
3 47 170 169
3 45 167 170
3 169 170 167
3 0 164 169
3 49 171 164
3 47 169 171
3 164 171 169
3 1 172 174
3 54 173 172
3 59 174 173
3 172 173 174
3 1 175 172
3 52 176 175
3 54 172 176
3 175 176 172
3 1 177 175
3 55 178 177
3 52 175 178
3 177 178 175
3 1 179 177
3 57 180 179
3 55 177 180
3 179 180 177
3 1 174 179
3 59 181 174
3 57 179 181
3 174 181 179
3 2 182 184
3 64 183 182
3 69 184 183
3 182 183 184
3 2 185 182
3 62 186 185
3 64 182 186
3 185 186 182
3 2 187 185
3 65 188 187
3 62 185 188
3 187 188 185
3 2 189 187
3 67 190 189
3 65 187 190
3 189 190 187
3 2 184 189
3 69 191 184
3 67 189 191
3 184 191 189
3 3 192 194
3 74 193 192
3 79 194 193
3 192 193 194
3 3 195 192
3 72 196 195
3 74 192 196
3 195 196 192
3 3 197 195
3 75 198 197
3 72 195 198
3 197 198 195
3 3 199 197
3 77 200 199
3 75 197 200
3 199 200 197
3 3 194 199
3 79 201 194
3 77 199 201
3 194 201 199
3 4 202 204
3 84 203 202
3 89 204 203
3 202 203 204
3 4 205 202
3 82 206 205
3 84 202 206
3 205 206 202
3 4 207 205
3 85 208 207
3 82 205 208
3 207 208 205
3 4 209 207
3 87 210 209
3 85 207 210
3 209 210 207
3 4 204 209
3 89 211 204
3 87 209 211
3 204 211 209
3 5 212 214
3 94 213 212
3 99 214 213
3 212 213 214
3 5 215 212
3 92 216 215
3 94 212 216
3 215 216 212
3 5 217 215
3 95 218 217
3 92 215 218
3 217 218 215
3 5 219 217
3 97 220 219
3 95 217 220
3 219 220 217
3 5 214 219
3 99 221 214
3 97 219 221
3 214 221 219
3 6 222 224
3 104 223 222
3 109 224 223
3 222 223 224
3 6 225 222
3 102 226 225
3 104 222 226
3 225 226 222
3 6 227 225
3 105 228 227
3 102 225 228
3 227 228 225
3 6 229 227
3 107 230 229
3 105 227 230
3 229 230 227
3 6 224 229
3 109 231 224
3 107 229 231
3 224 231 229
3 7 232 234
3 114 233 232
3 119 234 233
3 232 233 234
3 7 235 232
3 112 236 235
3 114 232 236
3 235 236 232
3 7 237 235
3 115 238 237
3 112 235 238
3 237 238 235
3 7 239 237
3 117 240 239
3 115 237 240
3 239 240 237
3 7 234 239
3 119 241 234
3 117 239 241
3 234 241 239
3 8 242 244
3 124 243 242
3 129 244 243
3 242 243 244
3 8 245 242
3 122 246 245
3 124 242 246
3 245 246 242
3 8 247 245
3 125 248 247
3 122 245 248
3 247 248 245
3 8 249 247
3 127 250 249
3 125 247 250
3 249 250 247
3 8 244 249
3 129 251 244
3 127 249 251
3 244 251 249
3 9 252 254
3 134 253 252
3 139 254 253
3 252 253 254
3 9 255 252
3 132 256 255
3 134 252 256
3 255 256 252
3 9 257 255
3 135 258 257
3 132 255 258
3 257 258 255
3 9 259 257
3 137 260 259
3 135 257 260
3 259 260 257
3 9 254 259
3 139 261 254
3 137 259 261
3 254 261 259
3 10 262 264
3 144 263 262
3 149 264 263
3 262 263 264
3 10 265 262
3 142 266 265
3 144 262 266
3 265 266 262
3 10 267 265
3 145 268 267
3 142 265 268
3 267 268 265
3 10 269 267
3 147 270 269
3 145 267 270
3 269 270 267
3 10 264 269
3 149 271 264
3 147 269 271
3 264 271 269
3 11 272 274
3 154 273 272
3 159 274 273
3 272 273 274
3 11 275 272
3 152 276 275
3 154 272 276
3 275 276 272
3 11 277 275
3 155 278 277
3 152 275 278
3 277 278 275
3 11 279 277
3 157 280 279
3 155 277 280
3 279 280 277
3 11 274 279
3 159 281 274
3 157 279 281
3 274 281 279
3 12 282 284
3 129 283 282
3 131 284 283
3 282 283 284
3 12 285 282
3 130 286 285
3 129 282 286
3 285 286 282
3 12 287 285
3 48 288 287
3 130 285 288
3 287 288 285
3 12 289 287
3 45 290 289
3 48 287 290
3 289 290 287
3 12 291 289
3 46 292 291
3 45 289 292
3 291 292 289
3 12 284 291
3 131 293 284
3 46 291 293
3 284 293 291
3 13 294 296
3 131 295 294
3 124 296 295
3 294 295 296
3 13 297 294
3 88 298 297
3 131 294 298
3 297 298 294
3 13 299 297
3 85 300 299
3 88 297 300
3 299 300 297
3 13 301 299
3 86 302 301
3 85 299 302
3 301 302 299
3 13 303 301
3 123 304 303
3 86 301 304
3 303 304 301
3 13 296 303
3 124 305 296
3 123 303 305
3 296 305 303
3 14 306 308
3 87 307 306
3 90 308 307
3 306 307 308
3 14 309 306
3 88 310 309
3 87 306 310
3 309 310 306
3 14 311 309
3 46 312 311
3 88 309 312
3 311 312 309
3 14 313 311
3 42 314 313
3 46 311 314
3 313 314 311
3 14 315 313
3 43 316 315
3 42 313 316
3 315 316 313
3 14 308 315
3 90 317 308
3 43 315 317
3 308 317 315
3 15 318 320
3 117 319 318
3 120 320 319
3 318 319 320
3 15 321 318
3 118 322 321
3 117 318 322
3 321 322 318
3 15 323 321
3 50 324 323
3 118 321 324
3 323 324 321
3 15 325 323
3 47 326 325
3 50 323 326
3 325 326 323
3 15 327 325
3 48 328 327
3 47 325 328
3 327 328 325
3 15 320 327
3 120 329 320
3 48 327 329
3 320 329 327
3 16 330 332
3 127 331 330
3 130 332 331
3 330 331 332
3 16 333 330
3 128 334 333
3 127 330 334
3 333 334 330
3 16 335 333
3 121 336 335
3 128 333 336
3 335 336 333
3 16 337 335
3 119 338 337
3 121 335 338
3 337 338 335
3 16 339 337
3 120 340 339
3 119 337 340
3 339 340 337
3 16 332 339
3 130 341 332
3 120 339 341
3 332 341 339
3 17 342 344
3 55 343 342
3 58 344 343
3 342 343 344
3 17 345 342
3 56 346 345
3 55 342 346
3 345 346 342
3 17 347 345
3 51 348 347
3 56 345 348
3 347 348 345
3 17 349 347
3 49 350 349
3 51 347 350
3 349 350 347
3 17 351 349
3 50 352 351
3 49 349 352
3 351 352 349
3 17 344 351
3 58 353 344
3 50 351 353
3 344 353 351
3 18 354 356
3 115 355 354
3 118 356 355
3 354 355 356
3 18 357 354
3 116 358 357
3 115 354 358
3 357 358 354
3 18 359 357
3 60 360 359
3 116 357 360
3 359 360 357
3 18 361 359
3 57 362 361
3 60 359 362
3 361 362 359
3 18 363 361
3 58 364 363
3 57 361 364
3 363 364 361
3 18 356 363
3 118 365 356
3 58 363 365
3 356 365 363
3 19 366 368
3 159 367 366
3 161 368 367
3 366 367 368
3 19 369 366
3 160 370 369
3 159 366 370
3 369 370 366
3 19 371 369
3 43 372 371
3 160 369 372
3 371 372 369
3 19 373 371
3 44 374 373
3 43 371 374
3 373 374 371
3 19 375 373
3 51 376 375
3 44 373 376
3 375 376 373
3 19 368 375
3 161 377 368
3 51 375 377
3 368 377 375
3 20 378 380
3 161 379 378
3 154 380 379
3 378 379 380
3 20 381 378
3 56 382 381
3 161 378 382
3 381 382 378
3 20 383 381
3 52 384 383
3 56 381 384
3 383 384 381
3 20 385 383
3 53 386 385
3 52 383 386
3 385 386 383
3 20 387 385
3 153 388 387
3 53 385 388
3 387 388 385
3 20 380 387
3 154 389 380
3 153 387 389
3 380 389 387
3 21 390 392
3 157 391 390
3 160 392 391
3 390 391 392
3 21 393 390
3 158 394 393
3 157 390 394
3 393 394 390
3 21 395 393
3 91 396 395
3 158 393 396
3 395 396 393
3 21 397 395
3 89 398 397
3 91 395 398
3 397 398 395
3 21 399 397
3 90 400 399
3 89 397 400
3 399 400 397
3 21 392 399
3 160 401 392
3 90 399 401
3 392 401 399
3 22 402 404
3 112 403 402
3 116 404 403
3 402 403 404
3 22 405 402
3 113 406 405
3 112 402 406
3 405 406 402
3 22 407 405
3 70 408 407
3 113 405 408
3 407 408 405
3 22 409 407
3 67 410 409
3 70 407 410
3 409 410 407
3 22 411 409
3 68 412 411
3 67 409 412
3 411 412 409
3 22 404 411
3 116 413 404
3 68 411 413
3 404 413 411
3 23 414 416
3 65 415 414
3 68 416 415
3 414 415 416
3 23 417 414
3 66 418 417
3 65 414 418
3 417 418 414
3 23 419 417
3 61 420 419
3 66 417 420
3 419 420 417
3 23 421 419
3 59 422 421
3 61 419 422
3 421 422 419
3 23 423 421
3 60 424 423
3 59 421 424
3 423 424 421
3 23 416 423
3 68 425 416
3 60 423 425
3 416 425 423
3 24 426 428
3 111 427 426
3 104 428 427
3 426 427 428
3 24 429 426
3 66 430 429
3 111 426 430
3 429 430 426
3 24 431 429
3 62 432 431
3 66 429 432
3 431 432 429
3 24 433 431
3 63 434 433
3 62 431 434
3 433 434 431
3 24 435 433
3 103 436 435
3 63 433 436
3 435 436 433
3 24 428 435
3 104 437 428
3 103 435 437
3 428 437 435
3 25 438 440
3 109 439 438
3 111 440 439
3 438 439 440
3 25 441 438
3 110 442 441
3 109 438 442
3 441 442 438
3 25 443 441
3 53 444 443
3 110 441 444
3 443 444 441
3 25 445 443
3 54 446 445
3 53 443 446
3 445 446 443
3 25 447 445
3 61 448 447
3 54 445 448
3 447 448 445
3 25 440 447
3 111 449 440
3 61 447 449
3 440 449 447
3 26 450 452
3 152 451 450
3 156 452 451
3 450 451 452
3 26 453 450
3 153 454 453
3 152 450 454
3 453 454 450
3 26 455 453
3 110 456 455
3 153 453 456
3 455 456 453
3 26 457 455
3 107 458 457
3 110 455 458
3 457 458 455
3 26 459 457
3 108 460 459
3 107 457 460
3 459 460 457
3 26 452 459
3 156 461 452
3 108 459 461
3 452 461 459
3 27 462 464
3 139 463 462
3 141 464 463
3 462 463 464
3 27 465 462
3 140 466 465
3 139 462 466
3 465 466 462
3 27 467 465
3 113 468 467
3 140 465 468
3 467 468 465
3 27 469 467
3 114 470 469
3 113 467 470
3 469 470 467
3 27 471 469
3 121 472 471
3 114 469 472
3 471 472 469
3 27 464 471
3 141 473 464
3 121 471 473
3 464 473 471
3 28 474 476
3 137 475 474
3 140 476 475
3 474 475 476
3 28 477 474
3 138 478 477
3 137 474 478
3 477 478 474
3 28 479 477
3 71 480 479
3 138 477 480
3 479 480 477
3 28 481 479
3 69 482 481
3 71 479 482
3 481 482 479
3 28 483 481
3 70 484 483
3 69 481 484
3 483 484 481
3 28 476 483
3 140 485 476
3 70 483 485
3 476 485 483
3 29 486 488
3 147 487 486
3 150 488 487
3 486 487 488
3 29 489 486
3 148 490 489
3 147 486 490
3 489 490 486
3 29 491 489
3 63 492 491
3 148 489 492
3 491 492 489
3 29 493 491
3 64 494 493
3 63 491 494
3 493 494 491
3 29 495 493
3 71 496 495
3 64 493 496
3 495 496 493
3 29 488 495
3 150 497 488
3 71 495 497
3 488 497 495
3 30 498 500
3 149 499 498
3 151 500 499
3 498 499 500
3 30 501 498
3 150 502 501
3 149 498 502
3 501 502 498
3 30 503 501
3 138 504 503
3 150 501 504
3 503 504 501
3 30 505 503
3 135 506 505
3 138 503 506
3 505 506 503
3 30 507 505
3 136 508 507
3 135 505 508
3 507 508 505
3 30 500 507
3 151 509 500
3 136 507 509
3 500 509 507
3 31 510 512
3 145 511 510
3 148 512 511
3 510 511 512
3 31 513 510
3 146 514 513
3 145 510 514
3 513 514 510
3 31 515 513
3 106 516 515
3 146 513 516
3 515 516 513
3 31 517 515
3 102 518 517
3 106 515 518
3 517 518 515
3 31 519 517
3 103 520 519
3 102 517 520
3 519 520 517
3 31 512 519
3 148 521 512
3 103 519 521
3 512 521 519
3 32 522 524
3 141 523 522
3 134 524 523
3 522 523 524
3 32 525 522
3 128 526 525
3 141 522 526
3 525 526 522
3 32 527 525
3 125 528 527
3 128 525 528
3 527 528 525
3 32 529 527
3 126 530 529
3 125 527 530
3 529 530 527
3 32 531 529
3 133 532 531
3 126 529 532
3 531 532 529
3 32 524 531
3 134 533 524
3 133 531 533
3 524 533 531
3 33 534 536
3 132 535 534
3 136 536 535
3 534 535 536
3 33 537 534
3 133 538 537
3 132 534 538
3 537 538 534
3 33 539 537
3 78 540 539
3 133 537 540
3 539 540 537
3 33 541 539
3 75 542 541
3 78 539 542
3 541 542 539
3 33 543 541
3 76 544 543
3 75 541 544
3 543 544 541
3 33 536 543
3 136 545 536
3 76 543 545
3 536 545 543
3 34 546 548
3 122 547 546
3 126 548 547
3 546 547 548
3 34 549 546
3 123 550 549
3 122 546 550
3 549 550 546
3 34 551 549
3 80 552 551
3 123 549 552
3 551 552 549
3 34 553 551
3 77 554 553
3 80 551 554
3 553 554 551
3 34 555 553
3 78 556 555
3 77 553 556
3 555 556 553
3 34 548 555
3 126 557 548
3 78 555 557
3 548 557 555
3 35 558 560
3 82 559 558
3 86 560 559
3 558 559 560
3 35 561 558
3 83 562 561
3 82 558 562
3 561 562 558
3 35 563 561
3 81 564 563
3 83 561 564
3 563 564 561
3 35 565 563
3 79 566 565
3 81 563 566
3 565 566 563
3 35 567 565
3 80 568 567
3 79 565 568
3 567 568 565
3 35 560 567
3 86 569 560
3 80 567 569
3 560 569 567
3 36 570 572
3 95 571 570
3 98 572 571
3 570 571 572
3 36 573 570
3 96 574 573
3 95 570 574
3 573 574 570
3 36 575 573
3 83 576 575
3 96 573 576
3 575 576 573
3 36 577 575
3 84 578 577
3 83 575 578
3 577 578 575
3 36 579 577
3 91 580 579
3 84 577 580
3 579 580 577
3 36 572 579
3 98 581 572
3 91 579 581
3 572 581 579
3 37 582 584
3 92 583 582
3 96 584 583
3 582 583 584
3 37 585 582
3 93 586 585
3 92 582 586
3 585 586 582
3 37 587 585
3 73 588 587
3 93 585 588
3 587 588 585
3 37 589 587
3 74 590 589
3 73 587 590
3 589 590 587
3 37 591 589
3 81 592 591
3 74 589 592
3 591 592 589
3 37 584 591
3 96 593 584
3 81 591 593
3 584 593 591
3 38 594 596
3 142 595 594
3 146 596 595
3 594 595 596
3 38 597 594
3 143 598 597
3 142 594 598
3 597 598 594
3 38 599 597
3 93 600 599
3 143 597 600
3 599 600 597
3 38 601 599
3 94 602 601
3 93 599 602
3 601 602 599
3 38 603 601
3 101 604 603
3 94 601 604
3 603 604 601
3 38 596 603
3 146 605 596
3 101 603 605
3 596 605 603
3 39 606 608
3 151 607 606
3 144 608 607
3 606 607 608
3 39 609 606
3 76 610 609
3 151 606 610
3 609 610 606
3 39 611 609
3 72 612 611
3 76 609 612
3 611 612 609
3 39 613 611
3 73 614 613
3 72 611 614
3 613 614 611
3 39 615 613
3 143 616 615
3 73 613 616
3 615 616 613
3 39 608 615
3 144 617 608
3 143 615 617
3 608 617 615
3 40 618 620
3 155 619 618
3 158 620 619
3 618 619 620
3 40 621 618
3 156 622 621
3 155 618 622
3 621 622 618
3 40 623 621
3 100 624 623
3 156 621 624
3 623 624 621
3 40 625 623
3 97 626 625
3 100 623 626
3 625 626 623
3 40 627 625
3 98 628 627
3 97 625 628
3 627 628 625
3 40 620 627
3 158 629 620
3 98 627 629
3 620 629 627
3 41 630 632
3 105 631 630
3 108 632 631
3 630 631 632
3 41 633 630
3 106 634 633
3 105 630 634
3 633 634 630
3 41 635 633
3 101 636 635
3 106 633 636
3 635 636 633
3 41 637 635
3 99 638 637
3 101 635 638
3 637 638 635
3 41 639 637
3 100 640 639
3 99 637 640
3 639 640 637
3 41 632 639
3 108 641 632
3 100 639 641
3 632 641 639
