ply
format ascii 1.0
element vertex 50
property float x
property float y
property float z
element face 96
property list uchar int vertex_indices
end_header
0 0 0
1 0 0
1 1 0
0 1 0
0.5 0.5 1.6
0.5 -0.125 -0.0666667
-0.125 0.5 -0.0666667
0.5 0.5 -0.2
0.5 1.125 -0.0666667
1.125 0.5 -0.0666667
0.84375 0.15625 0.9
0.1875 0.1875 0.933333
0.15625 0.84375 0.9
0.8125 0.8125 0.933333
0.146484 0.486328 -0.19375
0.486328 0.146484 -0.19375
0.164063 0.164063 -0.208333
0.835938 0.835938 -0.208333
0.853516 0.513672 -0.19375
0.513672 0.853516 -0.19375
0.517578 0.115234 0.99375
0.371094 -0.0429688 0.454166
0.6875 -0.0546875 0.45
0.115234 0.517578 0.99375
-0.0546875 0.6875 0.45
-0.0429688 0.371094 0.454166
0.482422 0.884766 0.99375
0.628906 1.04297 0.454166
0.3125 1.05469 0.45
1.04297 0.628906 0.454166
0.884766 0.482422 0.99375
1.05469 0.3125 0.45
-0.109375 0.796875 -0.0166667
0.167969 0.832031 -0.1875
0.832031 0.167969 -0.1875
0.796875 -0.109375 -0.0166667
0.203125 -0.109375 -0.1
-0.109375 0.203125 -0.1
0.796875 1.10938 -0.1
1.10938 0.796875 -0.1
1.10938 0.203125 -0.0166667
0.203125 1.10938 -0.0166667
0.671875 0.328125 1.425
0.34375 0.34375 1.43333
0.046875 0.046875 0.4
1.00391 -0.00390625 0.3625
0.328125 0.671875 1.425
-0.00390625 1.00391 0.3625
0.65625 0.65625 1.43333
0.953125 0.953125 0.4
3 15 16 14
3 18 19 17
3 21 22 20
3 24 25 23
3 27 28 26
3 30 31 29
3 32 33 14
3 34 35 15
3 36 37 16
3 38 39 17
3 18 40 34
3 33 41 19
3 42 43 20
3 21 44 36
3 35 45 22
3 43 46 23
3 24 47 32
3 37 44 25
3 46 48 26
3 27 49 38
3 41 47 28
3 39 49 29
3 30 48 42
3 31 45 40
3 16 15 5
3 14 16 6
3 15 14 7
3 19 18 7
3 17 19 8
3 18 17 9
3 22 21 5
3 20 22 10
3 21 20 11
3 25 24 6
3 23 25 11
3 24 23 12
3 28 27 8
3 26 28 12
3 27 26 13
3 31 30 10
3 29 31 9
3 30 29 13
3 33 32 3
3 14 33 7
3 32 14 6
3 35 34 1
3 15 35 5
3 34 15 7
3 37 36 0
3 16 37 6
3 36 16 5
3 39 38 2
3 17 39 9
3 38 17 8
3 40 18 9
3 34 40 1
3 18 34 7
3 41 33 3
3 19 41 8
3 33 19 7
3 43 42 4
3 20 43 11
3 42 20 10
3 44 21 11
3 36 44 0
3 21 36 5
3 45 35 1
3 22 45 10
3 35 22 5
3 46 43 4
3 23 46 12
3 43 23 11
3 47 24 12
3 32 47 3
3 24 32 6
3 44 37 0
3 25 44 11
3 37 25 6
3 48 46 4
3 26 48 13
3 46 26 12
3 49 27 13
3 38 49 2
3 27 38 8
3 47 41 3
3 28 47 12
3 41 28 8
3 49 39 2
3 29 49 13
3 39 29 9
3 48 30 13
3 42 48 4
3 30 42 10
3 45 31 10
3 40 45 1
3 31 40 9
