ply
format ascii 1.0
element vertex 14
property float x
property float y
property float z
element face 24
property list uchar int vertex_indices
end_header
0 0 0
1 0 0
1 1 0
0 1 0
0.5 0.5 1.6
0.5 -0.125 -0.0666667
-0.125 0.5 -0.0666667
0.5 0.5 -0.2
0.5 1.125 -0.0666667
1.125 0.5 -0.0666667
0.84375 0.15625 0.9
0.1875 0.1875 0.933333
0.15625 0.84375 0.9
0.8125 0.8125 0.933333
3 6 7 5
3 8 9 7
3 10 11 5
3 11 12 6
3 12 13 8
3 9 13 10
3 7 6 3
3 5 7 1
3 6 5 0
3 9 8 2
3 7 9 1
3 8 7 3
3 11 10 4
3 5 11 0
3 10 5 1
3 12 11 4
3 6 12 3
3 11 6 0
3 13 12 4
3 8 13 2
3 12 8 3
3 13 9 2
3 10 13 4
3 9 10 1
