ply
format ascii 1.0
element vertex 110
property float x
property float y
property float z
element face 108
property list uchar int vertex_indices
end_header
0.287423 0.287423 0.306584
0.712456 0.287544 0.184028
0.694734 0.729456 0.325617
0.293368 0.71797 0.195012
0.522222 0.5 0.835555
0.460142 0.181062 0.181558
0.18588 0.462268 0.155308
0.475 0.497222 0.0311111
0.562732 0.816898 0.164197
0.826935 0.564011 0.179458
0.663194 0.309028 0.633334
0.323817 0.323817 0.64952
0.323013 0.676987 0.643519
0.683899 0.687757 0.624829
0.362268 0.330324 0.0486419
0.638889 0.638889 0.04
0.49838 0.194213 0.484197
0.194213 0.49838 0.484197
0.50162 0.805787 0.484197
0.790972 0.486806 0.526666
0.419271 0.407118 0.025
0.255787 0.394676 0.0802467
0.309896 0.488715 0.0694443
0.216146 0.582465 0.169444
0.382813 0.610243 0.0805557
0.749132 0.598091 0.0805554
0.598091 0.749132 0.0805554
0.706019 0.706019 0.135802
0.641204 0.780092 0.234568
0.769676 0.658565 0.245679
0.412037 0.238426 0.580247
0.58941 0.23698 0.569445
0.5 0.298611 0.677778
0.597222 0.395833 0.766667
0.413195 0.413195 0.777778
0.23698 0.58941 0.569445
0.238426 0.412037 0.580247
0.298611 0.5 0.677778
0.413195 0.586805 0.777778
0.587963 0.761574 0.580247
0.41059 0.763021 0.569445
0.5 0.701389 0.677778
0.597222 0.604167 0.766667
0.756944 0.590278 0.588889
0.832465 0.514757 0.347222
0.789352 0.622685 0.402469
0.710648 0.710648 0.45679
0.568576 0.202257 0.169444
0.414641 0.235822 0.0941357
0.526909 0.299479 0.0805557
0.599826 0.400174 0.0694446
0.209491 0.376157 0.223457
0.303241 0.303241 0.145679
0.376157 0.209491 0.223457
0.569445 0.569445 0.0277778
0.700521 0.473091 0.0805557
0.797743 0.431424 0.169444
0.431424 0.797743 0.169444
0.473091 0.700521 0.0805557
0.484086 0.166377 0.316358
0.386574 0.219908 0.412345
0.292824 0.292824 0.490123
0.714409 0.285591 0.436111
0.613715 0.212674 0.358333
0.166377 0.484086 0.316358
0.212674 0.613715 0.358333
0.285591 0.714409 0.436111
0.219908 0.386574 0.412345
0.515914 0.833623 0.316358
0.613426 0.780092 0.412345
0.386285 0.787326 0.358333
0.745659 0.393229 0.591667
0.673611 0.5 0.722222
0.787326 0.386285 0.358333
0.319444 0.430555 0.0444443
0.295139 0.565972 0.1
0.694445 0.694445 0.0888887
0.712963 0.712963 0.187654
0.5 0.25 0.622222
0.5 0.361111 0.755556
0.25 0.5 0.622222
0.361111 0.5 0.755556
0.5 0.75 0.622222
0.5 0.638889 0.755556
0.805555 0.583333 0.444444
0.768518 0.657407 0.365432
0.510416 0.239583 0.1
0.524305 0.364583 0.0555557
0.24537 0.356481 0.14321
0.356481 0.24537 0.14321
0.635417 0.475695 0.0555557
0.760417 0.489584 0.1
0.489584 0.760417 0.1
0.475695 0.635417 0.0555557
0.412037 0.189815 0.320987
0.356482 0.245371 0.498765
0.649305 0.239584 0.455556
0.565972 0.184028 0.277778
0.184028 0.565972 0.277778
0.239584 0.649305 0.455556
0.245371 0.356482 0.498765
0.189815 0.412037 0.320987
0.587963 0.810185 0.320987
0.643518 0.754629 0.498765
0.350695 0.760416 0.455556
0.434028 0.815972 0.277778
0.680555 0.430556 0.711111
0.680555 0.569444 0.711111
0.815972 0.434028 0.277778
0.760416 0.350695 0.455556
4 22 74 21 6
4 24 75 23 3
4 27 76 26 8
4 29 77 28 2
4 32 78 31 10
4 34 79 33 4
4 37 80 36 11
4 38 81 34 4
4 41 82 40 12
4 42 83 38 4
4 45 84 44 9
4 46 85 29 2
4 49 86 48 14
4 50 87 20 7
4 52 88 21 14
4 53 89 48 5
4 55 90 54 15
4 56 91 25 9
4 58 92 26 15
4 58 93 24 3
4 60 94 59 16
4 61 95 30 11
4 63 96 31 16
4 63 97 47 1
4 65 98 64 17
4 66 99 35 12
4 67 100 36 17
4 67 101 51 0
4 69 102 68 18
4 69 103 46 2
4 70 104 40 18
4 70 105 57 3
4 72 106 71 19
4 72 107 42 4
4 73 108 44 19
4 73 109 62 1
4 7 20 74 22
4 14 21 74 20
4 7 22 75 24
4 6 23 75 22
4 9 25 76 27
4 15 26 76 25
4 9 27 77 29
4 8 28 77 27
4 11 30 78 32
4 16 31 78 30
4 11 32 79 34
4 10 33 79 32
4 12 35 80 37
4 17 36 80 35
4 12 37 81 38
4 11 34 81 37
4 13 39 82 41
4 18 40 82 39
4 13 41 83 42
4 12 38 83 41
4 13 43 84 45
4 19 44 84 43
4 13 45 85 46
4 9 29 85 45
4 1 47 86 49
4 5 48 86 47
4 1 49 87 50
4 14 20 87 49
4 0 51 88 52
4 6 21 88 51
4 0 52 89 53
4 14 48 89 52
4 1 50 90 55
4 7 54 90 50
4 1 55 91 56
4 15 25 91 55
4 3 57 92 58
4 8 26 92 57
4 15 54 93 58
4 7 24 93 54
4 0 53 94 60
4 5 59 94 53
4 0 60 95 61
4 16 30 95 60
4 1 62 96 63
4 10 31 96 62
4 16 59 97 63
4 5 47 97 59
4 3 23 98 65
4 6 64 98 23
4 3 65 99 66
4 17 35 99 65
4 0 61 100 67
4 11 36 100 61
4 17 64 101 67
4 6 51 101 64
4 2 28 102 69
4 8 68 102 28
4 18 39 103 69
4 13 46 103 39
4 3 66 104 70
4 12 40 104 66
4 18 68 105 70
4 8 57 105 68
4 4 33 106 72
4 10 71 106 33
4 19 43 107 72
4 13 42 107 43
4 1 56 108 73
4 9 44 108 56
4 19 71 109 73
4 10 62 109 71
