ply
format ascii 1.0
element vertex 20
property float x
property float y
property float z
element face 18
property list uchar int vertex_indices
end_header
0.277778 0.277778 0.296296
0.739583 0.260417 0.166667
0.722222 0.722222 0.296296
0.260417 0.739583 0.166667
0.5 0.5 0.933333
0.458333 0.125 0.133333
0.125 0.458333 0.133333
0.5 0.5 0
0.541667 0.875 0.133333
0.875 0.541667 0.133333
0.708333 0.291667 0.666667
0.291667 0.291667 0.666667
0.291667 0.708333 0.666667
0.708333 0.708333 0.666667
0.333333 0.333333 0
0.666667 0.666667 0
0.5 0.166667 0.533333
0.166667 0.5 0.533333
0.5 0.833333 0.533333
0.833333 0.5 0.533333
4 7 14 6 3
4 9 15 8 2
4 11 16 10 4
4 12 17 11 4
4 13 18 12 4
4 13 19 9 2
4 1 5 14 7
4 0 6 14 5
4 1 7 15 9
4 3 8 15 7
4 0 5 16 11
4 1 10 16 5
4 3 6 17 12
4 0 11 17 6
4 2 8 18 13
4 3 12 18 8
4 4 10 19 13
4 1 9 19 10
