ply
format ascii 1.0
element vertex 50
property float x
property float y
property float z
element face 96
property list uchar int vertex_indices
end_header
0.219727 0.219727 0.234375
0.751663 0.248337 0.158936
0.780273 0.780273 0.234375
0.248337 0.751663 0.158936
0.5 0.5 0.964258
0.313477 0.313477 0.622656
0.318054 0.681946 0.619336
0.172546 0.454407 0.17168
0.454407 0.172546 0.17168
0.681946 0.318054 0.619336
0.5 0.5 0.0371094
0.827454 0.545593 0.17168
0.686523 0.686523 0.622656
0.545593 0.827454 0.17168
0.181641 0.275391 0.19375
0.291016 0.291016 0.09375
0.275391 0.181641 0.19375
0.228516 0.228516 0.34375
0.193359 0.388672 0.40625
0.388672 0.193359 0.40625
0.677612 0.322388 0.0613281
0.699829 0.518921 0.0621094
0.810425 0.353638 0.161328
0.646362 0.189575 0.161328
0.481079 0.300171 0.0621094
0.759644 0.240356 0.323828
0.586548 0.194702 0.399609
0.805298 0.413452 0.399609
0.771484 0.771484 0.34375
0.806641 0.611328 0.40625
0.818359 0.724609 0.19375
0.724609 0.818359 0.19375
0.611328 0.806641 0.40625
0.708984 0.708984 0.09375
0.353638 0.810425 0.161328
0.518921 0.699829 0.0621094
0.322388 0.677612 0.0613281
0.240356 0.759644 0.323828
0.413452 0.805298 0.399609
0.189575 0.646362 0.161328
0.194702 0.586548 0.399609
0.300171 0.481079 0.0621094
0.582031 0.417969 0.892187
0.714844 0.503906 0.689062
0.582031 0.582031 0.892187
0.417969 0.417969 0.892187
0.496094 0.285156 0.689062
0.417969 0.582031 0.892187
0.285156 0.496094 0.689062
0.503906 0.714844 0.689062
3 35 33 21
3 11 21 33
3 13 33 35
3 10 35 21
3 29 43 27
3 9 27 43
3 12 43 29
3 11 29 27
3 15 41 24
3 10 24 41
3 7 41 15
3 8 15 24
3 49 32 38
3 13 38 32
3 12 32 49
3 6 49 38
3 48 40 18
3 7 18 40
3 6 40 48
3 5 48 18
3 26 46 19
3 5 19 46
3 9 46 26
3 8 26 19
3 0 14 16
3 7 15 14
3 8 16 15
3 14 15 16
3 0 17 14
3 5 18 17
3 7 14 18
3 17 18 14
3 0 16 17
3 8 19 16
3 5 17 19
3 16 19 17
3 1 20 22
3 10 21 20
3 11 22 21
3 20 21 22
3 1 23 20
3 8 24 23
3 10 20 24
3 23 24 20
3 1 25 23
3 9 26 25
3 8 23 26
3 25 26 23
3 1 22 25
3 11 27 22
3 9 25 27
3 22 27 25
3 2 28 30
3 12 29 28
3 11 30 29
3 28 29 30
3 2 31 28
3 13 32 31
3 12 28 32
3 31 32 28
3 2 30 31
3 11 33 30
3 13 31 33
3 30 33 31
3 3 34 36
3 13 35 34
3 10 36 35
3 34 35 36
3 3 37 34
3 6 38 37
3 13 34 38
3 37 38 34
3 3 39 37
3 7 40 39
3 6 37 40
3 39 40 37
3 3 36 39
3 10 41 36
3 7 39 41
3 36 41 39
3 4 42 44
3 9 43 42
3 12 44 43
3 42 43 44
3 4 45 42
3 5 46 45
3 9 42 46
3 45 46 42
3 4 47 45
3 6 48 47
3 5 45 48
3 47 48 45
3 4 44 47
3 12 49 44
3 6 47 49
3 44 49 47
