ply
format ascii 1.0
element vertex 194
property float x
property float y
property float z
element face 384
property list uchar int vertex_indices
end_header
0.202423 0.202423 0.215918
0.769087 0.230913 0.147784
0.797577 0.797577 0.215918
0.230913 0.769087 0.147784
0.5 0.5 1.00886
0.309448 0.309448 0.632324
0.313454 0.686546 0.629419
0.162697 0.456199 0.16272
0.456199 0.162697 0.16272
0.686546 0.313454 0.629419
0.5 0.5 0.0324707
0.837303 0.543801 0.16272
0.690552 0.690552 0.632324
0.543801 0.837303 0.16272
0.174612 0.286203 0.185346
0.292297 0.292297 0.104456
0.286203 0.174612 0.185346
0.230408 0.230408 0.363892
0.198641 0.385954 0.404157
0.385954 0.198641 0.404157
0.671278 0.328722 0.0666977
0.695791 0.518625 0.0657898
0.816521 0.355781 0.152153
0.644219 0.183479 0.152153
0.481375 0.304209 0.0657898
0.757043 0.242957 0.341142
0.585468 0.200115 0.398889
0.799885 0.414532 0.398889
0.769592 0.769592 0.363892
0.801359 0.614046 0.404157
0.825388 0.713797 0.185346
0.713797 0.825388 0.185346
0.614046 0.801359 0.404157
0.707703 0.707703 0.104456
0.355781 0.816521 0.152153
0.518625 0.695791 0.0657898
0.328722 0.671278 0.0666977
0.242957 0.757043 0.341142
0.414532 0.799885 0.398889
0.183479 0.644219 0.152153
0.200115 0.585468 0.398889
0.304209 0.481375 0.0657898
0.585764 0.414236 0.889234
0.711302 0.503115 0.682355
0.586151 0.586151 0.889337
0.413849 0.413849 0.889337
0.496885 0.288698 0.682355
0.414236 0.585764 0.889234
0.288698 0.496885 0.682355
0.503115 0.711302 0.682355
0.222473 0.187317 0.199805
0.261414 0.184754 0.27832
0.204895 0.204895 0.256055
0.187317 0.222473 0.199805
0.223083 0.223083 0.155664
0.184754 0.261414 0.27832
0.797484 0.274293 0.148672
0.806981 0.29214 0.250095
0.776488 0.223512 0.21586
0.7406 0.2594 0.101016
0.757665 0.341457 0.0922821
0.725707 0.202516 0.148672
0.658543 0.242335 0.0922821
0.70786 0.193019 0.250095
0.812683 0.777527 0.199805
0.776917 0.776917 0.155664
0.777527 0.812683 0.199805
0.795105 0.795105 0.256055
0.815246 0.738586 0.27832
0.738586 0.815246 0.27832
0.2594 0.7406 0.101016
0.242335 0.658543 0.0922821
0.202516 0.725707 0.148672
0.274293 0.797484 0.148672
0.341457 0.757665 0.0922821
0.223512 0.776488 0.21586
0.29214 0.806981 0.250095
0.193019 0.70786 0.250095
0.535889 0.535889 0.985779
0.500244 0.598877 0.916028
0.464111 0.535889 0.985779
0.535889 0.464111 0.985779
0.598877 0.500244 0.916028
0.464111 0.464111 0.985779
0.499756 0.401123 0.916028
0.401123 0.499756 0.916028
0.360779 0.360779 0.768213
0.34552 0.450012 0.805225
0.292053 0.396545 0.674365
0.396545 0.292053 0.674365
0.450012 0.34552 0.805225
0.344421 0.245789 0.534033
0.440895 0.23867 0.544263
0.265442 0.265442 0.49292
0.299011 0.209656 0.3979
0.245789 0.344421 0.534033
0.209656 0.299011 0.3979
0.23867 0.440895 0.544263
0.362125 0.637875 0.76759
0.451763 0.654194 0.805017
0.40237 0.707005 0.673328
0.292995 0.59763 0.673328
0.345806 0.548237 0.805017
0.247974 0.642651 0.52926
0.239124 0.543347 0.543225
0.273113 0.726887 0.482752
0.214252 0.679791 0.384046
0.357349 0.752026 0.52926
0.320209 0.785748 0.384046
0.456654 0.760876 0.543225
0.169659 0.551899 0.156629
0.227619 0.567913 0.093567
0.217152 0.471447 0.100305
0.164906 0.523693 0.267493
0.175373 0.620159 0.260755
0.163906 0.426304 0.272009
0.195118 0.484447 0.404895
0.165531 0.365353 0.173206
0.171551 0.337116 0.275964
0.213223 0.376987 0.114197
0.216229 0.292439 0.132996
0.29623 0.383335 0.0813355
0.551899 0.169659 0.156629
0.620159 0.175373 0.260755
0.523693 0.164906 0.267493
0.471447 0.217152 0.100305
0.567913 0.227619 0.093567
0.376987 0.213223 0.114197
0.383335 0.29623 0.0813355
0.365353 0.165531 0.173206
0.292439 0.216229 0.132996
0.426304 0.163906 0.272009
0.337116 0.171551 0.275964
0.484447 0.195118 0.404895
0.637875 0.362125 0.76759
0.548237 0.345806 0.805017
0.59763 0.292995 0.673328
0.707005 0.40237 0.673328
0.654194 0.451763 0.805017
0.752026 0.357349 0.52926
0.760876 0.456654 0.543225
0.726887 0.273113 0.482752
0.785748 0.320209 0.384046
0.642651 0.247974 0.52926
0.679791 0.214252 0.384046
0.543347 0.239124 0.543225
0.400292 0.490333 0.0418457
0.315468 0.578575 0.0601563
0.410988 0.589012 0.0415527
0.490333 0.400292 0.0418457
0.391235 0.391235 0.0564697
0.589012 0.410988 0.0415527
0.578575 0.315468 0.0601563
0.599708 0.509667 0.0418457
0.684532 0.421425 0.0601563
0.509667 0.599708 0.0418457
0.608765 0.608765 0.0564697
0.421425 0.684532 0.0601563
0.786777 0.623013 0.114197
0.783772 0.707561 0.132996
0.834469 0.634647 0.173206
0.782848 0.528553 0.100305
0.70377 0.616665 0.0813355
0.830341 0.448101 0.156629
0.772381 0.432087 0.093567
0.835095 0.476307 0.267493
0.824627 0.379841 0.260755
0.836094 0.573696 0.272009
0.804882 0.515553 0.404895
0.828449 0.662884 0.275964
0.603455 0.707947 0.674365
0.549988 0.65448 0.805225
0.639221 0.639221 0.768213
0.655579 0.754211 0.534033
0.559105 0.76133 0.544263
0.734558 0.734558 0.49292
0.700989 0.790344 0.3979
0.754211 0.655579 0.534033
0.790344 0.700989 0.3979
0.707947 0.603455 0.674365
0.76133 0.559105 0.544263
0.65448 0.549988 0.805225
0.448101 0.830341 0.156629
0.379841 0.824627 0.260755
0.476307 0.835095 0.267493
0.528553 0.782848 0.100305
0.432087 0.772381 0.093567
0.623013 0.786777 0.114197
0.616665 0.70377 0.0813355
0.634647 0.834469 0.173206
0.707561 0.783772 0.132996
0.573696 0.836094 0.272009
0.662884 0.828449 0.275964
0.515553 0.804882 0.404895
3 102 87 85
3 45 85 87
3 48 87 102
3 47 102 85
3 171 99 79
3 47 79 99
3 49 99 171
3 44 171 79
3 138 181 82
3 44 82 181
3 43 181 138
3 42 138 82
3 90 135 84
3 42 84 135
3 46 135 90
3 45 90 84
3 114 106 77
3 37 77 106
3 40 106 114
3 39 114 77
3 147 111 71
3 39 71 111
3 41 111 147
3 36 147 71
3 186 157 74
3 36 74 157
3 35 157 186
3 34 186 74
3 108 183 76
3 34 76 183
3 38 183 108
3 37 108 76
3 174 193 109
3 38 109 193
3 32 193 174
3 49 174 109
3 159 190 65
3 31 65 190
3 33 190 159
3 30 159 65
3 178 169 68
3 30 68 169
3 29 169 178
3 28 178 68
3 192 176 69
3 28 69 176
3 32 176 192
3 31 192 69
3 180 140 168
3 27 168 140
3 43 140 180
3 29 180 168
3 144 123 63
3 23 63 123
3 26 123 144
3 25 144 63
3 166 142 57
3 25 57 142
3 27 142 166
3 22 166 57
3 188 162 156
3 21 156 162
3 33 162 188
3 35 188 156
3 154 164 60
3 22 60 164
3 21 164 154
3 20 154 60
3 126 152 62
3 20 62 152
3 24 152 126
3 23 126 62
3 145 92 133
3 19 133 92
3 46 92 145
3 26 145 133
3 104 116 97
3 18 97 116
3 40 116 104
3 48 104 97
3 132 94 51
3 17 51 94
3 19 94 132
3 16 132 51
3 121 150 128
3 24 128 150
3 41 150 121
3 15 121 128
3 120 130 54
3 16 54 130
3 15 130 120
3 14 120 54
3 96 118 55
3 14 55 118
3 18 118 96
3 17 96 55
3 0 50 52
3 16 51 50
3 17 52 51
3 50 51 52
3 0 53 50
3 14 54 53
3 16 50 54
3 53 54 50
3 0 52 53
3 17 55 52
3 14 53 55
3 52 55 53
3 1 56 58
3 22 57 56
3 25 58 57
3 56 57 58
3 1 59 56
3 20 60 59
3 22 56 60
3 59 60 56
3 1 61 59
3 23 62 61
3 20 59 62
3 61 62 59
3 1 58 61
3 25 63 58
3 23 61 63
3 58 63 61
3 2 64 66
3 30 65 64
3 31 66 65
3 64 65 66
3 2 67 64
3 28 68 67
3 30 64 68
3 67 68 64
3 2 66 67
3 31 69 66
3 28 67 69
3 66 69 67
3 3 70 72
3 36 71 70
3 39 72 71
3 70 71 72
3 3 73 70
3 34 74 73
3 36 70 74
3 73 74 70
3 3 75 73
3 37 76 75
3 34 73 76
3 75 76 73
3 3 72 75
3 39 77 72
3 37 75 77
3 72 77 75
3 4 78 80
3 44 79 78
3 47 80 79
3 78 79 80
3 4 81 78
3 42 82 81
3 44 78 82
3 81 82 78
3 4 83 81
3 45 84 83
3 42 81 84
3 83 84 81
3 4 80 83
3 47 85 80
3 45 83 85
3 80 85 83
3 5 86 88
3 45 87 86
3 48 88 87
3 86 87 88
3 5 89 86
3 46 90 89
3 45 86 90
3 89 90 86
3 5 91 89
3 19 92 91
3 46 89 92
3 91 92 89
3 5 93 91
3 17 94 93
3 19 91 94
3 93 94 91
3 5 95 93
3 18 96 95
3 17 93 96
3 95 96 93
3 5 88 95
3 48 97 88
3 18 95 97
3 88 97 95
3 6 98 100
3 47 99 98
3 49 100 99
3 98 99 100
3 6 101 98
3 48 102 101
3 47 98 102
3 101 102 98
3 6 103 101
3 40 104 103
3 48 101 104
3 103 104 101
3 6 105 103
3 37 106 105
3 40 103 106
3 105 106 103
3 6 107 105
3 38 108 107
3 37 105 108
3 107 108 105
3 6 100 107
3 49 109 100
3 38 107 109
3 100 109 107
3 7 110 112
3 39 111 110
3 41 112 111
3 110 111 112
3 7 113 110
3 40 114 113
3 39 110 114
3 113 114 110
3 7 115 113
3 18 116 115
3 40 113 116
3 115 116 113
3 7 117 115
3 14 118 117
3 18 115 118
3 117 118 115
3 7 119 117
3 15 120 119
3 14 117 120
3 119 120 117
3 7 112 119
3 41 121 112
3 15 119 121
3 112 121 119
3 8 122 124
3 23 123 122
3 26 124 123
3 122 123 124
3 8 125 122
3 24 126 125
3 23 122 126
3 125 126 122
3 8 127 125
3 15 128 127
3 24 125 128
3 127 128 125
3 8 129 127
3 16 130 129
3 15 127 130
3 129 130 127
3 8 131 129
3 19 132 131
3 16 129 132
3 131 132 129
3 8 124 131
3 26 133 124
3 19 131 133
3 124 133 131
3 9 134 136
3 42 135 134
3 46 136 135
3 134 135 136
3 9 137 134
3 43 138 137
3 42 134 138
3 137 138 134
3 9 139 137
3 27 140 139
3 43 137 140
3 139 140 137
3 9 141 139
3 25 142 141
3 27 139 142
3 141 142 139
3 9 143 141
3 26 144 143
3 25 141 144
3 143 144 141
3 9 136 143
3 46 145 136
3 26 143 145
3 136 145 143
3 10 146 148
3 41 147 146
3 36 148 147
3 146 147 148
3 10 149 146
3 24 150 149
3 41 146 150
3 149 150 146
3 10 151 149
3 20 152 151
3 24 149 152
3 151 152 149
3 10 153 151
3 21 154 153
3 20 151 154
3 153 154 151
3 10 155 153
3 35 156 155
3 21 153 156
3 155 156 153
3 10 148 155
3 36 157 148
3 35 155 157
3 148 157 155
3 11 158 160
3 33 159 158
3 30 160 159
3 158 159 160
3 11 161 158
3 21 162 161
3 33 158 162
3 161 162 158
3 11 163 161
3 22 164 163
3 21 161 164
3 163 164 161
3 11 165 163
3 27 166 165
3 22 163 166
3 165 166 163
3 11 167 165
3 29 168 167
3 27 165 168
3 167 168 165
3 11 160 167
3 30 169 160
3 29 167 169
3 160 169 167
3 12 170 172
3 49 171 170
3 44 172 171
3 170 171 172
3 12 173 170
3 32 174 173
3 49 170 174
3 173 174 170
3 12 175 173
3 28 176 175
3 32 173 176
3 175 176 173
3 12 177 175
3 29 178 177
3 28 175 178
3 177 178 175
3 12 179 177
3 43 180 179
3 29 177 180
3 179 180 177
3 12 172 179
3 44 181 172
3 43 179 181
3 172 181 179
3 13 182 184
3 34 183 182
3 38 184 183
3 182 183 184
3 13 185 182
3 35 186 185
3 34 182 186
3 185 186 182
3 13 187 185
3 33 188 187
3 35 185 188
3 187 188 185
3 13 189 187
3 31 190 189
3 33 187 190
3 189 190 187
3 13 191 189
3 32 192 191
3 31 189 192
3 191 192 189
3 13 184 191
3 38 193 184
3 32 191 193
3 184 193 191
