ply
format ascii 1.0
element vertex 770
property float x
property float y
property float z
element face 1536
property list uchar int vertex_indices
end_header
0.197557 0.197557 0.210727
0.774669 0.225331 0.144212
0.802443 0.802443 0.210727
0.225331 0.774669 0.144212
0.5 0.5 1.02315
0.307938 0.307938 0.63595
0.311728 0.688272 0.6332
0.159003 0.456872 0.15936
0.456872 0.159003 0.15936
0.688272 0.311728 0.6332
0.5 0.5 0.0307312
0.840997 0.543128 0.15936
0.692062 0.692062 0.63595
0.543128 0.840997 0.15936
0.171462 0.286683 0.182099
0.291527 0.291527 0.103508
0.286683 0.171462 0.182099
0.229072 0.229072 0.366452
0.197614 0.385439 0.404028
0.385439 0.197614 0.404028
0.671864 0.328136 0.0652208
0.696502 0.518456 0.064573
0.819947 0.354742 0.149369
0.645258 0.180052 0.149369
0.481544 0.303498 0.064573
0.758871 0.241129 0.343641
0.586054 0.198988 0.399004
0.801012 0.413946 0.399004
0.770928 0.770927 0.366452
0.802386 0.614561 0.404028
0.828538 0.713317 0.182099
0.713317 0.828538 0.182099
0.614561 0.802386 0.404028
0.708473 0.708473 0.103508
0.354742 0.819947 0.149369
0.518456 0.696502 0.064573
0.328136 0.671864 0.0652208
0.241129 0.758871 0.343641
0.413946 0.801012 0.399004
0.180052 0.645258 0.149369
0.198988 0.586054 0.399004
0.303498 0.481544 0.064573
0.587006 0.412994 0.893607
0.711989 0.50297 0.683877
0.587345 0.587345 0.893698
0.412655 0.412655 0.893698
0.49703 0.288011 0.683877
0.412994 0.587006 0.893607
0.288011 0.49703 0.683877
0.50297 0.711989 0.683877
0.226585 0.184447 0.196683
0.260144 0.186893 0.276992
0.205516 0.205516 0.264103
0.184447 0.226585 0.196683
0.223518 0.223518 0.159789
0.186893 0.260144 0.276992
0.799949 0.275931 0.145826
0.804562 0.292448 0.249012
0.775882 0.224118 0.222753
0.737969 0.262031 0.101432
0.75626 0.340749 0.0944501
0.724069 0.200051 0.145826
0.659251 0.24374 0.0944501
0.707552 0.195438 0.249012
0.815553 0.773415 0.196683
0.776482 0.776482 0.159789
0.773415 0.815553 0.196683
0.794484 0.794484 0.264103
0.813107 0.739856 0.276992
0.739856 0.813107 0.276992
0.262031 0.737969 0.101432
0.24374 0.659251 0.0944501
0.200051 0.724069 0.145826
0.275931 0.799949 0.145826
0.340749 0.75626 0.0944501
0.224118 0.775882 0.222753
0.292448 0.804562 0.249012
0.195438 0.707552 0.249012
0.53794 0.53794 0.984257
0.500204 0.596805 0.913832
0.462087 0.537913 0.984254
0.537913 0.462087 0.984254
0.596805 0.500204 0.913832
0.46206 0.46206 0.984257
0.499796 0.403195 0.913832
0.403195 0.499796 0.913832
0.359627 0.359627 0.770339
0.34599 0.450801 0.803261
0.292754 0.397559 0.672763
0.397559 0.292754 0.672763
0.450801 0.34599 0.803261
0.344177 0.24654 0.531761
0.440851 0.239063 0.544699
0.265158 0.265157 0.497358
0.300413 0.209719 0.395672
0.24654 0.344177 0.531761
0.209719 0.300413 0.395672
0.239063 0.440851 0.544699
0.361084 0.638916 0.76961
0.452775 0.653775 0.803096
0.402923 0.706172 0.671674
0.293828 0.597077 0.671674
0.346225 0.547225 0.803096
0.248737 0.642168 0.527382
0.239532 0.543156 0.543387
0.27263 0.72737 0.48656
0.214588 0.678862 0.381858
0.357832 0.751263 0.527382
0.321138 0.785412 0.381858
0.456844 0.760468 0.543387
0.166936 0.55232 0.153725
0.229619 0.567172 0.0954772
0.219033 0.471281 0.101478
0.16663 0.523683 0.269167
0.177213 0.619578 0.263176
0.165721 0.424996 0.27314
0.195113 0.484802 0.404058
0.162876 0.367439 0.170056
0.173262 0.33687 0.279009
0.21454 0.376177 0.116919
0.218609 0.291523 0.133899
0.296007 0.383908 0.0811972
0.55232 0.166936 0.153725
0.619578 0.177213 0.263176
0.523683 0.16663 0.269167
0.471281 0.219033 0.101478
0.567172 0.229619 0.0954772
0.376177 0.21454 0.116919
0.383908 0.296007 0.0811972
0.367439 0.162876 0.170056
0.291523 0.218609 0.133899
0.424996 0.165721 0.27314
0.33687 0.173262 0.279009
0.484802 0.195113 0.404058
0.638916 0.361084 0.76961
0.547225 0.346225 0.803096
0.597077 0.293828 0.671674
0.706172 0.402923 0.671674
0.653775 0.452775 0.803096
0.751263 0.357832 0.527382
0.760468 0.456844 0.543387
0.72737 0.27263 0.48656
0.785412 0.321138 0.381858
0.642168 0.248737 0.527382
0.678862 0.214588 0.381858
0.543156 0.239532 0.543387
0.400362 0.490543 0.0421858
0.315089 0.578361 0.0602593
0.411547 0.588453 0.0420272
0.490543 0.400362 0.0421858
0.391344 0.391344 0.0575886
0.588453 0.411547 0.0420272
0.578361 0.315089 0.0602593
0.599639 0.509456 0.0421858
0.684912 0.421639 0.0602593
0.509456 0.599639 0.0421858
0.608656 0.608656 0.0575886
0.421639 0.684912 0.0602593
0.78546 0.623823 0.116919
0.781391 0.708477 0.133899
0.837124 0.632561 0.170056
0.780967 0.528719 0.101478
0.703993 0.616092 0.0811972
0.833064 0.44768 0.153725
0.770381 0.432828 0.0954772
0.83337 0.476317 0.269167
0.822787 0.380422 0.263176
0.834279 0.575004 0.27314
0.804887 0.515198 0.404058
0.826738 0.66313 0.279009
0.602441 0.707246 0.672763
0.549199 0.65401 0.803261
0.640373 0.640373 0.770339
0.655823 0.75346 0.531761
0.559149 0.760937 0.544699
0.734843 0.734842 0.497358
0.699587 0.790281 0.395672
0.75346 0.655823 0.531761
0.790281 0.699587 0.395672
0.707246 0.602441 0.672763
0.760937 0.559149 0.544699
0.65401 0.549199 0.803261
0.44768 0.833064 0.153725
0.380422 0.822787 0.263176
0.476317 0.83337 0.269167
0.528719 0.780967 0.101478
0.432828 0.770381 0.0954772
0.623823 0.78546 0.116919
0.616092 0.703993 0.0811972
0.632561 0.837124 0.170056
0.708477 0.781391 0.133899
0.575004 0.834279 0.27314
0.66313 0.826738 0.279009
0.515198 0.804887 0.404058
0.198252 0.198252 0.225531
0.188925 0.217886 0.232379
0.19166 0.204844 0.204437
0.204844 0.19166 0.204437
0.217886 0.188925 0.232379
0.203405 0.203405 0.186041
0.779154 0.220846 0.172708
0.752032 0.204389 0.18657
0.756556 0.212042 0.144534
0.787958 0.243444 0.144534
0.795611 0.247968 0.18657
0.763453 0.236547 0.122464
0.773837 0.269742 0.116893
0.730258 0.226163 0.116893
0.795156 0.80834 0.204437
0.782114 0.811075 0.232379
0.801748 0.801748 0.225531
0.80834 0.795156 0.204437
0.796595 0.796595 0.186041
0.811075 0.782114 0.232379
0.212042 0.756556 0.144534
0.204389 0.752032 0.18657
0.220846 0.779154 0.172708
0.236547 0.763453 0.122464
0.226163 0.730258 0.116893
0.243444 0.787958 0.144534
0.269742 0.773837 0.116893
0.247968 0.795611 0.18657
0.484299 0.515701 1.01576
0.456436 0.499985 0.993122
0.484299 0.484299 1.01576
0.515701 0.515701 1.01576
0.500015 0.543564 0.993122
0.515701 0.484299 1.01576
0.543564 0.500015 0.993122
0.499985 0.456436 0.993122
0.298046 0.349926 0.660318
0.268648 0.370154 0.60265
0.274739 0.324421 0.590488
0.33324 0.33324 0.704281
0.32362 0.376598 0.728006
0.349926 0.298046 0.660318
0.376598 0.32362 0.728006
0.324421 0.274738 0.590488
0.370154 0.268648 0.60265
0.285382 0.285381 0.566299
0.301914 0.25391 0.520712
0.253911 0.301914 0.520712
0.35469 0.699998 0.658567
0.379467 0.729831 0.600485
0.332244 0.722444 0.586739
0.335576 0.664424 0.70292
0.379363 0.675111 0.727085
0.300002 0.64531 0.658567
0.324889 0.620637 0.727085
0.277556 0.667757 0.586739
0.270169 0.620533 0.600485
0.291005 0.708995 0.560295
0.258028 0.687499 0.513128
0.312501 0.741973 0.513128
0.182727 0.465246 0.12528
0.215747 0.423054 0.108549
0.180995 0.418164 0.131526
0.161897 0.504584 0.155982
0.187032 0.513186 0.121395
0.156787 0.491185 0.208288
0.160543 0.539675 0.206161
0.156154 0.443005 0.211018
0.164994 0.473807 0.270959
0.159783 0.410979 0.164385
0.158427 0.397396 0.215168
0.18243 0.373394 0.138361
0.491185 0.156787 0.208288
0.473807 0.164994 0.270959
0.443005 0.156154 0.211018
0.504584 0.161897 0.155982
0.539675 0.160543 0.206161
0.465246 0.182727 0.12528
0.513186 0.187032 0.121395
0.418164 0.180995 0.131526
0.423054 0.215747 0.108549
0.410979 0.159783 0.164385
0.373394 0.18243 0.138361
0.397396 0.158427 0.215168
0.64531 0.300002 0.658567
0.620533 0.270169 0.600485
0.667757 0.277556 0.586739
0.664424 0.335576 0.70292
0.620637 0.324889 0.727085
0.699998 0.35469 0.658567
0.675111 0.379363 0.727085
0.722444 0.332244 0.586739
0.729831 0.379467 0.600485
0.708995 0.291005 0.560295
0.741973 0.312501 0.513128
0.687499 0.258028 0.513128
0.45543 0.54457 0.034137
0.460375 0.594099 0.0399322
0.504897 0.54979 0.0342468
0.45021 0.495102 0.0342468
0.405902 0.539624 0.0399322
0.495102 0.45021 0.0342468
0.445351 0.445351 0.0399033
0.54457 0.45543 0.034137
0.539624 0.405902 0.0399322
0.54979 0.504897 0.0342468
0.594099 0.460375 0.0399322
0.554649 0.554649 0.0399033
0.840217 0.589021 0.164385
0.841573 0.602604 0.215168
0.843846 0.556995 0.211018
0.819005 0.581836 0.131526
0.81757 0.626606 0.138361
0.817273 0.534755 0.12528
0.784253 0.576946 0.108549
0.838103 0.495416 0.155982
0.812967 0.486814 0.121395
0.843213 0.508815 0.208288
0.839457 0.460325 0.206161
0.835006 0.526193 0.270959
0.66676 0.66676 0.704281
0.67638 0.623402 0.728006
0.701954 0.650074 0.660318
0.650074 0.701954 0.660318
0.623402 0.67638 0.728006
0.675579 0.725261 0.590488
0.629846 0.731352 0.60265
0.714619 0.714618 0.566299
0.698086 0.74609 0.520712
0.725262 0.675579 0.590488
0.74609 0.698086 0.520712
0.731352 0.629846 0.60265
0.508815 0.843213 0.208288
0.526193 0.835006 0.270959
0.556995 0.843846 0.211018
0.495416 0.838103 0.155982
0.460325 0.839457 0.206161
0.534755 0.817273 0.12528
0.486814 0.812967 0.121395
0.581836 0.819005 0.131526
0.576946 0.784253 0.108549
0.589021 0.840217 0.164385
0.626606 0.81757 0.138361
0.602604 0.841573 0.215168
0.166749 0.325361 0.175934
0.185583 0.330759 0.145067
0.188982 0.290892 0.153336
0.167039 0.312834 0.223551
0.162161 0.354181 0.220019
0.173352 0.275515 0.226097
0.179447 0.296505 0.278663
0.177534 0.253786 0.189135
0.180824 0.24392 0.22915
0.192914 0.255954 0.163499
0.197898 0.226845 0.174511
0.220937 0.255015 0.145895
0.333507 0.251653 0.107161
0.332105 0.21599 0.124823
0.291357 0.252543 0.117439
0.336124 0.293225 0.0916091
0.379866 0.252855 0.0976654
0.293225 0.336124 0.0916091
0.339329 0.339329 0.0787911
0.251653 0.333507 0.107161
0.252855 0.379866 0.0976654
0.252543 0.291357 0.117439
0.21599 0.332105 0.124823
0.254051 0.254051 0.130193
0.325361 0.166749 0.175934
0.354181 0.162161 0.220019
0.312834 0.167039 0.223551
0.290892 0.188982 0.153336
0.330759 0.185583 0.145067
0.255954 0.192914 0.163499
0.255015 0.220937 0.145895
0.253786 0.177534 0.189135
0.226845 0.197898 0.174511
0.275515 0.173352 0.226097
0.24392 0.180824 0.22915
0.296505 0.179447 0.278663
0.246056 0.246055 0.429713
0.234749 0.281593 0.4523
0.217995 0.261879 0.386607
0.261879 0.217995 0.386607
0.281593 0.234749 0.4523
0.243996 0.204872 0.326961
0.279466 0.196486 0.333189
0.21566 0.21566 0.311137
0.229446 0.195297 0.275465
0.204872 0.243996 0.326961
0.195297 0.229446 0.275465
0.196486 0.279466 0.333189
0.179478 0.405681 0.338118
0.168587 0.379509 0.276513
0.183253 0.360646 0.339164
0.195378 0.433971 0.404719
0.178177 0.454544 0.336635
0.216827 0.412521 0.473359
0.215591 0.463066 0.474752
0.220406 0.364754 0.469085
0.241683 0.391038 0.539852
0.202661 0.341239 0.401267
0.226645 0.321451 0.462299
0.189188 0.318914 0.337754
0.405681 0.179478 0.338118
0.454544 0.178177 0.336635
0.433971 0.195378 0.404719
0.360646 0.183253 0.339164
0.379509 0.168587 0.276513
0.341239 0.202661 0.401267
0.318914 0.189188 0.337754
0.364754 0.220406 0.469085
0.321451 0.226645 0.462299
0.412521 0.216827 0.473359
0.391038 0.241683 0.539852
0.463066 0.215591 0.474752
0.631492 0.368508 0.0519253
0.637402 0.416645 0.0489012
0.678505 0.374046 0.0609095
0.625954 0.321494 0.0609095
0.583355 0.362598 0.0489012
0.665417 0.284596 0.0766732
0.620307 0.277193 0.0755616
0.707381 0.292619 0.0819563
0.700226 0.252777 0.0956482
0.715404 0.334583 0.0766732
0.747223 0.299774 0.0956482
0.722808 0.379693 0.0755616
0.740586 0.523349 0.0811642
0.776206 0.480595 0.0974812
0.735458 0.474972 0.0773137
0.700705 0.567433 0.071732
0.74436 0.571935 0.0884098
0.653632 0.563291 0.0587536
0.657391 0.612404 0.0681637
0.649034 0.513926 0.0519459
0.604458 0.559105 0.0485012
0.691068 0.469793 0.0611309
0.64346 0.465003 0.0490276
0.729368 0.427046 0.075812
0.827168 0.400367 0.151669
0.833984 0.412647 0.203913
0.827188 0.366022 0.2005
0.801248 0.391963 0.117492
0.807495 0.439136 0.119148
0.793675 0.347113 0.116513
0.763862 0.385647 0.094454
0.810771 0.31318 0.147442
0.784407 0.306256 0.116321
0.818517 0.322272 0.196005
0.80786 0.282803 0.19137
0.814622 0.334887 0.256884
0.599633 0.172832 0.151669
0.560864 0.192505 0.119148
0.608037 0.198752 0.117492
0.633978 0.172812 0.2005
0.587353 0.166015 0.203913
0.677728 0.181483 0.196005
0.665113 0.185378 0.256884
0.68682 0.18923 0.147442
0.717197 0.19214 0.19137
0.652887 0.206325 0.116513
0.693744 0.215593 0.116321
0.614353 0.236137 0.094454
0.486073 0.350967 0.0519459
0.534997 0.35654 0.0490276
0.530206 0.308932 0.0611309
0.436709 0.346368 0.0587536
0.440895 0.395542 0.0485012
0.432566 0.299295 0.071732
0.387596 0.342609 0.0681637
0.476651 0.259414 0.0811642
0.428065 0.25564 0.0884098
0.525028 0.264542 0.0773137
0.519405 0.223794 0.0974812
0.572954 0.270632 0.075812
0.744472 0.255528 0.413457
0.705462 0.240491 0.439642
0.721943 0.225506 0.36807
0.774494 0.278057 0.36807
0.759509 0.294538 0.439642
0.785556 0.264431 0.301158
0.797012 0.305489 0.313014
0.769254 0.230746 0.279948
0.792485 0.254512 0.240487
0.735569 0.214444 0.301158
0.745489 0.207514 0.240487
0.694511 0.202988 0.313014
0.614919 0.222121 0.464249
0.593655 0.242782 0.537331
0.56547 0.217607 0.470789
0.633647 0.205491 0.392139
0.66152 0.230017 0.453898
0.60385 0.18572 0.329544
0.650136 0.193451 0.322789
0.555466 0.180599 0.333374
0.572358 0.17084 0.266933
0.535948 0.195913 0.402555
0.505226 0.178478 0.335326
0.514382 0.215824 0.473878
0.819401 0.444534 0.333374
0.821522 0.494774 0.335326
0.804087 0.464052 0.402555
0.81428 0.39615 0.329544
0.82916 0.427642 0.266933
0.794509 0.366353 0.392139
0.806549 0.349864 0.322789
0.777879 0.385081 0.464249
0.769983 0.338481 0.453898
0.782393 0.43453 0.470789
0.757218 0.406345 0.537331
0.784176 0.485618 0.473878
0.753945 0.753944 0.429713
0.765251 0.718407 0.4523
0.782005 0.738121 0.386607
0.738121 0.782005 0.386607
0.718407 0.765251 0.4523
0.756005 0.795128 0.326961
0.720534 0.803514 0.333189
0.78434 0.78434 0.311137
0.770554 0.804703 0.275465
0.795128 0.756005 0.326961
0.804703 0.770554 0.275465
0.803514 0.720534 0.333189
0.779594 0.635246 0.469085
0.758317 0.608962 0.539852
0.783173 0.587479 0.473359
0.797339 0.658761 0.401267
0.773355 0.678549 0.462299
0.816746 0.639354 0.339164
0.810812 0.681086 0.337754
0.820522 0.594319 0.338118
0.831413 0.620491 0.276513
0.804622 0.566029 0.404719
0.821823 0.545457 0.336635
0.784409 0.536934 0.474752
0.832961 0.687166 0.223551
0.837839 0.645819 0.220019
0.833251 0.674639 0.175934
0.826648 0.724485 0.226097
0.820553 0.703495 0.278663
0.822466 0.746214 0.189135
0.819176 0.75608 0.22915
0.807086 0.744046 0.163499
0.802102 0.773155 0.174511
0.811018 0.709108 0.153336
0.779063 0.744985 0.145895
0.814417 0.669241 0.145067
0.674639 0.833251 0.175934
0.645819 0.837839 0.220019
0.687166 0.832961 0.223551
0.709108 0.811018 0.153336
0.669241 0.814417 0.145067
0.744046 0.807086 0.163499
0.744985 0.779063 0.145895
0.746214 0.822466 0.189135
0.773155 0.802102 0.174511
0.724485 0.826648 0.226097
0.75608 0.819176 0.22915
0.703495 0.820553 0.278663
0.594319 0.820522 0.338118
0.545457 0.821823 0.336635
0.566029 0.804622 0.404719
0.639354 0.816746 0.339164
0.620491 0.831413 0.276513
0.658761 0.797339 0.401267
0.681086 0.810812 0.337754
0.635246 0.779594 0.469085
0.678549 0.773355 0.462299
0.587479 0.783173 0.473359
0.608962 0.758317 0.539852
0.536934 0.784409 0.474752
0.666493 0.748347 0.107161
0.667894 0.78401 0.124823
0.708643 0.747457 0.117439
0.663876 0.706775 0.0916091
0.620134 0.747145 0.0976654
0.706775 0.663876 0.0916091
0.660671 0.660671 0.0787911
0.748347 0.666493 0.107161
0.747145 0.620134 0.0976654
0.747457 0.708643 0.117439
0.78401 0.667894 0.124823
0.745949 0.745949 0.130193
0.400367 0.827168 0.151669
0.439136 0.807495 0.119148
0.391963 0.801248 0.117492
0.366022 0.827188 0.2005
0.412647 0.833984 0.203913
0.322272 0.818517 0.196005
0.334887 0.814622 0.256884
0.31318 0.810771 0.147442
0.282803 0.80786 0.19137
0.347113 0.793675 0.116513
0.306256 0.784407 0.116321
0.385647 0.763862 0.094454
0.523349 0.740586 0.0811642
0.571935 0.74436 0.0884098
0.567433 0.700705 0.071732
0.474972 0.735458 0.0773137
0.480595 0.776206 0.0974812
0.469793 0.691068 0.0611309
0.427046 0.729368 0.075812
0.513926 0.649034 0.0519459
0.465003 0.64346 0.0490276
0.563291 0.653632 0.0587536
0.559105 0.604458 0.0485012
0.612404 0.657391 0.0681637
0.374046 0.678505 0.0609095
0.416645 0.637402 0.0489012
0.368508 0.631492 0.0519253
0.334583 0.715404 0.0766732
0.379693 0.722808 0.0755616
0.292619 0.707381 0.0819563
0.299774 0.747223 0.0956482
0.284596 0.665417 0.0766732
0.252777 0.700226 0.0956482
0.321494 0.625954 0.0609095
0.277193 0.620307 0.0755616
0.362598 0.583355 0.0489012
0.255528 0.744472 0.413457
0.294538 0.759509 0.439642
0.278057 0.774494 0.36807
0.225506 0.721943 0.36807
0.240491 0.705462 0.439642
0.214444 0.735569 0.301158
0.202988 0.694511 0.313014
0.230746 0.769254 0.279948
0.207514 0.745489 0.240487
0.264431 0.785556 0.301158
0.254512 0.792485 0.240487
0.305489 0.797012 0.313014
0.464052 0.804087 0.402555
0.494774 0.821522 0.335326
0.444534 0.819401 0.333374
0.43453 0.782393 0.470789
0.485618 0.784176 0.473878
0.385081 0.777879 0.464249
0.406345 0.757218 0.537331
0.366353 0.794509 0.392139
0.338481 0.769983 0.453898
0.39615 0.81428 0.329544
0.349864 0.806549 0.322789
0.427642 0.82916 0.266933
0.172832 0.599633 0.151669
0.166015 0.587353 0.203913
0.172812 0.633978 0.2005
0.198752 0.608037 0.117492
0.192505 0.560864 0.119148
0.206325 0.652887 0.116513
0.236137 0.614353 0.094454
0.18923 0.68682 0.147442
0.215593 0.693744 0.116321
0.181483 0.677728 0.196005
0.19214 0.717197 0.19137
0.185378 0.665113 0.256884
0.180599 0.555466 0.333374
0.178478 0.505226 0.335326
0.195913 0.535948 0.402555
0.18572 0.60385 0.329544
0.17084 0.572358 0.266933
0.205491 0.633647 0.392139
0.193451 0.650136 0.322789
0.222121 0.614919 0.464249
0.230017 0.66152 0.453898
0.217607 0.56547 0.470789
0.242782 0.593655 0.537331
0.215824 0.514382 0.473878
0.350967 0.486073 0.0519459
0.395542 0.440895 0.0485012
0.346368 0.436709 0.0587536
0.308932 0.530206 0.0611309
0.35654 0.534997 0.0490276
0.264542 0.525028 0.0773137
0.270632 0.572954 0.075812
0.259414 0.476651 0.0811642
0.223794 0.519405 0.0974812
0.299295 0.432566 0.071732
0.25564 0.428065 0.0884098
0.342609 0.387596 0.0681637
0.612978 0.387022 0.834234
0.64913 0.404917 0.792854
0.622263 0.430288 0.855207
0.569712 0.377737 0.855207
0.595083 0.35087 0.792854
0.545157 0.404855 0.910473
0.522953 0.374546 0.861998
0.561872 0.438128 0.943568
0.521763 0.43124 0.956407
0.595145 0.454843 0.910473
0.56876 0.478237 0.956407
0.625454 0.477047 0.861998
0.710783 0.553152 0.680952
0.681355 0.575447 0.73991
0.684037 0.526393 0.746321
0.737451 0.530688 0.615789
0.735309 0.580987 0.611206
0.737222 0.4797 0.615335
0.761683 0.508112 0.545856
0.710325 0.452635 0.680421
0.734541 0.429022 0.609897
0.683871 0.476991 0.746179
0.680754 0.427709 0.73943
0.655388 0.501027 0.806507
0.622545 0.570665 0.855356
0.649805 0.596827 0.793288
0.613768 0.613768 0.834552
0.595236 0.545553 0.910506
0.625514 0.523995 0.862031
0.561975 0.561975 0.943587
0.568785 0.521879 0.956413
0.545553 0.595236 0.910506
0.521879 0.568785 0.956413
0.570665 0.622545 0.855356
0.523995 0.625514 0.862031
0.596827 0.649805 0.793288
0.386232 0.386232 0.834552
0.403173 0.350195 0.793288
0.429335 0.377455 0.855356
0.377455 0.429335 0.855356
0.350195 0.403173 0.793288
0.404764 0.454447 0.910506
0.374486 0.476005 0.862031
0.438025 0.438025 0.943587
0.431215 0.478121 0.956413
0.454447 0.404764 0.910506
0.478121 0.431215 0.956413
0.476005 0.374486 0.862031
0.520299 0.262778 0.615335
0.570978 0.265459 0.609897
0.547365 0.289675 0.680421
0.469312 0.262549 0.615789
0.491888 0.238317 0.545856
0.446848 0.289217 0.680952
0.419013 0.264691 0.611206
0.473607 0.315963 0.746321
0.424553 0.318646 0.73991
0.523009 0.316129 0.746179
0.498973 0.344613 0.806507
0.572291 0.319246 0.73943
0.387022 0.612978 0.834234
0.35087 0.595083 0.792854
0.377737 0.569712 0.855207
0.430288 0.622263 0.855207
0.404917 0.64913 0.792854
0.454843 0.595145 0.910473
0.477047 0.625454 0.861998
0.438128 0.561872 0.943568
0.478237 0.56876 0.956407
0.404855 0.545157 0.910473
0.43124 0.521763 0.956407
0.374546 0.522953 0.861998
0.289675 0.547365 0.680421
0.265459 0.570978 0.609897
0.262778 0.520299 0.615335
0.316129 0.523009 0.746179
0.319246 0.572291 0.73943
0.315963 0.473607 0.746321
0.344613 0.498973 0.806507
0.289217 0.446848 0.680952
0.318646 0.424553 0.73991
0.262549 0.469312 0.615789
0.264691 0.419013 0.611206
0.238317 0.491888 0.545856
0.553152 0.710783 0.680952
0.580987 0.735309 0.611206
0.530688 0.737451 0.615789
0.526393 0.684037 0.746321
0.575447 0.681355 0.73991
0.476991 0.683871 0.746179
0.501027 0.655388 0.806507
0.452635 0.710325 0.680421
0.427709 0.680754 0.73943
0.4797 0.737222 0.615335
0.429022 0.734541 0.609897
0.508112 0.761683 0.545856
3 558 543 337
3 189 337 543
3 192 543 558
3 191 558 337
3 546 567 336
3 187 336 567
3 190 567 546
3 189 546 336
3 570 591 334
3 185 334 591
3 188 591 570
3 187 570 334
3 627 555 327
3 191 327 555
3 193 555 627
3 184 627 327
3 582 637 330
3 184 330 637
3 183 637 582
3 182 582 330
3 594 579 332
3 182 332 579
3 186 579 594
3 185 594 332
3 690 519 325
3 177 325 519
3 180 519 690
3 179 690 325
3 522 507 324
3 175 324 507
3 178 507 522
3 177 522 324
3 510 562 322
3 173 322 562
3 176 562 510
3 175 510 322
3 699 687 315
3 179 315 687
3 181 687 699
3 172 699 315
3 762 709 318
3 172 318 709
3 171 709 762
3 170 762 318
3 564 759 320
3 170 320 759
3 174 759 564
3 173 564 320
3 528 495 313
3 165 313 495
3 168 495 528
3 167 528 313
3 498 435 312
3 163 312 435
3 166 435 498
3 165 498 312
3 438 423 310
3 161 310 423
3 164 423 438
3 163 438 310
3 531 526 303
3 167 303 526
3 169 526 531
3 160 531 303
3 576 541 306
3 160 306 541
3 159 541 576
3 158 576 306
3 426 574 308
3 158 308 574
3 162 574 426
3 161 426 308
3 572 428 601
3 156 601 428
3 162 428 572
3 188 572 601
3 600 430 301
3 153 301 430
3 156 430 600
3 155 600 301
3 432 411 300
3 151 300 411
3 154 411 432
3 153 432 300
3 414 459 298
3 149 298 459
3 152 459 414
3 151 414 298
3 603 598 291
3 155 291 598
3 157 598 603
3 148 603 291
3 666 613 294
3 148 294 613
3 147 613 666
3 146 666 294
3 462 663 296
3 146 296 663
3 150 663 462
3 149 462 296
3 486 471 289
3 141 289 471
3 144 471 486
3 143 486 289
3 692 505 529
3 168 529 505
3 140 505 692
3 180 692 529
3 474 502 288
3 139 288 502
3 142 502 474
3 141 474 288
3 504 694 286
3 137 286 694
3 140 694 504
3 139 504 286
3 723 483 279
3 143 279 483
3 145 483 723
3 136 723 279
3 678 733 282
3 136 282 733
3 135 733 678
3 134 678 282
3 696 675 284
3 134 284 675
3 138 675 696
3 137 696 284
3 402 363 277
3 129 277 363
3 132 363 402
3 131 402 277
3 366 351 276
3 127 276 351
3 130 351 366
3 129 366 276
3 354 466 274
3 125 274 466
3 128 466 354
3 127 354 274
3 492 399 267
3 131 267 399
3 133 399 492
3 124 492 267
3 450 490 270
3 124 270 490
3 123 490 450
3 122 450 270
3 468 447 272
3 122 272 447
3 126 447 468
3 125 468 272
3 673 464 356
3 128 356 464
3 150 464 673
3 121 673 356
3 360 339 265
3 117 265 339
3 120 339 360
3 119 360 265
3 342 387 264
3 115 264 387
3 118 387 342
3 117 342 264
3 390 651 262
3 113 262 651
3 116 651 390
3 115 390 262
3 672 358 255
3 119 255 358
3 121 358 672
3 112 672 255
3 642 670 258
3 112 258 670
3 111 670 642
3 110 642 258
3 654 639 260
3 110 260 639
3 114 639 654
3 113 654 260
3 565 630 769
3 109 769 630
3 193 630 565
3 174 565 769
3 634 615 253
3 105 253 615
3 108 615 634
3 107 634 253
3 618 658 252
3 103 252 658
3 106 658 618
3 105 618 252
3 660 747 250
3 101 250 747
3 104 747 660
3 103 660 250
3 768 632 243
3 107 243 632
3 109 632 768
3 100 768 243
3 738 766 246
3 100 246 766
3 99 766 738
3 98 738 246
3 750 735 248
3 98 248 735
3 102 735 750
3 101 750 248
3 661 392 757
3 97 757 392
3 116 392 661
3 104 661 757
3 396 375 241
3 93 241 375
3 96 375 396
3 95 396 241
3 726 409 493
3 133 493 409
3 92 409 726
3 145 726 493
3 378 406 240
3 91 240 406
3 94 406 378
3 93 378 240
3 408 728 238
3 89 238 728
3 92 728 408
3 91 408 238
3 756 394 231
3 95 231 394
3 97 394 756
3 88 756 231
3 714 754 234
3 88 234 754
3 87 754 714
3 86 714 234
3 730 711 236
3 86 236 711
3 90 711 730
3 89 730 236
3 752 716 745
3 85 745 716
3 87 716 752
3 102 752 745
3 732 680 721
3 84 721 680
3 135 680 732
3 90 732 721
3 697 702 685
3 82 685 702
3 181 702 697
3 138 697 685
3 720 682 229
3 81 229 682
3 84 682 720
3 83 720 229
3 744 718 223
3 83 223 718
3 85 718 744
3 80 744 223
3 764 740 708
3 79 708 740
3 99 740 764
3 171 764 708
3 706 742 226
3 80 226 742
3 79 742 706
3 78 706 226
3 684 704 228
3 78 228 704
3 82 704 684
3 81 684 228
3 656 620 649
3 77 649 620
3 106 620 656
3 114 656 649
3 636 584 625
3 76 625 584
3 183 584 636
3 108 636 625
3 596 606 589
3 74 589 606
3 157 606 596
3 186 596 589
3 624 586 221
3 73 221 586
3 76 586 624
3 75 624 221
3 648 622 215
3 75 215 622
3 77 622 648
3 72 648 215
3 668 644 612
3 71 612 644
3 111 644 668
3 147 668 612
3 610 646 218
3 72 218 646
3 71 646 610
3 70 610 218
3 588 608 220
3 70 220 608
3 74 608 588
3 73 588 220
3 560 512 553
3 69 553 512
3 176 512 560
3 192 560 553
3 524 534 517
3 68 517 534
3 169 534 524
3 178 524 517
3 552 514 209
3 67 209 514
3 69 514 552
3 66 552 209
3 577 548 540
3 65 540 548
3 190 548 577
3 159 577 540
3 538 550 212
3 66 212 550
3 65 550 538
3 64 538 212
3 516 536 213
3 64 213 536
3 68 536 516
3 67 516 213
3 488 452 481
3 63 481 452
3 123 452 488
3 144 488 481
3 469 416 457
3 62 457 416
3 152 416 469
3 126 469 457
3 433 440 421
3 60 421 440
3 164 440 433
3 154 433 421
3 456 418 207
3 59 207 418
3 62 418 456
3 61 456 207
3 480 454 201
3 61 201 454
3 63 454 480
3 58 480 201
3 500 476 445
3 57 445 476
3 142 476 500
3 166 500 445
3 444 478 204
3 58 204 478
3 57 478 444
3 56 444 204
3 420 442 206
3 56 206 442
3 60 442 420
3 59 420 206
3 397 344 385
3 55 385 344
3 118 344 397
3 96 397 385
3 361 368 349
3 54 349 368
3 130 368 361
3 120 361 349
3 384 346 195
3 53 195 346
3 55 346 384
3 52 384 195
3 404 380 373
3 51 373 380
3 94 380 404
3 132 404 373
3 372 382 198
3 52 198 382
3 51 382 372
3 50 372 198
3 348 370 199
3 50 199 370
3 54 370 348
3 53 348 199
3 0 194 196
3 52 195 194
3 53 196 195
3 194 195 196
3 0 197 194
3 50 198 197
3 52 194 198
3 197 198 194
3 0 196 197
3 53 199 196
3 50 197 199
3 196 199 197
3 1 200 202
3 58 201 200
3 61 202 201
3 200 201 202
3 1 203 200
3 56 204 203
3 58 200 204
3 203 204 200
3 1 205 203
3 59 206 205
3 56 203 206
3 205 206 203
3 1 202 205
3 61 207 202
3 59 205 207
3 202 207 205
3 2 208 210
3 66 209 208
3 67 210 209
3 208 209 210
3 2 211 208
3 64 212 211
3 66 208 212
3 211 212 208
3 2 210 211
3 67 213 210
3 64 211 213
3 210 213 211
3 3 214 216
3 72 215 214
3 75 216 215
3 214 215 216
3 3 217 214
3 70 218 217
3 72 214 218
3 217 218 214
3 3 219 217
3 73 220 219
3 70 217 220
3 219 220 217
3 3 216 219
3 75 221 216
3 73 219 221
3 216 221 219
3 4 222 224
3 80 223 222
3 83 224 223
3 222 223 224
3 4 225 222
3 78 226 225
3 80 222 226
3 225 226 222
3 4 227 225
3 81 228 227
3 78 225 228
3 227 228 225
3 4 224 227
3 83 229 224
3 81 227 229
3 224 229 227
3 5 230 232
3 88 231 230
3 95 232 231
3 230 231 232
3 5 233 230
3 86 234 233
3 88 230 234
3 233 234 230
3 5 235 233
3 89 236 235
3 86 233 236
3 235 236 233
3 5 237 235
3 91 238 237
3 89 235 238
3 237 238 235
3 5 239 237
3 93 240 239
3 91 237 240
3 239 240 237
3 5 232 239
3 95 241 232
3 93 239 241
3 232 241 239
3 6 242 244
3 100 243 242
3 107 244 243
3 242 243 244
3 6 245 242
3 98 246 245
3 100 242 246
3 245 246 242
3 6 247 245
3 101 248 247
3 98 245 248
3 247 248 245
3 6 249 247
3 103 250 249
3 101 247 250
3 249 250 247
3 6 251 249
3 105 252 251
3 103 249 252
3 251 252 249
3 6 244 251
3 107 253 244
3 105 251 253
3 244 253 251
3 7 254 256
3 112 255 254
3 119 256 255
3 254 255 256
3 7 257 254
3 110 258 257
3 112 254 258
3 257 258 254
3 7 259 257
3 113 260 259
3 110 257 260
3 259 260 257
3 7 261 259
3 115 262 261
3 113 259 262
3 261 262 259
3 7 263 261
3 117 264 263
3 115 261 264
3 263 264 261
3 7 256 263
3 119 265 256
3 117 263 265
3 256 265 263
3 8 266 268
3 124 267 266
3 131 268 267
3 266 267 268
3 8 269 266
3 122 270 269
3 124 266 270
3 269 270 266
3 8 271 269
3 125 272 271
3 122 269 272
3 271 272 269
3 8 273 271
3 127 274 273
3 125 271 274
3 273 274 271
3 8 275 273
3 129 276 275
3 127 273 276
3 275 276 273
3 8 268 275
3 131 277 268
3 129 275 277
3 268 277 275
3 9 278 280
3 136 279 278
3 143 280 279
3 278 279 280
3 9 281 278
3 134 282 281
3 136 278 282
3 281 282 278
3 9 283 281
3 137 284 283
3 134 281 284
3 283 284 281
3 9 285 283
3 139 286 285
3 137 283 286
3 285 286 283
3 9 287 285
3 141 288 287
3 139 285 288
3 287 288 285
3 9 280 287
3 143 289 280
3 141 287 289
3 280 289 287
3 10 290 292
3 148 291 290
3 155 292 291
3 290 291 292
3 10 293 290
3 146 294 293
3 148 290 294
3 293 294 290
3 10 295 293
3 149 296 295
3 146 293 296
3 295 296 293
3 10 297 295
3 151 298 297
3 149 295 298
3 297 298 295
3 10 299 297
3 153 300 299
3 151 297 300
3 299 300 297
3 10 292 299
3 155 301 292
3 153 299 301
3 292 301 299
3 11 302 304
3 160 303 302
3 167 304 303
3 302 303 304
3 11 305 302
3 158 306 305
3 160 302 306
3 305 306 302
3 11 307 305
3 161 308 307
3 158 305 308
3 307 308 305
3 11 309 307
3 163 310 309
3 161 307 310
3 309 310 307
3 11 311 309
3 165 312 311
3 163 309 312
3 311 312 309
3 11 304 311
3 167 313 304
3 165 311 313
3 304 313 311
3 12 314 316
3 172 315 314
3 179 316 315
3 314 315 316
3 12 317 314
3 170 318 317
3 172 314 318
3 317 318 314
3 12 319 317
3 173 320 319
3 170 317 320
3 319 320 317
3 12 321 319
3 175 322 321
3 173 319 322
3 321 322 319
3 12 323 321
3 177 324 323
3 175 321 324
3 323 324 321
3 12 316 323
3 179 325 316
3 177 323 325
3 316 325 323
3 13 326 328
3 184 327 326
3 191 328 327
3 326 327 328
3 13 329 326
3 182 330 329
3 184 326 330
3 329 330 326
3 13 331 329
3 185 332 331
3 182 329 332
3 331 332 329
3 13 333 331
3 187 334 333
3 185 331 334
3 333 334 331
3 13 335 333
3 189 336 335
3 187 333 336
3 335 336 333
3 13 328 335
3 191 337 328
3 189 335 337
3 328 337 335
3 14 338 340
3 117 339 338
3 120 340 339
3 338 339 340
3 14 341 338
3 118 342 341
3 117 338 342
3 341 342 338
3 14 343 341
3 55 344 343
3 118 341 344
3 343 344 341
3 14 345 343
3 53 346 345
3 55 343 346
3 345 346 343
3 14 347 345
3 54 348 347
3 53 345 348
3 347 348 345
3 14 340 347
3 120 349 340
3 54 347 349
3 340 349 347
3 15 350 352
3 127 351 350
3 130 352 351
3 350 351 352
3 15 353 350
3 128 354 353
3 127 350 354
3 353 354 350
3 15 355 353
3 121 356 355
3 128 353 356
3 355 356 353
3 15 357 355
3 119 358 357
3 121 355 358
3 357 358 355
3 15 359 357
3 120 360 359
3 119 357 360
3 359 360 357
3 15 352 359
3 130 361 352
3 120 359 361
3 352 361 359
3 16 362 364
3 129 363 362
3 132 364 363
3 362 363 364
3 16 365 362
3 130 366 365
3 129 362 366
3 365 366 362
3 16 367 365
3 54 368 367
3 130 365 368
3 367 368 365
3 16 369 367
3 50 370 369
3 54 367 370
3 369 370 367
3 16 371 369
3 51 372 371
3 50 369 372
3 371 372 369
3 16 364 371
3 132 373 364
3 51 371 373
3 364 373 371
3 17 374 376
3 93 375 374
3 96 376 375
3 374 375 376
3 17 377 374
3 94 378 377
3 93 374 378
3 377 378 374
3 17 379 377
3 51 380 379
3 94 377 380
3 379 380 377
3 17 381 379
3 52 382 381
3 51 379 382
3 381 382 379
3 17 383 381
3 55 384 383
3 52 381 384
3 383 384 381
3 17 376 383
3 96 385 376
3 55 383 385
3 376 385 383
3 18 386 388
3 115 387 386
3 118 388 387
3 386 387 388
3 18 389 386
3 116 390 389
3 115 386 390
3 389 390 386
3 18 391 389
3 97 392 391
3 116 389 392
3 391 392 389
3 18 393 391
3 95 394 393
3 97 391 394
3 393 394 391
3 18 395 393
3 96 396 395
3 95 393 396
3 395 396 393
3 18 388 395
3 118 397 388
3 96 395 397
3 388 397 395
3 19 398 400
3 131 399 398
3 133 400 399
3 398 399 400
3 19 401 398
3 132 402 401
3 131 398 402
3 401 402 398
3 19 403 401
3 94 404 403
3 132 401 404
3 403 404 401
3 19 405 403
3 91 406 405
3 94 403 406
3 405 406 403
3 19 407 405
3 92 408 407
3 91 405 408
3 407 408 405
3 19 400 407
3 133 409 400
3 92 407 409
3 400 409 407
3 20 410 412
3 151 411 410
3 154 412 411
3 410 411 412
3 20 413 410
3 152 414 413
3 151 410 414
3 413 414 410
3 20 415 413
3 62 416 415
3 152 413 416
3 415 416 413
3 20 417 415
3 59 418 417
3 62 415 418
3 417 418 415
3 20 419 417
3 60 420 419
3 59 417 420
3 419 420 417
3 20 412 419
3 154 421 412
3 60 419 421
3 412 421 419
3 21 422 424
3 161 423 422
3 164 424 423
3 422 423 424
3 21 425 422
3 162 426 425
3 161 422 426
3 425 426 422
3 21 427 425
3 156 428 427
3 162 425 428
3 427 428 425
3 21 429 427
3 153 430 429
3 156 427 430
3 429 430 427
3 21 431 429
3 154 432 431
3 153 429 432
3 431 432 429
3 21 424 431
3 164 433 424
3 154 431 433
3 424 433 431
3 22 434 436
3 163 435 434
3 166 436 435
3 434 435 436
3 22 437 434
3 164 438 437
3 163 434 438
3 437 438 434
3 22 439 437
3 60 440 439
3 164 437 440
3 439 440 437
3 22 441 439
3 56 442 441
3 60 439 442
3 441 442 439
3 22 443 441
3 57 444 443
3 56 441 444
3 443 444 441
3 22 436 443
3 166 445 436
3 57 443 445
3 436 445 443
3 23 446 448
3 122 447 446
3 126 448 447
3 446 447 448
3 23 449 446
3 123 450 449
3 122 446 450
3 449 450 446
3 23 451 449
3 63 452 451
3 123 449 452
3 451 452 449
3 23 453 451
3 61 454 453
3 63 451 454
3 453 454 451
3 23 455 453
3 62 456 455
3 61 453 456
3 455 456 453
3 23 448 455
3 126 457 448
3 62 455 457
3 448 457 455
3 24 458 460
3 149 459 458
3 152 460 459
3 458 459 460
3 24 461 458
3 150 462 461
3 149 458 462
3 461 462 458
3 24 463 461
3 128 464 463
3 150 461 464
3 463 464 461
3 24 465 463
3 125 466 465
3 128 463 466
3 465 466 463
3 24 467 465
3 126 468 467
3 125 465 468
3 467 468 465
3 24 460 467
3 152 469 460
3 126 467 469
3 460 469 467
3 25 470 472
3 141 471 470
3 144 472 471
3 470 471 472
3 25 473 470
3 142 474 473
3 141 470 474
3 473 474 470
3 25 475 473
3 57 476 475
3 142 473 476
3 475 476 473
3 25 477 475
3 58 478 477
3 57 475 478
3 477 478 475
3 25 479 477
3 63 480 479
3 58 477 480
3 479 480 477
3 25 472 479
3 144 481 472
3 63 479 481
3 472 481 479
3 26 482 484
3 143 483 482
3 145 484 483
3 482 483 484
3 26 485 482
3 144 486 485
3 143 482 486
3 485 486 482
3 26 487 485
3 123 488 487
3 144 485 488
3 487 488 485
3 26 489 487
3 124 490 489
3 123 487 490
3 489 490 487
3 26 491 489
3 133 492 491
3 124 489 492
3 491 492 489
3 26 484 491
3 145 493 484
3 133 491 493
3 484 493 491
3 27 494 496
3 165 495 494
3 168 496 495
3 494 495 496
3 27 497 494
3 166 498 497
3 165 494 498
3 497 498 494
3 27 499 497
3 142 500 499
3 166 497 500
3 499 500 497
3 27 501 499
3 139 502 501
3 142 499 502
3 501 502 499
3 27 503 501
3 140 504 503
3 139 501 504
3 503 504 501
3 27 496 503
3 168 505 496
3 140 503 505
3 496 505 503
3 28 506 508
3 175 507 506
3 178 508 507
3 506 507 508
3 28 509 506
3 176 510 509
3 175 506 510
3 509 510 506
3 28 511 509
3 69 512 511
3 176 509 512
3 511 512 509
3 28 513 511
3 67 514 513
3 69 511 514
3 513 514 511
3 28 515 513
3 68 516 515
3 67 513 516
3 515 516 513
3 28 508 515
3 178 517 508
3 68 515 517
3 508 517 515
3 29 518 520
3 177 519 518
3 180 520 519
3 518 519 520
3 29 521 518
3 178 522 521
3 177 518 522
3 521 522 518
3 29 523 521
3 169 524 523
3 178 521 524
3 523 524 521
3 29 525 523
3 167 526 525
3 169 523 526
3 525 526 523
3 29 527 525
3 168 528 527
3 167 525 528
3 527 528 525
3 29 520 527
3 180 529 520
3 168 527 529
3 520 529 527
3 30 530 532
3 169 531 530
3 160 532 531
3 530 531 532
3 30 533 530
3 68 534 533
3 169 530 534
3 533 534 530
3 30 535 533
3 64 536 535
3 68 533 536
3 535 536 533
3 30 537 535
3 65 538 537
3 64 535 538
3 537 538 535
3 30 539 537
3 159 540 539
3 65 537 540
3 539 540 537
3 30 532 539
3 160 541 532
3 159 539 541
3 532 541 539
3 31 542 544
3 189 543 542
3 192 544 543
3 542 543 544
3 31 545 542
3 190 546 545
3 189 542 546
3 545 546 542
3 31 547 545
3 65 548 547
3 190 545 548
3 547 548 545
3 31 549 547
3 66 550 549
3 65 547 550
3 549 550 547
3 31 551 549
3 69 552 551
3 66 549 552
3 551 552 549
3 31 544 551
3 192 553 544
3 69 551 553
3 544 553 551
3 32 554 556
3 191 555 554
3 193 556 555
3 554 555 556
3 32 557 554
3 192 558 557
3 191 554 558
3 557 558 554
3 32 559 557
3 176 560 559
3 192 557 560
3 559 560 557
3 32 561 559
3 173 562 561
3 176 559 562
3 561 562 559
3 32 563 561
3 174 564 563
3 173 561 564
3 563 564 561
3 32 556 563
3 193 565 556
3 174 563 565
3 556 565 563
3 33 566 568
3 187 567 566
3 190 568 567
3 566 567 568
3 33 569 566
3 188 570 569
3 187 566 570
3 569 570 566
3 33 571 569
3 162 572 571
3 188 569 572
3 571 572 569
3 33 573 571
3 158 574 573
3 162 571 574
3 573 574 571
3 33 575 573
3 159 576 575
3 158 573 576
3 575 576 573
3 33 568 575
3 190 577 568
3 159 575 577
3 568 577 575
3 34 578 580
3 182 579 578
3 186 580 579
3 578 579 580
3 34 581 578
3 183 582 581
3 182 578 582
3 581 582 578
3 34 583 581
3 76 584 583
3 183 581 584
3 583 584 581
3 34 585 583
3 73 586 585
3 76 583 586
3 585 586 583
3 34 587 585
3 74 588 587
3 73 585 588
3 587 588 585
3 34 580 587
3 186 589 580
3 74 587 589
3 580 589 587
3 35 590 592
3 185 591 590
3 188 592 591
3 590 591 592
3 35 593 590
3 186 594 593
3 185 590 594
3 593 594 590
3 35 595 593
3 157 596 595
3 186 593 596
3 595 596 593
3 35 597 595
3 155 598 597
3 157 595 598
3 597 598 595
3 35 599 597
3 156 600 599
3 155 597 600
3 599 600 597
3 35 592 599
3 188 601 592
3 156 599 601
3 592 601 599
3 36 602 604
3 157 603 602
3 148 604 603
3 602 603 604
3 36 605 602
3 74 606 605
3 157 602 606
3 605 606 602
3 36 607 605
3 70 608 607
3 74 605 608
3 607 608 605
3 36 609 607
3 71 610 609
3 70 607 610
3 609 610 607
3 36 611 609
3 147 612 611
3 71 609 612
3 611 612 609
3 36 604 611
3 148 613 604
3 147 611 613
3 604 613 611
3 37 614 616
3 105 615 614
3 108 616 615
3 614 615 616
3 37 617 614
3 106 618 617
3 105 614 618
3 617 618 614
3 37 619 617
3 77 620 619
3 106 617 620
3 619 620 617
3 37 621 619
3 75 622 621
3 77 619 622
3 621 622 619
3 37 623 621
3 76 624 623
3 75 621 624
3 623 624 621
3 37 616 623
3 108 625 616
3 76 623 625
3 616 625 623
3 38 626 628
3 193 627 626
3 184 628 627
3 626 627 628
3 38 629 626
3 109 630 629
3 193 626 630
3 629 630 626
3 38 631 629
3 107 632 631
3 109 629 632
3 631 632 629
3 38 633 631
3 108 634 633
3 107 631 634
3 633 634 631
3 38 635 633
3 183 636 635
3 108 633 636
3 635 636 633
3 38 628 635
3 184 637 628
3 183 635 637
3 628 637 635
3 39 638 640
3 110 639 638
3 114 640 639
3 638 639 640
3 39 641 638
3 111 642 641
3 110 638 642
3 641 642 638
3 39 643 641
3 71 644 643
3 111 641 644
3 643 644 641
3 39 645 643
3 72 646 645
3 71 643 646
3 645 646 643
3 39 647 645
3 77 648 647
3 72 645 648
3 647 648 645
3 39 640 647
3 114 649 640
3 77 647 649
3 640 649 647
3 40 650 652
3 113 651 650
3 116 652 651
3 650 651 652
3 40 653 650
3 114 654 653
3 113 650 654
3 653 654 650
3 40 655 653
3 106 656 655
3 114 653 656
3 655 656 653
3 40 657 655
3 103 658 657
3 106 655 658
3 657 658 655
3 40 659 657
3 104 660 659
3 103 657 660
3 659 660 657
3 40 652 659
3 116 661 652
3 104 659 661
3 652 661 659
3 41 662 664
3 146 663 662
3 150 664 663
3 662 663 664
3 41 665 662
3 147 666 665
3 146 662 666
3 665 666 662
3 41 667 665
3 111 668 667
3 147 665 668
3 667 668 665
3 41 669 667
3 112 670 669
3 111 667 670
3 669 670 667
3 41 671 669
3 121 672 671
3 112 669 672
3 671 672 669
3 41 664 671
3 150 673 664
3 121 671 673
3 664 673 671
3 42 674 676
3 134 675 674
3 138 676 675
3 674 675 676
3 42 677 674
3 135 678 677
3 134 674 678
3 677 678 674
3 42 679 677
3 84 680 679
3 135 677 680
3 679 680 677
3 42 681 679
3 81 682 681
3 84 679 682
3 681 682 679
3 42 683 681
3 82 684 683
3 81 681 684
3 683 684 681
3 42 676 683
3 138 685 676
3 82 683 685
3 676 685 683
3 43 686 688
3 179 687 686
3 181 688 687
3 686 687 688
3 43 689 686
3 180 690 689
3 179 686 690
3 689 690 686
3 43 691 689
3 140 692 691
3 180 689 692
3 691 692 689
3 43 693 691
3 137 694 693
3 140 691 694
3 693 694 691
3 43 695 693
3 138 696 695
3 137 693 696
3 695 696 693
3 43 688 695
3 181 697 688
3 138 695 697
3 688 697 695
3 44 698 700
3 181 699 698
3 172 700 699
3 698 699 700
3 44 701 698
3 82 702 701
3 181 698 702
3 701 702 698
3 44 703 701
3 78 704 703
3 82 701 704
3 703 704 701
3 44 705 703
3 79 706 705
3 78 703 706
3 705 706 703
3 44 707 705
3 171 708 707
3 79 705 708
3 707 708 705
3 44 700 707
3 172 709 700
3 171 707 709
3 700 709 707
3 45 710 712
3 86 711 710
3 90 712 711
3 710 711 712
3 45 713 710
3 87 714 713
3 86 710 714
3 713 714 710
3 45 715 713
3 85 716 715
3 87 713 716
3 715 716 713
3 45 717 715
3 83 718 717
3 85 715 718
3 717 718 715
3 45 719 717
3 84 720 719
3 83 717 720
3 719 720 717
3 45 712 719
3 90 721 712
3 84 719 721
3 712 721 719
3 46 722 724
3 145 723 722
3 136 724 723
3 722 723 724
3 46 725 722
3 92 726 725
3 145 722 726
3 725 726 722
3 46 727 725
3 89 728 727
3 92 725 728
3 727 728 725
3 46 729 727
3 90 730 729
3 89 727 730
3 729 730 727
3 46 731 729
3 135 732 731
3 90 729 732
3 731 732 729
3 46 724 731
3 136 733 724
3 135 731 733
3 724 733 731
3 47 734 736
3 98 735 734
3 102 736 735
3 734 735 736
3 47 737 734
3 99 738 737
3 98 734 738
3 737 738 734
3 47 739 737
3 79 740 739
3 99 737 740
3 739 740 737
3 47 741 739
3 80 742 741
3 79 739 742
3 741 742 739
3 47 743 741
3 85 744 743
3 80 741 744
3 743 744 741
3 47 736 743
3 102 745 736
3 85 743 745
3 736 745 743
3 48 746 748
3 101 747 746
3 104 748 747
3 746 747 748
3 48 749 746
3 102 750 749
3 101 746 750
3 749 750 746
3 48 751 749
3 87 752 751
3 102 749 752
3 751 752 749
3 48 753 751
3 88 754 753
3 87 751 754
3 753 754 751
3 48 755 753
3 97 756 755
3 88 753 756
3 755 756 753
3 48 748 755
3 104 757 748
3 97 755 757
3 748 757 755
3 49 758 760
3 170 759 758
3 174 760 759
3 758 759 760
3 49 761 758
3 171 762 761
3 170 758 762
3 761 762 758
3 49 763 761
3 99 764 763
3 171 761 764
3 763 764 761
3 49 765 763
3 100 766 765
3 99 763 766
3 765 766 763
3 49 767 765
3 109 768 767
3 100 765 768
3 767 768 765
3 49 760 767
3 174 769 760
3 109 767 769
3 760 769 767
