ply
format ascii 1.0
element vertex 194
property float x
property float y
property float z
element face 384
property list uchar int vertex_indices
end_header
0.299927 0.299927 0.319922
0.648707 0.351293 0.224827
0.700073 0.700073 0.319922
0.351293 0.648707 0.224827
0.5 0.5 0.70069
0.440705 0.267304 0.254199
0.267304 0.440705 0.254199
0.5 0.5 0.0927735
0.559296 0.732696 0.254199
0.732696 0.559296 0.254199
0.634552 0.365448 0.52334
0.354004 0.354004 0.531641
0.365448 0.634552 0.52334
0.645996 0.645996 0.531641
0.35807 0.463951 0.13855
0.463951 0.35807 0.13855
0.339111 0.339111 0.199072
0.660889 0.660889 0.199072
0.64193 0.536049 0.13855
0.536049 0.64193 0.13855
0.491448 0.330574 0.565356
0.405144 0.273079 0.410376
0.544388 0.277634 0.395947
0.330574 0.491448 0.565356
0.277634 0.544388 0.395947
0.273079 0.405144 0.410376
0.508553 0.669426 0.565356
0.594856 0.726921 0.410376
0.455612 0.722367 0.395947
0.726921 0.594856 0.410376
0.669426 0.508553 0.565356
0.722367 0.455612 0.395947
0.29904 0.570345 0.230292
0.399542 0.600459 0.13847
0.600459 0.399542 0.13847
0.570345 0.29904 0.230292
0.335243 0.279503 0.294507
0.279503 0.335243 0.294507
0.664757 0.720497 0.294507
0.720497 0.664757 0.294507
0.700961 0.429655 0.230292
0.429655 0.700961 0.230292
0.563759 0.436242 0.663965
0.434693 0.434693 0.66438
0.307373 0.307373 0.383691
0.664217 0.335783 0.342499
0.436242 0.563759 0.663965
0.335783 0.664217 0.342499
0.565308 0.565308 0.66438
0.692627 0.692627 0.383691
0.396622 0.345078 0.162842
0.345078 0.396622 0.162842
0.408691 0.408691 0.125879
0.591309 0.591309 0.125879
0.603379 0.654922 0.162842
0.654922 0.603379 0.162842
0.472946 0.268753 0.40708
0.521042 0.296341 0.4854
0.447174 0.294525 0.489551
0.268753 0.472946 0.40708
0.294525 0.447174 0.489551
0.296341 0.521042 0.4854
0.527054 0.731247 0.40708
0.478958 0.703659 0.4854
0.552826 0.705475 0.489551
0.703659 0.478958 0.4854
0.731247 0.527054 0.40708
0.705475 0.552826 0.489551
0.342022 0.581806 0.172644
0.377594 0.534516 0.129687
0.319168 0.519211 0.17583
0.581806 0.342022 0.172644
0.519211 0.319168 0.17583
0.534516 0.377594 0.129687
0.304443 0.304443 0.278906
0.298508 0.337723 0.244482
0.337723 0.298508 0.244482
0.695557 0.695557 0.278906
0.701493 0.662278 0.244482
0.662278 0.701493 0.244482
0.680832 0.480789 0.17583
0.657978 0.418193 0.172644
0.622406 0.465484 0.129687
0.418193 0.657978 0.172644
0.480789 0.680832 0.17583
0.465484 0.622406 0.129687
0.499024 0.424805 0.675049
0.460205 0.378174 0.627149
0.532792 0.379319 0.626318
0.348389 0.287842 0.404102
0.324951 0.283935 0.344531
0.367996 0.268234 0.341357
0.618916 0.304912 0.291394
0.611252 0.300857 0.375244
0.560227 0.278152 0.30708
0.424805 0.499024 0.675049
0.379319 0.532792 0.626318
0.378174 0.460205 0.627149
0.300857 0.611252 0.375244
0.304912 0.618916 0.291394
0.278152 0.560227 0.30708
0.283935 0.324951 0.344531
0.287842 0.348389 0.404102
0.268234 0.367996 0.341357
0.500977 0.575196 0.675049
0.539795 0.621827 0.627149
0.467209 0.620682 0.626318
0.651611 0.712158 0.404102
0.675049 0.716065 0.344531
0.632004 0.731766 0.341357
0.381084 0.695088 0.291394
0.388748 0.699143 0.375244
0.439773 0.721848 0.30708
0.716065 0.675049 0.344531
0.712158 0.651611 0.404102
0.731766 0.632004 0.341357
0.621827 0.539795 0.627149
0.575196 0.500977 0.675049
0.620682 0.467209 0.626318
0.699143 0.388748 0.375244
0.695088 0.381084 0.291394
0.721848 0.439773 0.30708
0.451584 0.302811 0.189111
0.388809 0.296249 0.213037
0.296249 0.388809 0.213037
0.302811 0.451584 0.189111
0.425995 0.480255 0.105274
0.480255 0.425995 0.105274
0.574005 0.519745 0.105274
0.519745 0.574005 0.105274
0.548416 0.697189 0.189111
0.611191 0.703751 0.213037
0.703751 0.611191 0.213037
0.697189 0.548416 0.189111
0.425919 0.25914 0.331787
0.4926 0.261795 0.320361
0.59343 0.31282 0.467432
0.5663 0.339951 0.554248
0.418213 0.336182 0.558399
0.379639 0.30542 0.479883
0.261795 0.4926 0.320361
0.25914 0.425919 0.331787
0.30542 0.379639 0.479883
0.336182 0.418213 0.558399
0.339951 0.5663 0.554248
0.31282 0.59343 0.467432
0.574082 0.74086 0.331787
0.507401 0.738205 0.320361
0.40657 0.68718 0.467432
0.433701 0.66005 0.554248
0.581787 0.663819 0.558399
0.620361 0.69458 0.479883
0.66005 0.433701 0.554248
0.68718 0.40657 0.467432
0.738205 0.507401 0.320361
0.74086 0.574082 0.331787
0.69458 0.620361 0.479883
0.663819 0.581787 0.558399
0.326419 0.620846 0.225158
0.366458 0.633542 0.184534
0.446564 0.553436 0.104883
0.278122 0.506546 0.240185
0.633542 0.366458 0.184534
0.620846 0.326419 0.225158
0.506546 0.278122 0.240185
0.553436 0.446564 0.104883
0.307861 0.292236 0.311719
0.292236 0.307861 0.311719
0.269547 0.381333 0.274072
0.381333 0.269547 0.274072
0.692139 0.707764 0.311719
0.707764 0.692139 0.311719
0.730453 0.618668 0.274072
0.618668 0.730453 0.274072
0.721878 0.493454 0.240185
0.673581 0.379154 0.225158
0.379154 0.673581 0.225158
0.493454 0.721878 0.240185
0.526367 0.473633 0.69624
0.473633 0.473633 0.69624
0.392334 0.392334 0.605664
0.60228 0.397721 0.603174
0.325439 0.325439 0.45293
0.300049 0.300049 0.336719
0.659908 0.340091 0.268909
0.655716 0.344284 0.432178
0.473633 0.526367 0.69624
0.397721 0.60228 0.603174
0.344284 0.655716 0.432178
0.340091 0.659908 0.268909
0.526367 0.526367 0.69624
0.607666 0.607666 0.605664
0.674561 0.674561 0.45293
0.699951 0.699951 0.336719
3 51 52 50
3 54 55 53
3 57 58 56
3 60 61 59
3 63 64 62
3 66 67 65
3 69 70 68
3 72 73 71
3 75 76 74
3 78 79 77
3 81 82 80
3 84 85 83
3 87 88 86
3 90 91 89
3 93 94 92
3 96 97 95
3 99 100 98
3 102 103 101
3 105 106 104
3 108 109 107
3 111 112 110
3 114 115 113
3 117 118 116
3 120 121 119
3 122 123 50
3 124 125 51
3 126 127 52
3 128 129 53
3 130 131 54
3 132 133 55
3 134 135 56
3 136 137 57
3 138 139 58
3 140 141 59
3 142 143 60
3 144 145 61
3 146 147 62
3 148 149 63
3 150 151 64
3 152 153 65
3 154 155 66
3 156 157 67
3 158 159 68
3 69 160 126
3 125 161 70
3 162 163 71
3 72 164 122
3 127 165 73
3 166 167 74
3 75 168 124
3 123 169 76
3 170 171 77
3 78 172 132
3 131 173 79
3 133 174 80
3 81 175 162
3 82 165 128
3 159 176 83
3 84 177 130
3 129 160 85
3 178 179 86
3 87 180 138
3 137 181 88
3 139 182 89
3 90 183 166
3 91 169 134
3 163 184 92
3 93 185 136
3 135 164 94
3 179 186 95
3 96 187 144
3 143 180 97
3 145 188 98
3 99 189 158
3 100 161 140
3 167 183 101
3 102 182 142
3 141 168 103
3 186 190 104
3 105 191 150
3 149 187 106
3 151 192 107
3 108 193 170
3 109 173 146
3 176 189 110
3 111 188 148
3 147 177 112
3 171 193 113
3 114 192 156
3 155 172 115
3 157 191 116
3 117 190 178
3 118 181 152
3 153 185 119
3 120 184 175
3 121 174 154
3 52 51 14
3 50 52 15
3 51 50 16
3 55 54 17
3 53 55 18
3 54 53 19
3 58 57 20
3 56 58 21
3 57 56 22
3 61 60 23
3 59 61 24
3 60 59 25
3 64 63 26
3 62 64 27
3 63 62 28
3 67 66 29
3 65 67 30
3 66 65 31
3 70 69 14
3 68 70 32
3 69 68 33
3 73 72 15
3 71 73 34
3 72 71 35
3 76 75 16
3 74 76 36
3 75 74 37
3 79 78 17
3 77 79 38
3 78 77 39
3 82 81 34
3 80 82 18
3 81 80 40
3 85 84 19
3 83 85 33
3 84 83 41
3 88 87 20
3 86 88 42
3 87 86 43
3 91 90 36
3 89 91 21
3 90 89 44
3 94 93 22
3 92 94 35
3 93 92 45
3 97 96 23
3 95 97 43
3 96 95 46
3 100 99 32
3 98 100 24
3 99 98 47
3 103 102 25
3 101 103 37
3 102 101 44
3 106 105 26
3 104 106 46
3 105 104 48
3 109 108 38
3 107 109 27
3 108 107 49
3 112 111 28
3 110 112 41
3 111 110 47
3 115 114 29
3 113 115 39
3 114 113 49
3 118 117 42
3 116 118 30
3 117 116 48
3 121 120 40
3 119 121 31
3 120 119 45
3 123 122 5
3 50 123 16
3 122 50 15
3 125 124 6
3 51 125 14
3 124 51 16
3 127 126 7
3 52 127 15
3 126 52 14
3 129 128 7
3 53 129 19
3 128 53 18
3 131 130 8
3 54 131 17
3 130 54 19
3 133 132 9
3 55 133 18
3 132 55 17
3 135 134 5
3 56 135 22
3 134 56 21
3 137 136 10
3 57 137 20
3 136 57 22
3 139 138 11
3 58 139 21
3 138 58 20
3 141 140 6
3 59 141 25
3 140 59 24
3 143 142 11
3 60 143 23
3 142 60 25
3 145 144 12
3 61 145 24
3 144 61 23
3 147 146 8
3 62 147 28
3 146 62 27
3 149 148 12
3 63 149 26
3 148 63 28
3 151 150 13
3 64 151 27
3 150 64 26
3 153 152 10
3 65 153 31
3 152 65 30
3 155 154 9
3 66 155 29
3 154 66 31
3 157 156 13
3 67 157 30
3 156 67 29
3 159 158 3
3 68 159 33
3 158 68 32
3 160 69 33
3 126 160 7
3 69 126 14
3 161 125 6
3 70 161 32
3 125 70 14
3 163 162 1
3 71 163 35
3 162 71 34
3 164 72 35
3 122 164 5
3 72 122 15
3 165 127 7
3 73 165 34
3 127 73 15
3 167 166 0
3 74 167 37
3 166 74 36
3 168 75 37
3 124 168 6
3 75 124 16
3 169 123 5
3 76 169 36
3 123 76 16
3 171 170 2
3 77 171 39
3 170 77 38
3 172 78 39
3 132 172 9
3 78 132 17
3 173 131 8
3 79 173 38
3 131 79 17
3 174 133 9
3 80 174 40
3 133 80 18
3 175 81 40
3 162 175 1
3 81 162 34
3 165 82 34
3 128 165 7
3 82 128 18
3 176 159 3
3 83 176 41
3 159 83 33
3 177 84 41
3 130 177 8
3 84 130 19
3 160 129 7
3 85 160 33
3 129 85 19
3 179 178 4
3 86 179 43
3 178 86 42
3 180 87 43
3 138 180 11
3 87 138 20
3 181 137 10
3 88 181 42
3 137 88 20
3 182 139 11
3 89 182 44
3 139 89 21
3 183 90 44
3 166 183 0
3 90 166 36
3 169 91 36
3 134 169 5
3 91 134 21
3 184 163 1
3 92 184 45
3 163 92 35
3 185 93 45
3 136 185 10
3 93 136 22
3 164 135 5
3 94 164 35
3 135 94 22
3 186 179 4
3 95 186 46
3 179 95 43
3 187 96 46
3 144 187 12
3 96 144 23
3 180 143 11
3 97 180 43
3 143 97 23
3 188 145 12
3 98 188 47
3 145 98 24
3 189 99 47
3 158 189 3
3 99 158 32
3 161 100 32
3 140 161 6
3 100 140 24
3 183 167 0
3 101 183 44
3 167 101 37
3 182 102 44
3 142 182 11
3 102 142 25
3 168 141 6
3 103 168 37
3 141 103 25
3 190 186 4
3 104 190 48
3 186 104 46
3 191 105 48
3 150 191 13
3 105 150 26
3 187 149 12
3 106 187 46
3 149 106 26
3 192 151 13
3 107 192 49
3 151 107 27
3 193 108 49
3 170 193 2
3 108 170 38
3 173 109 38
3 146 173 8
3 109 146 27
3 189 176 3
3 110 189 47
3 176 110 41
3 188 111 47
3 148 188 12
3 111 148 28
3 177 147 8
3 112 177 41
3 147 112 28
3 193 171 2
3 113 193 49
3 171 113 39
3 192 114 49
3 156 192 13
3 114 156 29
3 172 155 9
3 115 172 39
3 155 115 29
3 191 157 13
3 116 191 48
3 157 116 30
3 190 117 48
3 178 190 4
3 117 178 42
3 181 118 42
3 152 181 10
3 118 152 30
3 185 153 10
3 119 185 45
3 153 119 31
3 184 120 45
3 175 184 1
3 120 175 40
3 174 121 40
3 154 174 9
3 121 154 31
