ply
format ascii 1.0
element vertex 50
property float x
property float y
property float z
element face 96
property list uchar int vertex_indices
end_header
0.298828 0.298828 0.31875
0.654694 0.345306 0.220996
0.701172 0.701172 0.31875
0.345306 0.654694 0.220996
0.5 0.5 0.716016
0.440064 0.251343 0.243359
0.251343 0.440064 0.243359
0.5 0.5 0.0742188
0.559937 0.748657 0.243359
0.748657 0.559937 0.243359
0.645142 0.354858 0.538672
0.345703 0.345703 0.545313
0.354858 0.645142 0.538672
0.654297 0.654297 0.545313
0.350342 0.462158 0.124219
0.462158 0.350342 0.124219
0.332031 0.332031 0.1875
0.667969 0.667969 0.1875
0.649658 0.537842 0.124219
0.537842 0.649658 0.124219
0.492188 0.320313 0.578125
0.402344 0.261719 0.4125
0.548096 0.264404 0.399219
0.320313 0.492188 0.578125
0.264404 0.548096 0.399219
0.261719 0.402344 0.4125
0.507813 0.679688 0.578125
0.597656 0.738281 0.4125
0.451904 0.735596 0.399219
0.738281 0.597656 0.4125
0.679688 0.507813 0.578125
0.735596 0.451904 0.399219
0.2854 0.573975 0.222656
0.394775 0.605225 0.122656
0.605225 0.394775 0.122656
0.573975 0.2854 0.222656
0.332031 0.269531 0.2875
0.269531 0.332031 0.2875
0.667969 0.730469 0.2875
0.730469 0.667969 0.2875
0.7146 0.426025 0.222656
0.426025 0.7146 0.222656
0.570313 0.429688 0.684375
0.429688 0.429688 0.684375
0.300781 0.300781 0.3875
0.675537 0.324463 0.347656
0.429688 0.570313 0.684375
0.324463 0.675537 0.347656
0.570313 0.570313 0.684375
0.699219 0.699219 0.3875
3 15 16 14
3 18 19 17
3 21 22 20
3 24 25 23
3 27 28 26
3 30 31 29
3 32 33 14
3 34 35 15
3 36 37 16
3 38 39 17
3 18 40 34
3 33 41 19
3 42 43 20
3 21 44 36
3 35 45 22
3 43 46 23
3 24 47 32
3 37 44 25
3 46 48 26
3 27 49 38
3 41 47 28
3 39 49 29
3 30 48 42
3 31 45 40
3 16 15 5
3 14 16 6
3 15 14 7
3 19 18 7
3 17 19 8
3 18 17 9
3 22 21 5
3 20 22 10
3 21 20 11
3 25 24 6
3 23 25 11
3 24 23 12
3 28 27 8
3 26 28 12
3 27 26 13
3 31 30 10
3 29 31 9
3 30 29 13
3 33 32 3
3 14 33 7
3 32 14 6
3 35 34 1
3 15 35 5
3 34 15 7
3 37 36 0
3 16 37 6
3 36 16 5
3 39 38 2
3 17 39 9
3 38 17 8
3 40 18 9
3 34 40 1
3 18 34 7
3 41 33 3
3 19 41 8
3 33 19 7
3 43 42 4
3 20 43 11
3 42 20 10
3 44 21 11
3 36 44 0
3 21 36 5
3 45 35 1
3 22 45 10
3 35 22 5
3 46 43 4
3 23 46 12
3 43 23 11
3 47 24 12
3 32 47 3
3 24 32 6
3 44 37 0
3 25 44 11
3 37 25 6
3 48 46 4
3 26 48 13
3 46 26 12
3 49 27 13
3 38 49 2
3 27 38 8
3 47 41 3
3 28 47 12
3 41 28 8
3 49 39 2
3 29 49 13
3 39 29 9
3 48 30 13
3 42 48 4
3 30 42 10
3 45 31 10
3 40 45 1
3 31 40 9
