ply
format ascii 1.0
element vertex 50
property float x
property float y
property float z
element face 96
property list uchar int vertex_indices
end_header
0.180176 0.180176 0.192188
0.800148 0.199852 0.127905
0.819824 0.819824 0.192188
0.199852 0.800148 0.127905
0.5 0.5 1.08838
0.297363 0.297363 0.661328
0.299652 0.700348 0.659668
0.133148 0.461578 0.13584
0.461578 0.133148 0.13584
0.700348 0.299652 0.659668
0.5 0.5 0.0185547
0.866852 0.538422 0.13584
0.702637 0.702637 0.661328
0.538422 0.866852 0.13584
0.149414 0.290039 0.159375
0.286133 0.286133 0.096875
0.290039 0.149414 0.159375
0.219727 0.219727 0.384375
0.19043 0.381836 0.403125
0.381836 0.19043 0.403125
0.675964 0.324036 0.0548828
0.701477 0.517273 0.0560547
0.843933 0.347473 0.129883
0.652527 0.156067 0.129883
0.482727 0.298523 0.0560547
0.771668 0.228332 0.361133
0.590149 0.191101 0.399805
0.808899 0.409851 0.399805
0.780273 0.780273 0.384375
0.80957 0.618164 0.403125
0.850586 0.709961 0.159375
0.709961 0.850586 0.159375
0.618164 0.80957 0.403125
0.713867 0.713867 0.096875
0.347473 0.843933 0.129883
0.517273 0.701477 0.0560547
0.324036 0.675964 0.0548828
0.228332 0.771668 0.361133
0.409851 0.808899 0.399805
0.156067 0.652527 0.129883
0.191101 0.590149 0.399805
0.298523 0.482727 0.0560547
0.595703 0.404297 0.924219
0.716797 0.501953 0.694531
0.595703 0.595703 0.924219
0.404297 0.404297 0.924219
0.498047 0.283203 0.694531
0.404297 0.595703 0.924219
0.283203 0.498047 0.694531
0.501953 0.716797 0.694531
3 35 33 21
3 11 21 33
3 13 33 35
3 10 35 21
3 29 43 27
3 9 27 43
3 12 43 29
3 11 29 27
3 15 41 24
3 10 24 41
3 7 41 15
3 8 15 24
3 49 32 38
3 13 38 32
3 12 32 49
3 6 49 38
3 48 40 18
3 7 18 40
3 6 40 48
3 5 48 18
3 26 46 19
3 5 19 46
3 9 46 26
3 8 26 19
3 0 14 16
3 7 15 14
3 8 16 15
3 14 15 16
3 0 17 14
3 5 18 17
3 7 14 18
3 17 18 14
3 0 16 17
3 8 19 16
3 5 17 19
3 16 19 17
3 1 20 22
3 10 21 20
3 11 22 21
3 20 21 22
3 1 23 20
3 8 24 23
3 10 20 24
3 23 24 20
3 1 25 23
3 9 26 25
3 8 23 26
3 25 26 23
3 1 22 25
3 11 27 22
3 9 25 27
3 22 27 25
3 2 28 30
3 12 29 28
3 11 30 29
3 28 29 30
3 2 31 28
3 13 32 31
3 12 28 32
3 31 32 28
3 2 30 31
3 11 33 30
3 13 31 33
3 30 33 31
3 3 34 36
3 13 35 34
3 10 36 35
3 34 35 36
3 3 37 34
3 6 38 37
3 13 34 38
3 37 38 34
3 3 39 37
3 7 40 39
3 6 37 40
3 39 40 37
3 3 36 39
3 10 41 36
3 7 39 41
3 36 41 39
3 4 42 44
3 9 43 42
3 12 44 43
3 42 43 44
3 4 45 42
3 5 46 45
3 9 42 46
3 45 46 42
3 4 47 45
3 6 48 47
3 5 45 48
3 47 48 45
3 4 44 47
3 12 49 44
3 6 47 49
3 44 49 47
