ply
format ascii 1.0
element vertex 66
property float x
property float y
property float z
element face 128
property list uchar int vertex_indices
end_header
1 0 0
0 -1 0
-1 0 0
0 1 0
0 0 1
0 0 -1
0.625 0 0.625
0.625 -0.625 0
0 -0.625 0.625
-0.625 -0.625 0
-0.625 0 0.625
-0.625 0.625 0
0 0.625 0.625
0.625 0.625 0
0 -0.625 -0.625
0.625 0 -0.625
-0.625 0 -0.625
0 0.625 -0.625
0.367188 -0.671875 0.367188
0.367188 -0.367188 0.671875
0.671875 -0.367188 0.367188
-0.671875 -0.367188 0.367188
-0.367188 -0.367188 0.671875
-0.367188 -0.671875 0.367188
-0.367188 0.671875 0.367188
-0.367188 0.367188 0.671875
-0.671875 0.367188 0.367188
0.367188 0.671875 0.367188
0.671875 0.367188 0.367188
0.367188 0.367188 0.671875
0.671875 -0.367188 -0.367188
0.367188 -0.367188 -0.671875
0.367188 -0.671875 -0.367188
-0.367188 -0.367188 -0.671875
-0.671875 -0.367188 -0.367188
-0.367188 -0.671875 -0.367188
-0.367188 0.367188 -0.671875
-0.367188 0.671875 -0.367188
-0.671875 0.367188 -0.367188
0.367188 0.671875 -0.367188
0.367188 0.367188 -0.671875
0.671875 0.367188 -0.367188
0.3125 -0.90625 0
0 -0.90625 0.3125
0 -0.3125 0.90625
0.3125 0 0.90625
0.90625 0 0.3125
0.90625 -0.3125 0
-0.90625 -0.3125 0
-0.90625 0 0.3125
-0.3125 0 0.90625
-0.3125 -0.90625 0
-0.3125 0.90625 0
0 0.90625 0.3125
0 0.3125 0.90625
-0.90625 0.3125 0
0.3125 0.90625 0
0.90625 0.3125 0
0.90625 0 -0.3125
0.3125 0 -0.90625
0 -0.3125 -0.90625
0 -0.90625 -0.3125
-0.3125 0 -0.90625
-0.90625 0 -0.3125
0 0.3125 -0.90625
0 0.90625 -0.3125
3 19 20 18
3 22 23 21
3 25 26 24
3 28 29 27
3 31 32 30
3 34 35 33
3 37 38 36
3 40 41 39
3 42 43 18
3 44 45 19
3 46 47 20
3 48 49 21
3 22 50 44
3 43 51 23
3 52 53 24
3 25 54 50
3 49 55 26
3 53 56 27
3 28 57 46
3 45 54 29
3 47 58 30
3 59 60 31
3 32 61 42
3 60 62 33
3 34 63 48
3 51 61 35
3 62 64 36
3 37 65 52
3 55 63 38
3 56 65 39
3 40 64 59
3 41 58 57
3 20 19 6
3 18 20 7
3 19 18 8
3 23 22 8
3 21 23 9
3 22 21 10
3 26 25 10
3 24 26 11
3 25 24 12
3 29 28 6
3 27 29 12
3 28 27 13
3 32 31 14
3 30 32 7
3 31 30 15
3 35 34 9
3 33 35 14
3 34 33 16
3 38 37 11
3 36 38 16
3 37 36 17
3 41 40 15
3 39 41 13
3 40 39 17
3 43 42 1
3 18 43 8
3 42 18 7
3 45 44 4
3 19 45 6
3 44 19 8
3 47 46 0
3 20 47 7
3 46 20 6
3 49 48 2
3 21 49 10
3 48 21 9
3 50 22 10
3 44 50 4
3 22 44 8
3 51 43 1
3 23 51 9
3 43 23 8
3 53 52 3
3 24 53 12
3 52 24 11
3 54 25 12
3 50 54 4
3 25 50 10
3 55 49 2
3 26 55 11
3 49 26 10
3 56 53 3
3 27 56 13
3 53 27 12
3 57 28 13
3 46 57 0
3 28 46 6
3 54 45 4
3 29 54 12
3 45 29 6
3 58 47 0
3 30 58 15
3 47 30 7
3 60 59 5
3 31 60 14
3 59 31 15
3 61 32 14
3 42 61 1
3 32 42 7
3 62 60 5
3 33 62 16
3 60 33 14
3 63 34 16
3 48 63 2
3 34 48 9
3 61 51 1
3 35 61 14
3 51 35 9
3 64 62 5
3 36 64 17
3 62 36 16
3 65 37 17
3 52 65 3
3 37 52 11
3 63 55 2
3 38 63 16
3 55 38 11
3 65 56 3
3 39 65 17
3 56 39 13
3 64 40 17
3 59 64 5
3 40 59 15
3 58 41 15
3 57 58 0
3 41 57 13
