ply
format ascii 1.0
element vertex 18
property float x
property float y
property float z
element face 32
property list uchar int vertex_indices
end_header
1 0 0
0 -1 0
-1 0 0
0 1 0
0 0 1
0 0 -1
0.625 0 0.625
0.625 -0.625 0
0 -0.625 0.625
-0.625 -0.625 0
-0.625 0 0.625
-0.625 0.625 0
0 0.625 0.625
0.625 0.625 0
0 -0.625 -0.625
0.625 0 -0.625
-0.625 0 -0.625
0 0.625 -0.625
3 7 8 6
3 9 10 8
3 11 12 10
3 12 13 6
3 7 15 14
3 14 16 9
3 16 17 11
3 13 17 15
3 8 7 1
3 6 8 4
3 7 6 0
3 10 9 2
3 8 10 4
3 9 8 1
3 12 11 3
3 10 12 4
3 11 10 2
3 13 12 3
3 6 13 0
3 12 6 4
3 15 7 0
3 14 15 5
3 7 14 1
3 16 14 5
3 9 16 2
3 14 9 1
3 17 16 5
3 11 17 3
3 16 11 2
3 17 13 3
3 15 17 5
3 13 15 0
