ply
format ascii 1.0
element vertex 146
property float x
property float y
property float z
element face 144
property list uchar int vertex_indices
end_header
0.535147 0.0113379 0.0113379
-0.0113379 -0.535147 -0.0113379
-0.535147 0.0113379 -0.0113379
-0.0222222 0.522222 -0.0222222
0 -1.16415e-10 0.53993
0.0308642 0 -0.529321
0.373264 0 0.373264
0.378087 -0.378087 -4.13921e-10
0.0277778 -0.388889 0.361111
-0.388889 -0.361111 0.0277778
-0.388889 -0.0277778 0.361111
-0.361111 0.388889 0.0277778
-2.06961e-10 0.397377 0.358796
0.358796 0.397377 2.06961e-10
-0.0277778 -0.361111 -0.388889
0.388889 -0.0277778 -0.361111
-0.358796 -2.06961e-10 -0.397377
4.13921e-10 0.378087 -0.378087
0.316666 -0.277778 0.316666
-0.277778 -0.316666 0.316666
-0.316666 0.277778 0.316666
0.316666 0.277778 0.316666
0.277778 -0.316666 -0.316666
-0.316666 -0.316666 -0.277778
-0.316666 0.316666 -0.277778
0.316666 0.277778 -0.316666
0.173611 -0.347222 0.361111
0.361111 -0.347222 0.173611
0.201389 -0.423611 0.201389
0.201389 -0.479167 0.0069445
0.0069445 -0.479167 0.201389
-0.347222 -0.173611 0.361111
-0.347222 -0.361111 0.173611
-0.423611 -0.201389 0.201389
-0.479167 -0.201389 0.0069445
-0.479167 -0.0069445 0.201389
-0.173611 0.347222 0.361111
-0.361111 0.347222 0.173611
-0.201389 0.423611 0.201389
-0.201389 0.479167 0.0069445
0 0.486111 0.173611
0.361111 0.347222 0.173611
0.173611 0.347222 0.361111
0.201389 0.423611 0.201389
0.173611 0.486111 0
0.347222 -0.173611 -0.361111
0.347222 -0.361111 -0.173611
0.423611 -0.201389 -0.201389
0.479167 -0.201389 -0.0069445
0.479167 -0.0069445 -0.201389
-0.361111 -0.173611 -0.347222
-0.173611 -0.361111 -0.347222
-0.201389 -0.201389 -0.423611
-0.0069445 -0.201389 -0.479167
-0.173611 0 -0.486111
-0.173611 0.361111 -0.347222
-0.361111 0.173611 -0.347222
-0.201389 0.201389 -0.423611
-0.0069445 0.201389 -0.479167
0.173611 0.347222 -0.361111
0.361111 0.347222 -0.173611
0.201389 0.423611 -0.201389
0.0069445 0.479167 -0.201389
0.229167 0 0.472222
0.361111 -0.138889 0.361111
0.173611 -0.173611 0.451389
0 -0.229167 0.472222
0.451389 -0.173611 0.173611
0.472222 0 0.229167
-0.138889 -0.361111 0.361111
-0.173611 -0.173611 0.451389
-0.229167 0 0.472222
-0.229167 -0.472222 0
-0.173611 -0.451389 0.173611
-0.361111 0.138889 0.361111
-0.173611 0.173611 0.451389
0 0.229167 0.472222
-0.472222 0.229167 0
-0.451389 0.173611 0.173611
0.361111 0.138889 0.361111
0.451389 0.173611 0.173611
0.472222 0.229167 0
0.173611 0.173611 0.451389
0.138889 -0.361111 -0.361111
0.173611 -0.173611 -0.451389
0.229167 0 -0.472222
0.173611 -0.451389 -0.173611
0 -0.472222 -0.229167
-0.361111 -0.361111 -0.138889
-0.451389 -0.173611 -0.173611
-0.472222 0 -0.229167
-0.173611 -0.451389 -0.173611
-0.361111 0.361111 -0.138889
-0.173611 0.451389 -0.173611
-0.451389 0.173611 -0.173611
0.361111 0.138889 -0.361111
0.173611 0.173611 -0.451389
0.451389 0.173611 -0.173611
0.25 -0.388889 0.25
0.138889 -0.472222 0.138889
-0.388889 -0.25 0.25
-0.472222 -0.138889 0.138889
-0.25 0.388889 0.25
-0.138889 0.472222 0.138889
0.25 0.388889 0.25
0.138889 0.472222 0.138889
0.388889 -0.25 -0.25
0.472222 -0.138889 -0.138889
-0.25 -0.25 -0.388889
-0.138889 -0.138889 -0.472222
-0.25 0.25 -0.388889
-0.138889 0.138889 -0.472222
0.25 0.388889 -0.25
0.138889 0.472222 -0.138889
0.25 -0.111111 0.444444
0.111111 -0.25 0.444444
0.444444 -0.25 0.111111
0.444444 -0.111111 0.25
-0.111111 -0.25 0.444444
-0.25 -0.111111 0.444444
-0.25 -0.444444 0.111111
-0.111111 -0.444444 0.25
-0.25 0.111111 0.444444
-0.111111 0.25 0.444444
-0.444444 0.25 0.111111
-0.444444 0.111111 0.25
0.444444 0.111111 0.25
0.444444 0.25 0.111111
0.111111 0.25 0.444444
0.25 0.111111 0.444444
0.111111 -0.25 -0.444444
0.25 -0.111111 -0.444444
0.25 -0.444444 -0.111111
0.111111 -0.444444 -0.25
-0.444444 -0.25 -0.111111
-0.444444 -0.111111 -0.25
-0.111111 -0.444444 -0.25
-0.25 -0.444444 -0.111111
-0.25 0.444444 -0.111111
-0.111111 0.444444 -0.25
-0.444444 0.111111 -0.25
-0.444444 0.25 -0.111111
0.25 0.111111 -0.444444
0.111111 0.25 -0.444444
0.444444 0.25 -0.111111
0.444444 0.111111 -0.25
4 28 98 27 7
4 30 99 29 1
4 33 100 32 9
4 35 101 34 2
4 38 102 37 11
4 40 103 39 3
4 43 104 42 12
4 44 105 40 3
4 47 106 46 7
4 49 107 48 0
4 52 108 51 14
4 54 109 53 5
4 57 110 56 16
4 58 111 54 5
4 61 112 60 13
4 62 113 44 3
4 65 114 64 18
4 66 115 26 8
4 67 116 27 18
4 68 117 64 6
4 70 118 69 19
4 71 119 31 10
4 73 120 32 19
4 73 121 30 1
4 75 122 74 20
4 76 123 36 12
4 78 124 37 20
4 78 125 35 2
4 80 126 79 21
4 81 127 41 13
4 82 128 42 21
4 82 129 63 4
4 84 130 83 22
4 85 131 45 15
4 86 132 46 22
4 87 133 83 14
4 89 134 88 23
4 90 135 50 16
4 91 136 51 23
4 91 137 72 1
4 93 138 92 24
4 93 139 62 3
4 94 140 56 24
4 94 141 77 2
4 96 142 95 25
4 96 143 58 5
4 97 144 60 25
4 97 145 49 0
4 8 26 98 28
4 18 27 98 26
4 8 28 99 30
4 7 29 99 28
4 10 31 100 33
4 19 32 100 31
4 10 33 101 35
4 9 34 101 33
4 12 36 102 38
4 20 37 102 36
4 12 38 103 40
4 11 39 103 38
4 13 41 104 43
4 21 42 104 41
4 13 43 105 44
4 12 40 105 43
4 15 45 106 47
4 22 46 106 45
4 15 47 107 49
4 7 48 107 47
4 16 50 108 52
4 23 51 108 50
4 16 52 109 54
4 14 53 109 52
4 17 55 110 57
4 24 56 110 55
4 17 57 111 58
4 16 54 111 57
4 17 59 112 61
4 25 60 112 59
4 17 61 113 62
4 13 44 113 61
4 4 63 114 65
4 6 64 114 63
4 4 65 115 66
4 18 26 115 65
4 0 48 116 67
4 7 27 116 48
4 0 67 117 68
4 18 64 117 67
4 4 66 118 70
4 8 69 118 66
4 4 70 119 71
4 19 31 119 70
4 1 72 120 73
4 9 32 120 72
4 19 69 121 73
4 8 30 121 69
4 4 71 122 75
4 10 74 122 71
4 4 75 123 76
4 20 36 123 75
4 2 77 124 78
4 11 37 124 77
4 20 74 125 78
4 10 35 125 74
4 0 68 126 80
4 6 79 126 68
4 0 80 127 81
4 21 41 127 80
4 4 76 128 82
4 12 42 128 76
4 21 79 129 82
4 6 63 129 79
4 5 53 130 84
4 14 83 130 53
4 5 84 131 85
4 22 45 131 84
4 1 29 132 86
4 7 46 132 29
4 1 86 133 87
4 22 83 133 86
4 2 34 134 89
4 9 88 134 34
4 2 89 135 90
4 23 50 135 89
4 1 87 136 91
4 14 51 136 87
4 23 88 137 91
4 9 72 137 88
4 3 39 138 93
4 11 92 138 39
4 24 55 139 93
4 17 62 139 55
4 2 90 140 94
4 16 56 140 90
4 24 92 141 94
4 11 77 141 92
4 5 85 142 96
4 15 95 142 85
4 25 59 143 96
4 17 58 143 59
4 0 81 144 97
4 13 60 144 81
4 25 95 145 97
4 15 49 145 95
