ply
format ascii 1.0
element vertex 26
property float x
property float y
property float z
element face 24
property list uchar int vertex_indices
end_header
0.583333 0 0
0 -0.583333 0
-0.583333 0 0
0 0.583333 0
0 0 0.583333
0 0 -0.583333
0.416667 0 0.416667
0.416667 -0.416667 0
0 -0.416667 0.416667
-0.416667 -0.416667 0
-0.416667 0 0.416667
-0.416667 0.416667 0
0 0.416667 0.416667
0.416667 0.416667 0
0 -0.416667 -0.416667
0.416667 0 -0.416667
-0.416667 0 -0.416667
0 0.416667 -0.416667
0.333333 -0.333333 0.333333
-0.333333 -0.333333 0.333333
-0.333333 0.333333 0.333333
0.333333 0.333333 0.333333
0.333333 -0.333333 -0.333333
-0.333333 -0.333333 -0.333333
-0.333333 0.333333 -0.333333
0.333333 0.333333 -0.333333
4 8 18 7 1
4 10 19 9 2
4 12 20 11 3
4 13 21 12 3
4 15 22 7 0
4 16 23 14 5
4 17 24 16 5
4 17 25 13 3
4 4 6 18 8
4 0 7 18 6
4 4 8 19 10
4 1 9 19 8
4 4 10 20 12
4 2 11 20 10
4 0 6 21 13
4 4 12 21 6
4 5 14 22 15
4 1 7 22 14
4 2 9 23 16
4 1 14 23 9
4 3 11 24 17
4 2 16 24 11
4 5 15 25 17
4 0 13 25 15
