ply
format ascii 1.0
element vertex 866
property float x
property float y
property float z
element face 864
property list uchar int vertex_indices
end_header
0.524237 0.0149072 0.0190868
-0.0122983 -0.523413 -0.0191854
-0.523413 0.0122983 -0.0191854
-0.0366255 0.508012 -0.0301955
-0.00185185 -0.000823045 0.530349
0.0457247 -0.00514403 -0.516747
0.364938 0.00377929 0.371551
0.370397 -0.370397 -1.07619e-10
0.0310643 -0.386746 0.349394
-0.383888 -0.353395 0.0282065
-0.386746 -0.0310643 0.349394
-0.353395 0.383888 0.0282065
-0.00231482 0.395152 0.344714
0.344714 0.395152 0.00231482
-0.0319372 -0.349175 -0.386176
0.386746 -0.0310643 -0.349394
-0.344714 -0.00231482 -0.395152
2.41454e-10 0.371389 -0.371389
0.311277 -0.270182 0.314894
-0.270182 -0.311277 0.314894
-0.311277 0.270182 0.314894
0.314894 0.270182 0.311277
0.270182 -0.311277 -0.314894
-0.314894 -0.311277 -0.270182
-0.311277 0.314894 -0.270182
0.311277 0.270182 -0.314894
0.162778 -0.333796 0.363704
0.355338 -0.338363 0.174125
0.211317 -0.414095 0.195833
0.185098 -0.473382 0.0191516
0.00834861 -0.474364 0.188004
-0.333796 -0.162778 0.363704
-0.338863 -0.354552 0.175411
-0.414815 -0.210185 0.197685
-0.474103 -0.183966 0.0210035
-0.474364 -0.00834861 0.188004
-0.160926 0.334362 0.363549
-0.354552 0.338863 0.175411
-0.208333 0.415381 0.197531
-0.185741 0.473704 0.018426
-0.00231482 0.482067 0.154149
0.363549 0.334362 0.160926
0.174125 0.339256 0.354445
0.195679 0.415946 0.208179
0.154149 0.482067 -0.00231482
0.333796 -0.162778 -0.363704
0.338363 -0.355338 -0.174125
0.414095 -0.211317 -0.195833
0.473382 -0.185098 -0.0191516
0.474364 -0.00834861 -0.188004
-0.363549 -0.160926 -0.334362
-0.175411 -0.354552 -0.338863
-0.197531 -0.208333 -0.415381
-0.0178498 -0.184259 -0.474177
-0.154071 -1.09229e-10 -0.482074
-0.171875 0.355356 -0.337416
-0.354445 0.174125 -0.339256
-0.208179 0.196965 -0.41466
-0.00487259 0.188993 -0.473916
0.171875 0.337416 -0.355356
0.354445 0.339256 -0.174125
0.208179 0.41466 -0.196965
0.00527268 0.473587 -0.190022
0.22257 0.0115741 0.465046
0.354793 -0.131494 0.356401
0.185 -0.167593 0.441366
0.0134259 -0.235185 0.458217
0.441047 -0.180726 0.173256
0.458709 -0.00850341 0.235826
-0.135648 -0.345648 0.362315
-0.167593 -0.185 0.441366
-0.235185 -0.0134259 0.458217
-0.224367 -0.463917 -0.0104781
-0.171242 -0.445493 0.1736
-0.345648 0.135648 0.362315
-0.185 0.167593 0.441366
-0.0115741 0.235751 0.458063
-0.463917 0.224367 -0.0104781
-0.445493 0.171242 0.1736
0.363125 0.1375 0.344606
0.441047 0.168348 0.185756
0.457744 0.236507 0.0123299
0.175411 0.171039 0.445393
0.130208 -0.354231 -0.357124
0.16965 -0.185 -0.440658
0.237243 -0.0134259 -0.45751
0.180726 -0.441047 -0.173256
0.00665155 -0.457898 -0.236867
-0.364167 -0.343796 -0.135648
-0.441047 -0.184244 -0.168348
-0.457744 -0.0108182 -0.236507
-0.175936 -0.445171 -0.171564
-0.343796 0.364167 -0.135648
-0.17419 0.444895 -0.171746
-0.445171 0.175936 -0.171564
0.345648 0.135648 -0.362315
0.17459 0.170718 -0.445223
0.445493 0.171242 -0.1736
0.238704 -0.378241 0.260926
0.146965 -0.458076 0.143982
-0.378241 -0.238704 0.260926
-0.458796 -0.145833 0.145833
-0.236852 0.378807 0.260772
-0.143519 0.459825 0.143827
0.260772 0.378807 0.236852
0.141512 0.460854 0.141512
0.378241 -0.238704 -0.260926
0.458076 -0.146965 -0.143982
-0.260772 -0.236852 -0.378807
-0.143827 -0.143519 -0.459825
-0.236852 0.262058 -0.377521
-0.141975 0.14465 -0.459105
0.236852 0.377521 -0.262058
0.141975 0.459105 -0.14465
0.242477 -0.0949073 0.442824
0.118333 -0.235185 0.439051
0.443289 -0.239265 0.097515
0.438732 -0.11267 0.23946
-0.0930555 -0.243519 0.442014
-0.235185 -0.118333 0.439051
-0.243348 -0.441695 0.0983181
-0.111111 -0.429444 0.260926
-0.243519 0.0930555 0.442014
-0.118333 0.235185 0.439051
-0.441695 0.243348 0.0983181
-0.429444 0.111111 0.260926
0.442505 0.0956632 0.243233
0.438732 0.235941 0.119089
0.0972221 0.243158 0.441859
0.263588 0.113426 0.427939
0.0946501 -0.239815 -0.443621
0.237243 -0.118333 -0.438343
0.239265 -0.443289 -0.097515
0.11267 -0.438732 -0.23946
-0.44401 -0.239059 -0.0933484
-0.438732 -0.117577 -0.235941
-0.0998299 -0.441695 -0.243348
-0.26463 -0.427129 -0.111574
-0.241296 0.443148 -0.094074
-0.11787 0.428724 -0.258539
-0.44154 0.097978 -0.243914
-0.427129 0.26463 -0.111574
0.245576 0.0930555 -0.441306
0.11787 0.258539 -0.428724
0.44154 0.243914 -0.0964663
0.429444 0.111111 -0.260926
0.220486 -0.399884 0.232639
0.297801 -0.365162 0.219676
0.286716 -0.385095 0.177083
0.361819 -0.358346 0.0983796
0.283115 -0.402328 0.109954
0.0798612 -0.46875 0.172454
0.173868 -0.46785 0.0775464
0.0974349 -0.483253 0.0974349
0.1006 -0.499598 0.00569258
0.000484248 -0.500177 0.0942343
-0.399884 -0.220486 0.232639
-0.365162 -0.297801 0.219676
-0.385995 -0.285301 0.179398
-0.362847 -0.354745 0.109954
-0.406829 -0.276042 0.121528
-0.46875 -0.0798612 0.172454
-0.46875 -0.172454 0.0798612
-0.483253 -0.0974349 0.0974349
-0.499598 -0.1006 0.00569258
-0.500177 -0.000484248 0.0942343
-0.218171 0.400592 0.232446
-0.297801 0.365162 0.219676
-0.285301 0.385995 0.179398
-0.354745 0.362847 0.109954
-0.276042 0.406829 0.121528
-0.0746528 0.472351 0.160687
-0.171875 0.469329 0.0775464
-0.097338 0.485069 0.0849537
-0.114005 0.494792 -0.00115738
-0.0115741 0.500579 0.0636574
0.232446 0.400592 0.218171
0.219676 0.365162 0.297801
0.177083 0.386703 0.285108
0.0983796 0.366384 0.353781
0.109954 0.410365 0.275077
0.160108 0.472929 0.072338
0.072338 0.472929 0.160108
0.0820602 0.487963 0.0820602
0.0636574 0.500579 -0.0115741
0.399884 -0.220486 -0.232639
0.365162 -0.297801 -0.219676
0.385095 -0.286716 -0.177083
0.358346 -0.361819 -0.0983796
0.402328 -0.283115 -0.109954
0.46875 -0.0798612 -0.172454
0.46785 -0.173868 -0.0775464
0.483253 -0.0974349 -0.0974349
0.499598 -0.1006 -0.00569258
0.500177 -0.000484248 -0.0942343
-0.232446 -0.218171 -0.400592
-0.219676 -0.297801 -0.365162
-0.179398 -0.285301 -0.385995
-0.109954 -0.354745 -0.362847
-0.121528 -0.276042 -0.406829
-0.160687 -0.0746528 -0.472351
-0.0775464 -0.171875 -0.469329
-0.0842335 -0.0954862 -0.485661
0.00475821 -0.104745 -0.49775
-0.0606353 0 -0.502958
-0.218171 0.234054 -0.398984
-0.297801 0.219676 -0.365162
-0.285108 0.177083 -0.386703
-0.353781 0.0983796 -0.366384
-0.275077 0.109954 -0.410365
-0.0752315 0.17329 -0.468429
-0.160687 0.0746528 -0.472351
-0.0842335 0.0954862 -0.485661
0.00996654 0.0983797 -0.498328
0.218171 0.398984 -0.234054
0.297801 0.365162 -0.219676
0.285108 0.386703 -0.177083
0.353781 0.366384 -0.0983796
0.275077 0.410365 -0.109954
0.0752315 0.468429 -0.17329
0.160687 0.472351 -0.0746528
0.0849537 0.485069 -0.097338
-0.00636571 0.49537 -0.107639
0.206597 -0.130208 0.44835
0.300202 -0.118634 0.404369
0.270023 -0.162616 0.401967
0.333912 -0.197338 0.340856
0.243634 -0.220486 0.387153
0.0607638 -0.228588 0.457031
0.145023 -0.291088 0.401389
0.083912 -0.293403 0.414352
0.104745 -0.358218 0.361111
0.0167824 -0.307292 0.414352
0.447952 -0.204495 0.134047
0.404771 -0.294817 0.133102
0.401967 -0.260995 0.180324
0.340856 -0.307292 0.239583
0.387153 -0.226273 0.239583
0.456632 -0.0569255 0.23069
0.401389 -0.127315 0.300116
0.415364 -0.0671297 0.297888
0.366175 -0.0671297 0.362124
0.419415 -0.00231483 0.301939
-0.130208 -0.206597 0.44835
-0.116319 -0.301505 0.403356
-0.162616 -0.270023 0.401967
-0.197338 -0.333912 0.340856
-0.220486 -0.243634 0.387153
-0.228588 -0.0607638 0.457031
-0.291088 -0.145023 0.401389
-0.293403 -0.083912 0.414352
-0.358218 -0.104745 0.361111
-0.307292 -0.0167824 0.414352
-0.206385 -0.447952 0.132157
-0.295717 -0.403356 0.135417
-0.260995 -0.401967 0.180324
-0.307292 -0.340856 0.239583
-0.226273 -0.387153 0.239583
-0.141204 -0.439583 0.219676
-0.0555555 -0.454861 0.232639
-0.0796485 -0.469364 0.176139
-0.0973167 -0.488024 0.0936555
-0.206597 0.130208 0.44835
-0.301505 0.116319 0.403356
-0.270023 0.162616 0.401967
-0.333912 0.197338 0.340856
-0.243634 0.220486 0.387153
-0.0607638 0.228588 0.457031
-0.145023 0.291088 0.401389
-0.0815972 0.29411 0.414159
-0.0931712 0.361754 0.360146
-0.00520833 0.310829 0.413387
-0.447952 0.206385 0.132157
-0.403356 0.295717 0.135417
-0.401967 0.260995 0.180324
-0.340856 0.307292 0.239583
-0.387153 0.226273 0.239583
-0.439583 0.141204 0.219676
-0.454861 0.0555555 0.232639
-0.469364 0.0796485 0.176139
-0.488024 0.0973167 0.0936555
0.447952 0.131153 0.207542
0.404369 0.118634 0.300202
0.401967 0.162616 0.270023
0.340856 0.197338 0.333912
0.387153 0.220486 0.243634
0.456632 0.229533 0.0617087
0.401389 0.291088 0.145023
0.414159 0.29411 0.0815972
0.360146 0.361754 0.0931712
0.413387 0.310829 0.00520833
0.133102 0.20544 0.44835
0.133102 0.296425 0.403163
0.180324 0.260995 0.401967
0.239583 0.307292 0.340856
0.239583 0.226273 0.387153
0.221991 0.141782 0.439004
0.245226 0.0607638 0.450665
0.188657 0.0815972 0.466869
0.130787 0.00520833 0.496383
0.100694 0.0931712 0.489438
0.13278 -0.206597 -0.447466
0.116319 -0.29919 -0.405671
0.162616 -0.270023 -0.401967
0.197338 -0.333912 -0.340856
0.220486 -0.243634 -0.387153
0.23116 -0.0607638 -0.456147
0.291088 -0.145023 -0.401389
0.293403 -0.083912 -0.414352
0.358218 -0.104745 -0.361111
0.307292 -0.0167824 -0.414352
0.204495 -0.447952 -0.134047
0.294817 -0.404771 -0.133102
0.260995 -0.401967 -0.180324
0.307292 -0.340856 -0.239583
0.226273 -0.387153 -0.239583
0.0569255 -0.456632 -0.23069
0.127315 -0.401389 -0.300116
0.0648149 -0.414352 -0.29919
0.0555556 -0.361111 -0.368634
-0.00925925 -0.414352 -0.308449
-0.447952 -0.205652 -0.131153
-0.405671 -0.29919 -0.116319
-0.401967 -0.270023 -0.162616
-0.340856 -0.333912 -0.197338
-0.387153 -0.243634 -0.220486
-0.456632 -0.059819 -0.229533
-0.401389 -0.145023 -0.291088
-0.414159 -0.0815972 -0.29411
-0.360146 -0.0931712 -0.361754
-0.413387 -0.00520833 -0.310829
-0.134047 -0.447952 -0.206385
-0.135417 -0.403356 -0.295717
-0.180324 -0.401967 -0.260995
-0.239583 -0.340856 -0.307292
-0.239583 -0.387153 -0.226273
-0.221991 -0.439004 -0.141782
-0.246528 -0.449652 -0.058449
-0.189602 -0.466471 -0.082542
-0.135511 -0.49439 -0.00993246
-0.105419 -0.487446 -0.0978954
-0.208449 0.446875 -0.13206
-0.29919 0.405671 -0.116319
-0.270023 0.401967 -0.162616
-0.333912 0.340856 -0.197338
-0.243634 0.387153 -0.220486
-0.144444 0.439583 -0.216435
-0.0578703 0.453961 -0.234054
-0.0805555 0.468287 -0.178935
-0.101852 0.482639 -0.107639
-0.447952 0.134047 -0.206385
-0.403163 0.133102 -0.296425
-0.401967 0.180324 -0.260995
-0.340856 0.239583 -0.307292
-0.387153 0.239583 -0.226273
-0.439004 0.221991 -0.141782
-0.449652 0.246528 -0.058449
-0.466471 0.189602 -0.082542
-0.49439 0.135511 -0.00993246
-0.487446 0.105419 -0.0978954
0.209169 0.130208 -0.447466
0.301505 0.116319 -0.403356
0.270023 0.162616 -0.401967
0.333912 0.197338 -0.340856
0.243634 0.220486 -0.387153
0.144444 0.216435 -0.439583
0.0578703 0.234054 -0.453961
0.0812756 0.177083 -0.468879
0.105453 0.0983796 -0.485597
0.447952 0.206385 -0.132157
0.403163 0.296425 -0.133102
0.401967 0.260995 -0.180324
0.340856 0.307292 -0.239583
0.387153 0.226273 -0.239583
0.439583 0.141204 -0.219676
0.454861 0.0555555 -0.232639
0.469364 0.0796485 -0.176139
0.488024 0.0973167 -0.0936555
0.205208 -0.362269 0.311111
0.146991 -0.38831 0.301505
0.127894 -0.410301 0.266782
0.280671 -0.335648 0.280671
0.234375 -0.313657 0.340277
0.175605 -0.437178 0.171875
0.0868056 -0.434028 0.241898
0.0167825 -0.438079 0.266782
0.273856 -0.433578 0.00520837
0.248971 -0.429527 0.0752315
-0.362269 -0.205208 0.311111
-0.38831 -0.146991 0.301505
-0.410301 -0.127894 0.266782
-0.335648 -0.280671 0.280671
-0.313657 -0.234375 0.340277
-0.438079 -0.17419 0.17419
-0.434028 -0.0868056 0.241898
-0.438079 -0.0167825 0.266782
-0.438079 -0.266782 0.0167825
-0.434028 -0.241898 0.0868056
-0.202893 0.362976 0.310918
-0.135417 0.391847 0.30054
-0.116319 0.413838 0.265818
-0.280671 0.335648 0.280671
-0.234375 0.313657 0.340277
-0.171875 0.438786 0.173997
-0.0746528 0.438143 0.238619
0 0.446824 0.244984
-0.266782 0.438079 0.0167825
-0.241898 0.434028 0.0868056
0.310918 0.362976 0.202893
0.30054 0.391847 0.135417
0.265818 0.413838 0.116319
0.280671 0.335648 0.280671
0.340277 0.313657 0.234375
0.171682 0.439493 0.171682
0.238619 0.438143 0.0746528
0.244984 0.446824 0
0.0746528 0.438143 0.238619
0.362269 -0.205208 -0.311111
0.38831 -0.146991 -0.301505
0.410301 -0.127894 -0.266782
0.335648 -0.280671 -0.280671
0.313657 -0.234375 -0.340277
0.437178 -0.175605 -0.171875
0.434028 -0.0868056 -0.241898
0.438079 -0.0167825 -0.266782
0.433578 -0.273856 -0.00520837
0.429527 -0.248971 -0.0752315
-0.310918 -0.202893 -0.362976
-0.30054 -0.135417 -0.391847
-0.265818 -0.116319 -0.413838
-0.280671 -0.280671 -0.335648
-0.340277 -0.234375 -0.313657
-0.173997 -0.171875 -0.438786
-0.238619 -0.0746528 -0.438143
-0.244984 0 -0.446824
-0.0167825 -0.266782 -0.438079
-0.0868056 -0.241898 -0.434028
-0.102431 0.365869 -0.355453
-0.202893 0.312526 -0.361368
-0.135417 0.308578 -0.383809
-0.116319 0.273856 -0.4058
-0.280671 0.280671 -0.335648
-0.234375 0.340277 -0.313657
-0.171682 0.17329 -0.437886
-0.0752315 0.248971 -0.429527
-0.00520837 0.273856 -0.433578
-0.238619 0.0746528 -0.438143
0.102431 0.355453 -0.365869
0.202893 0.361368 -0.312526
0.135417 0.383809 -0.308578
0.116319 0.4058 -0.273856
0.280671 0.335648 -0.280671
0.234375 0.313657 -0.340277
0.171682 0.437886 -0.17329
0.0752315 0.429527 -0.248971
0.00520837 0.433578 -0.273856
0.238619 0.438143 -0.0746528
0.230758 -0.0462963 0.458044
0.137731 -0.0607638 0.487123
0.102431 -0.10243 0.487124
0.308883 -0.0578703 0.410156
0.29268 0 0.42636
0.145023 -0.199653 0.444647
0.0607638 -0.137731 0.487123
0 -0.137153 0.495804
0.207176 -0.26331 0.384838
0.460941 -0.218641 0.0443475
0.485709 -0.130693 0.0649092
0.485131 -0.0977064 0.107155
0.412744 -0.307421 0.0601851
0.444248 -0.140838 0.203838
0.48513 -0.0560397 0.142456
0.493811 0.00472412 0.141877
0.384838 -0.188079 0.280671
-0.0439814 -0.23206 0.457031
-0.0607638 -0.137731 0.487123
-0.10243 -0.102431 0.487124
-0.0648148 -0.37037 0.358796
-0.0462963 -0.315394 0.405092
-0.199653 -0.145023 0.444647
-0.137731 -0.0607638 0.487123
-0.137153 0 0.495804
-0.26331 -0.207176 0.384838
-0.233005 -0.456632 0.0476662
-0.142456 -0.48513 0.0560397
-0.314236 -0.405092 0.0723379
-0.29919 -0.421296 0.0115741
-0.125 -0.394444 0.311111
-0.188079 -0.384838 0.280671
-0.0457175 -0.417245 0.301505
-0.23206 0.0439814 0.457031
-0.137731 0.0607638 0.487123
-0.102431 0.10243 0.487124
-0.37037 0.0648148 0.358796
-0.315394 0.0462963 0.405092
-0.145023 0.199653 0.444647
-0.0607638 0.137731 0.487123
0 0.137153 0.495804
-0.207176 0.26331 0.384838
-0.456632 0.233005 0.0476662
-0.48513 0.142456 0.0560397
-0.405092 0.314236 0.0723379
-0.421296 0.29919 0.0115741
-0.394444 0.125 0.311111
-0.384838 0.188079 0.280671
-0.417245 0.0457175 0.301505
0.457645 0.0472411 0.231703
0.48513 0.065488 0.142456
0.485131 0.107155 0.107155
0.36386 0.0763889 0.36386
0.410156 0.0578703 0.308883
0.444248 0.200598 0.145968
0.48513 0.142456 0.065488
0.493811 0.141877 0.00472412
0.384838 0.26331 0.207176
0.0462963 0.232768 0.456838
0.0607638 0.137731 0.487123
0.0607638 0.317773 0.404128
0.312124 0.127315 0.393142
0.280671 0.188079 0.384838
0.308883 0.0578703 0.410156
0.0436599 -0.218171 -0.461355
0.0730452 -0.135417 -0.483282
0.115291 -0.102431 -0.482703
0.0457175 -0.301505 -0.417245
0.202225 -0.145023 -0.443763
0.150592 -0.0607638 -0.482703
0.150013 0 -0.491384
0.26331 -0.207176 -0.384838
0.218641 -0.460941 -0.0443475
0.130693 -0.485709 -0.0649092
0.0977064 -0.485131 -0.107155
0.307421 -0.412744 -0.0601851
0.140838 -0.444248 -0.203838
0.0560397 -0.48513 -0.142456
-0.00472412 -0.493811 -0.141877
0.188079 -0.384838 -0.280671
-0.461841 -0.217227 -0.0420327
-0.485709 -0.130693 -0.0649092
-0.485131 -0.0977064 -0.107155
-0.37037 -0.358796 -0.0648148
-0.417245 -0.301505 -0.0457175
-0.444248 -0.144078 -0.200598
-0.48513 -0.0560397 -0.142456
-0.493811 0.00472412 -0.141877
-0.384838 -0.207176 -0.26331
-0.0495559 -0.456632 -0.233005
-0.065488 -0.48513 -0.142456
-0.0723379 -0.405092 -0.314236
-0.313426 -0.392129 -0.125
-0.280671 -0.384838 -0.188079
-0.315394 -0.405092 -0.0462963
-0.220023 0.460764 -0.0429397
-0.144676 0.480324 -0.0694444
-0.358796 0.37037 -0.0648148
-0.301505 0.417245 -0.0457175
-0.145023 0.393544 -0.303498
-0.207176 0.384838 -0.26331
-0.0601851 0.412744 -0.307421
-0.456439 0.0472411 -0.233712
-0.48513 0.065488 -0.142456
-0.404128 0.0607638 -0.317773
-0.392129 0.313426 -0.125
-0.384838 0.280671 -0.188079
-0.405092 0.315394 -0.0462963
0.234632 0.0439814 -0.456147
0.150592 0.0607638 -0.482703
0.37037 0.0648148 -0.358796
0.315394 0.0462963 -0.405092
0.145023 0.303498 -0.393544
0.207176 0.26331 -0.384838
0.0601851 0.307421 -0.412744
0.456439 0.233712 -0.0453514
0.48513 0.142456 -0.0560397
0.404128 0.317773 -0.0607638
0.394444 0.125 -0.311111
0.384838 0.188079 -0.280671
0.417245 0.0457175 -0.301505
0.270833 -0.386574 0.208333
0.313529 -0.382973 0.125
0.115741 -0.476852 0.115741
0.0656652 -0.497827 0.0656652
-0.386574 -0.270833 0.208333
-0.386574 -0.30787 0.134259
-0.476852 -0.115741 0.115741
-0.497827 -0.0656652 0.0656652
-0.270833 0.386574 0.208333
-0.30787 0.386574 0.134259
-0.113426 0.479167 0.106481
-0.0745371 0.495833 0.0527778
0.208333 0.386574 0.270833
0.125 0.389403 0.307099
0.104167 0.481481 0.104167
0.0504629 0.498148 0.0504629
0.386574 -0.270833 -0.208333
0.382973 -0.313529 -0.125
0.476852 -0.115741 -0.115741
0.497827 -0.0656652 -0.0656652
-0.208333 -0.270833 -0.386574
-0.134259 -0.30787 -0.386574
-0.106481 -0.113426 -0.479167
-0.0498971 -0.0671297 -0.4982
-0.270833 0.208333 -0.386574
-0.307099 0.125 -0.389403
-0.106481 0.113426 -0.479167
-0.0498971 0.0671297 -0.4982
0.270833 0.386574 -0.208333
0.307099 0.389403 -0.125
0.106481 0.479167 -0.113426
0.0527778 0.495833 -0.0745371
0.261574 -0.141204 0.418981
0.283796 -0.196759 0.376389
0.0949073 -0.275463 0.425926
0.0671296 -0.321759 0.398148
0.418981 -0.256944 0.152778
0.376389 -0.266204 0.221296
0.425926 -0.0833333 0.280093
0.402199 -0.0462963 0.321181
-0.141204 -0.261574 0.418981
-0.196759 -0.283796 0.376389
-0.275463 -0.0949073 0.425926
-0.321759 -0.0671296 0.398148
-0.256944 -0.418981 0.152778
-0.266204 -0.376389 0.221296
-0.0925925 -0.458333 0.208333
-0.0593348 -0.488568 0.121221
-0.261574 0.141204 0.418981
-0.283796 0.196759 0.376389
-0.0949073 0.275463 0.425926
-0.0578703 0.324589 0.397376
-0.418981 0.256944 0.152778
-0.376389 0.266204 0.221296
-0.458333 0.0925925 0.208333
-0.488568 0.0593348 0.121221
0.418981 0.141204 0.261574
0.376389 0.196759 0.283796
0.425926 0.275463 0.0949073
0.397376 0.324589 0.0578703
0.152778 0.256944 0.418981
0.221296 0.266204 0.376389
0.217593 0.0949073 0.456018
0.134259 0.0578703 0.487847
0.141204 -0.261574 -0.418981
0.196759 -0.283796 -0.376389
0.275463 -0.0949073 -0.425926
0.321759 -0.0671296 -0.398148
0.256944 -0.418981 -0.152778
0.266204 -0.376389 -0.221296
0.0833333 -0.425926 -0.280093
0.0370371 -0.398148 -0.326389
-0.418981 -0.261574 -0.141204
-0.376389 -0.283796 -0.196759
-0.425926 -0.0949073 -0.275463
-0.397376 -0.0578703 -0.324589
-0.152778 -0.418981 -0.256944
-0.221296 -0.376389 -0.266204
-0.217593 -0.456018 -0.0949073
-0.138039 -0.486253 -0.0616496
-0.261574 0.418981 -0.141204
-0.283796 0.376389 -0.196759
-0.0925925 0.458333 -0.208333
-0.0629629 0.484259 -0.132407
-0.418981 0.152778 -0.256944
-0.376389 0.221296 -0.266204
-0.456018 0.217593 -0.0949073
-0.486253 0.138039 -0.0616496
0.261574 0.141204 -0.418981
0.283796 0.196759 -0.376389
0.0925925 0.208333 -0.458333
0.0658436 0.125 -0.486626
0.418981 0.256944 -0.152778
0.376389 0.266204 -0.221296
0.458333 0.0925925 -0.208333
0.488568 0.0593348 -0.121221
0.150463 -0.375 0.324074
0.159722 -0.400463 0.270833
0.309259 -0.337963 0.246759
0.246759 -0.337963 0.309259
0.122685 -0.428241 0.233796
0.0578704 -0.446759 0.233796
0.239455 -0.443159 0.0486112
0.239455 -0.42464 0.113426
-0.375 -0.150463 0.324074
-0.400463 -0.159722 0.270833
-0.337963 -0.309259 0.246759
-0.337963 -0.246759 0.309259
-0.428241 -0.122685 0.233796
-0.446759 -0.0578704 0.233796
-0.446759 -0.233796 0.0578704
-0.428241 -0.233796 0.122685
-0.141204 0.377829 0.323302
-0.150463 0.403292 0.270062
-0.309259 0.337963 0.246759
-0.246759 0.337963 0.309259
-0.113426 0.43107 0.233025
-0.0462963 0.451903 0.223765
-0.233796 0.446759 0.0578704
-0.233796 0.428241 0.122685
0.323302 0.377829 0.141204
0.270062 0.403292 0.150463
0.246759 0.337963 0.309259
0.309259 0.337963 0.246759
0.233025 0.43107 0.113426
0.223765 0.451903 0.0462963
0.0462963 0.451903 0.223765
0.113426 0.43107 0.233025
0.375 -0.150463 -0.324074
0.400463 -0.159722 -0.270833
0.337963 -0.309259 -0.246759
0.337963 -0.246759 -0.309259
0.428241 -0.122685 -0.233796
0.446759 -0.0578704 -0.233796
0.443159 -0.239455 -0.0486112
0.42464 -0.239455 -0.113426
-0.323302 -0.141204 -0.377829
-0.270062 -0.150463 -0.403292
-0.246759 -0.309259 -0.337963
-0.309259 -0.246759 -0.337963
-0.233025 -0.113426 -0.43107
-0.223765 -0.0462963 -0.451903
-0.0578704 -0.233796 -0.446759
-0.122685 -0.233796 -0.428241
-0.141204 0.329733 -0.371399
-0.150463 0.276492 -0.396862
-0.309259 0.246759 -0.337963
-0.246759 0.309259 -0.337963
-0.113426 0.239455 -0.42464
-0.0486112 0.239455 -0.443159
-0.223765 0.0462963 -0.451903
-0.233025 0.113426 -0.43107
0.141204 0.371399 -0.329733
0.150463 0.396862 -0.276492
0.309259 0.337963 -0.246759
0.246759 0.337963 -0.309259
0.113426 0.42464 -0.239455
0.0486112 0.443159 -0.239455
0.223765 0.451903 -0.0462963
0.233025 0.43107 -0.113426
0.159722 -0.037037 0.485532
0.141204 -0.0949073 0.478588
0.328125 -0.0833333 0.39294
0.284144 -0.037037 0.429977
0.0949073 -0.141204 0.478588
0.037037 -0.159722 0.485532
0.200463 -0.291667 0.374074
0.200463 -0.233796 0.404166
0.486253 -0.146684 0.0385015
0.476993 -0.137424 0.0986866
0.394547 -0.325103 0.0949073
0.433899 -0.276492 0.0347222
0.476993 -0.091128 0.144983
0.483938 -0.0332577 0.163502
0.374074 -0.175926 0.309259
0.404166 -0.1875 0.246759
-0.037037 -0.159722 0.485532
-0.0949073 -0.141204 0.478588
-0.0740741 -0.333333 0.388889
-0.0277777 -0.289352 0.425926
-0.141204 -0.0949073 0.478588
-0.159722 -0.037037 0.485532
-0.291667 -0.200463 0.374074
-0.233796 -0.200463 0.404166
-0.163502 -0.483938 0.0332577
-0.144983 -0.476993 0.091128
-0.328704 -0.388889 0.104167
-0.289352 -0.425926 0.0462963
-0.175926 -0.374074 0.309259
-0.1875 -0.404166 0.246759
-0.0254629 -0.4375 0.270833
-0.0740741 -0.398148 0.324074
-0.159722 0.037037 0.485532
-0.141204 0.0949073 0.478588
-0.333333 0.0740741 0.388889
-0.289352 0.0277777 0.425926
-0.0949073 0.141204 0.478588
-0.037037 0.159722 0.485532
-0.200463 0.291667 0.374074
-0.200463 0.233796 0.404166
-0.483938 0.163502 0.0332577
-0.476993 0.144983 0.091128
-0.388889 0.328704 0.104167
-0.425926 0.289352 0.0462963
-0.374074 0.175926 0.309259
-0.404166 0.1875 0.246759
-0.4375 0.0254629 0.270833
-0.398148 0.0740741 0.324074
0.483938 0.0408163 0.163502
0.476993 0.0986866 0.144983
0.39294 0.0833333 0.328125
0.429977 0.037037 0.284144
0.476993 0.144983 0.0986866
0.483938 0.163502 0.0408163
0.374074 0.291667 0.200463
0.404166 0.233796 0.200463
0.037037 0.159722 0.485532
0.0949073 0.141204 0.478588
0.0949073 0.331533 0.388117
0.037037 0.292181 0.425154
0.309259 0.175926 0.374074
0.246759 0.1875 0.404166
0.284144 0.037037 0.429977
0.328125 0.0833333 0.39294
0.0450102 -0.150463 -0.484311
0.105195 -0.141204 -0.475051
0.0740741 -0.324074 -0.398148
0.0254629 -0.270833 -0.4375
0.151492 -0.0949073 -0.475051
0.17001 -0.037037 -0.481996
0.291667 -0.200463 -0.374074
0.233796 -0.200463 -0.404166
0.146684 -0.486253 -0.0385015
0.137424 -0.476993 -0.0986866
0.325103 -0.394547 -0.0949073
0.276492 -0.433899 -0.0347222
0.091128 -0.476993 -0.144983
0.0332577 -0.483938 -0.163502
0.175926 -0.374074 -0.309259
0.1875 -0.404166 -0.246759
-0.486253 -0.146684 -0.0385015
-0.476993 -0.137424 -0.0986866
-0.398148 -0.324074 -0.0740741
-0.4375 -0.270833 -0.0254629
-0.476993 -0.091128 -0.144983
-0.483938 -0.0332577 -0.163502
-0.374074 -0.200463 -0.291667
-0.404166 -0.200463 -0.233796
-0.0408163 -0.483938 -0.163502
-0.0986866 -0.476993 -0.144983
-0.104167 -0.388889 -0.328704
-0.0462963 -0.425926 -0.289352
-0.309259 -0.374074 -0.175926
-0.246759 -0.404166 -0.1875
-0.289352 -0.425926 -0.0277777
-0.333333 -0.388889 -0.0740741
-0.15787 0.481944 -0.0421296
-0.148611 0.472685 -0.102315
-0.324074 0.398148 -0.0740741
-0.270833 0.4375 -0.0254629
-0.200463 0.374074 -0.291667
-0.200463 0.404166 -0.233796
-0.0347222 0.433899 -0.276492
-0.0949073 0.394547 -0.325103
-0.483938 0.0408163 -0.163502
-0.476993 0.0986866 -0.144983
-0.388117 0.0949073 -0.331533
-0.425154 0.037037 -0.292181
-0.374074 0.309259 -0.175926
-0.404166 0.246759 -0.1875
-0.425926 0.289352 -0.0277777
-0.388889 0.333333 -0.0740741
0.17001 0.037037 -0.481996
0.151492 0.0949073 -0.475051
0.333333 0.0740741 -0.388889
0.289352 0.0277777 -0.425926
0.200463 0.291667 -0.374074
0.200463 0.233796 -0.404166
0.0347222 0.276492 -0.433899
0.0949073 0.325103 -0.394547
0.483938 0.163502 -0.0332577
0.476993 0.144983 -0.091128
0.388117 0.331533 -0.0949073
0.425154 0.292181 -0.037037
0.374074 0.175926 -0.309259
0.404166 0.1875 -0.246759
0.4375 0.0254629 -0.270833
0.398148 0.0740741 -0.324074
4 148 578 147 27
4 150 579 149 7
4 153 580 152 29
4 155 581 154 1
4 158 582 157 32
4 160 583 159 9
4 163 584 162 34
4 165 585 164 2
4 168 586 167 37
4 170 587 169 11
4 173 588 172 39
4 175 589 174 3
4 178 590 177 42
4 180 591 179 12
4 183 592 182 40
4 184 593 175 3
4 187 594 186 46
4 189 595 188 7
4 192 596 191 48
4 194 597 193 0
4 197 598 196 51
4 199 599 198 14
4 202 600 201 53
4 204 601 203 5
4 207 602 206 56
4 209 603 208 16
4 212 604 211 54
4 213 605 204 5
4 216 606 215 60
4 218 607 217 13
4 221 608 220 44
4 222 609 184 3
4 225 610 224 64
4 227 611 226 18
4 230 612 229 26
4 232 613 231 8
4 235 614 234 27
4 237 615 236 18
4 240 616 239 64
4 242 617 241 6
4 245 618 244 69
4 247 619 246 19
4 250 620 249 31
4 252 621 251 10
4 255 622 254 32
4 257 623 256 19
4 260 624 259 30
4 261 625 155 1
4 264 626 263 74
4 266 627 265 20
4 269 628 268 36
4 271 629 270 12
4 274 630 273 37
4 276 631 275 20
4 279 632 278 35
4 280 633 165 2
4 283 634 282 79
4 285 635 284 21
4 288 636 287 41
4 290 637 289 13
4 293 638 292 42
4 295 639 294 21
4 298 640 297 63
4 300 641 299 4
4 303 642 302 83
4 305 643 304 22
4 308 644 307 45
4 310 645 309 15
4 313 646 312 46
4 315 647 314 22
4 318 648 317 83
4 320 649 319 14
4 323 650 322 88
4 325 651 324 23
4 328 652 327 50
4 330 653 329 16
4 333 654 332 51
4 335 655 334 23
4 338 656 337 72
4 340 657 339 1
4 343 658 342 92
4 345 659 344 24
4 348 660 347 62
4 349 661 222 3
4 352 662 351 56
4 354 663 353 24
4 357 664 356 77
4 359 665 358 2
4 362 666 361 95
4 364 667 363 25
4 367 668 366 58
4 368 669 213 5
4 371 670 370 60
4 373 671 372 25
4 376 672 375 49
4 377 673 194 0
4 379 674 378 98
4 380 675 146 28
4 381 676 147 98
4 382 677 378 26
4 384 678 383 99
4 385 679 151 30
4 387 680 152 99
4 387 681 150 7
4 389 682 388 100
4 390 683 156 33
4 391 684 157 100
4 392 685 388 31
4 394 686 393 101
4 395 687 161 35
4 397 688 162 101
4 397 689 160 9
4 399 690 398 102
4 400 691 166 38
4 401 692 167 102
4 402 693 398 36
4 404 694 403 103
4 405 695 171 40
4 407 696 172 103
4 407 697 170 11
4 409 698 408 104
4 410 699 176 43
4 411 700 177 104
4 412 701 408 41
4 414 702 413 105
4 415 703 181 44
4 416 704 182 105
4 416 705 180 12
4 418 706 417 106
4 419 707 185 47
4 420 708 186 106
4 421 709 417 45
4 423 710 422 107
4 424 711 190 49
4 426 712 191 107
4 426 713 189 7
4 428 714 427 108
4 429 715 195 52
4 430 716 196 108
4 431 717 427 50
4 433 718 432 109
4 434 719 200 54
4 436 720 201 109
4 436 721 199 14
4 439 722 438 110
4 440 723 205 57
4 441 724 206 110
4 442 725 438 55
4 444 726 443 111
4 445 727 210 58
4 446 728 211 111
4 446 729 209 16
4 449 730 448 112
4 450 731 214 61
4 451 732 215 112
4 452 733 448 59
4 454 734 453 113
4 455 735 219 62
4 456 736 220 113
4 456 737 218 13
4 458 738 457 114
4 459 739 223 65
4 460 740 224 114
4 461 741 457 63
4 463 742 462 115
4 464 743 228 66
4 465 744 229 115
4 465 745 227 18
4 467 746 466 116
4 468 747 233 67
4 469 748 234 116
4 469 749 425 7
4 471 750 470 117
4 472 751 238 68
4 473 752 239 117
4 473 753 237 18
4 475 754 474 118
4 476 755 243 70
4 478 756 244 118
4 478 757 232 8
4 480 758 479 119
4 481 759 248 71
4 482 760 249 119
4 482 761 247 19
4 484 762 483 120
4 484 763 261 1
4 485 764 254 120
4 486 765 483 72
4 488 766 487 121
4 488 767 257 19
4 489 768 259 121
4 489 769 477 8
4 491 770 490 122
4 492 771 262 75
4 494 772 263 122
4 494 773 252 10
4 496 774 495 123
4 497 775 267 76
4 498 776 268 123
4 498 777 266 20
4 500 778 499 124
4 500 779 280 2
4 501 780 273 124
4 502 781 499 77
4 504 782 503 125
4 504 783 276 20
4 505 784 278 125
4 505 785 493 10
4 507 786 506 126
4 508 787 281 80
4 510 788 282 126
4 510 789 242 6
4 512 790 511 127
4 513 791 286 81
4 514 792 287 127
4 514 793 285 21
4 516 794 515 128
4 516 795 300 4
4 517 796 292 128
4 517 797 271 12
4 519 798 518 129
4 519 799 295 21
4 520 800 297 129
4 520 801 509 6
4 522 802 521 130
4 523 803 301 84
4 524 804 302 130
4 524 805 435 14
4 526 806 525 131
4 527 807 306 85
4 528 808 307 131
4 528 809 305 22
4 530 810 529 132
4 531 811 311 86
4 532 812 312 132
4 532 813 386 7
4 534 814 533 133
4 535 815 316 87
4 536 816 317 133
4 536 817 315 22
4 538 818 537 134
4 539 819 321 89
4 541 820 322 134
4 541 821 396 9
4 543 822 542 135
4 544 823 326 90
4 545 824 327 135
4 545 825 325 23
4 547 826 546 136
4 547 827 340 1
4 548 828 332 136
4 548 829 320 14
4 550 830 549 137
4 550 831 335 23
4 551 832 337 137
4 551 833 540 9
4 553 834 552 138
4 553 835 349 3
4 555 836 342 138
4 555 837 406 11
4 557 838 556 139
4 557 839 345 24
4 558 840 347 139
4 558 841 437 17
4 560 842 559 140
4 560 843 359 2
4 561 844 351 140
4 561 845 330 16
4 563 846 562 141
4 563 847 354 24
4 564 848 356 141
4 564 849 554 11
4 566 850 565 142
4 566 851 368 5
4 568 852 361 142
4 568 853 310 15
4 570 854 569 143
4 570 855 364 25
4 571 856 366 143
4 571 857 447 17
4 573 858 572 144
4 573 859 377 0
4 574 860 370 144
4 574 861 290 13
4 576 862 575 145
4 576 863 373 25
4 577 864 375 145
4 577 865 567 15
4 28 146 578 148
4 98 147 578 146
4 28 148 579 150
4 27 149 579 148
4 30 151 580 153
4 99 152 580 151
4 30 153 581 155
4 29 154 581 153
4 33 156 582 158
4 100 157 582 156
4 33 158 583 160
4 32 159 583 158
4 35 161 584 163
4 101 162 584 161
4 35 163 585 165
4 34 164 585 163
4 38 166 586 168
4 102 167 586 166
4 38 168 587 170
4 37 169 587 168
4 40 171 588 173
4 103 172 588 171
4 40 173 589 175
4 39 174 589 173
4 43 176 590 178
4 104 177 590 176
4 43 178 591 180
4 42 179 591 178
4 44 181 592 183
4 105 182 592 181
4 44 183 593 184
4 40 175 593 183
4 47 185 594 187
4 106 186 594 185
4 47 187 595 189
4 46 188 595 187
4 49 190 596 192
4 107 191 596 190
4 49 192 597 194
4 48 193 597 192
4 52 195 598 197
4 108 196 598 195
4 52 197 599 199
4 51 198 599 197
4 54 200 600 202
4 109 201 600 200
4 54 202 601 204
4 53 203 601 202
4 57 205 602 207
4 110 206 602 205
4 57 207 603 209
4 56 208 603 207
4 58 210 604 212
4 111 211 604 210
4 58 212 605 213
4 54 204 605 212
4 61 214 606 216
4 112 215 606 214
4 61 216 607 218
4 60 217 607 216
4 62 219 608 221
4 113 220 608 219
4 62 221 609 222
4 44 184 609 221
4 65 223 610 225
4 114 224 610 223
4 65 225 611 227
4 64 226 611 225
4 66 228 612 230
4 115 229 612 228
4 66 230 613 232
4 26 231 613 230
4 67 233 614 235
4 116 234 614 233
4 67 235 615 237
4 27 236 615 235
4 68 238 616 240
4 117 239 616 238
4 68 240 617 242
4 64 241 617 240
4 70 243 618 245
4 118 244 618 243
4 70 245 619 247
4 69 246 619 245
4 71 248 620 250
4 119 249 620 248
4 71 250 621 252
4 31 251 621 250
4 73 253 622 255
4 120 254 622 253
4 73 255 623 257
4 32 256 623 255
4 73 258 624 260
4 121 259 624 258
4 73 260 625 261
4 30 155 625 260
4 75 262 626 264
4 122 263 626 262
4 75 264 627 266
4 74 265 627 264
4 76 267 628 269
4 123 268 628 267
4 76 269 629 271
4 36 270 629 269
4 78 272 630 274
4 124 273 630 272
4 78 274 631 276
4 37 275 631 274
4 78 277 632 279
4 125 278 632 277
4 78 279 633 280
4 35 165 633 279
4 80 281 634 283
4 126 282 634 281
4 80 283 635 285
4 79 284 635 283
4 81 286 636 288
4 127 287 636 286
4 81 288 637 290
4 41 289 637 288
4 82 291 638 293
4 128 292 638 291
4 82 293 639 295
4 42 294 639 293
4 82 296 640 298
4 129 297 640 296
4 82 298 641 300
4 63 299 641 298
4 84 301 642 303
4 130 302 642 301
4 84 303 643 305
4 83 304 643 303
4 85 306 644 308
4 131 307 644 306
4 85 308 645 310
4 45 309 645 308
4 86 311 646 313
4 132 312 646 311
4 86 313 647 315
4 46 314 647 313
4 87 316 648 318
4 133 317 648 316
4 87 318 649 320
4 83 319 649 318
4 89 321 650 323
4 134 322 650 321
4 89 323 651 325
4 88 324 651 323
4 90 326 652 328
4 135 327 652 326
4 90 328 653 330
4 50 329 653 328
4 91 331 654 333
4 136 332 654 331
4 91 333 655 335
4 51 334 655 333
4 91 336 656 338
4 137 337 656 336
4 91 338 657 340
4 72 339 657 338
4 93 341 658 343
4 138 342 658 341
4 93 343 659 345
4 92 344 659 343
4 93 346 660 348
4 139 347 660 346
4 93 348 661 349
4 62 222 661 348
4 94 350 662 352
4 140 351 662 350
4 94 352 663 354
4 56 353 663 352
4 94 355 664 357
4 141 356 664 355
4 94 357 665 359
4 77 358 665 357
4 96 360 666 362
4 142 361 666 360
4 96 362 667 364
4 95 363 667 362
4 96 365 668 367
4 143 366 668 365
4 96 367 669 368
4 58 213 669 367
4 97 369 670 371
4 144 370 670 369
4 97 371 671 373
4 60 372 671 371
4 97 374 672 376
4 145 375 672 374
4 97 376 673 377
4 49 194 673 376
4 8 231 674 379
4 26 378 674 231
4 8 379 675 380
4 98 146 675 379
4 18 236 676 381
4 27 147 676 236
4 18 381 677 382
4 98 378 677 381
4 8 380 678 384
4 28 383 678 380
4 8 384 679 385
4 99 151 679 384
4 7 386 680 387
4 29 152 680 386
4 99 383 681 387
4 28 150 681 383
4 10 251 682 389
4 31 388 682 251
4 10 389 683 390
4 100 156 683 389
4 19 256 684 391
4 32 157 684 256
4 19 391 685 392
4 100 388 685 391
4 10 390 686 394
4 33 393 686 390
4 10 394 687 395
4 101 161 687 394
4 9 396 688 397
4 34 162 688 396
4 101 393 689 397
4 33 160 689 393
4 12 270 690 399
4 36 398 690 270
4 12 399 691 400
4 102 166 691 399
4 20 275 692 401
4 37 167 692 275
4 20 401 693 402
4 102 398 693 401
4 12 400 694 404
4 38 403 694 400
4 12 404 695 405
4 103 171 695 404
4 11 406 696 407
4 39 172 696 406
4 103 403 697 407
4 38 170 697 403
4 13 289 698 409
4 41 408 698 289
4 13 409 699 410
4 104 176 699 409
4 21 294 700 411
4 42 177 700 294
4 21 411 701 412
4 104 408 701 411
4 13 410 702 414
4 43 413 702 410
4 13 414 703 415
4 105 181 703 414
4 12 405 704 416
4 40 182 704 405
4 105 413 705 416
4 43 180 705 413
4 15 309 706 418
4 45 417 706 309
4 15 418 707 419
4 106 185 707 418
4 22 314 708 420
4 46 186 708 314
4 22 420 709 421
4 106 417 709 420
4 15 419 710 423
4 47 422 710 419
4 15 423 711 424
4 107 190 711 423
4 7 425 712 426
4 48 191 712 425
4 107 422 713 426
4 47 189 713 422
4 16 329 714 428
4 50 427 714 329
4 16 428 715 429
4 108 195 715 428
4 23 334 716 430
4 51 196 716 334
4 23 430 717 431
4 108 427 717 430
4 16 429 718 433
4 52 432 718 429
4 16 433 719 434
4 109 200 719 433
4 14 435 720 436
4 53 201 720 435
4 109 432 721 436
4 52 199 721 432
4 17 437 722 439
4 55 438 722 437
4 17 439 723 440
4 110 205 723 439
4 24 353 724 441
4 56 206 724 353
4 24 441 725 442
4 110 438 725 441
4 17 440 726 444
4 57 443 726 440
4 17 444 727 445
4 111 210 727 444
4 16 434 728 446
4 54 211 728 434
4 111 443 729 446
4 57 209 729 443
4 17 447 730 449
4 59 448 730 447
4 17 449 731 450
4 112 214 731 449
4 25 372 732 451
4 60 215 732 372
4 25 451 733 452
4 112 448 733 451
4 17 450 734 454
4 61 453 734 450
4 17 454 735 455
4 113 219 735 454
4 13 415 736 456
4 44 220 736 415
4 113 453 737 456
4 61 218 737 453
4 4 299 738 458
4 63 457 738 299
4 4 458 739 459
4 114 223 739 458
4 6 241 740 460
4 64 224 740 241
4 6 460 741 461
4 114 457 741 460
4 4 459 742 463
4 65 462 742 459
4 4 463 743 464
4 115 228 743 463
4 18 382 744 465
4 26 229 744 382
4 115 462 745 465
4 65 227 745 462
4 0 193 746 467
4 48 466 746 193
4 0 467 747 468
4 116 233 747 467
4 7 149 748 469
4 27 234 748 149
4 116 466 749 469
4 48 425 749 466
4 0 468 750 471
4 67 470 750 468
4 0 471 751 472
4 117 238 751 471
4 18 226 752 473
4 64 239 752 226
4 117 470 753 473
4 67 237 753 470
4 4 464 754 475
4 66 474 754 464
4 4 475 755 476
4 118 243 755 475
4 8 477 756 478
4 69 244 756 477
4 118 474 757 478
4 66 232 757 474
4 4 476 758 480
4 70 479 758 476
4 4 480 759 481
4 119 248 759 480
4 19 392 760 482
4 31 249 760 392
4 119 479 761 482
4 70 247 761 479
4 1 339 762 484
4 72 483 762 339
4 120 253 763 484
4 73 261 763 253
4 9 159 764 485
4 32 254 764 159
4 9 485 765 486
4 120 483 765 485
4 19 246 766 488
4 69 487 766 246
4 121 258 767 488
4 73 257 767 258
4 8 385 768 489
4 30 259 768 385
4 121 487 769 489
4 69 477 769 487
4 4 481 770 491
4 71 490 770 481
4 4 491 771 492
4 122 262 771 491
4 10 493 772 494
4 74 263 772 493
4 122 490 773 494
4 71 252 773 490
4 4 492 774 496
4 75 495 774 492
4 4 496 775 497
4 123 267 775 496
4 20 402 776 498
4 36 268 776 402
4 123 495 777 498
4 75 266 777 495
4 2 358 778 500
4 77 499 778 358
4 124 272 779 500
4 78 280 779 272
4 11 169 780 501
4 37 273 780 169
4 11 501 781 502
4 124 499 781 501
4 20 265 782 504
4 74 503 782 265
4 125 277 783 504
4 78 276 783 277
4 10 395 784 505
4 35 278 784 395
4 125 503 785 505
4 74 493 785 503
4 0 472 786 507
4 68 506 786 472
4 0 507 787 508
4 126 281 787 507
4 6 509 788 510
4 79 282 788 509
4 126 506 789 510
4 68 242 789 506
4 0 508 790 512
4 80 511 790 508
4 0 512 791 513
4 127 286 791 512
4 21 412 792 514
4 41 287 792 412
4 127 511 793 514
4 80 285 793 511
4 4 497 794 516
4 76 515 794 497
4 128 291 795 516
4 82 300 795 291
4 12 179 796 517
4 42 292 796 179
4 128 515 797 517
4 76 271 797 515
4 21 284 798 519
4 79 518 798 284
4 129 296 799 519
4 82 295 799 296
4 6 461 800 520
4 63 297 800 461
4 129 518 801 520
4 79 509 801 518
4 5 203 802 522
4 53 521 802 203
4 5 522 803 523
4 130 301 803 522
4 14 319 804 524
4 83 302 804 319
4 130 521 805 524
4 53 435 805 521
4 5 523 806 526
4 84 525 806 523
4 5 526 807 527
4 131 306 807 526
4 22 421 808 528
4 45 307 808 421
4 131 525 809 528
4 84 305 809 525
4 1 154 810 530
4 29 529 810 154
4 1 530 811 531
4 132 311 811 530
4 7 188 812 532
4 46 312 812 188
4 132 529 813 532
4 29 386 813 529
4 1 531 814 534
4 86 533 814 531
4 1 534 815 535
4 133 316 815 534
4 22 304 816 536
4 83 317 816 304
4 133 533 817 536
4 86 315 817 533
4 2 164 818 538
4 34 537 818 164
4 2 538 819 539
4 134 321 819 538
4 9 540 820 541
4 88 322 820 540
4 134 537 821 541
4 34 396 821 537
4 2 539 822 543
4 89 542 822 539
4 2 543 823 544
4 135 326 823 543
4 23 431 824 545
4 50 327 824 431
4 135 542 825 545
4 89 325 825 542
4 1 535 826 547
4 87 546 826 535
4 136 331 827 547
4 91 340 827 331
4 14 198 828 548
4 51 332 828 198
4 136 546 829 548
4 87 320 829 546
4 23 324 830 550
4 88 549 830 324
4 137 336 831 550
4 91 335 831 336
4 9 486 832 551
4 72 337 832 486
4 137 549 833 551
4 88 540 833 549
4 3 174 834 553
4 39 552 834 174
4 138 341 835 553
4 93 349 835 341
4 11 554 836 555
4 92 342 836 554
4 138 552 837 555
4 39 406 837 552
4 24 442 838 557
4 55 556 838 442
4 139 346 839 557
4 93 345 839 346
4 17 455 840 558
4 62 347 840 455
4 139 556 841 558
4 55 437 841 556
4 2 544 842 560
4 90 559 842 544
4 140 350 843 560
4 94 359 843 350
4 16 208 844 561
4 56 351 844 208
4 140 559 845 561
4 90 330 845 559
4 24 344 846 563
4 92 562 846 344
4 141 355 847 563
4 94 354 847 355
4 11 502 848 564
4 77 356 848 502
4 141 562 849 564
4 92 554 849 562
4 5 527 850 566
4 85 565 850 527
4 142 360 851 566
4 96 368 851 360
4 15 567 852 568
4 95 361 852 567
4 142 565 853 568
4 85 310 853 565
4 25 452 854 570
4 59 569 854 452
4 143 365 855 570
4 96 364 855 365
4 17 445 856 571
4 58 366 856 445
4 143 569 857 571
4 59 447 857 569
4 0 513 858 573
4 81 572 858 513
4 144 369 859 573
4 97 377 859 369
4 13 217 860 574
4 60 370 860 217
4 144 572 861 574
4 81 290 861 572
4 25 363 862 576
4 95 575 862 363
4 145 374 863 576
4 97 373 863 374
4 15 424 864 577
4 49 375 864 424
4 145 575 865 577
4 95 567 865 575
