ply
format ascii 1.0
element vertex 18
property float x
property float y
property float z
element face 32
property list uchar int vertex_indices
end_header
0.515625 0 0
0 -0.515625 0
-0.515625 0 0
0 0.515625 0
0 0 0.515625
0 0 -0.515625
0.375 0 -0.375
0.375 0.375 0
0 0.375 -0.375
0 0.375 0.375
0.375 0 0.375
0.375 -0.375 0
0 -0.375 0.375
0 -0.375 -0.375
-0.375 0 -0.375
-0.375 -0.375 0
-0.375 0 0.375
-0.375 0.375 0
3 16 17 9
3 3 9 17
3 2 17 16
3 4 16 9
3 8 17 14
3 2 14 17
3 3 17 8
3 5 8 14
3 5 6 8
3 0 7 6
3 3 8 7
3 6 7 8
3 4 9 10
3 3 7 9
3 0 10 7
3 9 7 10
3 4 10 12
3 0 11 10
3 1 12 11
3 10 11 12
3 5 13 6
3 1 11 13
3 0 6 11
3 13 11 6
3 5 14 13
3 2 15 14
3 1 13 15
3 14 15 13
3 4 12 16
3 1 15 12
3 2 16 15
3 12 15 16
