ply
format ascii 1.0
element vertex 258
property float x
property float y
property float z
element face 512
property list uchar int vertex_indices
end_header
0.63054 0 0
0 -0.63054 0
-0.63054 0 0
0 0.63054 0
0 0 0.63054
0 0 -0.63054
0.38324 0 -0.38324
0.38324 0.38324 0
0 0.38324 -0.38324
0 0.38324 0.38324
0.38324 0 0.38324
0.38324 -0.38324 0
0 -0.38324 0.38324
0 -0.38324 -0.38324
-0.38324 0 -0.38324
-0.38324 -0.38324 0
-0.38324 0 0.38324
-0.38324 0.38324 0
0.55492 0 -0.172378
0.41922 -0.214645 -0.214645
0.55492 -0.172378 0
0.55492 0.172378 0
0.41922 0.214645 -0.214645
0.55492 0 0.172378
0.41922 0.214645 0.214645
0.41922 -0.214645 0.214645
-0.172378 -0.55492 0
-0.214645 -0.41922 0.214645
-9.31323e-10 -0.55492 0.172378
-9.31323e-10 -0.55492 -0.172378
-0.214645 -0.41922 -0.214645
0.172378 -0.55492 0
0.214645 -0.41922 -0.214645
0.214645 -0.41922 0.214645
-0.55492 0 0.172378
-0.41922 -0.214645 0.214645
-0.55492 -0.172378 0
-0.55492 0.172378 0
-0.41922 0.214645 0.214645
-0.55492 0 -0.172378
-0.41922 0.214645 -0.214645
-0.41922 -0.214645 -0.214645
0.172378 0.55492 0
0.214645 0.41922 0.214645
-9.31323e-10 0.55492 0.172378
-9.31323e-10 0.55492 -0.172378
0.214645 0.41922 -0.214645
-0.172378 0.55492 0
-0.214645 0.41922 -0.214645
-0.214645 0.41922 0.214645
-9.31323e-10 -0.172378 0.55492
-0.214645 -0.214645 0.41922
-0.172378 0 0.55492
0.172378 0 0.55492
0.214645 -0.214645 0.41922
-9.31323e-10 0.172378 0.55492
0.214645 0.214645 0.41922
-0.214645 0.214645 0.41922
-0.172378 0 -0.55492
-0.214645 -0.214645 -0.41922
-9.31323e-10 -0.172378 -0.55492
-9.31323e-10 0.172378 -0.55492
-0.214645 0.214645 -0.41922
0.172378 0 -0.55492
0.214645 0.214645 -0.41922
0.214645 -0.214645 -0.41922
0.616112 -0.0717772 0
0.572029 -0.099121 0.099121
0.616112 0 0.0717772
0.616112 0 -0.0717772
0.572029 -0.099121 -0.099121
0.616112 0.0717772 0
0.572029 0.099121 -0.099121
0.572029 0.099121 0.099121
0 -0.616112 0.0717772
0.099121 -0.572029 0.099121
0.0717772 -0.616112 0
-0.0717772 -0.616112 0
-0.099121 -0.572029 0.099121
0 -0.616112 -0.0717772
-0.099121 -0.572029 -0.099121
0.099121 -0.572029 -0.099121
-0.616112 -0.0717772 0
-0.572029 -0.099121 -0.099121
-0.616112 0 -0.0717772
-0.616112 0 0.0717772
-0.572029 -0.099121 0.099121
-0.616112 0.0717772 0
-0.572029 0.099121 0.099121
-0.572029 0.099121 -0.099121
0 0.616112 0.0717772
-0.099121 0.572029 0.099121
-0.0717772 0.616112 0
0.0717772 0.616112 0
0.099121 0.572029 0.099121
0 0.616112 -0.0717772
0.099121 0.572029 -0.099121
-0.099121 0.572029 -0.099121
-0.0717772 0 0.616112
-0.099121 0.099121 0.572029
0 0.0717772 0.616112
0 -0.0717772 0.616112
-0.099121 -0.099121 0.572029
0.0717772 0 0.616112
0.099121 -0.099121 0.572029
0.099121 0.099121 0.572029
0 -0.0717772 -0.616112
0.099121 -0.099121 -0.572029
0.0717772 0 -0.616112
-0.0717772 0 -0.616112
-0.099121 -0.099121 -0.572029
0 0.0717772 -0.616112
-0.099121 0.099121 -0.572029
0.099121 0.099121 -0.572029
0.2789 0 -0.476593
0.20462 -0.105957 -0.500946
0.312164 -0.109375 -0.4133
0.312164 0.109375 -0.4133
0.20462 0.105957 -0.500946
0.4133 0.109375 -0.312164
0.321503 0.217835 -0.321503
0.476593 0 -0.2789
0.500946 0.105957 -0.20462
0.4133 -0.109375 -0.312164
0.500946 -0.105957 -0.20462
0.321503 -0.217835 -0.321503
0.2789 0.476593 0
0.20462 0.500946 -0.105957
0.312164 0.4133 -0.109375
0.312164 0.4133 0.109375
0.20462 0.500946 0.105957
0.4133 0.312164 0.109375
0.321503 0.321503 0.217835
0.476593 0.2789 0
0.500946 0.20462 0.105957
0.4133 0.312164 -0.109375
0.500946 0.20462 -0.105957
0.321503 0.321503 -0.217835
0 0.2789 -0.476593
0.105957 0.20462 -0.500946
0.109375 0.312164 -0.4133
-0.109375 0.312164 -0.4133
-0.105957 0.20462 -0.500946
-0.109375 0.4133 -0.312164
-0.217835 0.321503 -0.321503
0 0.476593 -0.2789
-0.105957 0.500946 -0.20462
0.109375 0.4133 -0.312164
0.105957 0.500946 -0.20462
0.217835 0.321503 -0.321503
0 0.2789 0.476593
-0.105957 0.20462 0.500946
-0.109375 0.312164 0.4133
0.109375 0.312164 0.4133
0.105957 0.20462 0.500946
0.109375 0.4133 0.312164
0.217835 0.321503 0.321503
0 0.476593 0.2789
0.105957 0.500946 0.20462
-0.109375 0.4133 0.312164
-0.105957 0.500946 0.20462
-0.217835 0.321503 0.321503
0.2789 0 0.476593
0.20462 0.105957 0.500946
0.312164 0.109375 0.4133
0.312164 -0.109375 0.4133
0.20462 -0.105957 0.500946
0.4133 -0.109375 0.312164
0.321503 -0.217835 0.321503
0.476593 0 0.2789
0.500946 -0.105957 0.20462
0.4133 0.109375 0.312164
0.500946 0.105957 0.20462
0.321503 0.217835 0.321503
0.2789 -0.476593 0
0.20462 -0.500946 0.105957
0.312164 -0.4133 0.109375
0.312164 -0.4133 -0.109375
0.20462 -0.500946 -0.105957
0.4133 -0.312164 -0.109375
0.321503 -0.321503 -0.217835
0.476593 -0.2789 0
0.500946 -0.20462 -0.105957
0.4133 -0.312164 0.109375
0.500946 -0.20462 0.105957
0.321503 -0.321503 0.217835
0 -0.2789 0.476593
0.105957 -0.20462 0.500946
0.109375 -0.312164 0.4133
-0.109375 -0.312164 0.4133
-0.105957 -0.20462 0.500946
-0.109375 -0.4133 0.312164
-0.217835 -0.321503 0.321503
0 -0.476593 0.2789
-0.105957 -0.500946 0.20462
0.109375 -0.4133 0.312164
0.105957 -0.500946 0.20462
0.217835 -0.321503 0.321503
0.109375 -0.312164 -0.4133
0.105957 -0.20462 -0.500946
0 -0.2789 -0.476593
0.109375 -0.4133 -0.312164
0.217835 -0.321503 -0.321503
0 -0.476593 -0.2789
0.105957 -0.500946 -0.20462
-0.109375 -0.4133 -0.312164
-0.105957 -0.500946 -0.20462
-0.109375 -0.312164 -0.4133
-0.217835 -0.321503 -0.321503
-0.105957 -0.20462 -0.500946
-0.2789 0 -0.476593
-0.20462 0.105957 -0.500946
-0.312164 0.109375 -0.4133
-0.312164 -0.109375 -0.4133
-0.20462 -0.105957 -0.500946
-0.4133 -0.109375 -0.312164
-0.321503 -0.217835 -0.321503
-0.476593 0 -0.2789
-0.500946 -0.105957 -0.20462
-0.4133 0.109375 -0.312164
-0.500946 0.105957 -0.20462
-0.321503 0.217835 -0.321503
-0.4133 -0.312164 -0.109375
-0.500946 -0.20462 -0.105957
-0.476593 -0.2789 0
-0.312164 -0.4133 -0.109375
-0.321503 -0.321503 -0.217835
-0.2789 -0.476593 0
-0.20462 -0.500946 -0.105957
-0.312164 -0.4133 0.109375
-0.20462 -0.500946 0.105957
-0.4133 -0.312164 0.109375
-0.321503 -0.321503 0.217835
-0.500946 -0.20462 0.105957
-0.312164 0.109375 0.4133
-0.20462 0.105957 0.500946
-0.2789 0 0.476593
-0.4133 0.109375 0.312164
-0.321503 0.217835 0.321503
-0.476593 0 0.2789
-0.500946 0.105957 0.20462
-0.4133 -0.109375 0.312164
-0.500946 -0.105957 0.20462
-0.312164 -0.109375 0.4133
-0.321503 -0.217835 0.321503
-0.20462 -0.105957 0.500946
-0.2789 0.476593 0
-0.20462 0.500946 0.105957
-0.312164 0.4133 0.109375
-0.312164 0.4133 -0.109375
-0.20462 0.500946 -0.105957
-0.4133 0.312164 -0.109375
-0.321503 0.321503 -0.217835
-0.476593 0.2789 0
-0.500946 0.20462 -0.105957
-0.4133 0.312164 0.109375
-0.500946 0.20462 0.105957
-0.321503 0.321503 0.217835
3 118 139 113
3 61 113 139
3 64 139 118
3 63 118 113
3 199 115 107
3 63 107 115
3 65 115 199
3 60 199 107
3 214 209 110
3 60 110 209
3 59 209 214
3 58 214 110
3 142 211 112
3 58 112 211
3 62 211 142
3 61 142 112
3 154 163 105
3 53 105 163
3 56 163 154
3 55 154 105
3 235 151 99
3 55 99 151
3 57 151 235
3 52 235 99
3 190 245 102
3 52 102 245
3 51 245 190
3 50 190 102
3 166 187 104
3 50 104 187
3 54 187 166
3 53 166 104
3 250 146 97
3 45 97 146
3 48 146 250
3 47 250 97
3 160 247 91
3 47 91 247
3 49 247 160
3 44 160 91
3 130 158 94
3 44 94 158
3 43 158 130
3 42 130 94
3 148 127 96
3 42 96 127
3 46 127 148
3 45 148 96
3 252 221 144
3 62 144 221
3 40 221 252
3 48 252 144
3 257 161 238
3 57 238 161
3 49 161 257
3 38 257 238
3 220 254 89
3 37 89 254
3 40 254 220
3 39 220 89
3 223 218 83
3 39 83 218
3 41 218 223
3 36 223 83
3 242 233 86
3 36 86 233
3 35 233 242
3 34 242 86
3 256 240 88
3 34 88 240
3 38 240 256
3 37 256 88
3 226 208 216
3 59 216 208
3 30 208 226
3 41 226 216
3 178 204 81
3 29 81 204
3 32 204 178
3 31 178 81
3 196 175 75
3 31 75 175
3 33 175 196
3 28 196 75
3 232 244 192
3 51 192 244
3 35 244 232
3 27 232 192
3 230 194 78
3 28 78 194
3 27 194 230
3 26 230 78
3 206 228 80
3 26 80 228
3 30 228 206
3 29 206 80
3 185 197 168
3 54 168 197
3 33 197 185
3 25 185 168
3 132 173 156
3 56 156 173
3 24 173 132
3 43 132 156
3 137 149 120
3 64 120 149
3 46 149 137
3 22 137 120
3 172 134 73
3 21 73 134
3 24 134 172
3 23 172 73
3 184 170 67
3 23 67 170
3 25 170 184
3 20 184 67
3 180 125 202
3 65 202 125
3 19 125 180
3 32 180 202
3 124 182 70
3 20 70 182
3 19 182 124
3 18 124 70
3 136 122 72
3 18 72 122
3 22 122 136
3 21 136 72
3 0 66 68
3 20 67 66
3 23 68 67
3 66 67 68
3 0 69 66
3 18 70 69
3 20 66 70
3 69 70 66
3 0 71 69
3 21 72 71
3 18 69 72
3 71 72 69
3 0 68 71
3 23 73 68
3 21 71 73
3 68 73 71
3 1 74 76
3 28 75 74
3 31 76 75
3 74 75 76
3 1 77 74
3 26 78 77
3 28 74 78
3 77 78 74
3 1 79 77
3 29 80 79
3 26 77 80
3 79 80 77
3 1 76 79
3 31 81 76
3 29 79 81
3 76 81 79
3 2 82 84
3 36 83 82
3 39 84 83
3 82 83 84
3 2 85 82
3 34 86 85
3 36 82 86
3 85 86 82
3 2 87 85
3 37 88 87
3 34 85 88
3 87 88 85
3 2 84 87
3 39 89 84
3 37 87 89
3 84 89 87
3 3 90 92
3 44 91 90
3 47 92 91
3 90 91 92
3 3 93 90
3 42 94 93
3 44 90 94
3 93 94 90
3 3 95 93
3 45 96 95
3 42 93 96
3 95 96 93
3 3 92 95
3 47 97 92
3 45 95 97
3 92 97 95
3 4 98 100
3 52 99 98
3 55 100 99
3 98 99 100
3 4 101 98
3 50 102 101
3 52 98 102
3 101 102 98
3 4 103 101
3 53 104 103
3 50 101 104
3 103 104 101
3 4 100 103
3 55 105 100
3 53 103 105
3 100 105 103
3 5 106 108
3 60 107 106
3 63 108 107
3 106 107 108
3 5 109 106
3 58 110 109
3 60 106 110
3 109 110 106
3 5 111 109
3 61 112 111
3 58 109 112
3 111 112 109
3 5 108 111
3 63 113 108
3 61 111 113
3 108 113 111
3 6 114 116
3 63 115 114
3 65 116 115
3 114 115 116
3 6 117 114
3 64 118 117
3 63 114 118
3 117 118 114
3 6 119 117
3 22 120 119
3 64 117 120
3 119 120 117
3 6 121 119
3 18 122 121
3 22 119 122
3 121 122 119
3 6 123 121
3 19 124 123
3 18 121 124
3 123 124 121
3 6 116 123
3 65 125 116
3 19 123 125
3 116 125 123
3 7 126 128
3 42 127 126
3 46 128 127
3 126 127 128
3 7 129 126
3 43 130 129
3 42 126 130
3 129 130 126
3 7 131 129
3 24 132 131
3 43 129 132
3 131 132 129
3 7 133 131
3 21 134 133
3 24 131 134
3 133 134 131
3 7 135 133
3 22 136 135
3 21 133 136
3 135 136 133
3 7 128 135
3 46 137 128
3 22 135 137
3 128 137 135
3 8 138 140
3 61 139 138
3 64 140 139
3 138 139 140
3 8 141 138
3 62 142 141
3 61 138 142
3 141 142 138
3 8 143 141
3 48 144 143
3 62 141 144
3 143 144 141
3 8 145 143
3 45 146 145
3 48 143 146
3 145 146 143
3 8 147 145
3 46 148 147
3 45 145 148
3 147 148 145
3 8 140 147
3 64 149 140
3 46 147 149
3 140 149 147
3 9 150 152
3 55 151 150
3 57 152 151
3 150 151 152
3 9 153 150
3 56 154 153
3 55 150 154
3 153 154 150
3 9 155 153
3 43 156 155
3 56 153 156
3 155 156 153
3 9 157 155
3 44 158 157
3 43 155 158
3 157 158 155
3 9 159 157
3 49 160 159
3 44 157 160
3 159 160 157
3 9 152 159
3 57 161 152
3 49 159 161
3 152 161 159
3 10 162 164
3 53 163 162
3 56 164 163
3 162 163 164
3 10 165 162
3 54 166 165
3 53 162 166
3 165 166 162
3 10 167 165
3 25 168 167
3 54 165 168
3 167 168 165
3 10 169 167
3 23 170 169
3 25 167 170
3 169 170 167
3 10 171 169
3 24 172 171
3 23 169 172
3 171 172 169
3 10 164 171
3 56 173 164
3 24 171 173
3 164 173 171
3 11 174 176
3 31 175 174
3 33 176 175
3 174 175 176
3 11 177 174
3 32 178 177
3 31 174 178
3 177 178 174
3 11 179 177
3 19 180 179
3 32 177 180
3 179 180 177
3 11 181 179
3 20 182 181
3 19 179 182
3 181 182 179
3 11 183 181
3 25 184 183
3 20 181 184
3 183 184 181
3 11 176 183
3 33 185 176
3 25 183 185
3 176 185 183
3 12 186 188
3 50 187 186
3 54 188 187
3 186 187 188
3 12 189 186
3 51 190 189
3 50 186 190
3 189 190 186
3 12 191 189
3 27 192 191
3 51 189 192
3 191 192 189
3 12 193 191
3 28 194 193
3 27 191 194
3 193 194 191
3 12 195 193
3 33 196 195
3 28 193 196
3 195 196 193
3 12 188 195
3 54 197 188
3 33 195 197
3 188 197 195
3 13 198 200
3 65 199 198
3 60 200 199
3 198 199 200
3 13 201 198
3 32 202 201
3 65 198 202
3 201 202 198
3 13 203 201
3 29 204 203
3 32 201 204
3 203 204 201
3 13 205 203
3 30 206 205
3 29 203 206
3 205 206 203
3 13 207 205
3 59 208 207
3 30 205 208
3 207 208 205
3 13 200 207
3 60 209 200
3 59 207 209
3 200 209 207
3 14 210 212
3 58 211 210
3 62 212 211
3 210 211 212
3 14 213 210
3 59 214 213
3 58 210 214
3 213 214 210
3 14 215 213
3 41 216 215
3 59 213 216
3 215 216 213
3 14 217 215
3 39 218 217
3 41 215 218
3 217 218 215
3 14 219 217
3 40 220 219
3 39 217 220
3 219 220 217
3 14 212 219
3 62 221 212
3 40 219 221
3 212 221 219
3 15 222 224
3 41 223 222
3 36 224 223
3 222 223 224
3 15 225 222
3 30 226 225
3 41 222 226
3 225 226 222
3 15 227 225
3 26 228 227
3 30 225 228
3 227 228 225
3 15 229 227
3 27 230 229
3 26 227 230
3 229 230 227
3 15 231 229
3 35 232 231
3 27 229 232
3 231 232 229
3 15 224 231
3 36 233 224
3 35 231 233
3 224 233 231
3 16 234 236
3 57 235 234
3 52 236 235
3 234 235 236
3 16 237 234
3 38 238 237
3 57 234 238
3 237 238 234
3 16 239 237
3 34 240 239
3 38 237 240
3 239 240 237
3 16 241 239
3 35 242 241
3 34 239 242
3 241 242 239
3 16 243 241
3 51 244 243
3 35 241 244
3 243 244 241
3 16 236 243
3 52 245 236
3 51 243 245
3 236 245 243
3 17 246 248
3 47 247 246
3 49 248 247
3 246 247 248
3 17 249 246
3 48 250 249
3 47 246 250
3 249 250 246
3 17 251 249
3 40 252 251
3 48 249 252
3 251 252 249
3 17 253 251
3 37 254 253
3 40 251 254
3 253 254 251
3 17 255 253
3 38 256 255
3 37 253 256
3 255 256 253
3 17 248 255
3 49 257 248
3 38 255 257
3 248 257 255
