ply
format ascii 1.0
element vertex 258
property float x
property float y
property float z
element face 512
property list uchar int vertex_indices
end_header
0.437931 0 0
0 -0.437931 0
-0.437931 0 0
0 0.437931 0
0 0 0.437931
0 0 -0.437931
0.298096 0 0.298096
0.298096 -0.298096 0
0 -0.298096 0.298096
-0.298096 -0.298096 0
-0.298096 0 0.298096
-0.298096 0.298096 0
0 0.298096 0.298096
0.298096 0.298096 0
0 -0.298096 -0.298096
0.298096 0 -0.298096
-0.298096 0 -0.298096
0 0.298096 -0.298096
0.178894 -0.332153 0.178894
0.178894 -0.178894 0.332153
0.332153 -0.178894 0.178894
-0.332153 -0.178894 0.178894
-0.178894 -0.178894 0.332153
-0.178894 -0.332153 0.178894
-0.178894 0.332153 0.178894
-0.178894 0.178894 0.332153
-0.332153 0.178894 0.178894
0.178894 0.332153 0.178894
0.332153 0.178894 0.178894
0.178894 0.178894 0.332153
0.332153 -0.178894 -0.178894
0.178894 -0.178894 -0.332153
0.178894 -0.332153 -0.178894
-0.178894 -0.178894 -0.332153
-0.332153 -0.178894 -0.178894
-0.178894 -0.332153 -0.178894
-0.178894 0.178894 -0.332153
-0.178894 0.332153 -0.178894
-0.332153 0.178894 -0.178894
0.178894 0.332153 -0.178894
0.178894 0.178894 -0.332153
0.332153 0.178894 -0.178894
0.13092 -0.411575 0
0 -0.411575 0.13092
0 -0.13092 0.411575
0.13092 0 0.411575
0.411575 0 0.13092
0.411575 -0.13092 0
-0.411575 -0.13092 0
-0.411575 0 0.13092
-0.13092 0 0.411575
-0.13092 -0.411575 0
-0.13092 0.411575 0
0 0.411575 0.13092
0 0.13092 0.411575
-0.411575 0.13092 0
0.13092 0.411575 0
0.411575 0.13092 0
0.411575 0 -0.13092
0.13092 0 -0.411575
0 -0.13092 -0.411575
0 -0.411575 -0.13092
-0.13092 0 -0.411575
-0.411575 0 -0.13092
0 0.13092 -0.411575
0 0.411575 -0.13092
0.262573 -0.183838 0.262573
0.262573 -0.262573 0.183838
0.183838 -0.262573 0.262573
-0.183838 -0.262573 0.262573
-0.262573 -0.262573 0.183838
-0.262573 -0.183838 0.262573
-0.262573 0.183838 0.262573
-0.262573 0.262573 0.183838
-0.183838 0.262573 0.262573
0.262573 0.183838 0.262573
0.183838 0.262573 0.262573
0.262573 0.262573 0.183838
0.183838 -0.262573 -0.262573
0.262573 -0.262573 -0.183838
0.262573 -0.183838 -0.262573
-0.262573 -0.262573 -0.183838
-0.183838 -0.262573 -0.262573
-0.262573 -0.183838 -0.262573
-0.262573 0.262573 -0.183838
-0.262573 0.183838 -0.262573
-0.183838 0.262573 -0.262573
0.262573 0.183838 -0.262573
0.262573 0.262573 -0.183838
0.183838 0.262573 -0.262573
0.0761719 -0.419952 0.0761719
0.0878906 -0.38269 0.162232
0.162232 -0.38269 0.0878906
0.0761719 -0.0761719 0.419952
0.162232 -0.0878906 0.38269
0.0878906 -0.162232 0.38269
0.419952 -0.0761719 0.0761719
0.38269 -0.162232 0.0878906
0.38269 -0.0878906 0.162232
-0.419952 -0.0761719 0.0761719
-0.38269 -0.0878906 0.162232
-0.38269 -0.162232 0.0878906
-0.162232 -0.0878906 0.38269
-0.0761719 -0.0761719 0.419952
-0.0878906 -0.162232 0.38269
-0.0761719 -0.419952 0.0761719
-0.162232 -0.38269 0.0878906
-0.0878906 -0.38269 0.162232
-0.0761719 0.419952 0.0761719
-0.0878906 0.38269 0.162232
-0.162232 0.38269 0.0878906
-0.0878906 0.162232 0.38269
-0.0761719 0.0761719 0.419952
-0.162232 0.0878906 0.38269
-0.419952 0.0761719 0.0761719
-0.38269 0.162232 0.0878906
-0.38269 0.0878906 0.162232
0.0761719 0.419952 0.0761719
0.162232 0.38269 0.0878906
0.0878906 0.38269 0.162232
0.38269 0.162232 0.0878906
0.419952 0.0761719 0.0761719
0.38269 0.0878906 0.162232
0.0761719 0.0761719 0.419952
0.0878906 0.162232 0.38269
0.162232 0.0878906 0.38269
0.419952 -0.0761719 -0.0761719
0.38269 -0.0878906 -0.162232
0.38269 -0.162232 -0.0878906
0.0761719 -0.0761719 -0.419952
0.0878906 -0.162232 -0.38269
0.162232 -0.0878906 -0.38269
0.0878906 -0.38269 -0.162232
0.0761719 -0.419952 -0.0761719
0.162232 -0.38269 -0.0878906
-0.0761719 -0.0761719 -0.419952
-0.162232 -0.0878906 -0.38269
-0.0878906 -0.162232 -0.38269
-0.38269 -0.0878906 -0.162232
-0.419952 -0.0761719 -0.0761719
-0.38269 -0.162232 -0.0878906
-0.0761719 -0.419952 -0.0761719
-0.0878906 -0.38269 -0.162232
-0.162232 -0.38269 -0.0878906
-0.0761719 0.0761719 -0.419952
-0.0878906 0.162232 -0.38269
-0.162232 0.0878906 -0.38269
-0.0878906 0.38269 -0.162232
-0.0761719 0.419952 -0.0761719
-0.162232 0.38269 -0.0878906
-0.419952 0.0761719 -0.0761719
-0.38269 0.0878906 -0.162232
-0.38269 0.162232 -0.0878906
0.0761719 0.419952 -0.0761719
0.0878906 0.38269 -0.162232
0.162232 0.38269 -0.0878906
0.0878906 0.162232 -0.38269
0.0761719 0.0761719 -0.419952
0.162232 0.0878906 -0.38269
0.38269 0.0878906 -0.162232
0.419952 0.0761719 -0.0761719
0.38269 0.162232 -0.0878906
0.248657 -0.09375 0.324097
0.324097 -0.09375 0.248657
0.324097 -0.248657 0.09375
0.248657 -0.324097 0.09375
0.09375 -0.324097 0.248657
0.09375 -0.248657 0.324097
-0.09375 -0.248657 0.324097
-0.09375 -0.324097 0.248657
-0.248657 -0.324097 0.09375
-0.324097 -0.248657 0.09375
-0.324097 -0.09375 0.248657
-0.248657 -0.09375 0.324097
-0.248657 0.09375 0.324097
-0.324097 0.09375 0.248657
-0.324097 0.248657 0.09375
-0.248657 0.324097 0.09375
-0.09375 0.324097 0.248657
-0.09375 0.248657 0.324097
0.324097 0.09375 0.248657
0.248657 0.09375 0.324097
0.09375 0.248657 0.324097
0.09375 0.324097 0.248657
0.248657 0.324097 0.09375
0.324097 0.248657 0.09375
0.09375 -0.248657 -0.324097
0.09375 -0.324097 -0.248657
0.248657 -0.324097 -0.09375
0.324097 -0.248657 -0.09375
0.324097 -0.09375 -0.248657
0.248657 -0.09375 -0.324097
-0.324097 -0.248657 -0.09375
-0.248657 -0.324097 -0.09375
-0.09375 -0.324097 -0.248657
-0.09375 -0.248657 -0.324097
-0.248657 -0.09375 -0.324097
-0.324097 -0.09375 -0.248657
-0.248657 0.324097 -0.09375
-0.324097 0.248657 -0.09375
-0.324097 0.09375 -0.248657
-0.248657 0.09375 -0.324097
-0.09375 0.248657 -0.324097
-0.09375 0.324097 -0.248657
0.248657 0.09375 -0.324097
0.324097 0.09375 -0.248657
0.324097 0.248657 -0.09375
0.248657 0.324097 -0.09375
0.09375 0.324097 -0.248657
0.09375 0.248657 -0.324097
0.0527344 -0.43515 0
0 -0.43515 0.0527344
0 -0.36438 0.217163
0.217163 -0.36438 0
0 -0.0527344 0.43515
0.0527344 0 0.43515
0.217163 0 0.36438
0 -0.217163 0.36438
0.43515 0 0.0527344
0.43515 -0.0527344 0
0.36438 -0.217163 0
0.36438 0 0.217163
-0.43515 -0.0527344 0
-0.43515 0 0.0527344
-0.36438 0 0.217163
-0.36438 -0.217163 0
-0.217163 0 0.36438
-0.0527344 0 0.43515
-0.0527344 -0.43515 0
-0.217163 -0.36438 0
-0.0527344 0.43515 0
0 0.43515 0.0527344
0 0.36438 0.217163
-0.217163 0.36438 0
0 0.217163 0.36438
0 0.0527344 0.43515
-0.43515 0.0527344 0
-0.36438 0.217163 0
0.0527344 0.43515 0
0.217163 0.36438 0
0.36438 0.217163 0
0.43515 0.0527344 0
0.43515 0 -0.0527344
0.36438 0 -0.217163
0.0527344 0 -0.43515
0 -0.0527344 -0.43515
0 -0.217163 -0.36438
0.217163 0 -0.36438
0 -0.36438 -0.217163
0 -0.43515 -0.0527344
-0.0527344 0 -0.43515
-0.217163 0 -0.36438
-0.36438 0 -0.217163
-0.43515 0 -0.0527344
0 0.0527344 -0.43515
0 0.217163 -0.36438
0 0.36438 -0.217163
0 0.43515 -0.0527344
3 67 68 66
3 70 71 69
3 73 74 72
3 76 77 75
3 79 80 78
3 82 83 81
3 85 86 84
3 88 89 87
3 91 92 90
3 94 95 93
3 97 98 96
3 100 101 99
3 103 104 102
3 106 107 105
3 109 110 108
3 112 113 111
3 115 116 114
3 118 119 117
3 121 122 120
3 124 125 123
3 127 128 126
3 130 131 129
3 133 134 132
3 136 137 135
3 139 140 138
3 142 143 141
3 145 146 144
3 148 149 147
3 151 152 150
3 154 155 153
3 157 158 156
3 160 161 159
3 162 163 66
3 164 165 67
3 166 167 68
3 168 169 69
3 170 171 70
3 172 173 71
3 174 175 72
3 176 177 73
3 178 179 74
3 180 181 75
3 182 183 76
3 184 185 77
3 186 187 78
3 188 189 79
3 190 191 80
3 192 193 81
3 194 195 82
3 196 197 83
3 198 199 84
3 200 201 85
3 202 203 86
3 204 205 87
3 206 207 88
3 208 209 89
3 210 211 90
3 91 212 166
3 165 213 92
3 214 215 93
3 94 216 162
3 167 217 95
3 218 219 96
3 97 220 164
3 163 221 98
3 222 223 99
3 100 224 172
3 171 225 101
3 173 226 102
3 103 227 214
3 104 217 168
3 211 228 105
3 106 229 170
3 169 212 107
3 230 231 108
3 109 232 178
3 177 233 110
3 179 234 111
3 112 235 227
3 113 226 174
3 223 236 114
3 115 237 176
3 175 224 116
3 231 238 117
3 118 239 184
3 183 232 119
3 185 240 120
3 121 241 218
3 122 221 180
3 215 235 123
3 124 234 182
3 181 216 125
3 219 242 126
3 127 243 190
3 189 220 128
3 244 245 129
3 130 246 186
3 191 247 131
3 187 248 132
3 133 249 210
3 134 213 188
3 245 250 135
3 136 251 196
3 195 246 137
3 197 252 138
3 139 253 222
3 140 225 192
3 228 249 141
3 142 248 194
3 193 229 143
3 250 254 144
3 145 255 202
3 201 251 146
3 203 256 147
3 148 257 230
3 149 233 198
3 236 253 150
3 151 252 200
3 199 237 152
3 238 257 153
3 154 256 208
3 207 239 155
3 209 255 156
3 157 254 244
3 158 247 204
3 205 243 159
3 160 242 241
3 161 240 206
3 68 67 18
3 66 68 19
3 67 66 20
3 71 70 21
3 69 71 22
3 70 69 23
3 74 73 24
3 72 74 25
3 73 72 26
3 77 76 27
3 75 77 28
3 76 75 29
3 80 79 30
3 78 80 31
3 79 78 32
3 83 82 33
3 81 83 34
3 82 81 35
3 86 85 36
3 84 86 37
3 85 84 38
3 89 88 39
3 87 89 40
3 88 87 41
3 92 91 18
3 90 92 42
3 91 90 43
3 95 94 19
3 93 95 44
3 94 93 45
3 98 97 20
3 96 98 46
3 97 96 47
3 101 100 21
3 99 101 48
3 100 99 49
3 104 103 44
3 102 104 22
3 103 102 50
3 107 106 23
3 105 107 43
3 106 105 51
3 110 109 24
3 108 110 52
3 109 108 53
3 113 112 50
3 111 113 25
3 112 111 54
3 116 115 26
3 114 116 49
3 115 114 55
3 119 118 27
3 117 119 53
3 118 117 56
3 122 121 46
3 120 122 28
3 121 120 57
3 125 124 29
3 123 125 45
3 124 123 54
3 128 127 30
3 126 128 47
3 127 126 58
3 131 130 31
3 129 131 59
3 130 129 60
3 134 133 42
3 132 134 32
3 133 132 61
3 137 136 33
3 135 137 60
3 136 135 62
3 140 139 48
3 138 140 34
3 139 138 63
3 143 142 35
3 141 143 51
3 142 141 61
3 146 145 36
3 144 146 62
3 145 144 64
3 149 148 52
3 147 149 37
3 148 147 65
3 152 151 38
3 150 152 55
3 151 150 63
3 155 154 39
3 153 155 56
3 154 153 65
3 158 157 59
3 156 158 40
3 157 156 64
3 161 160 57
3 159 161 41
3 160 159 58
3 163 162 6
3 66 163 20
3 162 66 19
3 165 164 7
3 67 165 18
3 164 67 20
3 167 166 8
3 68 167 19
3 166 68 18
3 169 168 8
3 69 169 23
3 168 69 22
3 171 170 9
3 70 171 21
3 170 70 23
3 173 172 10
3 71 173 22
3 172 71 21
3 175 174 10
3 72 175 26
3 174 72 25
3 177 176 11
3 73 177 24
3 176 73 26
3 179 178 12
3 74 179 25
3 178 74 24
3 181 180 6
3 75 181 29
3 180 75 28
3 183 182 12
3 76 183 27
3 182 76 29
3 185 184 13
3 77 185 28
3 184 77 27
3 187 186 14
3 78 187 32
3 186 78 31
3 189 188 7
3 79 189 30
3 188 79 32
3 191 190 15
3 80 191 31
3 190 80 30
3 193 192 9
3 81 193 35
3 192 81 34
3 195 194 14
3 82 195 33
3 194 82 35
3 197 196 16
3 83 197 34
3 196 83 33
3 199 198 11
3 84 199 38
3 198 84 37
3 201 200 16
3 85 201 36
3 200 85 38
3 203 202 17
3 86 203 37
3 202 86 36
3 205 204 15
3 87 205 41
3 204 87 40
3 207 206 13
3 88 207 39
3 206 88 41
3 209 208 17
3 89 209 40
3 208 89 39
3 211 210 1
3 90 211 43
3 210 90 42
3 212 91 43
3 166 212 8
3 91 166 18
3 213 165 7
3 92 213 42
3 165 92 18
3 215 214 4
3 93 215 45
3 214 93 44
3 216 94 45
3 162 216 6
3 94 162 19
3 217 167 8
3 95 217 44
3 167 95 19
3 219 218 0
3 96 219 47
3 218 96 46
3 220 97 47
3 164 220 7
3 97 164 20
3 221 163 6
3 98 221 46
3 163 98 20
3 223 222 2
3 99 223 49
3 222 99 48
3 224 100 49
3 172 224 10
3 100 172 21
3 225 171 9
3 101 225 48
3 171 101 21
3 226 173 10
3 102 226 50
3 173 102 22
3 227 103 50
3 214 227 4
3 103 214 44
3 217 104 44
3 168 217 8
3 104 168 22
3 228 211 1
3 105 228 51
3 211 105 43
3 229 106 51
3 170 229 9
3 106 170 23
3 212 169 8
3 107 212 43
3 169 107 23
3 231 230 3
3 108 231 53
3 230 108 52
3 232 109 53
3 178 232 12
3 109 178 24
3 233 177 11
3 110 233 52
3 177 110 24
3 234 179 12
3 111 234 54
3 179 111 25
3 235 112 54
3 227 235 4
3 112 227 50
3 226 113 50
3 174 226 10
3 113 174 25
3 236 223 2
3 114 236 55
3 223 114 49
3 237 115 55
3 176 237 11
3 115 176 26
3 224 175 10
3 116 224 49
3 175 116 26
3 238 231 3
3 117 238 56
3 231 117 53
3 239 118 56
3 184 239 13
3 118 184 27
3 232 183 12
3 119 232 53
3 183 119 27
3 240 185 13
3 120 240 57
3 185 120 28
3 241 121 57
3 218 241 0
3 121 218 46
3 221 122 46
3 180 221 6
3 122 180 28
3 235 215 4
3 123 235 54
3 215 123 45
3 234 124 54
3 182 234 12
3 124 182 29
3 216 181 6
3 125 216 45
3 181 125 29
3 242 219 0
3 126 242 58
3 219 126 47
3 243 127 58
3 190 243 15
3 127 190 30
3 220 189 7
3 128 220 47
3 189 128 30
3 245 244 5
3 129 245 60
3 244 129 59
3 246 130 60
3 186 246 14
3 130 186 31
3 247 191 15
3 131 247 59
3 191 131 31
3 248 187 14
3 132 248 61
3 187 132 32
3 249 133 61
3 210 249 1
3 133 210 42
3 213 134 42
3 188 213 7
3 134 188 32
3 250 245 5
3 135 250 62
3 245 135 60
3 251 136 62
3 196 251 16
3 136 196 33
3 246 195 14
3 137 246 60
3 195 137 33
3 252 197 16
3 138 252 63
3 197 138 34
3 253 139 63
3 222 253 2
3 139 222 48
3 225 140 48
3 192 225 9
3 140 192 34
3 249 228 1
3 141 249 61
3 228 141 51
3 248 142 61
3 194 248 14
3 142 194 35
3 229 193 9
3 143 229 51
3 193 143 35
3 254 250 5
3 144 254 64
3 250 144 62
3 255 145 64
3 202 255 17
3 145 202 36
3 251 201 16
3 146 251 62
3 201 146 36
3 256 203 17
3 147 256 65
3 203 147 37
3 257 148 65
3 230 257 3
3 148 230 52
3 233 149 52
3 198 233 11
3 149 198 37
3 253 236 2
3 150 253 63
3 236 150 55
3 252 151 63
3 200 252 16
3 151 200 38
3 237 199 11
3 152 237 55
3 199 152 38
3 257 238 3
3 153 257 65
3 238 153 56
3 256 154 65
3 208 256 17
3 154 208 39
3 239 207 13
3 155 239 56
3 207 155 39
3 255 209 17
3 156 255 64
3 209 156 40
3 254 157 64
3 244 254 5
3 157 244 59
3 247 158 59
3 204 247 15
3 158 204 40
3 243 205 15
3 159 243 58
3 205 159 41
3 242 160 58
3 241 242 0
3 160 241 57
3 240 161 57
3 206 240 13
3 161 206 41
