ply
format ascii 1.0
element vertex 66
property float x
property float y
property float z
element face 128
property list uchar int vertex_indices
end_header
0.680237 0 0
0 -0.680237 0
-0.680237 0 0
0 0.680237 0
0 0 0.680237
0 0 -0.680237
0.406494 0 -0.406494
0.406494 0.406494 0
0 0.406494 -0.406494
0 0.406494 0.406494
0.406494 0 0.406494
0.406494 -0.406494 0
0 -0.406494 0.406494
0 -0.406494 -0.406494
-0.406494 0 -0.406494
-0.406494 -0.406494 0
-0.406494 0 0.406494
-0.406494 0.406494 0
0.577637 0 -0.191406
0.430176 -0.21875 -0.21875
0.577637 -0.191406 0
0.577637 0.191406 0
0.430176 0.21875 -0.21875
0.577637 0 0.191406
0.430176 0.21875 0.21875
0.430176 -0.21875 0.21875
-0.191406 -0.577637 0
-0.21875 -0.430176 0.21875
0 -0.577637 0.191406
0 -0.577637 -0.191406
-0.21875 -0.430176 -0.21875
0.191406 -0.577637 0
0.21875 -0.430176 -0.21875
0.21875 -0.430176 0.21875
-0.577637 0 0.191406
-0.430176 -0.21875 0.21875
-0.577637 -0.191406 0
-0.577637 0.191406 0
-0.430176 0.21875 0.21875
-0.577637 0 -0.191406
-0.430176 0.21875 -0.21875
-0.430176 -0.21875 -0.21875
0.191406 0.577637 0
0.21875 0.430176 0.21875
0 0.577637 0.191406
0 0.577637 -0.191406
0.21875 0.430176 -0.21875
-0.191406 0.577637 0
-0.21875 0.430176 -0.21875
-0.21875 0.430176 0.21875
0 -0.191406 0.577637
-0.21875 -0.21875 0.430176
-0.191406 0 0.577637
0.191406 0 0.577637
0.21875 -0.21875 0.430176
0 0.191406 0.577637
0.21875 0.21875 0.430176
-0.21875 0.21875 0.430176
-0.191406 0 -0.577637
-0.21875 -0.21875 -0.430176
0 -0.191406 -0.577637
0 0.191406 -0.577637
-0.21875 0.21875 -0.430176
0.191406 0 -0.577637
0.21875 0.21875 -0.430176
0.21875 -0.21875 -0.430176
3 41 30 59
3 13 59 30
3 15 30 41
3 14 41 59
3 27 35 51
3 16 51 35
3 15 35 27
3 12 27 51
3 25 33 54
3 12 54 33
3 11 33 25
3 10 25 54
3 38 49 57
3 9 57 49
3 17 49 38
3 16 38 57
3 48 40 62
3 14 62 40
3 17 40 48
3 8 48 62
3 43 24 56
3 10 56 24
3 7 24 43
3 9 43 56
3 22 46 64
3 8 64 46
3 7 46 22
3 6 22 64
3 32 19 65
3 6 65 19
3 11 19 32
3 13 32 65
3 0 18 20
3 6 19 18
3 11 20 19
3 18 19 20
3 0 21 18
3 7 22 21
3 6 18 22
3 21 22 18
3 0 23 21
3 10 24 23
3 7 21 24
3 23 24 21
3 0 20 23
3 11 25 20
3 10 23 25
3 20 25 23
3 1 26 28
3 15 27 26
3 12 28 27
3 26 27 28
3 1 29 26
3 13 30 29
3 15 26 30
3 29 30 26
3 1 31 29
3 11 32 31
3 13 29 32
3 31 32 29
3 1 28 31
3 12 33 28
3 11 31 33
3 28 33 31
3 2 34 36
3 16 35 34
3 15 36 35
3 34 35 36
3 2 37 34
3 17 38 37
3 16 34 38
3 37 38 34
3 2 39 37
3 14 40 39
3 17 37 40
3 39 40 37
3 2 36 39
3 15 41 36
3 14 39 41
3 36 41 39
3 3 42 44
3 7 43 42
3 9 44 43
3 42 43 44
3 3 45 42
3 8 46 45
3 7 42 46
3 45 46 42
3 3 47 45
3 17 48 47
3 8 45 48
3 47 48 45
3 3 44 47
3 9 49 44
3 17 47 49
3 44 49 47
3 4 50 52
3 12 51 50
3 16 52 51
3 50 51 52
3 4 53 50
3 10 54 53
3 12 50 54
3 53 54 50
3 4 55 53
3 9 56 55
3 10 53 56
3 55 56 53
3 4 52 55
3 16 57 52
3 9 55 57
3 52 57 55
3 5 58 60
3 14 59 58
3 13 60 59
3 58 59 60
3 5 61 58
3 8 62 61
3 14 58 62
3 61 62 58
3 5 63 61
3 6 64 63
3 8 61 64
3 63 64 61
3 5 60 63
3 13 65 60
3 6 63 65
3 60 65 63
