ply
format ascii 1.0
element vertex 74
property float x
property float y
property float z
element face 72
property list uchar int vertex_indices
end_header
-0.255401 -0.185957 -0.255401
0.233539 0.233539 -0.233539
0.233539 -0.233539 0.233539
-0.255401 0.185957 0.255401
0.512346 1.86265e-09 -3.49246e-10
5.96046e-10 0.0444445 0.523457
-0.0308642 0.536351 0.0308642
5.96046e-10 -0.0444445 -0.523457
-0.0308642 -0.536351 -0.0308642
-0.536351 -8.27842e-10 0
0.301234 0.266666 0.266666
0.301234 -0.266666 -0.266666
-0.266666 -0.266666 0.301234
-0.266666 0.266666 -0.301234
0.160494 0.438272 0.172839
0.160494 0.172839 0.438272
0.00617283 0.327161 0.327161
-0.135802 0.135802 0.41358
-0.16358 0.385803 0.16358
0.160494 -0.438272 -0.172839
0.160494 -0.172839 -0.438272
0.00617283 -0.327161 -0.327161
-0.135802 -0.135802 -0.41358
-0.16358 -0.385803 -0.16358
-0.438272 -0.172839 0.160494
-0.172839 -0.438272 0.160494
-0.327161 -0.327161 0.00617283
-0.41358 -0.135802 -0.135802
-0.438272 0.172839 -0.160494
-0.172839 0.438272 -0.160494
-0.327161 0.327161 -0.00617283
-0.41358 0.135802 0.135802
0.441358 0.108025 -0.108025
0.459876 0.138889 0.138889
0.302469 0.302469 0.0308642
0.108025 0.441358 -0.108025
0.108025 -0.108025 0.441358
0.302469 0.0308642 0.302469
0.441358 -0.108025 0.108025
0.459876 -0.138889 -0.138889
0.302469 -0.302469 -0.0308642
0.108025 -0.441358 0.108025
0.108025 0.108025 -0.441358
0.302469 -0.0308642 -0.302469
-0.138889 -0.138889 0.459876
-0.302469 -0.0308642 0.302469
-0.0308642 -0.302469 0.302469
-0.138889 0.138889 -0.459876
-0.302469 0.0308642 -0.302469
-0.0308642 0.302469 -0.302469
0.111111 0.333333 0.333333
-0.0864197 0.308642 0.308642
0.111111 -0.333333 -0.333333
-0.0864197 -0.308642 -0.308642
-0.333333 -0.333333 0.111111
-0.308642 -0.308642 -0.0864197
-0.333333 0.333333 -0.111111
-0.308642 0.308642 0.0864197
0.419753 0.197531 0.0246913
0.197531 0.419753 0.0246913
0.197531 0.0246913 0.419753
0.419753 0.0246913 0.197531
0.419753 -0.197531 -0.0246913
0.197531 -0.419753 -0.0246913
0.197531 -0.0246913 -0.419753
0.419753 -0.0246913 -0.197531
-0.197531 -0.0246913 0.419753
-0.419753 -0.0246913 0.197531
-0.0246913 -0.419753 0.197531
-0.0246913 -0.197531 0.419753
-0.197531 0.0246913 -0.419753
-0.419753 0.0246913 -0.197531
-0.0246913 0.419753 -0.197531
-0.0246913 0.197531 -0.419753
4 16 50 15 5
4 18 51 17 3
4 21 52 20 7
4 23 53 22 0
4 26 54 25 8
4 27 55 23 0
4 30 56 29 6
4 31 57 18 3
4 34 58 33 10
4 35 59 14 6
4 37 60 15 10
4 38 61 33 4
4 40 62 39 11
4 41 63 19 8
4 43 64 20 11
4 43 65 32 1
4 45 66 44 12
4 45 67 31 3
4 46 68 25 12
4 46 69 36 2
4 48 70 47 13
4 48 71 27 0
4 49 72 29 13
4 49 73 42 1
4 6 14 50 16
4 10 15 50 14
4 6 16 51 18
4 5 17 51 16
4 8 19 52 21
4 11 20 52 19
4 8 21 53 23
4 7 22 53 21
4 9 24 54 26
4 12 25 54 24
4 9 26 55 27
4 8 23 55 26
4 9 28 56 30
4 13 29 56 28
4 9 30 57 31
4 6 18 57 30
4 1 32 58 34
4 4 33 58 32
4 1 34 59 35
4 10 14 59 34
4 2 36 60 37
4 5 15 60 36
4 2 37 61 38
4 10 33 61 37
4 2 38 62 40
4 4 39 62 38
4 2 40 63 41
4 11 19 63 40
4 1 42 64 43
4 7 20 64 42
4 11 39 65 43
4 4 32 65 39
4 3 17 66 45
4 5 44 66 17
4 12 24 67 45
4 9 31 67 24
4 2 41 68 46
4 8 25 68 41
4 12 44 69 46
4 5 36 69 44
4 0 22 70 48
4 7 47 70 22
4 13 28 71 48
4 9 27 71 28
4 1 35 72 49
4 6 29 72 35
4 13 47 73 49
4 7 42 73 47
