ply
format ascii 1.0
element vertex 14
property float x
property float y
property float z
element face 12
property list uchar int vertex_indices
end_header
-0.259259 -0.259259 -0.259259
0.259259 0.259259 -0.259259
0.259259 -0.259259 0.259259
-0.259259 0.259259 0.259259
0.666667 0 0
0 0 0.666667
0 0.666667 0
0 0 -0.666667
0 -0.666667 0
-0.666667 0 0
0.333333 0.333333 0.333333
0.333333 -0.333333 -0.333333
-0.333333 -0.333333 0.333333
-0.333333 0.333333 -0.333333
4 6 10 5 3
4 8 11 7 0
4 9 12 8 0
4 9 13 6 3
4 1 4 10 6
4 2 5 10 4
4 2 4 11 8
4 1 7 11 4
4 3 5 12 9
4 2 8 12 5
4 0 7 13 9
4 1 6 13 7
