ply
format ascii 1.0
element vertex 34
property float x
property float y
property float z
element face 64
property list uchar int vertex_indices
end_header
-0.414063 -0.414063 -0.414063
0.414063 0.414063 -0.414063
0.414063 -0.414063 0.414063
-0.414063 0.414063 0.414063
0 0 -0.546875
0 0.546875 0
-0.546875 0 0
0 -0.546875 0
0.546875 0 0
0 0 0.546875
-0.515625 -0.328125 -0.328125
-0.359375 -0.359375 0.015625
-0.328125 -0.515625 -0.328125
-0.328125 -0.328125 -0.515625
-0.359375 0.015625 -0.359375
0.015625 -0.359375 -0.359375
0.328125 0.328125 -0.515625
0.359375 -0.015625 -0.359375
0.515625 0.328125 -0.328125
0.328125 0.515625 -0.328125
-0.015625 0.359375 -0.359375
0.359375 0.359375 0.015625
0.328125 -0.515625 0.328125
-0.015625 -0.359375 0.359375
0.328125 -0.328125 0.515625
0.515625 -0.328125 0.328125
0.359375 -0.359375 -0.015625
0.359375 0.015625 0.359375
-0.328125 0.328125 0.515625
-0.359375 -0.015625 0.359375
-0.515625 0.328125 0.328125
-0.328125 0.515625 0.328125
0.015625 0.359375 0.359375
-0.359375 0.359375 -0.015625
3 23 11 29
3 6 29 11
3 7 11 23
3 9 23 29
3 27 32 21
3 5 21 32
3 9 32 27
3 8 27 21
3 20 33 14
3 6 14 33
3 5 33 20
3 4 20 14
3 15 26 17
3 8 17 26
3 7 26 15
3 4 15 17
3 0 10 12
3 6 11 10
3 7 12 11
3 10 11 12
3 0 13 10
3 4 14 13
3 6 10 14
3 13 14 10
3 0 12 13
3 7 15 12
3 4 13 15
3 12 15 13
3 1 16 18
3 4 17 16
3 8 18 17
3 16 17 18
3 1 19 16
3 5 20 19
3 4 16 20
3 19 20 16
3 1 18 19
3 8 21 18
3 5 19 21
3 18 21 19
3 2 22 24
3 7 23 22
3 9 24 23
3 22 23 24
3 2 25 22
3 8 26 25
3 7 22 26
3 25 26 22
3 2 24 25
3 9 27 24
3 8 25 27
3 24 27 25
3 3 28 30
3 9 29 28
3 6 30 29
3 28 29 30
3 3 31 28
3 5 32 31
3 9 28 32
3 31 32 28
3 3 30 31
3 6 33 30
3 5 31 33
3 30 33 31
