ply
format ascii 1.0
element vertex 34
property float x
property float y
property float z
element face 64
property list uchar int vertex_indices
end_header
-0.203125 -0.203125 -0.203125
0.203125 0.203125 -0.203125
0.203125 -0.203125 0.203125
-0.203125 0.203125 0.203125
0.34375 0 0
0 0 0.34375
0 0.34375 0
0 0 -0.34375
0 -0.34375 0
-0.34375 0 0
0.03125 0.21875 0.21875
0.21875 0.21875 0.03125
0.21875 0.03125 0.21875
0.03125 -0.21875 -0.21875
0.21875 -0.21875 -0.03125
0.21875 -0.03125 -0.21875
-0.21875 -0.21875 0.03125
-0.21875 -0.03125 0.21875
-0.03125 -0.21875 0.21875
-0.21875 0.21875 -0.03125
-0.21875 0.03125 -0.21875
-0.03125 0.21875 -0.21875
-0.15625 0.15625 0.28125
-0.15625 0.28125 0.15625
0.15625 0.28125 -0.15625
0.28125 0.15625 -0.15625
0.28125 -0.15625 0.15625
0.15625 -0.15625 0.28125
-0.15625 -0.15625 -0.28125
-0.15625 -0.28125 -0.15625
0.15625 -0.28125 0.15625
0.15625 0.15625 -0.28125
-0.28125 -0.15625 -0.15625
-0.28125 0.15625 0.15625
3 11 12 10
3 14 15 13
3 17 18 16
3 20 21 19
3 22 23 10
3 24 25 11
3 26 27 12
3 28 29 13
3 14 30 26
3 25 31 15
3 29 32 16
3 17 33 22
3 27 30 18
3 23 33 19
3 20 32 28
3 21 31 24
3 12 11 4
3 10 12 5
3 11 10 6
3 15 14 4
3 13 15 7
3 14 13 8
3 18 17 5
3 16 18 8
3 17 16 9
3 21 20 7
3 19 21 6
3 20 19 9
3 23 22 3
3 10 23 6
3 22 10 5
3 25 24 1
3 11 25 4
3 24 11 6
3 27 26 2
3 12 27 5
3 26 12 4
3 29 28 0
3 13 29 8
3 28 13 7
3 30 14 8
3 26 30 2
3 14 26 4
3 31 25 1
3 15 31 7
3 25 15 4
3 32 29 0
3 16 32 9
3 29 16 8
3 33 17 9
3 22 33 3
3 17 22 5
3 30 27 2
3 18 30 8
3 27 18 5
3 33 23 3
3 19 33 9
3 23 19 6
3 32 20 9
3 28 32 0
3 20 28 7
3 31 21 7
3 24 31 1
3 21 24 6
