ply
format ascii 1.0
element vertex 514
property float x
property float y
property float z
element face 1024
property list uchar int vertex_indices
end_header
-0.481525 -0.481525 -0.481525
0.481525 0.481525 -0.481525
0.481525 -0.481525 0.481525
-0.481525 0.481525 0.481525
-4.65661e-10 -1.16415e-10 -0.59607
-4.65661e-10 0.59607 1.16415e-10
-0.59607 0 -1.16415e-10
-4.65661e-10 -0.59607 -1.16415e-10
0.59607 0 0
-4.65661e-10 1.16415e-10 0.59607
-0.555741 -0.31511 -0.31511
-0.35611 -0.35611 0.00982663
-0.31511 -0.555741 -0.31511
-0.31511 -0.31511 -0.555741
-0.35611 0.00982663 -0.35611
0.00982663 -0.35611 -0.35611
0.31511 0.31511 -0.555741
0.35611 -0.00982663 -0.35611
0.555741 0.31511 -0.31511
0.31511 0.555741 -0.31511
-0.00982663 0.35611 -0.35611
0.35611 0.35611 0.00982663
0.31511 -0.555741 0.31511
-0.00982663 -0.35611 0.35611
0.31511 -0.31511 0.555741
0.555741 -0.31511 0.31511
0.35611 -0.35611 -0.00982663
0.35611 0.00982663 0.35611
-0.31511 0.31511 0.555741
-0.35611 -0.00982663 0.35611
-0.555741 0.31511 0.31511
-0.31511 0.555741 0.31511
0.00982663 0.35611 0.35611
-0.35611 0.35611 -0.00982663
-0.424507 -0.519349 -0.424507
-0.309853 -0.455949 -0.455949
-0.424507 -0.424507 -0.519349
-0.519349 -0.424507 -0.424507
-0.455949 -0.455949 -0.309853
-0.455949 -0.309853 -0.455949
0.519349 0.424507 -0.424507
0.455949 0.455949 -0.309853
0.424507 0.519349 -0.424507
0.424507 0.424507 -0.519349
0.455949 0.309853 -0.455949
0.309853 0.455949 -0.455949
0.424507 -0.424507 0.519349
0.455949 -0.309853 0.455949
0.519349 -0.424507 0.424507
0.424507 -0.519349 0.424507
0.309853 -0.455949 0.455949
0.455949 -0.455949 0.309853
-0.519349 0.424507 0.424507
-0.455949 0.455949 0.309853
-0.424507 0.519349 0.424507
-0.424507 0.424507 0.519349
-0.455949 0.309853 0.455949
-0.309853 0.455949 0.455949
0.162938 0.162938 -0.580288
0.156491 0.336262 -0.481747
-0.00697327 0.180108 -0.501274
0.180108 -0.00697327 -0.501274
0.336262 0.156491 -0.481747
0.00697326 -0.180108 -0.501274
0.186486 -0.186486 -0.360062
-0.162938 -0.162938 -0.580288
-0.156491 -0.336262 -0.481747
-0.180108 0.00697327 -0.501274
-0.336262 -0.156491 -0.481747
-0.186486 0.186486 -0.360062
-0.162938 0.580288 0.162938
-0.336262 0.481747 0.156491
-0.180108 0.501274 -0.00697327
0.00697326 0.501274 0.180108
-0.156491 0.481747 0.336262
0.180108 0.501274 0.00697327
0.186486 0.360062 0.186486
0.162938 0.580288 -0.162938
0.336262 0.481747 -0.156491
-0.00697327 0.501274 -0.180108
0.156491 0.481747 -0.336262
-0.186486 0.360062 -0.186486
-0.501274 0.180108 -0.00697327
-0.481747 0.336262 0.156491
-0.580288 0.162938 0.162938
-0.501274 0.00697327 -0.180108
-0.360062 0.186486 -0.186486
-0.580288 -0.162938 -0.162938
-0.481747 -0.156491 -0.336262
-0.501274 -0.180108 0.00697327
-0.481747 -0.336262 -0.156491
-0.501274 -0.00697327 0.180108
-0.360062 -0.186486 0.186486
-0.481747 0.156491 0.336262
0.162938 -0.580288 0.162938
0.336262 -0.481747 0.156491
0.180108 -0.501274 -0.00697327
-0.00697327 -0.501274 0.180108
0.156491 -0.481747 0.336262
-0.180108 -0.501274 0.00697327
-0.186486 -0.360062 0.186486
-0.162938 -0.580288 -0.162938
-0.336262 -0.481747 -0.156491
0.00697326 -0.501274 -0.180108
-0.156491 -0.481747 -0.336262
0.186486 -0.360062 -0.186486
0.580288 -0.162938 0.162938
0.481747 -0.156491 0.336262
0.501274 0.00697327 0.180108
0.501274 -0.180108 -0.00697327
0.481747 -0.336262 0.156491
0.501274 -0.00697327 -0.180108
0.360062 -0.186486 -0.186486
0.580288 0.162938 -0.162938
0.481747 0.156491 -0.336262
0.501274 0.180108 0.00697327
0.481747 0.336262 -0.156491
0.360062 0.186486 0.186486
-0.162938 0.162938 0.580288
-0.156491 0.336262 0.481747
0.00697326 0.180108 0.501274
-0.180108 -0.00697327 0.501274
-0.336262 0.156491 0.481747
-0.00697327 -0.180108 0.501274
-0.186486 -0.186486 0.360062
0.162938 -0.162938 0.580288
0.156491 -0.336262 0.481747
0.180108 0.00697327 0.501274
0.336262 -0.156491 0.481747
0.186486 0.186486 0.360062
-0.459999 -0.459999 -0.49955
-0.477349 -0.422051 -0.477349
-0.49955 -0.459999 -0.459999
-0.459999 -0.49955 -0.459999
-0.422051 -0.477349 -0.477349
-0.477349 -0.477349 -0.422051
0.459999 0.49955 -0.459999
0.422051 0.477349 -0.477349
0.459999 0.459999 -0.49955
0.49955 0.459999 -0.459999
0.477349 0.477349 -0.422051
0.477349 0.422051 -0.477349
0.49955 -0.459999 0.459999
0.477349 -0.477349 0.422051
0.459999 -0.49955 0.459999
0.459999 -0.459999 0.49955
0.477349 -0.422051 0.477349
0.422051 -0.477349 0.477349
-0.459999 0.49955 0.459999
-0.422051 0.477349 0.477349
-0.459999 0.459999 0.49955
-0.49955 0.459999 0.459999
-0.477349 0.477349 0.422051
-0.477349 0.422051 0.477349
-0.00393679 0.0898135 -0.556519
-0.0937198 0.0937198 -0.502564
-0.0898135 0.00393679 -0.556519
0.082062 0.082062 -0.589478
0.0781557 0.17154 -0.548645
0.0898135 -0.00393679 -0.556519
0.17154 0.0781557 -0.548645
0.00393679 -0.0898135 -0.556519
0.0937198 -0.0937198 -0.502564
-0.082062 -0.082062 -0.589478
-0.0781557 -0.17154 -0.548645
-0.17154 -0.0781557 -0.548645
-0.0898135 0.556519 -0.00393679
-0.0937198 0.502564 -0.0937198
-0.00393679 0.556519 -0.0898135
-0.082062 0.589478 0.082062
-0.17154 0.548645 0.0781557
0.00393679 0.556519 0.0898135
-0.0781557 0.548645 0.17154
0.0898135 0.556519 0.00393679
0.0937198 0.502564 0.0937198
0.082062 0.589478 -0.082062
0.17154 0.548645 -0.0781557
0.0781557 0.548645 -0.17154
-0.589478 0.082062 0.082062
-0.548645 0.0781557 0.17154
-0.556519 -0.00393679 0.0898135
-0.556519 0.0898135 -0.00393679
-0.548645 0.17154 0.0781557
-0.556519 0.00393679 -0.0898135
-0.502564 0.0937198 -0.0937198
-0.589478 -0.082062 -0.082062
-0.548645 -0.0781557 -0.17154
-0.556519 -0.0898135 0.00393679
-0.548645 -0.17154 -0.0781557
-0.502564 -0.0937198 0.0937198
0.0898135 -0.556519 -0.00393679
0.0937198 -0.502564 -0.0937198
0.00393679 -0.556519 -0.0898135
0.082062 -0.589478 0.082062
0.17154 -0.548645 0.0781557
-0.00393679 -0.556519 0.0898135
0.0781557 -0.548645 0.17154
-0.0898135 -0.556519 0.00393679
-0.0937198 -0.502564 0.0937198
-0.082062 -0.589478 -0.082062
-0.17154 -0.548645 -0.0781557
-0.0781557 -0.548645 -0.17154
0.556519 0.00393679 0.0898135
0.502564 0.0937198 0.0937198
0.556519 0.0898135 0.00393679
0.589478 -0.082062 0.082062
0.548645 -0.0781557 0.17154
0.556519 -0.0898135 -0.00393679
0.548645 -0.17154 0.0781557
0.556519 -0.00393679 -0.0898135
0.502564 -0.0937198 -0.0937198
0.589478 0.082062 -0.082062
0.548645 0.0781557 -0.17154
0.548645 0.17154 -0.0781557
0.00393679 0.0898135 0.556519
0.0937198 0.0937198 0.502564
0.0898135 0.00393679 0.556519
-0.082062 0.082062 0.589478
-0.0781557 0.17154 0.548645
-0.0898135 -0.00393679 0.556519
-0.17154 0.0781557 0.548645
-0.00393679 -0.0898135 0.556519
-0.0937198 -0.0937198 0.502564
0.082062 -0.082062 0.589478
0.0781557 -0.17154 0.548645
0.17154 -0.0781557 0.548645
-0.56849 -0.240563 -0.240563
-0.538323 -0.250283 -0.159096
-0.526238 -0.325356 -0.236733
-0.526238 -0.236733 -0.325356
-0.538323 -0.159096 -0.250283
-0.512734 -0.311455 -0.386895
-0.469277 -0.234765 -0.398796
-0.538048 -0.372628 -0.372628
-0.494881 -0.36892 -0.439599
-0.512734 -0.386895 -0.311455
-0.494881 -0.439599 -0.36892
-0.469277 -0.398796 -0.234765
-0.269211 -0.430924 0.008728
-0.259903 -0.492294 -0.0753788
-0.346756 -0.421738 -0.0739139
-0.272904 -0.358872 0.0979616
-0.183915 -0.433396 0.0964967
-0.358872 -0.272904 0.0979616
-0.27446 -0.27446 0.186859
-0.430924 -0.269211 0.008728
-0.433396 -0.183915 0.0964967
-0.421738 -0.346756 -0.0739139
-0.492294 -0.259903 -0.0753788
-0.411072 -0.411072 -0.156083
-0.240563 -0.56849 -0.240563
-0.159096 -0.538323 -0.250283
-0.236733 -0.526238 -0.325356
-0.325356 -0.526238 -0.236733
-0.250283 -0.538323 -0.159096
-0.386895 -0.512734 -0.311455
-0.398796 -0.469277 -0.234765
-0.372628 -0.538048 -0.372628
-0.439599 -0.494881 -0.36892
-0.311455 -0.512734 -0.386895
-0.36892 -0.494881 -0.439599
-0.234765 -0.469277 -0.398796
-0.240563 -0.240563 -0.56849
-0.250283 -0.159096 -0.538323
-0.325356 -0.236733 -0.526238
-0.236733 -0.325356 -0.526238
-0.159096 -0.250283 -0.538323
-0.311455 -0.386895 -0.512734
-0.234765 -0.398796 -0.469277
-0.372628 -0.372628 -0.538048
-0.36892 -0.439599 -0.494881
-0.386895 -0.311455 -0.512734
-0.439599 -0.36892 -0.494881
-0.398796 -0.234765 -0.469277
-0.430924 0.008728 -0.269211
-0.492294 -0.0753788 -0.259903
-0.421738 -0.0739139 -0.346756
-0.358872 0.0979616 -0.272904
-0.433396 0.0964967 -0.183915
-0.272904 0.0979616 -0.358872
-0.27446 0.186859 -0.27446
-0.269211 0.008728 -0.430924
-0.183915 0.0964967 -0.433396
-0.346756 -0.0739139 -0.421738
-0.259903 -0.0753788 -0.492294
-0.411072 -0.156083 -0.411072
0.008728 -0.430924 -0.269211
0.0964967 -0.433396 -0.183915
0.0979616 -0.358872 -0.272904
-0.0739139 -0.421738 -0.346756
-0.0753788 -0.492294 -0.259903
-0.0739139 -0.346756 -0.421738
-0.156083 -0.411072 -0.411072
0.008728 -0.269211 -0.430924
-0.0753788 -0.259903 -0.492294
0.0979616 -0.272904 -0.358872
0.0964967 -0.183915 -0.433396
0.186859 -0.27446 -0.27446
0.240563 0.240563 -0.56849
0.250283 0.159096 -0.538323
0.325356 0.236733 -0.526238
0.236733 0.325356 -0.526238
0.159096 0.250283 -0.538323
0.311455 0.386895 -0.512734
0.234765 0.398796 -0.469277
0.372628 0.372628 -0.538048
0.36892 0.439599 -0.494881
0.386895 0.311455 -0.512734
0.439599 0.36892 -0.494881
0.398796 0.234765 -0.469277
0.430924 -0.008728 -0.269211
0.492294 0.0753788 -0.259903
0.421738 0.0739139 -0.346756
0.358872 -0.0979616 -0.272904
0.433396 -0.0964967 -0.183915
0.272904 -0.0979616 -0.358872
0.27446 -0.186859 -0.27446
0.269211 -0.008728 -0.430924
0.183915 -0.0964967 -0.433396
0.346756 0.0739139 -0.421738
0.259903 0.0753788 -0.492294
0.411072 0.156083 -0.411072
0.56849 0.240563 -0.240563
0.538323 0.250283 -0.159096
0.526238 0.325356 -0.236733
0.526238 0.236733 -0.325356
0.538323 0.159096 -0.250283
0.512734 0.311455 -0.386895
0.469277 0.234765 -0.398796
0.538048 0.372628 -0.372628
0.494881 0.36892 -0.439599
0.512734 0.386895 -0.311455
0.494881 0.439599 -0.36892
0.469277 0.398796 -0.234765
0.240563 0.56849 -0.240563
0.159096 0.538323 -0.250283
0.236733 0.526238 -0.325356
0.325356 0.526238 -0.236733
0.250283 0.538323 -0.159096
0.386895 0.512734 -0.311455
0.398796 0.469277 -0.234765
0.372628 0.538048 -0.372628
0.439599 0.494881 -0.36892
0.311455 0.512734 -0.386895
0.36892 0.494881 -0.439599
0.234765 0.469277 -0.398796
-0.008728 0.430924 -0.269211
-0.0964967 0.433396 -0.183915
-0.0979616 0.358872 -0.272904
0.0739139 0.421738 -0.346756
0.0753788 0.492294 -0.259903
0.0739139 0.346756 -0.421738
0.156083 0.411072 -0.411072
-0.008728 0.269211 -0.430924
0.0753788 0.259903 -0.492294
-0.0979616 0.272904 -0.358872
-0.0964967 0.183915 -0.433396
-0.186859 0.27446 -0.27446
0.430924 0.269211 0.008728
0.433396 0.183915 0.0964967
0.358872 0.272904 0.0979616
0.421738 0.346756 -0.0739139
0.492294 0.259903 -0.0753788
0.346756 0.421738 -0.0739139
0.411072 0.411072 -0.156083
0.269211 0.430924 0.008728
0.259903 0.492294 -0.0753788
0.272904 0.358872 0.0979616
0.183915 0.433396 0.0964967
0.27446 0.27446 0.186859
0.240563 -0.56849 0.240563
0.159096 -0.538323 0.250283
0.236733 -0.526238 0.325356
0.325356 -0.526238 0.236733
0.250283 -0.538323 0.159096
0.386895 -0.512734 0.311455
0.398796 -0.469277 0.234765
0.372628 -0.538048 0.372628
0.439599 -0.494881 0.36892
0.311455 -0.512734 0.386895
0.36892 -0.494881 0.439599
0.234765 -0.469277 0.398796
-0.008728 -0.269211 0.430924
0.0753788 -0.259903 0.492294
0.0739139 -0.346756 0.421738
-0.0979616 -0.272904 0.358872
-0.0964967 -0.183915 0.433396
-0.0979616 -0.358872 0.272904
-0.186859 -0.27446 0.27446
-0.008728 -0.430924 0.269211
-0.0964967 -0.433396 0.183915
0.0739139 -0.421738 0.346756
0.0753788 -0.492294 0.259903
0.156083 -0.411072 0.411072
0.240563 -0.240563 0.56849
0.250283 -0.159096 0.538323
0.325356 -0.236733 0.526238
0.236733 -0.325356 0.526238
0.159096 -0.250283 0.538323
0.311455 -0.386895 0.512734
0.234765 -0.398796 0.469277
0.372628 -0.372628 0.538048
0.36892 -0.439599 0.494881
0.386895 -0.311455 0.512734
0.439599 -0.36892 0.494881
0.398796 -0.234765 0.469277
0.56849 -0.240563 0.240563
0.538323 -0.250283 0.159096
0.526238 -0.325356 0.236733
0.526238 -0.236733 0.325356
0.538323 -0.159096 0.250283
0.512734 -0.311455 0.386895
0.469277 -0.234765 0.398796
0.538048 -0.372628 0.372628
0.494881 -0.36892 0.439599
0.512734 -0.386895 0.311455
0.494881 -0.439599 0.36892
0.469277 -0.398796 0.234765
0.430924 -0.269211 -0.008728
0.433396 -0.183915 -0.0964967
0.358872 -0.272904 -0.0979616
0.421738 -0.346756 0.0739139
0.492294 -0.259903 0.0753788
0.346756 -0.421738 0.0739139
0.411072 -0.411072 0.156083
0.269211 -0.430924 -0.008728
0.259903 -0.492294 0.0753788
0.272904 -0.358872 -0.0979616
0.183915 -0.433396 -0.0964967
0.27446 -0.27446 -0.186859
0.269211 0.008728 0.430924
0.183915 0.0964967 0.433396
0.272904 0.0979616 0.358872
0.346756 -0.0739139 0.421738
0.259903 -0.0753788 0.492294
0.421738 -0.0739139 0.346756
0.411072 -0.156083 0.411072
0.430924 0.008728 0.269211
0.492294 -0.0753788 0.259903
0.358872 0.0979616 0.272904
0.433396 0.0964967 0.183915
0.27446 0.186859 0.27446
-0.240563 0.240563 0.56849
-0.250283 0.159096 0.538323
-0.325356 0.236733 0.526238
-0.236733 0.325356 0.526238
-0.159096 0.250283 0.538323
-0.311455 0.386895 0.512734
-0.234765 0.398796 0.469277
-0.372628 0.372628 0.538048
-0.36892 0.439599 0.494881
-0.386895 0.311455 0.512734
-0.439599 0.36892 0.494881
-0.398796 0.234765 0.469277
-0.269211 -0.008728 0.430924
-0.183915 -0.0964967 0.433396
-0.272904 -0.0979616 0.358872
-0.346756 0.0739139 0.421738
-0.259903 0.0753788 0.492294
-0.421738 0.0739139 0.346756
-0.411072 0.156083 0.411072
-0.430924 -0.008728 0.269211
-0.492294 0.0753788 0.259903
-0.358872 -0.0979616 0.272904
-0.433396 -0.0964967 0.183915
-0.27446 -0.186859 0.27446
-0.526238 0.236733 0.325356
-0.538323 0.159096 0.250283
-0.56849 0.240563 0.240563
-0.512734 0.311455 0.386895
-0.469277 0.234765 0.398796
-0.538048 0.372628 0.372628
-0.494881 0.36892 0.439599
-0.512734 0.386895 0.311455
-0.494881 0.439599 0.36892
-0.526238 0.325356 0.236733
-0.469277 0.398796 0.234765
-0.538323 0.250283 0.159096
-0.240563 0.56849 0.240563
-0.159096 0.538323 0.250283
-0.236733 0.526238 0.325356
-0.325356 0.526238 0.236733
-0.250283 0.538323 0.159096
-0.386895 0.512734 0.311455
-0.398796 0.469277 0.234765
-0.372628 0.538048 0.372628
-0.439599 0.494881 0.36892
-0.311455 0.512734 0.386895
-0.36892 0.494881 0.439599
-0.234765 0.469277 0.398796
0.0979616 0.272904 0.358872
0.0964967 0.183915 0.433396
0.008728 0.269211 0.430924
0.0979616 0.358872 0.272904
0.186859 0.27446 0.27446
0.008728 0.430924 0.269211
0.0964967 0.433396 0.183915
-0.0739139 0.421738 0.346756
-0.0753788 0.492294 0.259903
-0.0739139 0.346756 0.421738
-0.156083 0.411072 0.411072
-0.0753788 0.259903 0.492294
-0.430924 0.269211 -0.008728
-0.433396 0.183915 -0.0964967
-0.358872 0.272904 -0.0979616
-0.421738 0.346756 0.0739139
-0.492294 0.259903 0.0753788
-0.346756 0.421738 0.0739139
-0.411072 0.411072 0.156083
-0.269211 0.430924 -0.008728
-0.259903 0.492294 0.0753788
-0.272904 0.358872 -0.0979616
-0.183915 0.433396 -0.0964967
-0.27446 0.27446 -0.186859
3 434 395 225
3 125 225 395
3 128 395 434
3 127 434 225
3 398 383 224
3 123 224 383
3 126 383 398
3 125 398 224
3 386 455 222
3 121 222 455
3 124 455 386
3 123 386 222
3 491 431 215
3 127 215 431
3 129 431 491
3 120 491 215
3 446 501 218
3 120 218 501
3 119 501 446
3 118 446 218
3 458 443 220
3 118 220 443
3 122 443 458
3 121 458 220
3 362 323 213
3 113 213 323
3 116 323 362
3 115 362 213
3 326 311 212
3 111 212 311
3 114 311 326
3 113 326 212
3 314 419 210
3 109 210 419
3 112 419 314
3 111 314 210
3 440 359 203
3 115 203 359
3 117 359 440
3 108 440 203
3 410 438 206
3 108 206 438
3 107 438 410
3 106 410 206
3 422 407 208
3 106 208 407
3 110 407 422
3 109 422 208
3 290 251 201
3 101 201 251
3 104 251 290
3 103 290 201
3 254 239 200
3 99 200 239
3 102 239 254
3 101 254 200
3 242 390 198
3 97 198 390
3 100 390 242
3 99 242 198
3 428 287 191
3 103 191 287
3 105 287 428
3 96 428 191
3 374 426 194
3 96 194 426
3 95 426 374
3 94 374 194
3 392 371 196
3 94 196 371
3 98 371 392
3 97 392 196
3 244 465 388
3 124 388 465
3 92 465 244
3 100 244 388
3 464 246 189
3 89 189 246
3 92 246 464
3 91 464 189
3 248 227 188
3 87 188 227
3 90 227 248
3 89 248 188
3 230 275 186
3 85 186 275
3 88 275 230
3 87 230 186
3 467 462 179
3 91 179 462
3 93 462 467
3 84 467 179
3 506 477 182
3 84 182 477
3 83 477 506
3 82 506 182
3 278 503 184
3 82 184 503
3 86 503 278
3 85 278 184
3 350 335 177
3 77 177 335
3 80 335 350
3 79 350 177
3 494 369 441
3 117 441 369
3 76 369 494
3 129 494 441
3 338 366 176
3 75 176 366
3 78 366 338
3 77 338 176
3 368 496 174
3 73 174 496
3 76 496 368
3 75 368 174
3 512 347 167
3 79 167 347
3 81 347 512
3 72 512 167
3 482 510 170
3 72 170 510
3 71 510 482
3 70 482 170
3 498 479 172
3 70 172 479
3 74 479 498
3 73 498 172
3 513 280 357
3 69 357 280
3 86 280 513
3 81 513 357
3 284 263 165
3 65 165 263
3 68 263 284
3 67 284 165
3 429 316 297
3 64 297 316
3 112 316 429
3 105 429 297
3 266 294 164
3 63 164 294
3 66 294 266
3 65 266 164
3 296 318 162
3 61 162 318
3 64 318 296
3 63 296 162
3 356 282 155
3 67 155 282
3 69 282 356
3 60 356 155
3 302 354 158
3 60 158 354
3 59 354 302
3 58 302 158
3 320 299 160
3 58 160 299
3 62 299 320
3 61 320 160
3 500 448 489
3 57 489 448
3 119 448 500
3 74 500 489
3 460 470 453
3 56 453 470
3 93 470 460
3 122 460 453
3 488 450 149
3 55 149 450
3 57 450 488
3 54 488 149
3 508 484 476
3 53 476 484
3 71 484 508
3 83 508 476
3 474 486 152
3 54 152 486
3 53 486 474
3 52 474 152
3 452 472 153
3 52 153 472
3 56 472 452
3 55 452 153
3 424 376 417
3 51 417 376
3 95 376 424
3 110 424 417
3 393 400 381
3 50 381 400
3 126 400 393
3 98 393 381
3 416 378 143
3 49 143 378
3 51 378 416
3 48 416 143
3 436 412 405
3 47 405 412
3 107 412 436
3 128 436 405
3 404 414 146
3 48 146 414
3 47 414 404
3 46 404 146
3 380 402 147
3 46 147 402
3 50 402 380
3 49 380 147
3 352 304 345
3 45 345 304
3 59 304 352
3 80 352 345
3 321 328 309
3 44 309 328
3 114 328 321
3 62 321 309
3 344 306 137
3 43 137 306
3 45 306 344
3 42 344 137
3 364 340 333
3 41 333 340
3 78 340 364
3 116 364 333
3 332 342 140
3 42 140 342
3 41 342 332
3 40 332 140
3 308 330 141
3 40 141 330
3 44 330 308
3 43 308 141
3 285 232 273
3 39 273 232
3 88 232 285
3 68 285 273
3 249 256 237
3 38 237 256
3 102 256 249
3 90 249 237
3 272 234 131
3 37 131 234
3 39 234 272
3 36 272 131
3 292 268 261
3 35 261 268
3 66 268 292
3 104 292 261
3 260 270 134
3 36 134 270
3 35 270 260
3 34 260 134
3 236 258 135
3 34 135 258
3 38 258 236
3 37 236 135
3 0 130 132
3 36 131 130
3 37 132 131
3 130 131 132
3 0 133 130
3 34 134 133
3 36 130 134
3 133 134 130
3 0 132 133
3 37 135 132
3 34 133 135
3 132 135 133
3 1 136 138
3 42 137 136
3 43 138 137
3 136 137 138
3 1 139 136
3 40 140 139
3 42 136 140
3 139 140 136
3 1 138 139
3 43 141 138
3 40 139 141
3 138 141 139
3 2 142 144
3 48 143 142
3 49 144 143
3 142 143 144
3 2 145 142
3 46 146 145
3 48 142 146
3 145 146 142
3 2 144 145
3 49 147 144
3 46 145 147
3 144 147 145
3 3 148 150
3 54 149 148
3 55 150 149
3 148 149 150
3 3 151 148
3 52 152 151
3 54 148 152
3 151 152 148
3 3 150 151
3 55 153 150
3 52 151 153
3 150 153 151
3 4 154 156
3 60 155 154
3 67 156 155
3 154 155 156
3 4 157 154
3 58 158 157
3 60 154 158
3 157 158 154
3 4 159 157
3 61 160 159
3 58 157 160
3 159 160 157
3 4 161 159
3 63 162 161
3 61 159 162
3 161 162 159
3 4 163 161
3 65 164 163
3 63 161 164
3 163 164 161
3 4 156 163
3 67 165 156
3 65 163 165
3 156 165 163
3 5 166 168
3 72 167 166
3 79 168 167
3 166 167 168
3 5 169 166
3 70 170 169
3 72 166 170
3 169 170 166
3 5 171 169
3 73 172 171
3 70 169 172
3 171 172 169
3 5 173 171
3 75 174 173
3 73 171 174
3 173 174 171
3 5 175 173
3 77 176 175
3 75 173 176
3 175 176 173
3 5 168 175
3 79 177 168
3 77 175 177
3 168 177 175
3 6 178 180
3 84 179 178
3 91 180 179
3 178 179 180
3 6 181 178
3 82 182 181
3 84 178 182
3 181 182 178
3 6 183 181
3 85 184 183
3 82 181 184
3 183 184 181
3 6 185 183
3 87 186 185
3 85 183 186
3 185 186 183
3 6 187 185
3 89 188 187
3 87 185 188
3 187 188 185
3 6 180 187
3 91 189 180
3 89 187 189
3 180 189 187
3 7 190 192
3 96 191 190
3 103 192 191
3 190 191 192
3 7 193 190
3 94 194 193
3 96 190 194
3 193 194 190
3 7 195 193
3 97 196 195
3 94 193 196
3 195 196 193
3 7 197 195
3 99 198 197
3 97 195 198
3 197 198 195
3 7 199 197
3 101 200 199
3 99 197 200
3 199 200 197
3 7 192 199
3 103 201 192
3 101 199 201
3 192 201 199
3 8 202 204
3 108 203 202
3 115 204 203
3 202 203 204
3 8 205 202
3 106 206 205
3 108 202 206
3 205 206 202
3 8 207 205
3 109 208 207
3 106 205 208
3 207 208 205
3 8 209 207
3 111 210 209
3 109 207 210
3 209 210 207
3 8 211 209
3 113 212 211
3 111 209 212
3 211 212 209
3 8 204 211
3 115 213 204
3 113 211 213
3 204 213 211
3 9 214 216
3 120 215 214
3 127 216 215
3 214 215 216
3 9 217 214
3 118 218 217
3 120 214 218
3 217 218 214
3 9 219 217
3 121 220 219
3 118 217 220
3 219 220 217
3 9 221 219
3 123 222 221
3 121 219 222
3 221 222 219
3 9 223 221
3 125 224 223
3 123 221 224
3 223 224 221
3 9 216 223
3 127 225 216
3 125 223 225
3 216 225 223
3 10 226 228
3 87 227 226
3 90 228 227
3 226 227 228
3 10 229 226
3 88 230 229
3 87 226 230
3 229 230 226
3 10 231 229
3 39 232 231
3 88 229 232
3 231 232 229
3 10 233 231
3 37 234 233
3 39 231 234
3 233 234 231
3 10 235 233
3 38 236 235
3 37 233 236
3 235 236 233
3 10 228 235
3 90 237 228
3 38 235 237
3 228 237 235
3 11 238 240
3 99 239 238
3 102 240 239
3 238 239 240
3 11 241 238
3 100 242 241
3 99 238 242
3 241 242 238
3 11 243 241
3 92 244 243
3 100 241 244
3 243 244 241
3 11 245 243
3 89 246 245
3 92 243 246
3 245 246 243
3 11 247 245
3 90 248 247
3 89 245 248
3 247 248 245
3 11 240 247
3 102 249 240
3 90 247 249
3 240 249 247
3 12 250 252
3 101 251 250
3 104 252 251
3 250 251 252
3 12 253 250
3 102 254 253
3 101 250 254
3 253 254 250
3 12 255 253
3 38 256 255
3 102 253 256
3 255 256 253
3 12 257 255
3 34 258 257
3 38 255 258
3 257 258 255
3 12 259 257
3 35 260 259
3 34 257 260
3 259 260 257
3 12 252 259
3 104 261 252
3 35 259 261
3 252 261 259
3 13 262 264
3 65 263 262
3 68 264 263
3 262 263 264
3 13 265 262
3 66 266 265
3 65 262 266
3 265 266 262
3 13 267 265
3 35 268 267
3 66 265 268
3 267 268 265
3 13 269 267
3 36 270 269
3 35 267 270
3 269 270 267
3 13 271 269
3 39 272 271
3 36 269 272
3 271 272 269
3 13 264 271
3 68 273 264
3 39 271 273
3 264 273 271
3 14 274 276
3 85 275 274
3 88 276 275
3 274 275 276
3 14 277 274
3 86 278 277
3 85 274 278
3 277 278 274
3 14 279 277
3 69 280 279
3 86 277 280
3 279 280 277
3 14 281 279
3 67 282 281
3 69 279 282
3 281 282 279
3 14 283 281
3 68 284 283
3 67 281 284
3 283 284 281
3 14 276 283
3 88 285 276
3 68 283 285
3 276 285 283
3 15 286 288
3 103 287 286
3 105 288 287
3 286 287 288
3 15 289 286
3 104 290 289
3 103 286 290
3 289 290 286
3 15 291 289
3 66 292 291
3 104 289 292
3 291 292 289
3 15 293 291
3 63 294 293
3 66 291 294
3 293 294 291
3 15 295 293
3 64 296 295
3 63 293 296
3 295 296 293
3 15 288 295
3 105 297 288
3 64 295 297
3 288 297 295
3 16 298 300
3 58 299 298
3 62 300 299
3 298 299 300
3 16 301 298
3 59 302 301
3 58 298 302
3 301 302 298
3 16 303 301
3 45 304 303
3 59 301 304
3 303 304 301
3 16 305 303
3 43 306 305
3 45 303 306
3 305 306 303
3 16 307 305
3 44 308 307
3 43 305 308
3 307 308 305
3 16 300 307
3 62 309 300
3 44 307 309
3 300 309 307
3 17 310 312
3 111 311 310
3 114 312 311
3 310 311 312
3 17 313 310
3 112 314 313
3 111 310 314
3 313 314 310
3 17 315 313
3 64 316 315
3 112 313 316
3 315 316 313
3 17 317 315
3 61 318 317
3 64 315 318
3 317 318 315
3 17 319 317
3 62 320 319
3 61 317 320
3 319 320 317
3 17 312 319
3 114 321 312
3 62 319 321
3 312 321 319
3 18 322 324
3 113 323 322
3 116 324 323
3 322 323 324
3 18 325 322
3 114 326 325
3 113 322 326
3 325 326 322
3 18 327 325
3 44 328 327
3 114 325 328
3 327 328 325
3 18 329 327
3 40 330 329
3 44 327 330
3 329 330 327
3 18 331 329
3 41 332 331
3 40 329 332
3 331 332 329
3 18 324 331
3 116 333 324
3 41 331 333
3 324 333 331
3 19 334 336
3 77 335 334
3 80 336 335
3 334 335 336
3 19 337 334
3 78 338 337
3 77 334 338
3 337 338 334
3 19 339 337
3 41 340 339
3 78 337 340
3 339 340 337
3 19 341 339
3 42 342 341
3 41 339 342
3 341 342 339
3 19 343 341
3 45 344 343
3 42 341 344
3 343 344 341
3 19 336 343
3 80 345 336
3 45 343 345
3 336 345 343
3 20 346 348
3 79 347 346
3 81 348 347
3 346 347 348
3 20 349 346
3 80 350 349
3 79 346 350
3 349 350 346
3 20 351 349
3 59 352 351
3 80 349 352
3 351 352 349
3 20 353 351
3 60 354 353
3 59 351 354
3 353 354 351
3 20 355 353
3 69 356 355
3 60 353 356
3 355 356 353
3 20 348 355
3 81 357 348
3 69 355 357
3 348 357 355
3 21 358 360
3 115 359 358
3 117 360 359
3 358 359 360
3 21 361 358
3 116 362 361
3 115 358 362
3 361 362 358
3 21 363 361
3 78 364 363
3 116 361 364
3 363 364 361
3 21 365 363
3 75 366 365
3 78 363 366
3 365 366 363
3 21 367 365
3 76 368 367
3 75 365 368
3 367 368 365
3 21 360 367
3 117 369 360
3 76 367 369
3 360 369 367
3 22 370 372
3 94 371 370
3 98 372 371
3 370 371 372
3 22 373 370
3 95 374 373
3 94 370 374
3 373 374 370
3 22 375 373
3 51 376 375
3 95 373 376
3 375 376 373
3 22 377 375
3 49 378 377
3 51 375 378
3 377 378 375
3 22 379 377
3 50 380 379
3 49 377 380
3 379 380 377
3 22 372 379
3 98 381 372
3 50 379 381
3 372 381 379
3 23 382 384
3 123 383 382
3 126 384 383
3 382 383 384
3 23 385 382
3 124 386 385
3 123 382 386
3 385 386 382
3 23 387 385
3 100 388 387
3 124 385 388
3 387 388 385
3 23 389 387
3 97 390 389
3 100 387 390
3 389 390 387
3 23 391 389
3 98 392 391
3 97 389 392
3 391 392 389
3 23 384 391
3 126 393 384
3 98 391 393
3 384 393 391
3 24 394 396
3 125 395 394
3 128 396 395
3 394 395 396
3 24 397 394
3 126 398 397
3 125 394 398
3 397 398 394
3 24 399 397
3 50 400 399
3 126 397 400
3 399 400 397
3 24 401 399
3 46 402 401
3 50 399 402
3 401 402 399
3 24 403 401
3 47 404 403
3 46 401 404
3 403 404 401
3 24 396 403
3 128 405 396
3 47 403 405
3 396 405 403
3 25 406 408
3 106 407 406
3 110 408 407
3 406 407 408
3 25 409 406
3 107 410 409
3 106 406 410
3 409 410 406
3 25 411 409
3 47 412 411
3 107 409 412
3 411 412 409
3 25 413 411
3 48 414 413
3 47 411 414
3 413 414 411
3 25 415 413
3 51 416 415
3 48 413 416
3 415 416 413
3 25 408 415
3 110 417 408
3 51 415 417
3 408 417 415
3 26 418 420
3 109 419 418
3 112 420 419
3 418 419 420
3 26 421 418
3 110 422 421
3 109 418 422
3 421 422 418
3 26 423 421
3 95 424 423
3 110 421 424
3 423 424 421
3 26 425 423
3 96 426 425
3 95 423 426
3 425 426 423
3 26 427 425
3 105 428 427
3 96 425 428
3 427 428 425
3 26 420 427
3 112 429 420
3 105 427 429
3 420 429 427
3 27 430 432
3 127 431 430
3 129 432 431
3 430 431 432
3 27 433 430
3 128 434 433
3 127 430 434
3 433 434 430
3 27 435 433
3 107 436 435
3 128 433 436
3 435 436 433
3 27 437 435
3 108 438 437
3 107 435 438
3 437 438 435
3 27 439 437
3 117 440 439
3 108 437 440
3 439 440 437
3 27 432 439
3 129 441 432
3 117 439 441
3 432 441 439
3 28 442 444
3 118 443 442
3 122 444 443
3 442 443 444
3 28 445 442
3 119 446 445
3 118 442 446
3 445 446 442
3 28 447 445
3 57 448 447
3 119 445 448
3 447 448 445
3 28 449 447
3 55 450 449
3 57 447 450
3 449 450 447
3 28 451 449
3 56 452 451
3 55 449 452
3 451 452 449
3 28 444 451
3 122 453 444
3 56 451 453
3 444 453 451
3 29 454 456
3 121 455 454
3 124 456 455
3 454 455 456
3 29 457 454
3 122 458 457
3 121 454 458
3 457 458 454
3 29 459 457
3 93 460 459
3 122 457 460
3 459 460 457
3 29 461 459
3 91 462 461
3 93 459 462
3 461 462 459
3 29 463 461
3 92 464 463
3 91 461 464
3 463 464 461
3 29 456 463
3 124 465 456
3 92 463 465
3 456 465 463
3 30 466 468
3 93 467 466
3 84 468 467
3 466 467 468
3 30 469 466
3 56 470 469
3 93 466 470
3 469 470 466
3 30 471 469
3 52 472 471
3 56 469 472
3 471 472 469
3 30 473 471
3 53 474 473
3 52 471 474
3 473 474 471
3 30 475 473
3 83 476 475
3 53 473 476
3 475 476 473
3 30 468 475
3 84 477 468
3 83 475 477
3 468 477 475
3 31 478 480
3 70 479 478
3 74 480 479
3 478 479 480
3 31 481 478
3 71 482 481
3 70 478 482
3 481 482 478
3 31 483 481
3 53 484 483
3 71 481 484
3 483 484 481
3 31 485 483
3 54 486 485
3 53 483 486
3 485 486 483
3 31 487 485
3 57 488 487
3 54 485 488
3 487 488 485
3 31 480 487
3 74 489 480
3 57 487 489
3 480 489 487
3 32 490 492
3 129 491 490
3 120 492 491
3 490 491 492
3 32 493 490
3 76 494 493
3 129 490 494
3 493 494 490
3 32 495 493
3 73 496 495
3 76 493 496
3 495 496 493
3 32 497 495
3 74 498 497
3 73 495 498
3 497 498 495
3 32 499 497
3 119 500 499
3 74 497 500
3 499 500 497
3 32 492 499
3 120 501 492
3 119 499 501
3 492 501 499
3 33 502 504
3 82 503 502
3 86 504 503
3 502 503 504
3 33 505 502
3 83 506 505
3 82 502 506
3 505 506 502
3 33 507 505
3 71 508 507
3 83 505 508
3 507 508 505
3 33 509 507
3 72 510 509
3 71 507 510
3 509 510 507
3 33 511 509
3 81 512 511
3 72 509 512
3 511 512 509
3 33 504 511
3 86 513 504
3 81 511 513
3 504 513 511
