ply
format ascii 1.0
element vertex 14
property float x
property float y
property float z
element face 24
property list uchar int vertex_indices
end_header
1 1 6
3 0 4
0 0 4
0 3 4
1.5 0.5 0
0.34375 0.40625 5.375
1.6875 -0.375 4
2.21875 0.40625 5.375
1.6875 1.6875 4
0.34375 2.28125 5.375
-0.375 1.6875 4
0.65625 0.09375 1.625
2.53125 0.09375 1.625
0.65625 1.96875 1.625
3 6 7 5
3 8 9 7
3 9 10 5
3 11 12 6
3 12 13 8
3 10 13 11
3 7 6 1
3 5 7 0
3 6 5 2
3 9 8 3
3 7 9 0
3 8 7 1
3 10 9 3
3 5 10 2
3 9 5 0
3 12 11 4
3 6 12 1
3 11 6 2
3 13 12 4
3 8 13 3
3 12 8 1
3 13 10 3
3 11 13 4
3 10 11 2
