ply
format ascii 1.0
element vertex 50
property float x
property float y
property float z
element face 96
property list uchar int vertex_indices
end_header
1 1 6
3 0 4
0 0 4
0 3 4
1.5 0.5 0
0.34375 0.40625 5.375
1.6875 -0.375 4
2.21875 0.40625 5.375
1.6875 1.6875 4
0.34375 2.28125 5.375
-0.375 1.6875 4
0.65625 0.09375 1.625
2.53125 0.09375 1.625
0.65625 1.96875 1.625
2.04492 -0.107422 4.88281
1.38672 0.199219 5.45313
1.02539 -0.107422 4.88281
1.02539 2.11914 4.88281
1.38672 1.44141 5.45313
2.04492 1.09961 4.88281
-0.181641 2.11914 4.88281
-0.181641 1.09961 4.88281
0.144531 1.44141 5.45313
1.72266 -0.136719 1.42188
2.22852 -0.291016 2.67969
1.20898 -0.291016 2.67969
1.72266 1.10547 1.42188
1.20898 1.93555 2.67969
2.22852 0.916016 2.67969
0.00195313 1.93555 2.67969
0.480469 1.10547 1.42188
0.00195313 0.916016 2.67969
2.67188 -0.351563 4
2.76563 0.140625 4.8125
1.61719 0.695313 5.84375
0.679688 0.695313 5.84375
0.046875 0.140625 4.8125
0.679688 -0.351563 4
0.679688 2.67188 4
0.046875 2.85938 4.8125
0.679688 1.63281 5.84375
2.67188 0.679688 4
-0.351563 2.67188 4
-0.351563 0.679688 4
1.13281 0.242188 0.40625
2.07031 0.242188 0.40625
2.92188 -0.015625 2.9375
0.203125 -0.015625 2.9375
1.13281 1.17969 0.40625
0.203125 2.70313 2.9375
3 15 16 14
3 18 19 17
3 21 22 20
3 24 25 23
3 27 28 26
3 30 31 29
3 32 33 14
3 34 35 15
3 36 37 16
3 38 39 17
3 18 40 34
3 33 41 19
3 39 42 20
3 21 43 36
3 35 40 22
3 44 45 23
3 24 46 32
3 37 47 25
3 45 48 26
3 27 49 38
3 41 46 28
3 42 49 29
3 30 48 44
3 31 47 43
3 16 15 5
3 14 16 6
3 15 14 7
3 19 18 7
3 17 19 8
3 18 17 9
3 22 21 5
3 20 22 9
3 21 20 10
3 25 24 6
3 23 25 11
3 24 23 12
3 28 27 8
3 26 28 12
3 27 26 13
3 31 30 11
3 29 31 10
3 30 29 13
3 33 32 1
3 14 33 7
3 32 14 6
3 35 34 0
3 15 35 5
3 34 15 7
3 37 36 2
3 16 37 6
3 36 16 5
3 39 38 3
3 17 39 9
3 38 17 8
3 40 18 9
3 34 40 0
3 18 34 7
3 41 33 1
3 19 41 8
3 33 19 7
3 42 39 3
3 20 42 10
3 39 20 9
3 43 21 10
3 36 43 2
3 21 36 5
3 40 35 0
3 22 40 9
3 35 22 5
3 45 44 4
3 23 45 12
3 44 23 11
3 46 24 12
3 32 46 1
3 24 32 6
3 47 37 2
3 25 47 11
3 37 25 6
3 48 45 4
3 26 48 13
3 45 26 12
3 49 27 13
3 38 49 3
3 27 38 8
3 46 41 1
3 28 46 12
3 41 28 8
3 49 42 3
3 29 49 13
3 42 29 10
3 48 30 13
3 44 48 4
3 30 44 11
3 47 31 11
3 43 47 2
3 31 43 10
