ply
format ascii 1.0
element vertex 194
property float x
property float y
property float z
element face 384
property list uchar int vertex_indices
end_header
1 1 6
3 0 4
0 0 4
0 3 4
1.5 0.5 0
0.34375 0.40625 5.375
1.6875 -0.375 4
2.21875 0.40625 5.375
1.6875 1.6875 4
0.34375 2.28125 5.375
-0.375 1.6875 4
0.65625 0.09375 1.625
2.53125 0.09375 1.625
0.65625 1.96875 1.625
2.04492 -0.107422 4.88281
1.38672 0.199219 5.45313
1.02539 -0.107422 4.88281
1.02539 2.11914 4.88281
1.38672 1.44141 5.45313
2.04492 1.09961 4.88281
-0.181641 2.11914 4.88281
-0.181641 1.09961 4.88281
0.144531 1.44141 5.45313
1.72266 -0.136719 1.42188
2.22852 -0.291016 2.67969
1.20898 -0.291016 2.67969
1.72266 1.10547 1.42188
1.20898 1.93555 2.67969
2.22852 0.916016 2.67969
0.00195313 1.93555 2.67969
0.480469 1.10547 1.42188
0.00195313 0.916016 2.67969
2.67188 -0.351563 4
2.76563 0.140625 4.8125
1.61719 0.695313 5.84375
0.679688 0.695313 5.84375
0.046875 0.140625 4.8125
0.679688 -0.351563 4
0.679688 2.67188 4
0.046875 2.85938 4.8125
0.679688 1.63281 5.84375
2.67188 0.679688 4
-0.351563 2.67188 4
-0.351563 0.679688 4
1.13281 0.242188 0.40625
2.07031 0.242188 0.40625
2.92188 -0.015625 2.9375
0.203125 -0.015625 2.9375
1.13281 1.17969 0.40625
0.203125 2.70313 2.9375
1.21509 0.0290527 5.19824
1.5498 -0.13623 4.89258
1.72046 0.0290527 5.19824
1.72046 1.28589 5.19824
1.5498 1.62305 4.89258
1.21509 1.79126 5.19824
-0.0417484 1.28589 5.19824
-0.0417484 1.79126 5.19824
-0.209473 1.62305 4.89258
1.73633 -0.322754 2.6543
1.47925 -0.235108 2.02832
1.98462 -0.235108 2.02832
1.73633 1.43652 2.6543
1.98462 1.02173 2.02832
1.47925 1.5271 2.02832
0.222412 1.02173 2.02832
-0.0229491 1.43652 2.6543
0.222412 1.5271 2.02832
2.75562 -0.162354 4.49707
2.50916 -0.0343019 4.87353
2.3855 -0.259278 4.48437
1.20166 0.590333 5.87305
1.00403 0.413696 5.69385
1.5658 0.413696 5.69385
0.37378 -0.162354 4.49707
0.844483 -0.259278 4.48437
0.483276 -0.0343019 4.87353
0.37378 2.82154 4.49707
0.483276 2.5929 4.87353
0.844483 2.44409 4.48437
1.00403 1.59876 5.69385
1.20166 1.21435 5.87305
1.5658 1.03699 5.69385
2.75562 0.439698 4.49707
2.3855 0.903077 4.48437
2.50916 0.567017 4.87353
-0.228272 2.82154 4.49707
-0.317872 2.44409 4.48437
-0.118042 2.5929 4.87353
-0.317872 0.903077 4.48437
-0.228272 0.439698 4.49707
-0.118042 0.567017 4.87353
0.577637 1.21435 5.87305
0.380737 1.59876 5.69385
0.380737 1.03699 5.69385
1.66357 0.128418 0.330079
1.97278 0.00671401 0.810061
1.41101 0.00671401 0.810061
2.68567 -0.210816 2.75537
2.84693 -0.253662 3.40137
2.4773 -0.351075 3.38281
0.465088 -0.253662 3.40137
0.659788 -0.210816 2.75537
0.936277 -0.351075 3.38281
1.66357 0.752443 0.330079
1.41101 1.19177 0.810061
1.97278 0.630006 0.810061
0.659788 2.41639 2.75537
0.465088 2.73023 3.40137
0.936277 2.3523 3.38281
2.84693 0.348389 3.40137
2.68567 0.390503 2.75537
2.4773 0.81128 3.38281
-0.136963 2.73023 3.40137
0.0584719 2.41639 2.75537
-0.226074 2.3523 3.38281
0.787718 1.19177 0.810061
1.03955 0.752443 0.330079
0.787718 0.630006 0.810061
0.0584719 0.390503 2.75537
-0.136963 0.348389 3.40137
-0.226074 0.81128 3.38281
0.837525 0.240601 5.44287
0.662354 0.108398 5.18652
1.36487 -0.279663 4.49267
1.88708 -0.279663 4.49267
2.19092 0.108398 5.18652
1.89441 0.240601 5.44287
1.89441 0.892458 5.44287
2.19092 0.739014 5.18652
1.88708 1.42029 4.49267
1.36487 1.9425 4.49267
0.662354 2.26758 5.18652
0.837525 1.94934 5.44287
0.0317381 0.739014 5.18652
0.185669 0.892458 5.44287
0.185669 1.94934 5.44287
0.0317381 2.26758 5.18652
-0.335083 1.9425 4.49267
-0.335083 1.42029 4.49267
1.98255 -0.375122 3.34717
1.46033 -0.375122 3.34717
0.920652 -0.149903 2.08692
1.17078 -0.0926516 1.44385
2.22766 -0.0926516 1.44385
2.44922 -0.149903 2.08692
1.46033 1.84705 3.34717
1.98255 1.32483 3.34717
2.44922 0.480713 2.08692
2.22766 0.559204 1.44385
1.17078 1.61609 1.44385
0.920652 2.00928 2.08692
0.518921 0.559204 1.44385
0.29004 0.480713 2.08692
-0.239624 1.32483 3.34717
-0.239624 1.84705 3.34717
0.29004 2.00928 2.08692
0.518921 1.61609 1.44385
2.91797 -0.216797 4
2.92188 0.0546875 4.4375
2.49609 0.274414 5.13281
2.21875 -0.395996 3.98828
1.31055 0.845703 5.96094
0.841797 0.845703 5.96094
0.506836 0.548341 5.63184
1.92407 0.548341 5.63184
-0.0078125 0.0546875 4.4375
0.298828 -0.216797 4
1.18018 -0.395996 3.98828
0.18457 0.274414 5.13281
0.298828 2.91797 4
-0.0078125 2.98438 4.4375
0.18457 2.58594 5.13281
1.18018 2.21289 3.98828
0.506836 1.96558 5.63184
0.841797 1.31445 5.96094
2.91797 0.298828 4
2.21875 1.17432 3.98828
-0.216797 2.91797 4
-0.390137 2.21289 3.98828
-0.390137 1.17432 3.98828
-0.216797 0.298828 4
1.33008 0.357422 0.101562
1.79883 0.357422 0.101562
2.31128 0.161133 0.985352
0.894043 0.161133 0.985352
2.73438 0.0361328 2.27344
3 -0.0234375 3.5
0.0703125 -0.0234375 3.5
0.422851 0.0361328 2.27344
1.33008 0.826173 0.101562
0.894043 1.57837 0.985352
0.422851 2.34766 2.27344
0.0703125 2.90625 3.5
3 51 52 50
3 54 55 53
3 57 58 56
3 60 61 59
3 63 64 62
3 66 67 65
3 69 70 68
3 72 73 71
3 75 76 74
3 78 79 77
3 81 82 80
3 84 85 83
3 87 88 86
3 90 91 89
3 93 94 92
3 96 97 95
3 99 100 98
3 102 103 101
3 105 106 104
3 108 109 107
3 111 112 110
3 114 115 113
3 117 118 116
3 120 121 119
3 122 123 50
3 124 125 51
3 126 127 52
3 128 129 53
3 130 131 54
3 132 133 55
3 134 135 56
3 136 137 57
3 138 139 58
3 140 141 59
3 142 143 60
3 144 145 61
3 146 147 62
3 148 149 63
3 150 151 64
3 152 153 65
3 154 155 66
3 156 157 67
3 158 159 68
3 69 160 126
3 125 161 70
3 162 163 71
3 72 164 122
3 127 165 73
3 166 167 74
3 75 168 124
3 123 169 76
3 170 171 77
3 78 172 132
3 131 173 79
3 133 174 80
3 81 175 162
3 82 165 128
3 159 176 83
3 84 177 130
3 129 160 85
3 171 178 86
3 87 179 138
3 137 172 88
3 139 180 89
3 90 181 166
3 91 169 134
3 163 175 92
3 93 174 136
3 135 164 94
3 182 183 95
3 96 184 144
3 143 185 97
3 145 186 98
3 99 187 158
3 100 161 140
3 167 188 101
3 102 189 142
3 141 168 103
3 183 190 104
3 105 191 150
3 149 184 106
3 151 192 107
3 108 193 170
3 109 173 146
3 176 187 110
3 111 186 148
3 147 177 112
3 178 193 113
3 114 192 156
3 155 179 115
3 157 191 116
3 117 190 182
3 118 185 152
3 153 189 119
3 120 188 181
3 121 180 154
3 52 51 14
3 50 52 15
3 51 50 16
3 55 54 17
3 53 55 18
3 54 53 19
3 58 57 20
3 56 58 21
3 57 56 22
3 61 60 23
3 59 61 24
3 60 59 25
3 64 63 26
3 62 64 27
3 63 62 28
3 67 66 29
3 65 67 30
3 66 65 31
3 70 69 14
3 68 70 32
3 69 68 33
3 73 72 15
3 71 73 34
3 72 71 35
3 76 75 16
3 74 76 36
3 75 74 37
3 79 78 17
3 77 79 38
3 78 77 39
3 82 81 34
3 80 82 18
3 81 80 40
3 85 84 19
3 83 85 33
3 84 83 41
3 88 87 20
3 86 88 39
3 87 86 42
3 91 90 36
3 89 91 21
3 90 89 43
3 94 93 22
3 92 94 35
3 93 92 40
3 97 96 23
3 95 97 44
3 96 95 45
3 100 99 32
3 98 100 24
3 99 98 46
3 103 102 25
3 101 103 37
3 102 101 47
3 106 105 26
3 104 106 45
3 105 104 48
3 109 108 38
3 107 109 27
3 108 107 49
3 112 111 28
3 110 112 41
3 111 110 46
3 115 114 29
3 113 115 42
3 114 113 49
3 118 117 44
3 116 118 30
3 117 116 48
3 121 120 43
3 119 121 31
3 120 119 47
3 123 122 5
3 50 123 16
3 122 50 15
3 125 124 6
3 51 125 14
3 124 51 16
3 127 126 7
3 52 127 15
3 126 52 14
3 129 128 7
3 53 129 19
3 128 53 18
3 131 130 8
3 54 131 17
3 130 54 19
3 133 132 9
3 55 133 18
3 132 55 17
3 135 134 5
3 56 135 22
3 134 56 21
3 137 136 9
3 57 137 20
3 136 57 22
3 139 138 10
3 58 139 21
3 138 58 20
3 141 140 6
3 59 141 25
3 140 59 24
3 143 142 11
3 60 143 23
3 142 60 25
3 145 144 12
3 61 145 24
3 144 61 23
3 147 146 8
3 62 147 28
3 146 62 27
3 149 148 12
3 63 149 26
3 148 63 28
3 151 150 13
3 64 151 27
3 150 64 26
3 153 152 11
3 65 153 31
3 152 65 30
3 155 154 10
3 66 155 29
3 154 66 31
3 157 156 13
3 67 157 30
3 156 67 29
3 159 158 1
3 68 159 33
3 158 68 32
3 160 69 33
3 126 160 7
3 69 126 14
3 161 125 6
3 70 161 32
3 125 70 14
3 163 162 0
3 71 163 35
3 162 71 34
3 164 72 35
3 122 164 5
3 72 122 15
3 165 127 7
3 73 165 34
3 127 73 15
3 167 166 2
3 74 167 37
3 166 74 36
3 168 75 37
3 124 168 6
3 75 124 16
3 169 123 5
3 76 169 36
3 123 76 16
3 171 170 3
3 77 171 39
3 170 77 38
3 172 78 39
3 132 172 9
3 78 132 17
3 173 131 8
3 79 173 38
3 131 79 17
3 174 133 9
3 80 174 40
3 133 80 18
3 175 81 40
3 162 175 0
3 81 162 34
3 165 82 34
3 128 165 7
3 82 128 18
3 176 159 1
3 83 176 41
3 159 83 33
3 177 84 41
3 130 177 8
3 84 130 19
3 160 129 7
3 85 160 33
3 129 85 19
3 178 171 3
3 86 178 42
3 171 86 39
3 179 87 42
3 138 179 10
3 87 138 20
3 172 137 9
3 88 172 39
3 137 88 20
3 180 139 10
3 89 180 43
3 139 89 21
3 181 90 43
3 166 181 2
3 90 166 36
3 169 91 36
3 134 169 5
3 91 134 21
3 175 163 0
3 92 175 40
3 163 92 35
3 174 93 40
3 136 174 9
3 93 136 22
3 164 135 5
3 94 164 35
3 135 94 22
3 183 182 4
3 95 183 45
3 182 95 44
3 184 96 45
3 144 184 12
3 96 144 23
3 185 143 11
3 97 185 44
3 143 97 23
3 186 145 12
3 98 186 46
3 145 98 24
3 187 99 46
3 158 187 1
3 99 158 32
3 161 100 32
3 140 161 6
3 100 140 24
3 188 167 2
3 101 188 47
3 167 101 37
3 189 102 47
3 142 189 11
3 102 142 25
3 168 141 6
3 103 168 37
3 141 103 25
3 190 183 4
3 104 190 48
3 183 104 45
3 191 105 48
3 150 191 13
3 105 150 26
3 184 149 12
3 106 184 45
3 149 106 26
3 192 151 13
3 107 192 49
3 151 107 27
3 193 108 49
3 170 193 3
3 108 170 38
3 173 109 38
3 146 173 8
3 109 146 27
3 187 176 1
3 110 187 46
3 176 110 41
3 186 111 46
3 148 186 12
3 111 148 28
3 177 147 8
3 112 177 41
3 147 112 28
3 193 178 3
3 113 193 49
3 178 113 42
3 192 114 49
3 156 192 13
3 114 156 29
3 179 155 10
3 115 179 42
3 155 115 29
3 191 157 13
3 116 191 48
3 157 116 30
3 190 117 48
3 182 190 4
3 117 182 44
3 185 118 44
3 152 185 11
3 118 152 30
3 189 153 11
3 119 189 47
3 153 119 31
3 188 120 47
3 181 188 2
3 120 181 43
3 180 121 43
3 154 180 10
3 121 154 31
