ply
format ascii 1.0
element vertex 770
property float x
property float y
property float z
element face 1536
property list uchar int vertex_indices
end_header
1 1 6
3 0 4
0 0 4
0 3 4
1.5 0.5 0
0.34375 0.40625 5.375
1.6875 -0.375 4
2.21875 0.40625 5.375
1.6875 1.6875 4
0.34375 2.28125 5.375
-0.375 1.6875 4
0.65625 0.09375 1.625
2.53125 0.09375 1.625
0.65625 1.96875 1.625
2.04492 -0.107422 4.88281
1.38672 0.199219 5.45313
1.02539 -0.107422 4.88281
1.02539 2.11914 4.88281
1.38672 1.44141 5.45313
2.04492 1.09961 4.88281
-0.181641 2.11914 4.88281
-0.181641 1.09961 4.88281
0.144531 1.44141 5.45313
1.72266 -0.136719 1.42188
2.22852 -0.291016 2.67969
1.20898 -0.291016 2.67969
1.72266 1.10547 1.42188
1.20898 1.93555 2.67969
2.22852 0.916016 2.67969
0.00195313 1.93555 2.67969
0.480469 1.10547 1.42188
0.00195313 0.916016 2.67969
2.67188 -0.351563 4
2.76563 0.140625 4.8125
1.61719 0.695313 5.84375
0.679688 0.695313 5.84375
0.046875 0.140625 4.8125
0.679688 -0.351563 4
0.679688 2.67188 4
0.046875 2.85938 4.8125
0.679688 1.63281 5.84375
2.67188 0.679688 4
-0.351563 2.67188 4
-0.351563 0.679688 4
1.13281 0.242188 0.40625
2.07031 0.242188 0.40625
2.92188 -0.015625 2.9375
0.203125 -0.015625 2.9375
1.13281 1.17969 0.40625
0.203125 2.70313 2.9375
1.21509 0.0290527 5.19824
1.5498 -0.13623 4.89258
1.72046 0.0290527 5.19824
1.72046 1.28589 5.19824
1.5498 1.62305 4.89258
1.21509 1.79126 5.19824
-0.0417484 1.28589 5.19824
-0.0417484 1.79126 5.19824
-0.209473 1.62305 4.89258
1.73633 -0.322754 2.6543
1.47925 -0.235108 2.02832
1.98462 -0.235108 2.02832
1.73633 1.43652 2.6543
1.98462 1.02173 2.02832
1.47925 1.5271 2.02832
0.222412 1.02173 2.02832
-0.0229491 1.43652 2.6543
0.222412 1.5271 2.02832
2.75562 -0.162354 4.49707
2.50916 -0.0343019 4.87353
2.3855 -0.259278 4.48437
1.20166 0.590333 5.87305
1.00403 0.413696 5.69385
1.5658 0.413696 5.69385
0.37378 -0.162354 4.49707
0.844483 -0.259278 4.48437
0.483276 -0.0343019 4.87353
0.37378 2.82154 4.49707
0.483276 2.5929 4.87353
0.844483 2.44409 4.48437
1.00403 1.59876 5.69385
1.20166 1.21435 5.87305
1.5658 1.03699 5.69385
2.75562 0.439698 4.49707
2.3855 0.903077 4.48437
2.50916 0.567017 4.87353
-0.228272 2.82154 4.49707
-0.317872 2.44409 4.48437
-0.118042 2.5929 4.87353
-0.317872 0.903077 4.48437
-0.228272 0.439698 4.49707
-0.118042 0.567017 4.87353
0.577637 1.21435 5.87305
0.380737 1.59876 5.69385
0.380737 1.03699 5.69385
1.66357 0.128418 0.330079
1.97278 0.00671401 0.810061
1.41101 0.00671401 0.810061
2.68567 -0.210816 2.75537
2.84693 -0.253662 3.40137
2.4773 -0.351075 3.38281
0.465088 -0.253662 3.40137
0.659788 -0.210816 2.75537
0.936277 -0.351075 3.38281
1.66357 0.752443 0.330079
1.41101 1.19177 0.810061
1.97278 0.630006 0.810061
0.659788 2.41639 2.75537
0.465088 2.73023 3.40137
0.936277 2.3523 3.38281
2.84693 0.348389 3.40137
2.68567 0.390503 2.75537
2.4773 0.81128 3.38281
-0.136963 2.73023 3.40137
0.0584719 2.41639 2.75537
-0.226074 2.3523 3.38281
0.787718 1.19177 0.810061
1.03955 0.752443 0.330079
0.787718 0.630006 0.810061
0.0584719 0.390503 2.75537
-0.136963 0.348389 3.40137
-0.226074 0.81128 3.38281
0.837525 0.240601 5.44287
0.662354 0.108398 5.18652
1.36487 -0.279663 4.49267
1.88708 -0.279663 4.49267
2.19092 0.108398 5.18652
1.89441 0.240601 5.44287
1.89441 0.892458 5.44287
2.19092 0.739014 5.18652
1.88708 1.42029 4.49267
1.36487 1.9425 4.49267
0.662354 2.26758 5.18652
0.837525 1.94934 5.44287
0.0317381 0.739014 5.18652
0.185669 0.892458 5.44287
0.185669 1.94934 5.44287
0.0317381 2.26758 5.18652
-0.335083 1.9425 4.49267
-0.335083 1.42029 4.49267
1.98255 -0.375122 3.34717
1.46033 -0.375122 3.34717
0.920652 -0.149903 2.08692
1.17078 -0.0926516 1.44385
2.22766 -0.0926516 1.44385
2.44922 -0.149903 2.08692
1.46033 1.84705 3.34717
1.98255 1.32483 3.34717
2.44922 0.480713 2.08692
2.22766 0.559204 1.44385
1.17078 1.61609 1.44385
0.920652 2.00928 2.08692
0.518921 0.559204 1.44385
0.29004 0.480713 2.08692
-0.239624 1.32483 3.34717
-0.239624 1.84705 3.34717
0.29004 2.00928 2.08692
0.518921 1.61609 1.44385
2.91797 -0.216797 4
2.92188 0.0546875 4.4375
2.49609 0.274414 5.13281
2.21875 -0.395996 3.98828
1.31055 0.845703 5.96094
0.841797 0.845703 5.96094
0.506836 0.548341 5.63184
1.92407 0.548341 5.63184
-0.0078125 0.0546875 4.4375
0.298828 -0.216797 4
1.18018 -0.395996 3.98828
0.18457 0.274414 5.13281
0.298828 2.91797 4
-0.0078125 2.98438 4.4375
0.18457 2.58594 5.13281
1.18018 2.21289 3.98828
0.506836 1.96558 5.63184
0.841797 1.31445 5.96094
2.91797 0.298828 4
2.21875 1.17432 3.98828
-0.216797 2.91797 4
-0.390137 2.21289 3.98828
-0.390137 1.17432 3.98828
-0.216797 0.298828 4
1.33008 0.357422 0.101562
1.79883 0.357422 0.101562
2.31128 0.161133 0.985352
0.894043 0.161133 0.985352
2.73438 0.0361328 2.27344
3 -0.0234375 3.5
0.0703125 -0.0234375 3.5
0.422851 0.0361328 2.27344
1.33008 0.826173 0.101562
0.894043 1.57837 0.985352
0.422851 2.34766 2.27344
0.0703125 2.90625 3.5
1.637 -0.0584181 5.0546
1.4722 0.0202789 5.20074
1.3845 -0.0584181 5.0546
1.3845 1.71084 5.0546
1.4722 1.54285 5.20074
1.637 1.45834 5.0546
-0.132256 1.71084 5.0546
-0.132256 1.45834 5.0546
-0.0503697 1.54285 5.20074
1.73706 -0.244584 2.0224
1.86373 -0.285149 2.33383
1.61123 -0.285149 2.33383
1.73706 1.27799 2.0224
1.61123 1.48411 2.33383
1.86373 1.2316 2.33383
0.0944747 1.48411 2.33383
0.214493 1.27799 2.0224
0.0944747 1.2316 2.33383
2.45268 -0.156624 4.6957
2.59649 -0.222825 4.49469
2.64286 -0.105042 4.69409
1.29416 0.395401 5.69879
1.38007 0.497605 5.79505
1.1115 0.497605 5.79505
0.666664 -0.156624 4.6957
0.422333 -0.105042 4.69409
0.595047 -0.222825 4.49469
0.666664 2.52725 4.6957
0.595047 2.65908 4.49469
0.422333 2.72257 4.69409
1.38007 1.13316 5.79505
1.29416 1.32673 5.69879
1.1115 1.40173 5.79505
2.45268 0.741234 4.6957
2.64286 0.502045 4.69409
2.59649 0.657639 4.49469
-0.231194 2.52725 4.6957
-0.184754 2.72257 4.69409
-0.285416 2.65908 4.49469
-0.184754 0.502045 4.69409
-0.231194 0.741234 4.6957
-0.285416 0.657639 4.49469
0.362838 1.32673 5.69879
0.475937 1.13316 5.79505
0.475937 1.40173 5.79505
1.70258 -0.0130157 0.797793
1.54942 0.0596773 0.539919
1.81799 0.0596773 0.539919
2.68886 -0.315201 3.38617
2.58932 -0.293267 3.056
2.77652 -0.238709 3.09009
0.803304 -0.293267 3.056
0.687423 -0.315201 3.38617
0.555999 -0.238709 3.09009
1.70258 0.918304 0.797793
1.81799 0.695237 0.539919
1.54942 0.963806 0.539919
0.687423 2.5667 3.38617
0.803304 2.39061 3.056
0.555999 2.5889 3.09009
2.58932 0.604592 3.056
2.68886 0.565262 3.38617
2.77652 0.368378 3.09009
-0.0945509 2.39061 3.056
-0.193039 2.5667 3.38617
-0.0510863 2.5889 3.09009
0.913862 0.695237 0.539919
0.771254 0.918304 0.797793
0.913862 0.963806 0.539919
-0.193039 0.565262 3.38617
-0.0945509 0.604592 3.056
-0.0510863 0.368378 3.09009
0.750825 0.171753 5.31756
0.936365 0.0581892 5.19595
1.02659 0.12693 5.32864
1.62631 -0.280639 4.49536
1.71849 -0.211792 4.70422
1.45939 -0.211792 4.70422
2.04433 0.171753 5.31756
1.81436 0.12693 5.32864
1.96908 0.0581892 5.19595
2.04433 0.817018 5.31756
1.96908 1.0091 5.19595
1.81436 1.09085 5.32864
1.62631 1.68234 4.49536
1.45939 1.7863 4.70422
1.71849 1.52721 4.70422
0.750825 2.11052 5.31756
1.02659 1.87861 5.32864
0.936365 2.04182 5.19595
0.10556 0.817018 5.31756
0.0626753 1.09085 5.32864
-0.0145495 1.0091 5.19595
0.10556 2.11052 5.31756
-0.0145495 2.04182 5.19595
0.0626753 1.87861 5.32864
-0.33667 1.68234 4.49536
-0.279602 1.52721 4.70422
-0.279602 1.7863 4.70422
1.72214 -0.376465 3.34546
1.60155 -0.353943 2.99842
1.86065 -0.353943 2.99842
1.04712 -0.124543 1.76203
1.32663 -0.173104 1.72824
1.19898 -0.20443 2.04453
2.34062 -0.124543 1.76203
2.2317 -0.20443 2.04453
2.11439 -0.173104 1.72824
1.72214 1.58652 3.34546
1.86065 1.38505 2.99842
1.60155 1.64415 2.99842
2.34062 0.520721 1.76203
2.11439 0.79081 1.72824
2.2317 0.746484 2.04453
1.04712 1.81423 1.76203
1.19898 1.7792 2.04453
1.32663 1.57858 1.72824
0.401856 0.520721 1.76203
0.24807 0.746484 2.04453
0.362709 0.79081 1.72824
-0.240845 1.58652 3.34546
-0.137451 1.64415 2.99842
-0.137451 1.38505 2.99842
0.401856 1.81423 1.76203
0.362709 1.57858 1.72824
0.24807 1.7792 2.04453
2.92966 -0.105377 4.26135
2.86566 -0.0667193 4.48319
2.84864 -0.203415 4.25958
2.52667 0.107216 5.02627
2.3785 0.174598 5.17044
2.34952 0.0381314 5.0401
2.05803 -0.347504 4.25586
2.31166 -0.3443 4.25024
2.1431 -0.276329 4.48702
1.1026 0.793274 5.96949
1.00808 0.702935 5.92942
1.28553 0.702935 5.92942
0.73803 0.458458 5.67398
0.658501 0.378502 5.55057
0.919702 0.324074 5.57205
1.93923 0.378502 5.55057
1.78558 0.458458 5.67398
1.73393 0.324074 5.57205
0.155975 -0.105377 4.26135
0.335511 -0.203415 4.25958
0.167778 -0.0667193 4.48319
1.01647 -0.3443 4.25024
1.27324 -0.347504 4.25586
1.10536 -0.276329 4.48702
0.405495 0.174598 5.17044
0.321022 0.107216 5.02627
0.570923 0.0381314 5.0401
0.155975 2.96915 4.26135
0.167778 2.93223 4.48319
0.335511 2.88718 4.25958
0.321022 2.61686 5.02627
0.405495 2.46131 5.17044
0.570923 2.43238 5.0401
1.27324 2.0905 4.25586
1.01647 2.34401 4.25024
1.10536 2.19884 4.48702
0.658501 1.98677 5.55057
0.73803 1.82145 5.67398
0.919702 1.77853 5.57205
1.00808 1.29244 5.92942
1.1026 1.10565 5.96949
1.28553 1.01499 5.92942
1.78558 0.773905 5.67398
1.93923 0.706033 5.55057
1.73393 0.964305 5.57205
2.92966 0.195465 4.26135
2.84864 0.374054 4.25958
2.86566 0.234352 4.48319
2.31166 1.04882 4.25024
2.05803 1.30571 4.25586
2.1431 1.1611 4.48702
2.3785 0.488304 5.17044
2.52667 0.411217 5.02627
2.34952 0.653778 5.0401
-0.144867 2.96915 4.26135
-0.241959 2.88718 4.25958
-0.133293 2.93223 4.48319
-0.376649 2.34401 4.25024
-0.379975 2.0905 4.25586
-0.33207 2.19884 4.48702
0.091789 2.46131 5.17044
0.0170211 2.61686 5.02627
-0.0447236 2.43238 5.0401
-0.379975 1.30571 4.25586
-0.376649 1.04882 4.25024
-0.33207 1.1611 4.48702
-0.241959 0.374054 4.25958
-0.144867 0.195465 4.26135
-0.133293 0.234352 4.48319
0.0170211 0.411217 5.02627
0.091789 0.488304 5.17044
-0.0447236 0.653778 5.0401
0.790222 1.10565 5.96949
0.696022 1.29244 5.92942
0.696022 1.01499 5.92942
0.422584 1.82145 5.67398
0.330971 1.98677 5.55057
0.279472 1.77853 5.57205
0.330971 0.706033 5.55057
0.422584 0.773905 5.67398
0.279472 0.964305 5.57205
1.59345 0.302429 0.0793454
1.76443 0.224037 0.182648
1.48698 0.224037 0.182648
2.18614 0.0578996 0.86728
2.30311 0.0146256 1.18405
2.10464 -0.0466385 1.12351
1.02238 0.0146256 1.18405
1.13859 0.0578996 0.86728
1.29041 -0.0466385 1.12351
2.62971 -0.0766071 2.15598
2.73814 -0.104256 2.48862
2.56812 -0.180466 2.41693
2.95317 -0.154228 3.43308
2.97525 -0.15097 3.71423
2.89426 -0.249039 3.7121
2.35805 -0.390686 3.6936
2.10576 -0.395233 3.68311
2.237 -0.370217 3.36038
0.201569 -0.15097 3.71423
0.255287 -0.154228 3.43308
0.381134 -0.249039 3.7121
0.532492 -0.104256 2.48862
0.656698 -0.0766071 2.15598
0.789518 -0.180466 2.41693
1.32097 -0.395233 3.68311
1.06285 -0.390686 3.6936
1.19924 -0.370217 3.36038
1.59345 0.614808 0.0793454
1.48698 0.813547 0.182648
1.76443 0.536095 0.182648
1.13859 1.42089 0.86728
1.02238 1.62289 1.18405
1.29041 1.40781 1.12351
2.30311 0.342156 1.18405
2.18614 0.373345 0.86728
2.10464 0.59359 1.12351
0.656698 2.21011 2.15598
0.532492 2.40539 2.48862
0.789518 2.21378 2.41693
0.255287 2.84472 3.43308
0.201569 2.92355 3.71423
0.381134 2.84156 3.7121
1.06285 2.29763 3.6936
1.32097 2.04277 3.68311
1.19924 2.10496 3.36038
2.97525 0.149872 3.71423
2.95317 0.146843 3.43308
2.89426 0.32843 3.7121
2.73814 0.199745 2.48862
2.62971 0.237099 2.15598
2.56812 0.435181 2.41693
2.10576 1.25798 3.68311
2.35805 1.00243 3.6936
2.237 1.06721 3.36038
-0.0992737 2.92355 3.71423
-0.0457841 2.84472 3.43308
-0.196335 2.84156 3.7121
0.228493 2.40539 2.48862
0.342995 2.21011 2.15598
0.173874 2.21378 2.41693
-0.332245 2.04277 3.68311
-0.330261 2.29763 3.6936
-0.238182 2.10496 3.36038
0.694847 1.62289 1.18405
0.823142 1.42089 0.86728
0.650184 1.40781 1.12351
1.17492 0.813547 0.182648
1.28107 0.614808 0.0793454
1.17492 0.536095 0.182648
0.823142 0.373345 0.86728
0.694847 0.342156 1.18405
0.650184 0.59359 1.12351
0.342995 0.237099 2.15598
0.228493 0.199745 2.48862
0.173874 0.435181 2.41693
-0.0457841 0.146843 3.43308
-0.0992737 0.149872 3.71423
-0.196335 0.32843 3.7121
-0.330261 1.00243 3.6936
-0.332245 1.25798 3.68311
-0.238182 1.06721 3.36038
1.80103 -0.128059 4.88895
1.88117 -0.0398942 5.04996
1.55827 0.108689 5.32983
1.30124 0.108689 5.32983
1.12138 -0.0398942 5.04996
1.29044 -0.128059 4.88895
1.29044 1.8742 4.88895
1.12138 1.95586 5.04996
1.30124 1.62187 5.32983
1.55827 1.36484 5.32983
1.88117 1.19607 5.04996
1.80103 1.36361 4.88895
-0.114586 1.95586 5.04996
-0.201226 1.8742 4.88895
-0.201226 1.36361 4.88895
-0.114586 1.19607 5.04996
0.0450894 1.36484 5.32983
0.0450894 1.62187 5.32983
1.6019 -0.191971 1.72193
1.85893 -0.191971 1.72193
2.10632 -0.265038 2.34824
1.98669 -0.313713 2.66111
1.4761 -0.313713 2.66111
1.34652 -0.265038 2.34824
1.85893 1.06418 1.72193
1.6019 1.32121 1.72193
1.34652 1.73072 2.34824
1.4761 1.68854 2.66111
1.98669 1.17795 2.66111
2.10632 0.970925 2.34824
-0.0155716 1.68854 2.66111
0.110558 1.73072 2.34824
0.345749 1.32121 1.72193
0.345749 1.06418 1.72193
0.110558 0.970925 2.34824
-0.0155716 1.17795 2.66111
2.29539 -0.0810626 4.87948
2.22005 -0.185959 4.69409
2.53852 -0.320099 4.25604
2.72064 -0.277138 4.26529
2.77981 -0.0231936 4.68652
2.66839 0.0377425 4.86038
1.19467 0.300224 5.58145
1.48333 0.300224 5.58146
1.62129 0.538277 5.78244
1.45825 0.611367 5.86777
0.923851 0.611367 5.86777
0.828805 0.538277 5.78244
0.930573 -0.185959 4.69409
0.746543 -0.0810626 4.87948
0.248558 0.0377425 4.86038
0.201035 -0.0231936 4.68652
0.537102 -0.277138 4.26529
0.763627 -0.320099 4.25604
0.746543 2.37365 4.87948
0.930573 2.29072 4.69409
0.763627 2.57443 4.25604
0.537102 2.75944 4.26529
0.201035 2.86452 4.68652
0.248558 2.75902 4.86038
1.45825 0.936925 5.86777
1.62129 0.852074 5.78244
1.48333 1.23823 5.58145
1.19467 1.5269 5.58146
0.828805 1.64456 5.78244
0.923851 1.47132 5.86777
2.22005 1.00125 4.69409
2.29539 0.824807 4.87948
2.66839 0.33918 4.86038
2.77981 0.285752 4.68652
2.72064 0.575905 4.26529
2.53852 0.799546 4.25604
-0.256638 2.29072 4.69409
-0.159325 2.37365 4.87948
-0.0528794 2.75902 4.86038
-0.10791 2.86452 4.68652
-0.315941 2.75944 4.26529
-0.356019 2.57443 4.25604
-0.10791 0.285752 4.68652
-0.0528794 0.33918 4.86038
-0.159325 0.824807 4.87948
-0.256638 1.00125 4.69409
-0.356019 0.799546 4.25604
-0.315941 0.575905 4.26529
0.25666 1.5269 5.58145
0.25666 1.23823 5.58146
0.515007 0.852074 5.78244
0.59829 0.936925 5.86777
0.59829 1.47132 5.86777
0.515007 1.64456 5.78244
1.85691 -0.0733567 1.09848
1.56825 -0.0733567 1.09848
1.26278 0.104302 0.574739
1.38425 0.150963 0.342926
1.91865 0.150963 0.342926
2.05526 0.104302 0.574739
2.76756 -0.324059 3.70224
2.58457 -0.36615 3.70343
2.35824 -0.324143 3.03589
2.47613 -0.261803 2.7106
2.83818 -0.132042 2.82297
2.90908 -0.152466 3.13526
0.92728 -0.261803 2.7106
1.06875 -0.324143 3.03589
0.809677 -0.36615 3.70343
0.584022 -0.324059 3.70224
0.330307 -0.152466 3.13526
0.418342 -0.132042 2.82297
1.56825 1.15331 1.09848
1.85691 0.864647 1.09848
2.05526 0.4181 0.574739
1.91865 0.476526 0.342926
1.38425 1.01092 0.342926
1.26278 1.21058 0.574739
0.584022 2.71252 3.70224
0.809677 2.52839 3.70343
1.06875 2.15255 3.03589
0.92728 2.19291 2.7106
0.418342 2.58923 2.82297
0.330307 2.73525 3.13526
2.47613 0.644066 2.7106
2.35824 0.863068 3.03589
2.58457 0.753495 3.70343
2.76756 0.528984 3.70224
2.90908 0.156479 3.13526
2.83818 0.169396 2.82297
0.021416 2.19291 2.7106
-0.118454 2.15255 3.03589
-0.309967 2.52839 3.70343
-0.26902 2.71252 3.70224
0.0213623 2.73525 3.13526
0.116905 2.58923 2.82297
1.05869 0.476526 0.342926
0.94898 0.4181 0.574739
0.63024 0.864648 1.09848
0.63024 1.15331 1.09848
0.94898 1.21058 0.574739
1.05869 1.01092 0.342926
-0.26902 0.528984 3.70224
-0.309967 0.753495 3.70343
-0.118454 0.863068 3.03589
0.021416 0.644066 2.7106
0.116905 0.169396 2.82297
0.0213623 0.156479 3.13526
0.574951 0.304917 5.41949
0.491005 0.241569 5.29709
0.842644 -0.00763734 5.0466
1.11105 0.206536 5.45261
1.53001 -0.338875 4.26193
1.79162 -0.338875 4.26193
1.96958 -0.200424 4.70031
1.19656 -0.200424 4.70031
2.23211 0.241569 5.29709
2.09116 0.304917 5.41949
1.65547 0.206536 5.45261
2.12626 -0.00763734 5.0466
2.09116 0.632905 5.41949
2.23211 0.561638 5.29709
2.12626 0.920113 5.0466
1.65547 1.16496 5.45261
1.79162 1.56451 4.26193
1.53001 1.82612 4.26193
1.19656 2.03813 4.70031
1.96958 1.26511 4.70031
0.491005 2.30274 5.29709
0.574951 2.14911 5.41949
1.11105 1.70938 5.45261
0.842644 2.20373 5.0466
0.170936 0.561638 5.29709
0.246964 0.632905 5.41949
0.152626 1.16496 5.45261
-0.0851061 0.920113 5.0466
0.246964 2.14911 5.41949
0.170936 2.30274 5.29709
-0.0851061 2.20373 5.0466
0.152626 1.70938 5.45261
-0.373375 1.82612 4.26193
-0.373375 1.56451 4.26193
-0.268967 1.26511 4.70031
-0.268967 2.03813 4.70031
1.83985 -0.387108 3.68314
1.57824 -0.387108 3.68314
1.33737 -0.341233 3.01062
2.1104 -0.341233 3.01062
0.77996 -0.0473865 1.82962
0.90085 -0.020981 1.50873
1.44725 -0.129662 1.41825
1.06556 -0.230553 2.37162
2.41705 -0.020981 1.50873
2.52107 -0.0473865 1.82962
2.34918 -0.230553 2.37162
1.99166 -0.129662 1.41825
1.57824 1.77789 3.68314
1.83985 1.51628 3.68314
2.1104 1.1243 3.01062
1.33737 1.89733 3.01062
2.52107 0.272682 1.82962
2.41705 0.307007 1.50873
1.99166 0.828759 1.41825
2.34918 0.697198 2.37162
0.90085 1.82321 1.50873
0.77996 2.01379 1.82962
1.06556 1.98082 2.37162
1.44725 1.37318 1.41825
0.572861 0.307007 1.50873
0.459893 0.272682 1.82962
0.13781 0.697198 2.37162
0.488823 0.828759 1.41825
-0.325142 1.51628 3.68314
-0.325142 1.77789 3.68314
-0.128158 1.89733 3.01062
-0.128159 1.1243 3.01062
0.459893 2.01379 1.82962
0.572861 1.82321 1.50873
0.488823 1.37318 1.41825
0.13781 1.98082 2.37162
2.97949 -0.118652 4
2.97071 0.0234375 4.22656
2.85427 0.0939026 4.64008
2.8212 -0.299988 3.99951
2.63983 0.203812 4.98059
2.3547 0.342148 5.26099
1.95633 -0.388275 3.99243
2.46115 -0.383149 3.9939
1.15576 0.922364 5.99023
0.921386 0.922364 5.99023
0.762085 0.770416 5.91376
1.46334 0.770416 5.91376
0.591202 0.619554 5.74677
0.423264 0.475297 5.50409
2.07542 0.475297 5.50409
1.77507 0.619554 5.74677
-0.0117188 0.0234375 4.22656
0.13916 -0.118652 4
0.478913 -0.299988 3.99951
0.00976568 0.0939026 4.64008
0.923525 -0.383149 3.9939
1.43384 -0.388275 3.99243
0.264145 0.342148 5.26099
0.108902 0.203812 4.98059
0.13916 2.97949 4
-0.0117188 3.00586 4.22656
0.00976568 2.93841 4.64008
0.478913 2.82096 3.99951
0.108902 2.73475 4.98059
0.264145 2.43271 5.26099
1.43384 1.95254 3.99243
0.923525 2.4581 3.9939
0.423264 2.12746 5.50409
0.591202 1.80342 5.74677
0.762085 1.47166 5.91376
0.921386 1.15674 5.99023
2.97949 0.13916 4
2.8212 0.478668 3.99951
2.46115 0.920473 3.9939
1.95633 1.43006 3.99243
-0.118652 2.97949 4
-0.299744 2.82096 3.99951
-0.380097 2.4581 3.9939
-0.384491 1.95254 3.99243
-0.384491 1.43006 3.99243
-0.380097 0.920473 3.9939
-0.299744 0.478668 3.99951
-0.118652 0.13916 4
1.41846 0.425293 0.0253905
1.65283 0.425293 0.0253905
1.93761 0.296143 0.222473
1.23636 0.296143 0.222473
2.19759 0.197037 0.676575
2.42543 0.12529 1.30402
0.77327 0.12529 1.30402
1.01372 0.197037 0.676575
2.63095 0.0659027 1.94605
2.83753 0.00611871 2.60828
2.97222 -0.0240477 3.22467
3.00977 -0.015625 3.75781
0.0273438 -0.015625 3.75781
0.127716 -0.0240477 3.22467
0.306594 0.00611871 2.60828
0.540389 0.0659027 1.94605
1.41846 0.659668 0.0253905
1.23636 0.997393 0.222473
1.01372 1.38091 0.676575
0.77327 1.77745 1.30402
0.540389 2.15647 1.94605
0.306594 2.53705 2.60828
0.127716 2.82045 3.22467
0.0273438 2.9668 3.75781
3 195 196 194
3 198 199 197
3 201 202 200
3 204 205 203
3 207 208 206
3 210 211 209
3 213 214 212
3 216 217 215
3 219 220 218
3 222 223 221
3 225 226 224
3 228 229 227
3 231 232 230
3 234 235 233
3 237 238 236
3 240 241 239
3 243 244 242
3 246 247 245
3 249 250 248
3 252 253 251
3 255 256 254
3 258 259 257
3 261 262 260
3 264 265 263
3 267 268 266
3 270 271 269
3 273 274 272
3 276 277 275
3 279 280 278
3 282 283 281
3 285 286 284
3 288 289 287
3 291 292 290
3 294 295 293
3 297 298 296
3 300 301 299
3 303 304 302
3 306 307 305
3 309 310 308
3 312 313 311
3 315 316 314
3 318 319 317
3 321 322 320
3 324 325 323
3 327 328 326
3 330 331 329
3 333 334 332
3 336 337 335
3 339 340 338
3 342 343 341
3 345 346 344
3 348 349 347
3 351 352 350
3 354 355 353
3 357 358 356
3 360 361 359
3 363 364 362
3 366 367 365
3 369 370 368
3 372 373 371
3 375 376 374
3 378 379 377
3 381 382 380
3 384 385 383
3 387 388 386
3 390 391 389
3 393 394 392
3 396 397 395
3 399 400 398
3 402 403 401
3 405 406 404
3 408 409 407
3 411 412 410
3 414 415 413
3 417 418 416
3 420 421 419
3 423 424 422
3 426 427 425
3 429 430 428
3 432 433 431
3 435 436 434
3 438 439 437
3 441 442 440
3 444 445 443
3 447 448 446
3 450 451 449
3 453 454 452
3 456 457 455
3 459 460 458
3 462 463 461
3 465 466 464
3 468 469 467
3 471 472 470
3 474 475 473
3 477 478 476
3 480 481 479
3 482 483 194
3 484 485 195
3 486 487 196
3 488 489 197
3 490 491 198
3 492 493 199
3 494 495 200
3 496 497 201
3 498 499 202
3 500 501 203
3 502 503 204
3 504 505 205
3 506 507 206
3 508 509 207
3 510 511 208
3 512 513 209
3 514 515 210
3 516 517 211
3 518 519 212
3 520 521 213
3 522 523 214
3 524 525 215
3 526 527 216
3 528 529 217
3 530 531 218
3 532 533 219
3 534 535 220
3 536 537 221
3 538 539 222
3 540 541 223
3 542 543 224
3 544 545 225
3 546 547 226
3 548 549 227
3 550 551 228
3 552 553 229
3 554 555 230
3 556 557 231
3 558 559 232
3 560 561 233
3 562 563 234
3 564 565 235
3 566 567 236
3 568 569 237
3 570 571 238
3 572 573 239
3 574 575 240
3 576 577 241
3 578 579 242
3 580 581 243
3 582 583 244
3 584 585 245
3 586 587 246
3 588 589 247
3 590 591 248
3 592 593 249
3 594 595 250
3 596 597 251
3 598 599 252
3 600 601 253
3 602 603 254
3 604 605 255
3 606 607 256
3 608 609 257
3 610 611 258
3 612 613 259
3 614 615 260
3 616 617 261
3 618 619 262
3 620 621 263
3 622 623 264
3 624 625 265
3 626 627 266
3 267 628 486
3 485 629 268
3 630 631 269
3 270 632 482
3 487 633 271
3 634 635 272
3 273 636 484
3 483 637 274
3 638 639 275
3 276 640 492
3 491 641 277
3 642 643 278
3 279 644 488
3 493 645 280
3 646 647 281
3 282 648 490
3 489 649 283
3 650 651 284
3 285 652 498
3 497 653 286
3 654 655 287
3 288 656 494
3 499 657 289
3 658 659 290
3 291 660 496
3 495 661 292
3 662 663 293
3 294 664 504
3 503 665 295
3 666 667 296
3 297 668 500
3 505 669 298
3 670 671 299
3 300 672 502
3 501 673 301
3 674 675 302
3 303 676 510
3 509 677 304
3 678 679 305
3 306 680 506
3 511 681 307
3 682 683 308
3 309 684 508
3 507 685 310
3 686 687 311
3 312 688 516
3 515 689 313
3 690 691 314
3 315 692 512
3 517 693 316
3 694 695 317
3 318 696 514
3 513 697 319
3 698 699 320
3 321 700 522
3 521 701 322
3 523 702 323
3 324 703 634
3 325 637 518
3 631 704 326
3 327 705 520
3 519 632 328
3 706 707 329
3 330 708 528
3 527 709 331
3 529 710 332
3 333 711 626
3 334 629 524
3 635 712 335
3 336 713 526
3 525 636 337
3 714 715 338
3 339 716 534
3 533 717 340
3 535 718 341
3 342 719 630
3 343 633 530
3 627 720 344
3 345 721 532
3 531 628 346
3 722 723 347
3 348 724 540
3 539 725 349
3 541 726 350
3 351 727 646
3 352 649 536
3 643 728 353
3 354 729 538
3 537 644 355
3 647 730 356
3 357 731 546
3 545 648 358
3 547 732 359
3 360 733 706
3 361 709 542
3 543 713 362
3 363 712 638
3 364 641 544
3 699 734 365
3 366 735 552
3 551 700 367
3 553 736 368
3 369 737 642
3 370 645 548
3 639 703 371
3 372 702 550
3 549 640 373
3 723 738 374
3 375 739 558
3 557 724 376
3 559 740 377
3 378 741 658
3 379 661 554
3 655 727 380
3 381 726 556
3 555 656 382
3 659 742 383
3 384 743 564
3 563 660 385
3 565 744 386
3 387 745 714
3 388 717 560
3 561 721 389
3 390 720 650
3 391 653 562
3 707 733 392
3 393 732 570
3 569 708 394
3 571 731 395
3 396 730 654
3 397 657 566
3 651 711 398
3 399 710 568
3 567 652 400
3 746 747 401
3 402 748 576
3 575 749 403
3 577 750 404
3 405 751 670
3 406 673 572
3 667 752 407
3 408 753 574
3 573 668 409
3 671 754 410
3 411 755 582
3 581 672 412
3 583 756 413
3 414 757 698
3 415 701 578
3 579 705 416
3 417 704 662
3 418 665 580
3 715 758 419
3 420 759 588
3 587 716 421
3 589 760 422
3 423 761 666
3 424 669 584
3 663 719 425
3 426 718 586
3 585 664 427
3 747 762 428
3 429 763 594
3 593 748 430
3 595 764 431
3 432 765 682
3 433 685 590
3 679 751 434
3 435 750 592
3 591 680 436
3 683 766 437
3 438 767 600
3 599 684 439
3 601 768 440
3 441 769 722
3 442 725 596
3 597 729 443
3 444 728 674
3 445 677 598
3 734 757 446
3 447 756 606
3 605 735 448
3 607 755 449
3 450 754 678
3 451 681 602
3 675 737 452
3 453 736 604
3 603 676 454
3 738 769 455
3 456 768 612
3 611 739 457
3 613 767 458
3 459 766 694
3 460 697 608
3 691 741 461
3 462 740 610
3 609 692 463
3 695 765 464
3 465 764 618
3 617 696 466
3 619 763 467
3 468 762 746
3 469 749 614
3 615 753 470
3 471 752 686
3 472 689 616
3 687 761 473
3 474 760 624
3 623 688 475
3 625 759 476
3 477 758 745
3 478 744 620
3 621 743 479
3 480 742 690
3 481 693 622
3 196 195 50
3 194 196 51
3 195 194 52
3 199 198 53
3 197 199 54
3 198 197 55
3 202 201 56
3 200 202 57
3 201 200 58
3 205 204 59
3 203 205 60
3 204 203 61
3 208 207 62
3 206 208 63
3 207 206 64
3 211 210 65
3 209 211 66
3 210 209 67
3 214 213 68
3 212 214 69
3 213 212 70
3 217 216 71
3 215 217 72
3 216 215 73
3 220 219 74
3 218 220 75
3 219 218 76
3 223 222 77
3 221 223 78
3 222 221 79
3 226 225 80
3 224 226 81
3 225 224 82
3 229 228 83
3 227 229 84
3 228 227 85
3 232 231 86
3 230 232 87
3 231 230 88
3 235 234 89
3 233 235 90
3 234 233 91
3 238 237 92
3 236 238 93
3 237 236 94
3 241 240 95
3 239 241 96
3 240 239 97
3 244 243 98
3 242 244 99
3 243 242 100
3 247 246 101
3 245 247 102
3 246 245 103
3 250 249 104
3 248 250 105
3 249 248 106
3 253 252 107
3 251 253 108
3 252 251 109
3 256 255 110
3 254 256 111
3 255 254 112
3 259 258 113
3 257 259 114
3 258 257 115
3 262 261 116
3 260 262 117
3 261 260 118
3 265 264 119
3 263 265 120
3 264 263 121
3 268 267 50
3 266 268 122
3 267 266 123
3 271 270 51
3 269 271 124
3 270 269 125
3 274 273 52
3 272 274 126
3 273 272 127
3 277 276 53
3 275 277 128
3 276 275 129
3 280 279 54
3 278 280 130
3 279 278 131
3 283 282 55
3 281 283 132
3 282 281 133
3 286 285 56
3 284 286 134
3 285 284 135
3 289 288 57
3 287 289 136
3 288 287 137
3 292 291 58
3 290 292 138
3 291 290 139
3 295 294 59
3 293 295 140
3 294 293 141
3 298 297 60
3 296 298 142
3 297 296 143
3 301 300 61
3 299 301 144
3 300 299 145
3 304 303 62
3 302 304 146
3 303 302 147
3 307 306 63
3 305 307 148
3 306 305 149
3 310 309 64
3 308 310 150
3 309 308 151
3 313 312 65
3 311 313 152
3 312 311 153
3 316 315 66
3 314 316 154
3 315 314 155
3 319 318 67
3 317 319 156
3 318 317 157
3 322 321 68
3 320 322 158
3 321 320 159
3 325 324 126
3 323 325 69
3 324 323 160
3 328 327 70
3 326 328 125
3 327 326 161
3 331 330 71
3 329 331 162
3 330 329 163
3 334 333 122
3 332 334 72
3 333 332 164
3 337 336 73
3 335 337 127
3 336 335 165
3 340 339 74
3 338 340 166
3 339 338 167
3 343 342 124
3 341 343 75
3 342 341 168
3 346 345 76
3 344 346 123
3 345 344 169
3 349 348 77
3 347 349 170
3 348 347 171
3 352 351 132
3 350 352 78
3 351 350 172
3 355 354 79
3 353 355 131
3 354 353 173
3 358 357 80
3 356 358 133
3 357 356 174
3 361 360 162
3 359 361 81
3 360 359 175
3 364 363 128
3 362 364 82
3 363 362 165
3 367 366 83
3 365 367 159
3 366 365 176
3 370 369 130
3 368 370 84
3 369 368 177
3 373 372 85
3 371 373 129
3 372 371 160
3 376 375 86
3 374 376 171
3 375 374 178
3 379 378 138
3 377 379 87
3 378 377 179
3 382 381 88
3 380 382 137
3 381 380 172
3 385 384 89
3 383 385 139
3 384 383 180
3 388 387 166
3 386 388 90
3 387 386 181
3 391 390 134
3 389 391 91
3 390 389 169
3 394 393 92
3 392 394 163
3 393 392 175
3 397 396 136
3 395 397 93
3 396 395 174
3 400 399 94
3 398 400 135
3 399 398 164
3 403 402 95
3 401 403 182
3 402 401 183
3 406 405 144
3 404 406 96
3 405 404 184
3 409 408 97
3 407 409 143
3 408 407 185
3 412 411 98
3 410 412 145
3 411 410 186
3 415 414 158
3 413 415 99
3 414 413 187
3 418 417 140
3 416 418 100
3 417 416 161
3 421 420 101
3 419 421 167
3 420 419 188
3 424 423 142
3 422 424 102
3 423 422 189
3 427 426 103
3 425 427 141
3 426 425 168
3 430 429 104
3 428 430 183
3 429 428 190
3 433 432 150
3 431 433 105
3 432 431 191
3 436 435 106
3 434 436 149
3 435 434 184
3 439 438 107
3 437 439 151
3 438 437 192
3 442 441 170
3 440 442 108
3 441 440 193
3 445 444 146
3 443 445 109
3 444 443 173
3 448 447 110
3 446 448 176
3 447 446 187
3 451 450 148
3 449 451 111
3 450 449 186
3 454 453 112
3 452 454 147
3 453 452 177
3 457 456 113
3 455 457 178
3 456 455 193
3 460 459 156
3 458 460 114
3 459 458 192
3 463 462 115
3 461 463 155
3 462 461 179
3 466 465 116
3 464 466 157
3 465 464 191
3 469 468 182
3 467 469 117
3 468 467 190
3 472 471 152
3 470 472 118
3 471 470 185
3 475 474 119
3 473 475 153
3 474 473 189
3 478 477 181
3 476 478 120
3 477 476 188
3 481 480 154
3 479 481 121
3 480 479 180
3 483 482 14
3 194 483 52
3 482 194 51
3 485 484 15
3 195 485 50
3 484 195 52
3 487 486 16
3 196 487 51
3 486 196 50
3 489 488 17
3 197 489 55
3 488 197 54
3 491 490 18
3 198 491 53
3 490 198 55
3 493 492 19
3 199 493 54
3 492 199 53
3 495 494 20
3 200 495 58
3 494 200 57
3 497 496 21
3 201 497 56
3 496 201 58
3 499 498 22
3 202 499 57
3 498 202 56
3 501 500 23
3 203 501 61
3 500 203 60
3 503 502 24
3 204 503 59
3 502 204 61
3 505 504 25
3 205 505 60
3 504 205 59
3 507 506 26
3 206 507 64
3 506 206 63
3 509 508 27
3 207 509 62
3 508 207 64
3 511 510 28
3 208 511 63
3 510 208 62
3 513 512 29
3 209 513 67
3 512 209 66
3 515 514 30
3 210 515 65
3 514 210 67
3 517 516 31
3 211 517 66
3 516 211 65
3 519 518 14
3 212 519 70
3 518 212 69
3 521 520 32
3 213 521 68
3 520 213 70
3 523 522 33
3 214 523 69
3 522 214 68
3 525 524 15
3 215 525 73
3 524 215 72
3 527 526 34
3 216 527 71
3 526 216 73
3 529 528 35
3 217 529 72
3 528 217 71
3 531 530 16
3 218 531 76
3 530 218 75
3 533 532 36
3 219 533 74
3 532 219 76
3 535 534 37
3 220 535 75
3 534 220 74
3 537 536 17
3 221 537 79
3 536 221 78
3 539 538 38
3 222 539 77
3 538 222 79
3 541 540 39
3 223 541 78
3 540 223 77
3 543 542 34
3 224 543 82
3 542 224 81
3 545 544 18
3 225 545 80
3 544 225 82
3 547 546 40
3 226 547 81
3 546 226 80
3 549 548 19
3 227 549 85
3 548 227 84
3 551 550 33
3 228 551 83
3 550 228 85
3 553 552 41
3 229 553 84
3 552 229 83
3 555 554 20
3 230 555 88
3 554 230 87
3 557 556 39
3 231 557 86
3 556 231 88
3 559 558 42
3 232 559 87
3 558 232 86
3 561 560 36
3 233 561 91
3 560 233 90
3 563 562 21
3 234 563 89
3 562 234 91
3 565 564 43
3 235 565 90
3 564 235 89
3 567 566 22
3 236 567 94
3 566 236 93
3 569 568 35
3 237 569 92
3 568 237 94
3 571 570 40
3 238 571 93
3 570 238 92
3 573 572 23
3 239 573 97
3 572 239 96
3 575 574 44
3 240 575 95
3 574 240 97
3 577 576 45
3 241 577 96
3 576 241 95
3 579 578 32
3 242 579 100
3 578 242 99
3 581 580 24
3 243 581 98
3 580 243 100
3 583 582 46
3 244 583 99
3 582 244 98
3 585 584 25
3 245 585 103
3 584 245 102
3 587 586 37
3 246 587 101
3 586 246 103
3 589 588 47
3 247 589 102
3 588 247 101
3 591 590 26
3 248 591 106
3 590 248 105
3 593 592 45
3 249 593 104
3 592 249 106
3 595 594 48
3 250 595 105
3 594 250 104
3 597 596 38
3 251 597 109
3 596 251 108
3 599 598 27
3 252 599 107
3 598 252 109
3 601 600 49
3 253 601 108
3 600 253 107
3 603 602 28
3 254 603 112
3 602 254 111
3 605 604 41
3 255 605 110
3 604 255 112
3 607 606 46
3 256 607 111
3 606 256 110
3 609 608 29
3 257 609 115
3 608 257 114
3 611 610 42
3 258 611 113
3 610 258 115
3 613 612 49
3 259 613 114
3 612 259 113
3 615 614 44
3 260 615 118
3 614 260 117
3 617 616 30
3 261 617 116
3 616 261 118
3 619 618 48
3 262 619 117
3 618 262 116
3 621 620 43
3 263 621 121
3 620 263 120
3 623 622 31
3 264 623 119
3 622 264 121
3 625 624 47
3 265 625 120
3 624 265 119
3 627 626 5
3 266 627 123
3 626 266 122
3 628 267 123
3 486 628 16
3 267 486 50
3 629 485 15
3 268 629 122
3 485 268 50
3 631 630 6
3 269 631 125
3 630 269 124
3 632 270 125
3 482 632 14
3 270 482 51
3 633 487 16
3 271 633 124
3 487 271 51
3 635 634 7
3 272 635 127
3 634 272 126
3 636 273 127
3 484 636 15
3 273 484 52
3 637 483 14
3 274 637 126
3 483 274 52
3 639 638 7
3 275 639 129
3 638 275 128
3 640 276 129
3 492 640 19
3 276 492 53
3 641 491 18
3 277 641 128
3 491 277 53
3 643 642 8
3 278 643 131
3 642 278 130
3 644 279 131
3 488 644 17
3 279 488 54
3 645 493 19
3 280 645 130
3 493 280 54
3 647 646 9
3 281 647 133
3 646 281 132
3 648 282 133
3 490 648 18
3 282 490 55
3 649 489 17
3 283 649 132
3 489 283 55
3 651 650 5
3 284 651 135
3 650 284 134
3 652 285 135
3 498 652 22
3 285 498 56
3 653 497 21
3 286 653 134
3 497 286 56
3 655 654 9
3 287 655 137
3 654 287 136
3 656 288 137
3 494 656 20
3 288 494 57
3 657 499 22
3 289 657 136
3 499 289 57
3 659 658 10
3 290 659 139
3 658 290 138
3 660 291 139
3 496 660 21
3 291 496 58
3 661 495 20
3 292 661 138
3 495 292 58
3 663 662 6
3 293 663 141
3 662 293 140
3 664 294 141
3 504 664 25
3 294 504 59
3 665 503 24
3 295 665 140
3 503 295 59
3 667 666 11
3 296 667 143
3 666 296 142
3 668 297 143
3 500 668 23
3 297 500 60
3 669 505 25
3 298 669 142
3 505 298 60
3 671 670 12
3 299 671 145
3 670 299 144
3 672 300 145
3 502 672 24
3 300 502 61
3 673 501 23
3 301 673 144
3 501 301 61
3 675 674 8
3 302 675 147
3 674 302 146
3 676 303 147
3 510 676 28
3 303 510 62
3 677 509 27
3 304 677 146
3 509 304 62
3 679 678 12
3 305 679 149
3 678 305 148
3 680 306 149
3 506 680 26
3 306 506 63
3 681 511 28
3 307 681 148
3 511 307 63
3 683 682 13
3 308 683 151
3 682 308 150
3 684 309 151
3 508 684 27
3 309 508 64
3 685 507 26
3 310 685 150
3 507 310 64
3 687 686 11
3 311 687 153
3 686 311 152
3 688 312 153
3 516 688 31
3 312 516 65
3 689 515 30
3 313 689 152
3 515 313 65
3 691 690 10
3 314 691 155
3 690 314 154
3 692 315 155
3 512 692 29
3 315 512 66
3 693 517 31
3 316 693 154
3 517 316 66
3 695 694 13
3 317 695 157
3 694 317 156
3 696 318 157
3 514 696 30
3 318 514 67
3 697 513 29
3 319 697 156
3 513 319 67
3 699 698 1
3 320 699 159
3 698 320 158
3 700 321 159
3 522 700 33
3 321 522 68
3 701 521 32
3 322 701 158
3 521 322 68
3 702 523 33
3 323 702 160
3 523 323 69
3 703 324 160
3 634 703 7
3 324 634 126
3 637 325 126
3 518 637 14
3 325 518 69
3 704 631 6
3 326 704 161
3 631 326 125
3 705 327 161
3 520 705 32
3 327 520 70
3 632 519 14
3 328 632 125
3 519 328 70
3 707 706 0
3 329 707 163
3 706 329 162
3 708 330 163
3 528 708 35
3 330 528 71
3 709 527 34
3 331 709 162
3 527 331 71
3 710 529 35
3 332 710 164
3 529 332 72
3 711 333 164
3 626 711 5
3 333 626 122
3 629 334 122
3 524 629 15
3 334 524 72
3 712 635 7
3 335 712 165
3 635 335 127
3 713 336 165
3 526 713 34
3 336 526 73
3 636 525 15
3 337 636 127
3 525 337 73
3 715 714 2
3 338 715 167
3 714 338 166
3 716 339 167
3 534 716 37
3 339 534 74
3 717 533 36
3 340 717 166
3 533 340 74
3 718 535 37
3 341 718 168
3 535 341 75
3 719 342 168
3 630 719 6
3 342 630 124
3 633 343 124
3 530 633 16
3 343 530 75
3 720 627 5
3 344 720 169
3 627 344 123
3 721 345 169
3 532 721 36
3 345 532 76
3 628 531 16
3 346 628 123
3 531 346 76
3 723 722 3
3 347 723 171
3 722 347 170
3 724 348 171
3 540 724 39
3 348 540 77
3 725 539 38
3 349 725 170
3 539 349 77
3 726 541 39
3 350 726 172
3 541 350 78
3 727 351 172
3 646 727 9
3 351 646 132
3 649 352 132
3 536 649 17
3 352 536 78
3 728 643 8
3 353 728 173
3 643 353 131
3 729 354 173
3 538 729 38
3 354 538 79
3 644 537 17
3 355 644 131
3 537 355 79
3 730 647 9
3 356 730 174
3 647 356 133
3 731 357 174
3 546 731 40
3 357 546 80
3 648 545 18
3 358 648 133
3 545 358 80
3 732 547 40
3 359 732 175
3 547 359 81
3 733 360 175
3 706 733 0
3 360 706 162
3 709 361 162
3 542 709 34
3 361 542 81
3 713 543 34
3 362 713 165
3 543 362 82
3 712 363 165
3 638 712 7
3 363 638 128
3 641 364 128
3 544 641 18
3 364 544 82
3 734 699 1
3 365 734 176
3 699 365 159
3 735 366 176
3 552 735 41
3 366 552 83
3 700 551 33
3 367 700 159
3 551 367 83
3 736 553 41
3 368 736 177
3 553 368 84
3 737 369 177
3 642 737 8
3 369 642 130
3 645 370 130
3 548 645 19
3 370 548 84
3 703 639 7
3 371 703 160
3 639 371 129
3 702 372 160
3 550 702 33
3 372 550 85
3 640 549 19
3 373 640 129
3 549 373 85
3 738 723 3
3 374 738 178
3 723 374 171
3 739 375 178
3 558 739 42
3 375 558 86
3 724 557 39
3 376 724 171
3 557 376 86
3 740 559 42
3 377 740 179
3 559 377 87
3 741 378 179
3 658 741 10
3 378 658 138
3 661 379 138
3 554 661 20
3 379 554 87
3 727 655 9
3 380 727 172
3 655 380 137
3 726 381 172
3 556 726 39
3 381 556 88
3 656 555 20
3 382 656 137
3 555 382 88
3 742 659 10
3 383 742 180
3 659 383 139
3 743 384 180
3 564 743 43
3 384 564 89
3 660 563 21
3 385 660 139
3 563 385 89
3 744 565 43
3 386 744 181
3 565 386 90
3 745 387 181
3 714 745 2
3 387 714 166
3 717 388 166
3 560 717 36
3 388 560 90
3 721 561 36
3 389 721 169
3 561 389 91
3 720 390 169
3 650 720 5
3 390 650 134
3 653 391 134
3 562 653 21
3 391 562 91
3 733 707 0
3 392 733 175
3 707 392 163
3 732 393 175
3 570 732 40
3 393 570 92
3 708 569 35
3 394 708 163
3 569 394 92
3 731 571 40
3 395 731 174
3 571 395 93
3 730 396 174
3 654 730 9
3 396 654 136
3 657 397 136
3 566 657 22
3 397 566 93
3 711 651 5
3 398 711 164
3 651 398 135
3 710 399 164
3 568 710 35
3 399 568 94
3 652 567 22
3 400 652 135
3 567 400 94
3 747 746 4
3 401 747 183
3 746 401 182
3 748 402 183
3 576 748 45
3 402 576 95
3 749 575 44
3 403 749 182
3 575 403 95
3 750 577 45
3 404 750 184
3 577 404 96
3 751 405 184
3 670 751 12
3 405 670 144
3 673 406 144
3 572 673 23
3 406 572 96
3 752 667 11
3 407 752 185
3 667 407 143
3 753 408 185
3 574 753 44
3 408 574 97
3 668 573 23
3 409 668 143
3 573 409 97
3 754 671 12
3 410 754 186
3 671 410 145
3 755 411 186
3 582 755 46
3 411 582 98
3 672 581 24
3 412 672 145
3 581 412 98
3 756 583 46
3 413 756 187
3 583 413 99
3 757 414 187
3 698 757 1
3 414 698 158
3 701 415 158
3 578 701 32
3 415 578 99
3 705 579 32
3 416 705 161
3 579 416 100
3 704 417 161
3 662 704 6
3 417 662 140
3 665 418 140
3 580 665 24
3 418 580 100
3 758 715 2
3 419 758 188
3 715 419 167
3 759 420 188
3 588 759 47
3 420 588 101
3 716 587 37
3 421 716 167
3 587 421 101
3 760 589 47
3 422 760 189
3 589 422 102
3 761 423 189
3 666 761 11
3 423 666 142
3 669 424 142
3 584 669 25
3 424 584 102
3 719 663 6
3 425 719 168
3 663 425 141
3 718 426 168
3 586 718 37
3 426 586 103
3 664 585 25
3 427 664 141
3 585 427 103
3 762 747 4
3 428 762 190
3 747 428 183
3 763 429 190
3 594 763 48
3 429 594 104
3 748 593 45
3 430 748 183
3 593 430 104
3 764 595 48
3 431 764 191
3 595 431 105
3 765 432 191
3 682 765 13
3 432 682 150
3 685 433 150
3 590 685 26
3 433 590 105
3 751 679 12
3 434 751 184
3 679 434 149
3 750 435 184
3 592 750 45
3 435 592 106
3 680 591 26
3 436 680 149
3 591 436 106
3 766 683 13
3 437 766 192
3 683 437 151
3 767 438 192
3 600 767 49
3 438 600 107
3 684 599 27
3 439 684 151
3 599 439 107
3 768 601 49
3 440 768 193
3 601 440 108
3 769 441 193
3 722 769 3
3 441 722 170
3 725 442 170
3 596 725 38
3 442 596 108
3 729 597 38
3 443 729 173
3 597 443 109
3 728 444 173
3 674 728 8
3 444 674 146
3 677 445 146
3 598 677 27
3 445 598 109
3 757 734 1
3 446 757 187
3 734 446 176
3 756 447 187
3 606 756 46
3 447 606 110
3 735 605 41
3 448 735 176
3 605 448 110
3 755 607 46
3 449 755 186
3 607 449 111
3 754 450 186
3 678 754 12
3 450 678 148
3 681 451 148
3 602 681 28
3 451 602 111
3 737 675 8
3 452 737 177
3 675 452 147
3 736 453 177
3 604 736 41
3 453 604 112
3 676 603 28
3 454 676 147
3 603 454 112
3 769 738 3
3 455 769 193
3 738 455 178
3 768 456 193
3 612 768 49
3 456 612 113
3 739 611 42
3 457 739 178
3 611 457 113
3 767 613 49
3 458 767 192
3 613 458 114
3 766 459 192
3 694 766 13
3 459 694 156
3 697 460 156
3 608 697 29
3 460 608 114
3 741 691 10
3 461 741 179
3 691 461 155
3 740 462 179
3 610 740 42
3 462 610 115
3 692 609 29
3 463 692 155
3 609 463 115
3 765 695 13
3 464 765 191
3 695 464 157
3 764 465 191
3 618 764 48
3 465 618 116
3 696 617 30
3 466 696 157
3 617 466 116
3 763 619 48
3 467 763 190
3 619 467 117
3 762 468 190
3 746 762 4
3 468 746 182
3 749 469 182
3 614 749 44
3 469 614 117
3 753 615 44
3 470 753 185
3 615 470 118
3 752 471 185
3 686 752 11
3 471 686 152
3 689 472 152
3 616 689 30
3 472 616 118
3 761 687 11
3 473 761 189
3 687 473 153
3 760 474 189
3 624 760 47
3 474 624 119
3 688 623 31
3 475 688 153
3 623 475 119
3 759 625 47
3 476 759 188
3 625 476 120
3 758 477 188
3 745 758 2
3 477 745 181
3 744 478 181
3 620 744 43
3 478 620 120
3 743 621 43
3 479 743 180
3 621 479 121
3 742 480 180
3 690 742 10
3 480 690 154
3 693 481 154
3 622 693 31
3 481 622 121
