ply
format ascii 1.0
element vertex 20
property float x
property float y
property float z
element face 18
property list uchar int vertex_indices
end_header
1 1 4.88889
2.01042 0.46875 3.79167
0.572917 0.46875 3.79167
0.572917 1.90625 3.79167
1.22222 0.777778 2.22222
0.666667 0.666667 4.83333
1.45833 0.125 3.83333
1.66667 0.666667 4.83333
1.45833 1.375 3.83333
0.666667 1.66667 4.83333
0.208333 1.375 3.83333
0.875 0.458333 2.33333
1.875 0.458333 2.33333
0.875 1.45833 2.33333
1.33333 0.333333 4.66667
1.33333 1.33333 4.66667
0.333333 1.33333 4.66667
1.5 0.166667 2.66667
1.5 1.16667 2.66667
0.5 1.16667 2.66667
4 7 14 6 1
4 9 15 8 3
4 10 16 9 3
4 12 17 11 4
4 13 18 12 4
4 13 19 10 3
4 0 5 14 7
4 2 6 14 5
4 0 7 15 9
4 1 8 15 7
4 2 5 16 10
4 0 9 16 5
4 1 6 17 12
4 2 11 17 6
4 3 8 18 13
4 1 12 18 8
4 4 11 19 13
4 2 10 19 11
