ply
format ascii 1.0
element vertex 650
property float x
property float y
property float z
element face 648
property list uchar int vertex_indices
end_header
1.00459 1 4.84308
1.8729 0.549812 3.70415
0.644063 0.531577 3.77409
0.739453 1.69954 3.66535
1.1157 0.825964 2.31883
0.729999 0.729822 4.68622
1.44108 0.23825 3.86745
1.57765 0.660831 4.64844
1.36791 1.34661 3.86745
0.719353 1.57606 4.64321
0.335207 1.36611 3.78928
0.967518 0.520087 2.49224
1.68984 0.554173 2.44118
0.909147 1.35513 2.52425
1.23642 0.432837 4.57976
1.33793 1.22205 4.57976
0.44323 1.21952 4.57108
1.44896 0.257026 2.87456
1.44028 1.15643 2.87456
0.599333 1.06993 2.75426
1.43565 0.537223 4.67932
1.33833 0.304494 4.26059
1.55909 0.395544 4.30455
1.70454 0.346491 3.83413
1.74818 0.599809 4.26651
1.02793 1.42848 4.67938
1.37951 1.29364 4.26059
1.0645 1.51528 4.30461
1.00497 1.59839 3.8269
0.670892 1.69712 4.17987
0.346835 1.27704 4.22098
0.527108 1.43085 4.66213
0.45506 1.52542 4.32751
0.487377 1.62292 3.75756
1.64828 0.358805 2.63904
1.19741 0.348083 2.62555
1.35641 0.461158 2.38314
1.09652 0.658391 2.32731
1.3919 0.697627 2.29767
1.19169 1.28048 2.62979
1.62917 0.846437 2.62365
1.3828 0.951978 2.38504
1.07666 1.04247 2.32995
0.703865 1.255 2.6131
0.435948 1.20729 3.21464
0.541413 1.41553 3.12306
0.753662 1.5981 3.13343
0.826201 0.858811 4.81419
0.95821 0.554497 4.66231
1.1474 0.663762 4.77232
1.33611 0.811481 4.80625
1.08389 0.300512 3.75045
0.994776 0.401392 4.24089
0.683941 0.613628 4.3816
1.47387 0.962847 4.6733
1.18955 1.14599 4.77232
0.849787 1.33579 4.80632
1.67255 0.97015 3.74802
1.64167 0.922307 4.2435
0.551675 0.950048 4.63841
0.467416 0.919956 4.26897
0.401554 1.00104 3.8154
0.67194 1.15966 4.77891
1.46335 0.218901 3.34607
1.71036 0.315438 3.22224
1.83658 0.496697 2.97202
0.764191 0.526423 3.01792
1.06613 0.319165 3.21106
1.41342 1.27203 3.34607
1.06524 1.50078 3.20997
1.72602 0.843606 3.20937
0.743232 0.79112 2.58812
0.866731 0.963742 2.43552
0.549103 0.834717 3.1985
1.47199 0.401458 4.46497
1.68027 0.426331 4.16659
1.1365 1.44654 4.46503
0.920401 1.61956 4.16202
0.403838 1.4315 4.40578
0.493197 1.62189 4.15475
1.43708 0.368624 2.48402
1.32044 0.565421 2.32072
1.38244 1.05953 2.48865
1.31662 0.90624 2.32261
0.560944 1.31423 2.90668
0.565256 1.54736 3.29713
0.979383 0.694749 4.78711
1.30231 0.672963 4.78027
1.11306 0.32042 4.06064
0.869777 0.492132 4.39768
1.32807 0.974502 4.78596
1.02537 1.30102 4.78027
1.60032 1.04561 4.05821
1.63666 0.839756 4.45363
0.550376 0.79673 4.40475
0.396814 1.03639 4.10848
0.692844 1.32468 4.78626
0.658041 0.993683 4.76974
1.65355 0.275022 3.48391
1.7706 0.37163 2.97895
0.962802 0.387997 2.95589
1.2171 0.253565 3.42408
1.15849 1.48641 3.4813
1.01204 1.47008 2.90293
1.78867 0.681652 2.95072
1.61752 1.04072 3.42408
0.894606 0.782755 2.41134
0.851492 1.14023 2.44295
0.437665 0.996406 3.47188
0.671185 0.712012 2.88696
1.52257 0.400492 4.3951
1.41724 0.343084 4.36917
1.46528 0.334172 4.26655
1.38946 0.270978 4.0897
1.51562 0.317274 4.11285
1.72324 0.504369 4.22959
1.69285 0.37526 3.99572
1.74837 0.459547 4.03393
1.78842 0.426496 3.78424
1.80672 0.574716 4.0189
1.09001 1.48948 4.39518
1.25683 1.38293 4.36917
1.22361 1.41916 4.26655
1.37211 1.32436 4.0897
1.19965 1.45052 4.11285
0.792414 1.66902 4.20074
0.97202 1.61114 3.98993
0.833883 1.66629 4.00174
0.870515 1.65987 3.76215
0.686415 1.71014 3.93432
0.420436 1.48247 4.35651
0.455888 1.44188 4.54616
0.491561 1.4978 4.51082
0.603058 1.50462 4.66137
0.56197 1.56075 4.48467
0.471001 1.62215 3.97158
0.57106 1.67105 4.19842
0.560446 1.67642 3.99017
0.595848 1.68092 3.72252
1.40534 0.415472 2.41681
1.32306 0.349802 2.53273
1.26744 0.405069 2.47
1.09416 0.421176 2.54909
1.18231 0.478853 2.4156
1.38313 0.615631 2.30483
1.19807 0.604938 2.31751
1.2506 0.6678 2.30073
1.11451 0.736762 2.31539
1.25321 0.767047 2.29841
1.3748 1.01252 2.4226
1.51186 0.953624 2.53273
1.51978 0.879882 2.46658
1.66833 0.711908 2.532
1.53773 0.769584 2.39851
1.1933 0.989296 2.31988
1.38313 0.789241 2.30483
1.2506 0.869189 2.30073
1.11432 0.924455 2.31693
0.555231 1.36998 2.99793
0.486854 1.27348 3.05575
0.468686 1.3315 3.19727
0.384516 1.27961 3.46553
0.436599 1.39998 3.41924
0.6539 1.58049 3.19469
0.507459 1.58454 3.52945
0.603848 1.62722 3.44618
0.726635 1.6595 3.41001
1.06648 0.683811 4.78739
0.976255 0.617568 4.73942
1.07516 0.592723 4.72749
1.08992 0.494864 4.63127
1.19698 0.552156 4.69686
1.31568 0.750868 4.80504
1.37673 0.594676 4.73549
1.40509 0.670602 4.7537
1.50232 0.589121 4.67438
1.44907 0.748843 4.75154
1.03724 0.362432 4.14576
1.23105 0.29974 4.15891
1.16449 0.346267 4.26848
1.2866 0.357494 4.41185
1.10807 0.405237 4.40606
0.763509 0.547038 4.37184
0.917679 0.514381 4.54356
0.806912 0.580024 4.53272
0.842429 0.629286 4.67132
0.699779 0.666612 4.53745
1.25007 1.06576 4.78739
1.41037 0.967259 4.73798
1.33445 1.0705 4.72749
1.42108 1.0782 4.63127
1.25383 1.19105 4.69686
0.933738 1.3151 4.80504
1.03055 1.3728 4.73549
0.922186 1.40238 4.75378
0.893348 1.49803 4.67477
0.784553 1.44942 4.75194
1.62973 0.978644 4.14273
1.49719 1.17509 4.15891
1.51189 1.11918 4.26848
1.3708 1.2568 4.41185
1.50304 1.07538 4.40606
1.64384 0.879022 4.35645
1.70125 0.72254 4.38237
1.72175 0.744847 4.24226
1.76065 0.745362 4.02498
0.504539 0.84941 4.31976
0.544759 0.877477 4.54198
0.495457 0.953385 4.4718
0.500434 1.07248 4.61671
0.443432 1.06583 4.41339
0.399505 1.00016 3.95479
0.360619 1.16982 4.18052
0.358732 1.15311 4.01093
0.334169 1.31535 4.04076
0.358185 1.16749 3.79886
0.682003 1.24566 4.78768
0.607952 1.3885 4.73951
0.584722 1.30336 4.72894
0.483796 1.33623 4.63387
0.555556 1.20428 4.69715
0.660822 1.07506 4.77794
0.741084 0.920735 4.80066
0.763889 1 4.81044
0.902778 0.916667 4.83153
0.819445 1.08333 4.81765
1.69419 0.297582 3.35424
1.55881 0.23355 3.41094
1.58757 0.255136 3.25052
1.45175 0.231699 3.13223
1.60077 0.278863 3.04543
1.82215 0.432058 2.9969
1.71091 0.354311 2.78901
1.75808 0.42326 2.77571
1.67814 0.436903 2.54521
1.78376 0.518211 2.71998
1.00251 0.353751 3.08674
1.07505 0.361063 2.7745
1.14118 0.321904 2.8978
1.30889 0.298177 2.739
1.24378 0.281105 3.02488
1.14262 0.280527 3.31794
1.15003 0.270804 3.59757
1.04273 0.315267 3.51381
0.896248 0.387967 3.75774
0.876573 0.400698 3.46607
1.11 1.49941 3.35099
1.29674 1.3806 3.41094
1.26336 1.37545 3.25052
1.43483 1.21521 3.13223
1.24877 1.34397 3.04543
1.03354 1.49198 3.05174
0.883646 1.54229 2.9852
0.891464 1.57514 3.1765
0.891059 1.61502 3.4184
1.76862 0.752951 3.0837
1.72278 0.75428 2.77108
1.68197 0.851072 2.8978
1.55454 0.98568 2.739
1.60576 0.982497 3.02488
1.67647 0.943374 3.31794
1.65055 1.00726 3.59757
1.72203 0.882869 3.51078
1.77019 0.788476 3.74257
1.80607 0.71093 3.4509
0.875916 0.871481 2.4212
0.813835 0.782288 2.48775
0.781582 0.886301 2.51707
0.670259 0.914524 2.66715
0.735267 1.01387 2.5707
0.858429 1.05569 2.43557
0.954585 1.11227 2.37775
0.973693 1.01184 2.36786
0.997323 0.902561 2.36401
0.489204 0.910464 3.34715
0.4221 1.10942 3.35352
0.481357 1.02941 3.19116
0.50516 1.13894 2.99749
0.555797 0.957517 2.9917
0.607225 0.769861 3.03492
0.716252 0.609906 2.94232
0.65153 0.656124 3.14229
0.711064 0.522805 3.33066
0.587222 0.688314 3.44177
1.46152 0.458854 4.57639
1.53335 0.507596 4.5514
1.5863 0.507306 4.46421
1.37232 0.396484 4.50974
1.36053 0.47338 4.63464
1.6245 0.414135 4.24122
1.65322 0.53342 4.39795
1.67832 0.627098 4.45727
1.59469 0.281322 3.82957
1.58926 0.327691 4.02025
1.08382 1.44619 4.57646
0.949123 1.5185 4.5518
0.901379 1.56162 4.46461
1.24168 1.35134 4.50974
1.17129 1.35012 4.63464
0.98369 1.57292 4.2413
0.811608 1.62058 4.39256
0.683497 1.65276 4.40558
1.17499 1.4927 3.82957
1.12138 1.51259 4.02025
0.366848 1.36843 4.32542
0.362526 1.41271 4.14609
0.387771 1.46762 4.09429
0.417462 1.35135 4.50974
0.380715 1.2683 4.39941
0.46965 1.5738 4.23452
0.406218 1.51905 3.98405
0.406001 1.51536 3.77485
0.58765 1.62058 4.39256
1.54111 0.356348 2.53896
1.56011 0.441653 2.44172
1.51857 0.49376 2.38607
1.43229 0.308015 2.63831
1.5591 0.302445 2.71615
1.3474 0.514551 2.34457
1.504 0.554621 2.35443
1.53737 0.62773 2.34671
1.02961 0.596547 2.38464
1.15596 0.539641 2.37384
1.07397 1.32035 2.56865
1.28401 1.17657 2.54475
1.18084 1.18686 2.47065
1.17705 1.13176 2.415
1.43229 1.0871 2.63831
1.30259 1.23083 2.71615
1.34263 0.93363 2.34694
1.13211 1.11421 2.38568
1.00576 1.185 2.39648
1.504 0.735175 2.35443
0.78122 1.30711 2.56431
0.632266 1.29026 2.74195
0.699358 1.35237 2.74149
0.692028 1.41236 2.85684
0.555387 1.21342 2.85465
0.647666 1.18625 2.66821
0.55683 1.48469 3.20186
0.713946 1.48347 2.93989
0.815292 1.5009 2.8499
0.443544 1.48172 3.53613
0.90775 0.767958 4.80593
1 0.819445 4.82073
1.09722 0.805556 4.81495
0.869122 0.690267 4.74761
0.788755 0.784234 4.76796
1.22888 0.673669 4.77974
1.18055 0.819445 4.82073
1.19444 0.902778 4.8323
1.2934 0.549769 4.70023
1.09142 0.31097 3.92244
0.902037 0.401856 3.94756
0.833243 0.448948 4.05086
1.27184 0.269821 3.99132
1.24443 0.260489 3.81915
0.918673 0.448644 4.3121
0.756492 0.503996 4.13506
0.65182 0.580024 4.13072
1.03805 0.456163 4.50251
1.32668 0.902372 4.8045
1.18055 1 4.82073
1.09722 1.09722 4.81495
1.53682 0.825882 4.66908
1.45291 0.841507 4.74045
1.09798 1.22784 4.77974
1 1.18055 4.82073
0.902778 1.19444 4.8323
1.15972 1.28762 4.70023
1.64059 1.00566 3.9194
1.73605 0.823198 3.93238
1.49667 1.19517 3.99132
1.54608 1.14243 3.81915
1.56535 0.899088 4.56916
1.51809 1.01346 4.50251
1.6292 0.74783 4.54417
0.604782 0.700629 4.37303
0.574201 0.686288 4.13506
0.525952 0.756239 4.05086
0.630118 0.848252 4.67624
0.621365 0.771647 4.55712
0.431058 0.970982 4.17321
0.488842 0.815051 3.94756
0.494701 0.794434 3.77655
0.398872 1.14106 4.32851
0.767385 1.32686 4.80458
0.819445 1.18055 4.82073
0.685595 1.44942 4.74114
0.602355 0.977347 4.72298
0.558088 1.10771 4.69995
0.695511 0.863878 4.74761
1.68088 0.301025 3.64742
1.76875 0.381936 3.56896
1.80397 0.40588 3.4211
1.44126 0.218605 3.57697
1.55505 0.241826 3.63802
1.75246 0.347495 3.10506
1.83993 0.443278 3.2935
1.86908 0.519595 3.29263
1.63556 0.307436 2.89178
0.86308 0.444631 2.98942
0.825358 0.435131 3.30867
0.973621 0.433208 2.71509
0.857373 0.507499 2.76514
1.33519 0.227691 3.38137
1.30462 0.249638 3.16233
1.30317 0.239511 3.63686
1.09113 1.54356 3.64416
0.954136 1.60287 3.55267
1.41349 1.29456 3.57697
1.27076 1.41978 3.63802
1.10316 1.37767 2.7473
1.2024 1.34477 2.89178
0.947743 1.44238 2.73503
1.82857 0.587741 2.98296
1.83993 0.625571 3.2935
1.75916 0.626718 2.69799
1.52928 1.15087 3.38137
1.56113 1.07386 3.16233
1.52496 1.1679 3.63686
0.982624 0.71564 2.36516
0.998095 0.811512 2.35783
0.827859 0.662014 2.54986
0.910807 0.664714 2.43953
0.773084 1.20732 2.51819
0.733507 1.10967 2.56482
0.884422 1.23863 2.45166
0.421358 0.981764 3.63788
0.519224 0.784667 3.58297
0.376125 1.16922 3.59285
0.700333 0.748569 2.73235
0.618683 0.875534 2.84742
0.795476 0.609038 2.71431
1.47222 0.35243 4.34028
1.45833 0.301967 4.14954
1.72859 0.443866 4.08565
1.79092 0.482863 3.94591
1.19444 1.43403 4.34028
1.26944 1.39884 4.14954
0.860532 1.65683 4.0625
0.792708 1.68715 3.90972
0.453414 1.48119 4.48186
0.555363 1.52476 4.56027
0.530671 1.66493 4.05324
0.601736 1.69525 3.90047
1.32764 0.386478 2.46335
1.17587 0.435475 2.47106
1.27739 0.630015 2.29938
1.21692 0.715953 2.30169
1.47868 0.942034 2.46335
1.58104 0.779171 2.45739
1.27739 0.880015 2.29938
1.21692 0.854842 2.30169
0.494792 1.32986 3.09028
0.423354 1.33989 3.37243
0.583912 1.60706 3.39583
0.631829 1.66053 3.52084
1.04369 0.624132 4.75502
1.12587 0.54103 4.68619
1.37384 0.670139 4.77006
1.45833 0.668519 4.73086
1.14757 0.331597 4.20139
1.18923 0.367708 4.36559
0.82581 0.546875 4.4946
0.782045 0.622179 4.58304
1.33362 1.0408 4.75502
1.33663 1.11881 4.68619
0.957174 1.37153 4.77006
0.860049 1.45676 4.73118
1.54687 1.09549 4.20139
1.46076 1.15382 4.36559
1.69618 0.779513 4.32639
1.77241 0.684252 4.09406
0.507523 0.899883 4.45293
0.476042 1.03692 4.50602
0.365162 1.114 4.04861
0.345807 1.21547 3.9465
0.616898 1.31597 4.75617
0.537963 1.28287 4.68735
0.722222 1 4.80401
0.833333 1 4.82202
1.61487 0.255498 3.32523
1.54705 0.252026 3.13171
1.77025 0.399884 2.84028
1.74645 0.458087 2.67228
1.07813 0.338542 2.90972
1.23484 0.298033 2.88287
1.1059 0.285301 3.47454
0.924405 0.373336 3.58767
1.22772 1.41869 3.32523
1.31962 1.30967 3.13171
0.92882 1.54687 3.07639
0.833218 1.62349 3.33102
1.72743 0.789932 2.90972
1.61331 0.942479 2.88287
1.69271 0.938079 3.47454
1.77356 0.782633 3.57554
0.817225 0.850599 2.47261
0.723167 0.943734 2.58526
0.933642 1.0571 2.38272
1.02595 0.953222 2.34799
0.46007 1.0191 3.28472
0.51223 1.04472 3.05633
0.652199 0.676506 3.04398
0.646629 0.616392 3.32379
1.50926 0.515741 4.60277
1.55122 0.477836 4.4797
1.36082 0.359317 4.43156
1.39583 0.434259 4.57315
1.62645 0.492882 4.38248
1.68779 0.558854 4.37785
1.62182 0.320197 3.94236
1.57899 0.346817 4.11366
0.966531 1.49843 4.60309
0.968558 1.52823 4.48002
1.29381 1.33293 4.43156
1.17778 1.38009 4.57315
0.884066 1.59189 4.3828
0.754437 1.65207 4.35502
1.10133 1.53513 3.94236
1.10712 1.51314 4.11366
0.348412 1.37606 4.16525
0.385449 1.45303 4.18377
0.45 1.38009 4.57315
0.387211 1.33293 4.43156
0.412069 1.51669 4.08655
0.416699 1.54678 3.90599
0.615548 1.65207 4.35502
0.543789 1.59189 4.3828
1.5957 0.412659 2.48825
1.50436 0.45365 2.40762
1.35434 0.313947 2.6294
1.50538 0.313947 2.6294
1.47349 0.521551 2.35824
1.49471 0.592925 2.33663
1.11906 0.57446 2.35956
1.21936 0.511188 2.37191
1.17145 1.22966 2.5114
1.23115 1.11961 2.43077
1.50538 1.00701 2.6294
1.35434 1.15805 2.6294
1.20028 1.0764 2.38138
1.09998 1.11189 2.36904
1.49471 0.704035 2.33663
1.47349 0.799328 2.35824
0.708001 1.32563 2.67614
0.657557 1.38012 2.84936
0.509047 1.21109 2.96952
0.601157 1.22894 2.75926
0.665659 1.4623 2.97436
0.733946 1.52132 2.96973
0.439847 1.52363 3.62821
0.468782 1.45997 3.40599
0.944444 0.833333 4.8251
1.05556 0.777778 4.81122
0.896918 0.640408 4.72463
0.853226 0.738498 4.77363
1.16667 0.777778 4.81122
1.22222 0.833333 4.8251
1.34491 0.531482 4.69043
1.24884 0.583565 4.72439
0.945529 0.37189 3.88513
0.908493 0.408927 4.03791
1.30526 0.272743 4.07662
1.21614 0.273901 3.91921
0.820529 0.469112 4.14902
0.715205 0.539713 4.19069
1.02286 0.482002 4.56736
1.02517 0.435706 4.4223
1.22222 0.944444 4.8251
1.16667 1.05556 4.81122
1.47367 0.872511 4.7189
1.41782 0.831713 4.7679
1.05556 1.16667 4.81122
0.944444 1.22222 4.8251
1.12685 1.33843 4.69043
1.16968 1.24468 4.72439
1.72697 0.857575 3.87299
1.71772 0.839056 4.02577
1.45492 1.23941 4.07662
1.5533 1.12946 3.91921
1.50446 1.00422 4.56736
1.55538 0.992651 4.4223
1.6739 0.693113 4.47045
1.58594 0.813483 4.59699
0.604095 0.650824 4.19069
0.535808 0.753833 4.14902
0.599465 0.83138 4.60272
0.635344 0.716797 4.49933
0.484882 0.832538 4.03791
0.466363 0.851057 3.88513
0.376794 1.19983 4.31582
0.417303 1.07136 4.31119
0.833333 1.22222 4.8251
0.777778 1.16667 4.81122
0.630884 1.45676 4.72038
0.736208 1.41856 4.76822
0.54809 1.06325 4.68928
0.587732 1.13357 4.72439
0.742115 0.849609 4.77363
0.646918 0.890407 4.72463
1.75475 0.369148 3.6554
1.76517 0.367991 3.45633
1.5162 0.225579 3.54769
1.6033 0.264641 3.70162
1.81147 0.405028 3.28966
1.85429 0.46637 3.22022
1.63154 0.315104 2.79144
1.66279 0.307002 2.99514
0.795067 0.459852 3.23235
0.891132 0.39851 3.3018
1.04585 0.403453 2.66397
0.904649 0.456694 2.79823
1.35926 0.23206 3.20695
1.22934 0.269965 3.16181
1.23466 0.255382 3.69699
1.35648 0.225579 3.54769
0.966608 1.60874 3.64236
0.977024 1.5798 3.44329
1.33426 1.36412 3.54769
1.19392 1.47957 3.70162
1.20967 1.31893 2.79144
1.16453 1.39416 2.99514
0.877465 1.49818 2.84011
1.02677 1.39054 2.67344
1.85429 0.577482 3.22022
1.81147 0.689751 3.28966
1.72186 0.691595 2.65029
1.79593 0.578168 2.78455
1.51898 1.13866 3.20695
1.61649 0.997744 3.16181
1.57182 1.11094 3.69699
1.49398 1.2044 3.54769
1.02672 0.758006 2.34182
0.957272 0.864488 2.37886
0.849864 0.696664 2.4865
0.966281 0.653164 2.3966
0.713811 1.16258 2.58025
0.77091 1.0615 2.52624
0.947199 1.1906 2.40608
0.820655 1.25927 2.49713
0.484881 0.832537 3.66291
0.532335 0.785084 3.46846
0.385449 1.19551 3.48007
0.378504 1.11449 3.66988
0.651794 0.85307 2.75347
0.590066 0.870817 2.96026
0.793538 0.567805 2.79823
0.77772 0.662327 2.66088
4 112 434 111 21
4 114 435 113 6
4 117 436 116 23
4 119 437 118 1
4 122 438 121 26
4 124 439 123 8
4 127 440 126 28
4 129 441 128 3
4 132 442 131 31
4 134 443 133 9
4 137 444 136 29
4 138 445 129 3
4 141 446 140 35
4 143 447 142 11
4 146 448 145 37
4 148 449 147 4
4 151 450 150 40
4 153 451 152 12
4 156 452 155 38
4 157 453 148 4
4 160 454 159 44
4 162 455 161 10
4 165 456 164 33
4 166 457 138 3
4 169 458 168 48
4 171 459 170 14
4 174 460 173 20
4 176 461 175 7
4 179 462 178 21
4 181 463 180 14
4 184 464 183 48
4 186 465 185 5
4 189 466 188 54
4 191 467 190 15
4 194 468 193 25
4 196 469 195 9
4 199 470 198 26
4 201 471 200 15
4 204 472 203 24
4 205 473 119 1
4 208 474 207 59
4 210 475 209 16
4 213 476 212 30
4 215 477 214 10
4 218 478 217 31
4 220 479 219 16
4 223 480 222 47
4 225 481 224 0
4 228 482 227 63
4 230 483 229 17
4 233 484 232 34
4 235 485 234 12
4 238 486 237 35
4 240 487 239 17
4 243 488 242 51
4 245 489 244 2
4 248 490 247 68
4 250 491 249 18
4 253 492 252 46
4 254 493 166 3
4 257 494 256 40
4 259 495 258 18
4 262 496 261 57
4 264 497 263 1
4 267 498 266 71
4 269 499 268 19
4 272 500 271 42
4 273 501 157 4
4 276 502 275 44
4 278 503 277 19
4 281 504 280 66
4 283 505 282 2
4 285 506 284 74
4 286 507 110 22
4 287 508 111 74
4 288 509 284 20
4 290 510 289 75
4 291 511 115 24
4 293 512 116 75
4 293 513 114 6
4 295 514 294 76
4 296 515 120 27
4 297 516 121 76
4 298 517 294 25
4 300 518 299 77
4 301 519 125 29
4 303 520 126 77
4 303 521 124 8
4 305 522 304 78
4 306 523 130 32
4 307 524 131 78
4 308 525 304 30
4 310 526 309 79
4 311 527 135 33
4 312 528 136 79
4 312 529 134 9
4 314 530 313 80
4 315 531 139 36
4 316 532 140 80
4 317 533 313 34
4 319 534 318 81
4 320 535 144 38
4 322 536 145 81
4 322 537 143 11
4 325 538 324 82
4 326 539 149 41
4 327 540 150 82
4 328 541 324 39
4 330 542 329 83
4 331 543 154 42
4 332 544 155 83
4 332 545 153 12
4 335 546 334 84
4 336 547 158 45
4 337 548 159 84
4 338 549 334 43
4 340 550 339 85
4 341 551 163 46
4 342 552 164 85
4 342 553 162 10
4 344 554 343 86
4 345 555 167 49
4 346 556 168 86
4 347 557 343 47
4 349 558 348 87
4 350 559 172 50
4 351 560 173 87
4 351 561 171 14
4 353 562 352 88
4 354 563 177 52
4 355 564 178 88
4 356 565 352 51
4 358 566 357 89
4 359 567 182 53
4 360 568 183 89
4 360 569 181 14
4 362 570 361 90
4 363 571 187 55
4 365 572 188 90
4 365 573 176 7
4 367 574 366 91
4 368 575 192 56
4 369 576 193 91
4 369 577 191 15
4 371 578 370 92
4 371 579 205 1
4 372 580 198 92
4 373 581 370 57
4 375 582 374 93
4 375 583 201 15
4 376 584 203 93
4 376 585 364 7
4 378 586 377 94
4 379 587 206 60
4 381 588 207 94
4 381 589 186 5
4 383 590 382 95
4 384 591 211 61
4 385 592 212 95
4 385 593 210 16
4 387 594 386 96
4 387 595 225 0
4 388 596 217 96
4 388 597 196 9
4 390 598 389 97
4 390 599 220 16
4 391 600 222 97
4 391 601 380 5
4 393 602 392 98
4 394 603 226 64
4 396 604 227 98
4 396 605 292 6
4 398 606 397 99
4 399 607 231 65
4 400 608 232 99
4 400 609 230 17
4 402 610 401 100
4 402 611 245 2
4 403 612 237 100
4 404 613 401 66
4 406 614 405 101
4 406 615 240 17
4 407 616 242 101
4 407 617 395 6
4 409 618 408 102
4 409 619 254 3
4 411 620 247 102
4 411 621 302 8
4 413 622 412 103
4 413 623 250 18
4 414 624 252 103
4 414 625 323 13
4 416 626 415 104
4 416 627 264 1
4 417 628 256 104
4 417 629 235 12
4 419 630 418 105
4 419 631 259 18
4 420 632 261 105
4 420 633 410 8
4 422 634 421 106
4 422 635 273 4
4 424 636 266 106
4 424 637 321 11
4 426 638 425 107
4 426 639 269 19
4 427 640 271 107
4 427 641 333 13
4 429 642 428 108
4 429 643 283 2
4 430 644 275 108
4 430 645 215 10
4 432 646 431 109
4 432 647 278 19
4 433 648 280 109
4 433 649 423 11
4 22 110 434 112
4 74 111 434 110
4 22 112 435 114
4 21 113 435 112
4 24 115 436 117
4 75 116 436 115
4 24 117 437 119
4 23 118 437 117
4 27 120 438 122
4 76 121 438 120
4 27 122 439 124
4 26 123 439 122
4 29 125 440 127
4 77 126 440 125
4 29 127 441 129
4 28 128 441 127
4 32 130 442 132
4 78 131 442 130
4 32 132 443 134
4 31 133 443 132
4 33 135 444 137
4 79 136 444 135
4 33 137 445 138
4 29 129 445 137
4 36 139 446 141
4 80 140 446 139
4 36 141 447 143
4 35 142 447 141
4 38 144 448 146
4 81 145 448 144
4 38 146 449 148
4 37 147 449 146
4 41 149 450 151
4 82 150 450 149
4 41 151 451 153
4 40 152 451 151
4 42 154 452 156
4 83 155 452 154
4 42 156 453 157
4 38 148 453 156
4 45 158 454 160
4 84 159 454 158
4 45 160 455 162
4 44 161 455 160
4 46 163 456 165
4 85 164 456 163
4 46 165 457 166
4 33 138 457 165
4 49 167 458 169
4 86 168 458 167
4 49 169 459 171
4 48 170 459 169
4 50 172 460 174
4 87 173 460 172
4 50 174 461 176
4 20 175 461 174
4 52 177 462 179
4 88 178 462 177
4 52 179 463 181
4 21 180 463 179
4 53 182 464 184
4 89 183 464 182
4 53 184 465 186
4 48 185 465 184
4 55 187 466 189
4 90 188 466 187
4 55 189 467 191
4 54 190 467 189
4 56 192 468 194
4 91 193 468 192
4 56 194 469 196
4 25 195 469 194
4 58 197 470 199
4 92 198 470 197
4 58 199 471 201
4 26 200 471 199
4 58 202 472 204
4 93 203 472 202
4 58 204 473 205
4 24 119 473 204
4 60 206 474 208
4 94 207 474 206
4 60 208 475 210
4 59 209 475 208
4 61 211 476 213
4 95 212 476 211
4 61 213 477 215
4 30 214 477 213
4 62 216 478 218
4 96 217 478 216
4 62 218 479 220
4 31 219 479 218
4 62 221 480 223
4 97 222 480 221
4 62 223 481 225
4 47 224 481 223
4 64 226 482 228
4 98 227 482 226
4 64 228 483 230
4 63 229 483 228
4 65 231 484 233
4 99 232 484 231
4 65 233 485 235
4 34 234 485 233
4 67 236 486 238
4 100 237 486 236
4 67 238 487 240
4 35 239 487 238
4 67 241 488 243
4 101 242 488 241
4 67 243 489 245
4 51 244 489 243
4 69 246 490 248
4 102 247 490 246
4 69 248 491 250
4 68 249 491 248
4 69 251 492 253
4 103 252 492 251
4 69 253 493 254
4 46 166 493 253
4 70 255 494 257
4 104 256 494 255
4 70 257 495 259
4 40 258 495 257
4 70 260 496 262
4 105 261 496 260
4 70 262 497 264
4 57 263 497 262
4 72 265 498 267
4 106 266 498 265
4 72 267 499 269
4 71 268 499 267
4 72 270 500 272
4 107 271 500 270
4 72 272 501 273
4 42 157 501 272
4 73 274 502 276
4 108 275 502 274
4 73 276 503 278
4 44 277 503 276
4 73 279 504 281
4 109 280 504 279
4 73 281 505 283
4 66 282 505 281
4 7 175 506 285
4 20 284 506 175
4 7 285 507 286
4 74 110 507 285
4 14 180 508 287
4 21 111 508 180
4 14 287 509 288
4 74 284 509 287
4 7 286 510 290
4 22 289 510 286
4 7 290 511 291
4 75 115 511 290
4 6 292 512 293
4 23 116 512 292
4 75 289 513 293
4 22 114 513 289
4 9 195 514 295
4 25 294 514 195
4 9 295 515 296
4 76 120 515 295
4 15 200 516 297
4 26 121 516 200
4 15 297 517 298
4 76 294 517 297
4 9 296 518 300
4 27 299 518 296
4 9 300 519 301
4 77 125 519 300
4 8 302 520 303
4 28 126 520 302
4 77 299 521 303
4 27 124 521 299
4 10 214 522 305
4 30 304 522 214
4 10 305 523 306
4 78 130 523 305
4 16 219 524 307
4 31 131 524 219
4 16 307 525 308
4 78 304 525 307
4 10 306 526 310
4 32 309 526 306
4 10 310 527 311
4 79 135 527 310
4 9 301 528 312
4 29 136 528 301
4 79 309 529 312
4 32 134 529 309
4 12 234 530 314
4 34 313 530 234
4 12 314 531 315
4 80 139 531 314
4 17 239 532 316
4 35 140 532 239
4 17 316 533 317
4 80 313 533 316
4 12 315 534 319
4 36 318 534 315
4 12 319 535 320
4 81 144 535 319
4 11 321 536 322
4 37 145 536 321
4 81 318 537 322
4 36 143 537 318
4 13 323 538 325
4 39 324 538 323
4 13 325 539 326
4 82 149 539 325
4 18 258 540 327
4 40 150 540 258
4 18 327 541 328
4 82 324 541 327
4 13 326 542 330
4 41 329 542 326
4 13 330 543 331
4 83 154 543 330
4 12 320 544 332
4 38 155 544 320
4 83 329 545 332
4 41 153 545 329
4 13 333 546 335
4 43 334 546 333
4 13 335 547 336
4 84 158 547 335
4 19 277 548 337
4 44 159 548 277
4 19 337 549 338
4 84 334 549 337
4 13 336 550 340
4 45 339 550 336
4 13 340 551 341
4 85 163 551 340
4 10 311 552 342
4 33 164 552 311
4 85 339 553 342
4 45 162 553 339
4 0 224 554 344
4 47 343 554 224
4 0 344 555 345
4 86 167 555 344
4 5 185 556 346
4 48 168 556 185
4 5 346 557 347
4 86 343 557 346
4 0 345 558 349
4 49 348 558 345
4 0 349 559 350
4 87 172 559 349
4 14 288 560 351
4 20 173 560 288
4 87 348 561 351
4 49 171 561 348
4 2 244 562 353
4 51 352 562 244
4 2 353 563 354
4 88 177 563 353
4 6 113 564 355
4 21 178 564 113
4 6 355 565 356
4 88 352 565 355
4 2 354 566 358
4 52 357 566 354
4 2 358 567 359
4 89 182 567 358
4 14 170 568 360
4 48 183 568 170
4 89 357 569 360
4 52 181 569 357
4 0 350 570 362
4 50 361 570 350
4 0 362 571 363
4 90 187 571 362
4 7 364 572 365
4 54 188 572 364
4 90 361 573 365
4 50 176 573 361
4 0 363 574 367
4 55 366 574 363
4 0 367 575 368
4 91 192 575 367
4 15 298 576 369
4 25 193 576 298
4 91 366 577 369
4 55 191 577 366
4 1 263 578 371
4 57 370 578 263
4 92 197 579 371
4 58 205 579 197
4 8 123 580 372
4 26 198 580 123
4 8 372 581 373
4 92 370 581 372
4 15 190 582 375
4 54 374 582 190
4 93 202 583 375
4 58 201 583 202
4 7 291 584 376
4 24 203 584 291
4 93 374 585 376
4 54 364 585 374
4 2 359 586 378
4 53 377 586 359
4 2 378 587 379
4 94 206 587 378
4 5 380 588 381
4 59 207 588 380
4 94 377 589 381
4 53 186 589 377
4 2 379 590 383
4 60 382 590 379
4 2 383 591 384
4 95 211 591 383
4 16 308 592 385
4 30 212 592 308
4 95 382 593 385
4 60 210 593 382
4 0 368 594 387
4 56 386 594 368
4 96 216 595 387
4 62 225 595 216
4 9 133 596 388
4 31 217 596 133
4 96 386 597 388
4 56 196 597 386
4 16 209 598 390
4 59 389 598 209
4 97 221 599 390
4 62 220 599 221
4 5 347 600 391
4 47 222 600 347
4 97 389 601 391
4 59 380 601 389
4 1 118 602 393
4 23 392 602 118
4 1 393 603 394
4 98 226 603 393
4 6 395 604 396
4 63 227 604 395
4 98 392 605 396
4 23 292 605 392
4 1 394 606 398
4 64 397 606 394
4 1 398 607 399
4 99 231 607 398
4 17 317 608 400
4 34 232 608 317
4 99 397 609 400
4 64 230 609 397
4 2 282 610 402
4 66 401 610 282
4 100 236 611 402
4 67 245 611 236
4 11 142 612 403
4 35 237 612 142
4 11 403 613 404
4 100 401 613 403
4 17 229 614 406
4 63 405 614 229
4 101 241 615 406
4 67 240 615 241
4 6 356 616 407
4 51 242 616 356
4 101 405 617 407
4 63 395 617 405
4 3 128 618 409
4 28 408 618 128
4 102 246 619 409
4 69 254 619 246
4 8 410 620 411
4 68 247 620 410
4 102 408 621 411
4 28 302 621 408
4 18 328 622 413
4 39 412 622 328
4 103 251 623 413
4 69 250 623 251
4 13 341 624 414
4 46 252 624 341
4 103 412 625 414
4 39 323 625 412
4 1 399 626 416
4 65 415 626 399
4 104 255 627 416
4 70 264 627 255
4 12 152 628 417
4 40 256 628 152
4 104 415 629 417
4 65 235 629 415
4 18 249 630 419
4 68 418 630 249
4 105 260 631 419
4 70 259 631 260
4 8 373 632 420
4 57 261 632 373
4 105 418 633 420
4 68 410 633 418
4 4 147 634 422
4 37 421 634 147
4 106 265 635 422
4 72 273 635 265
4 11 423 636 424
4 71 266 636 423
4 106 421 637 424
4 37 321 637 421
4 19 338 638 426
4 43 425 638 338
4 107 270 639 426
4 72 269 639 270
4 13 331 640 427
4 42 271 640 331
4 107 425 641 427
4 43 333 641 425
4 2 384 642 429
4 61 428 642 384
4 108 274 643 429
4 73 283 643 274
4 10 161 644 430
4 44 275 644 161
4 108 428 645 430
4 61 215 645 428
4 19 268 646 432
4 71 431 646 268
4 109 279 647 432
4 73 278 647 279
4 11 404 648 433
4 66 280 648 404
4 109 431 649 433
4 71 423 649 431
