ply
format ascii 1.0
element vertex 110
property float x
property float y
property float z
element face 108
property list uchar int vertex_indices
end_header
1 1 4.85031
1.89881 0.537132 3.73356
0.632596 0.517578 3.76997
0.695833 1.74028 3.69445
1.14265 0.822627 2.30324
0.726345 0.715495 4.69589
1.44444 0.223611 3.87222
1.58681 0.661806 4.6787
1.37778 1.35278 3.87222
0.708623 1.58903 4.67965
0.313464 1.36343 3.79089
0.961342 0.508102 2.46759
1.72373 0.539191 2.42657
0.904096 1.3704 2.49601
1.24653 0.417361 4.58982
1.34236 1.23403 4.58982
0.429861 1.23403 4.58982
1.45278 0.243056 2.85
1.45278 1.15556 2.85
0.583565 1.08033 2.74537
1.45486 0.510417 4.68518
1.34982 0.28559 4.26042
1.58073 0.396701 4.31597
1.7092 0.31684 3.80208
1.76476 0.594618 4.30208
1.03819 1.44792 4.68518
1.38628 1.30642 4.26042
1.04427 1.53733 4.31597
1.02691 1.6033 3.80208
0.655382 1.71788 4.23264
0.328993 1.30642 4.26042
0.517361 1.44792 4.68518
0.440104 1.53733 4.31597
0.453993 1.6276 3.77431
1.6467 0.337674 2.59375
1.19358 0.337674 2.59375
1.37268 0.460648 2.35185
1.07176 0.650463 2.31481
1.43634 0.674768 2.28703
1.19358 1.2908 2.59375
1.6467 0.837675 2.59375
1.37268 0.960647 2.35185
1.07176 1.06713 2.31481
0.692129 1.27315 2.58796
0.415799 1.21962 3.21875
0.540798 1.43663 3.10764
0.74566 1.61371 3.09375
0.833333 0.833333 4.8287
0.964409 0.539063 4.68171
1.16667 0.666667 4.78704
1.33333 0.833333 4.8287
1.08246 0.289063 3.78819
0.971353 0.400174 4.24653
0.655382 0.611979 4.37153
1.50087 0.955728 4.68171
1.16667 1.16667 4.78704
0.833333 1.33333 4.8287
1.68142 0.976563 3.78819
1.65365 0.921006 4.24653
0.547743 0.955728 4.68171
0.450521 0.921006 4.24653
0.394965 0.976563 3.78819
0.666667 1.16667 4.78704
1.44792 0.199653 3.34028
1.74045 0.313368 3.20486
1.86892 0.497396 2.99653
0.769965 0.497396 2.99653
1.05816 0.313368 3.20486
1.44792 1.25695 3.34028
1.05816 1.51649 3.20486
1.74045 0.834203 3.20486
0.722511 0.780962 2.58449
0.863425 0.969909 2.42593
0.537327 0.834203 3.20486
1.48611 0.375 4.44444
1.71181 0.420139 4.15278
1.15278 1.45833 4.44444
0.899305 1.64931 4.15278
0.402778 1.45833 4.44444
0.482639 1.64931 4.15278
1.41667 0.361111 2.44444
1.32407 0.564815 2.29629
1.41667 1.02778 2.44444
1.32407 0.898147 2.29629
0.527778 1.33333 2.94444
0.552083 1.57986 3.31944
0.999999 0.666667 4.7963
1.33333 0.666667 4.7963
1.12153 0.309028 4.09722
0.857638 0.489583 4.43056
1.33333 0.999999 4.7963
0.999999 1.33333 4.7963
1.60069 1.05903 4.09722
1.67014 0.822916 4.43056
0.524306 0.822916 4.43056
0.371528 1.05903 4.09722
0.666667 1.33333 4.7963
0.666667 0.999999 4.7963
1.65625 0.253472 3.43056
1.79514 0.364583 2.93056
0.982639 0.364583 2.93056
1.17708 0.253472 3.43056
1.17708 1.48264 3.43056
0.982639 1.51042 2.93056
1.79514 0.697918 2.93056
1.65625 1.00347 3.43056
0.86574 0.800927 2.40741
0.86574 1.13426 2.40741
0.427083 1.00347 3.43056
0.649306 0.697918 2.93056
4 22 74 21 6
4 24 75 23 1
4 27 76 26 8
4 29 77 28 3
4 32 78 31 9
4 33 79 29 3
4 36 80 35 11
4 38 81 37 4
4 41 82 40 12
4 42 83 38 4
4 45 84 44 10
4 46 85 33 3
4 49 86 48 14
4 50 87 20 7
4 52 88 21 14
4 53 89 48 5
4 55 90 54 15
4 56 91 25 9
4 58 92 26 15
4 58 93 24 1
4 60 94 59 16
4 61 95 30 10
4 62 96 31 16
4 62 97 47 0
4 64 98 63 17
4 65 99 34 12
4 67 100 35 17
4 67 101 51 2
4 69 102 68 18
4 69 103 46 3
4 70 104 40 18
4 70 105 57 1
4 72 106 71 19
4 72 107 42 4
4 73 108 44 19
4 73 109 66 2
4 7 20 74 22
4 14 21 74 20
4 7 22 75 24
4 6 23 75 22
4 9 25 76 27
4 15 26 76 25
4 9 27 77 29
4 8 28 77 27
4 10 30 78 32
4 16 31 78 30
4 10 32 79 33
4 9 29 79 32
4 12 34 80 36
4 17 35 80 34
4 12 36 81 38
4 11 37 81 36
4 13 39 82 41
4 18 40 82 39
4 13 41 83 42
4 12 38 83 41
4 13 43 84 45
4 19 44 84 43
4 13 45 85 46
4 10 33 85 45
4 0 47 86 49
4 5 48 86 47
4 0 49 87 50
4 14 20 87 49
4 2 51 88 52
4 6 21 88 51
4 2 52 89 53
4 14 48 89 52
4 0 50 90 55
4 7 54 90 50
4 0 55 91 56
4 15 25 91 55
4 1 57 92 58
4 8 26 92 57
4 15 54 93 58
4 7 24 93 54
4 2 53 94 60
4 5 59 94 53
4 2 60 95 61
4 16 30 95 60
4 0 56 96 62
4 9 31 96 56
4 16 59 97 62
4 5 47 97 59
4 1 23 98 64
4 6 63 98 23
4 1 64 99 65
4 17 34 99 64
4 2 66 100 67
4 11 35 100 66
4 17 63 101 67
4 6 51 101 63
4 3 28 102 69
4 8 68 102 28
4 18 39 103 69
4 13 46 103 39
4 1 65 104 70
4 12 40 104 65
4 18 68 105 70
4 8 57 105 68
4 4 37 106 72
4 11 71 106 37
4 19 43 107 72
4 13 42 107 43
4 2 61 108 73
4 10 44 108 61
4 19 71 109 73
4 11 66 109 71
