ply
format ascii 1.0
element vertex 50
property float x
property float y
property float z
element face 96
property list uchar int vertex_indices
end_header
1 1 5.12109
2.05632 0.447006 3.80133
0.546341 0.447006 3.80133
0.546341 1.95699 3.80133
1.28028 0.719727 1.75781
0.723938 1.55792 4.7229
0.322876 1.31323 3.79736
0.723938 0.712341 4.7229
1.56952 0.712341 4.7229
1.41455 1.31323 3.79736
1.41455 0.221558 3.79736
1.75604 0.525818 2.48462
0.910462 1.3714 2.48462
0.910462 0.525818 2.48462
0.90625 0.90625 5.08594
1.19922 0.605469 4.82031
1.1875 0.90625 5.08594
0.90625 1.1875 5.08594
0.613281 1.19141 4.82031
1.19922 1.19141 4.82031
1.92492 0.266235 3.79834
1.69763 0.272339 3.06299
2.01477 0.442017 3.26709
1.93274 0.524048 4.25147
1.58826 0.381714 4.37549
1.92492 0.758423 3.79834
1.58826 1.01453 4.37549
1.69763 0.905151 3.06299
0.644409 0.442017 3.26709
1.15491 0.272339 3.06299
0.859253 0.266235 3.79834
0.367065 0.758423 3.79834
0.522095 0.905151 3.06299
0.562378 0.524048 4.25147
0.41272 1.01453 4.37549
1.04553 0.381714 4.37549
0.859253 1.8241 3.79834
1.15491 1.44788 3.06299
0.644409 1.81238 3.26709
0.562378 1.89441 4.25147
1.04553 1.55725 4.37549
0.367065 1.8241 3.79834
0.41272 1.55725 4.37549
0.522095 1.44788 3.06299
1.17774 0.916016 1.82813
1.4082 0.982422 2.3125
1.45899 0.634766 1.82813
1.17774 0.634766 1.82813
0.822266 0.982422 2.3125
1.4082 0.396484 2.3125
3 29 49 21
3 11 21 49
3 13 49 29
3 10 29 21
3 27 45 37
3 12 37 45
3 11 45 27
3 9 27 37
3 35 24 15
3 8 15 24
3 10 24 35
3 7 35 15
3 43 48 32
3 13 32 48
3 12 48 43
3 6 43 32
3 42 34 18
3 7 18 34
3 6 34 42
3 5 42 18
3 26 40 19
3 5 19 40
3 9 40 26
3 8 26 19
3 0 14 16
3 7 15 14
3 8 16 15
3 14 15 16
3 0 17 14
3 5 18 17
3 7 14 18
3 17 18 14
3 0 16 17
3 8 19 16
3 5 17 19
3 16 19 17
3 1 20 22
3 10 21 20
3 11 22 21
3 20 21 22
3 1 23 20
3 8 24 23
3 10 20 24
3 23 24 20
3 1 25 23
3 9 26 25
3 8 23 26
3 25 26 23
3 1 22 25
3 11 27 22
3 9 25 27
3 22 27 25
3 2 28 30
3 13 29 28
3 10 30 29
3 28 29 30
3 2 31 28
3 6 32 31
3 13 28 32
3 31 32 28
3 2 33 31
3 7 34 33
3 6 31 34
3 33 34 31
3 2 30 33
3 10 35 30
3 7 33 35
3 30 35 33
3 3 36 38
3 9 37 36
3 12 38 37
3 36 37 38
3 3 39 36
3 5 40 39
3 9 36 40
3 39 40 36
3 3 41 39
3 6 42 41
3 5 39 42
3 41 42 39
3 3 38 41
3 12 43 38
3 6 41 43
3 38 43 41
3 4 44 46
3 12 45 44
3 11 46 45
3 44 45 46
3 4 47 44
3 13 48 47
3 12 44 48
3 47 48 44
3 4 46 47
3 11 49 46
3 13 47 49
3 46 49 47
