ply
format ascii 1.0
element vertex 770
property float x
property float y
property float z
element face 1536
property list uchar int vertex_indices
end_header
1 1 5.20977
2.14374 0.405596 3.81974
0.495729 0.405596 3.81974
0.495729 2.05361 3.81974
1.30245 0.697557 1.58046
0.706933 1.59094 4.74904
0.294237 1.32922 3.8107
0.706933 0.697329 4.74904
1.60054 0.69733 4.74904
1.42387 1.32922 3.8107
1.42387 0.199591 3.8107
1.79261 0.505267 2.44429
0.898997 1.39887 2.44429
0.898997 0.505267 2.44429
0.885151 0.884407 5.08222
1.19116 0.621018 4.82057
1.23081 0.884407 5.08222
0.885151 1.23007 5.08222
0.627683 1.18449 4.82057
1.19116 1.18449 4.82057
1.90796 0.261757 3.81404
1.68956 0.279466 3.07228
2.03776 0.427441 3.2212
1.95042 0.514786 4.26934
1.58209 0.386945 4.36203
1.90796 0.783795 3.81404
1.58209 1.01401 4.36203
1.68956 0.906524 3.07228
0.642149 0.427441 3.2212
1.15542 0.279466 3.07228
0.876773 0.261756 3.81404
0.354735 0.783795 3.81404
0.528365 0.906524 3.07228
0.554804 0.514786 4.26934
0.420887 1.01401 4.36203
1.04794 0.386945 4.36203
0.876773 1.81499 3.81404
1.15542 1.44066 3.07228
0.642149 1.82306 3.2212
0.554804 1.9104 4.26934
1.04794 1.54814 4.36203
0.354735 1.81499 3.81404
0.420887 1.54814 4.36203
0.528365 1.44066 3.07228
1.15608 0.959144 1.83109
1.39963 0.97602 2.31889
1.50175 0.613481 1.83109
1.15608 0.613481 1.83109
0.836156 0.97602 2.31889
1.39963 0.412546 2.31889
1.08431 0.957834 5.17782
1.07348 1.07302 5.105
0.957891 1.08425 5.17782
0.957891 0.957834 5.17782
1.07348 0.853264 5.105
0.853729 1.07302 5.105
2.11765 0.406372 3.5698
2.00543 0.603289 3.49478
2.07326 0.554331 3.81777
2.07326 0.326855 3.81777
2.00543 0.313485 3.49478
2.0797 0.444312 4.02509
1.95692 0.36199 4.07684
1.95692 0.651794 4.07684
0.645444 0.326855 3.81777
0.710384 0.36199 4.07684
0.50765 0.444312 4.02509
0.54559 0.406372 3.5698
0.75889 0.313485 3.49478
0.417968 0.554331 3.81777
0.469085 0.603289 3.49478
0.420581 0.651794 4.07684
0.54559 1.97843 3.5698
0.469085 1.84983 3.49478
0.417968 1.98214 3.81777
0.645444 1.98214 3.81777
0.75889 1.84983 3.49478
0.50765 2.01637 4.02509
0.710384 1.89833 4.07684
0.420581 1.89833 4.07684
1.37879 0.66335 1.64402
1.34997 0.576783 1.78722
1.25238 0.66335 1.64402
1.25238 0.789765 1.64402
1.34997 0.796539 1.78722
1.13022 0.796539 1.78722
0.626025 1.75936 4.51585
0.470472 1.76227 4.33582
0.547687 1.59976 4.58119
0.862103 1.59976 4.58119
0.784906 1.76227 4.33582
0.939644 1.41727 4.80398
1.12294 1.36854 4.60398
0.79716 1.4074 4.93247
1.01897 1.23532 4.97497
0.646732 1.41727 4.80398
0.746891 1.23532 4.97497
0.517571 1.36854 4.60398
0.314585 1.58449 3.81137
0.4168 1.64547 3.4586
0.386652 1.40028 3.44849
0.332104 1.45483 4.10306
0.363525 1.69875 4.09791
0.332104 1.18428 4.10306
0.409617 1.28676 4.36716
0.314585 1.05377 3.81137
0.363525 0.908929 4.09791
0.386652 1.12974 3.44849
0.4168 0.855653 3.4586
0.518273 1.1781 3.06329
0.626025 0.603207 4.51585
0.784906 0.435174 4.33582
0.862103 0.528596 4.58119
0.547687 0.843013 4.58119
0.470472 0.749612 4.33582
0.646732 0.932353 4.80398
0.517571 1.10484 4.60398
0.79716 0.793712 4.93247
0.746891 1.01659 4.97497
0.939644 0.639441 4.80398
1.01897 0.744506 4.97497
1.12294 0.499474 4.60398
1.78218 0.603207 4.51585
1.79757 0.749612 4.33582
1.61885 0.843013 4.58119
1.61885 0.528596 4.58119
1.79757 0.435174 4.33582
1.42456 0.639441 4.80399
1.38664 0.499474 4.60398
1.41085 0.793712 4.93247
1.23772 0.744506 4.97497
1.42456 0.932353 4.80399
1.23772 1.01659 4.97497
1.38664 1.10484 4.60398
1.14808 1.58449 3.81137
0.966522 1.69875 4.09791
1.24184 1.45483 4.10306
1.29639 1.40028 3.44849
1.0198 1.64547 3.4586
1.56694 1.12974 3.44849
1.42914 1.1781 3.06329
1.6788 1.05377 3.81137
1.80962 0.855653 3.4586
1.51239 1.18428 4.10306
1.75634 0.908929 4.09791
1.32049 1.28676 4.36716
1.24184 0.27454 4.10306
0.966522 0.30593 4.09791
1.14808 0.220271 3.81137
1.51239 0.274539 4.10306
1.32049 0.375886 4.36716
1.6788 0.220271 3.81137
1.75634 0.30593 4.09791
1.56694 0.219992 3.44849
1.80962 0.252655 3.4586
1.29639 0.219992 3.44849
1.42914 0.267231 3.06329
1.0198 0.252655 3.4586
1.6292 0.4348 2.34829
1.48265 0.499573 2.03576
1.6457 0.55887 2.11437
1.77369 0.373753 2.72307
1.54668 0.339432 2.68346
1.92255 0.462834 2.83139
1.89917 0.33357 3.11657
1.77369 0.688169 2.72307
1.89917 0.648006 3.11657
1.6292 0.727713 2.34829
1.54668 0.944796 2.68346
1.48265 0.771654 2.03576
1.03201 1.17256 2.11437
0.991827 0.990396 2.03576
0.851373 1.21263 2.34829
1.14429 1.21263 2.34829
1.26391 0.990396 2.03576
1.01695 1.44491 2.72307
1.28298 1.20849 2.68346
0.766398 1.61899 2.83139
0.886512 1.66067 3.11657
0.702531 1.44491 2.72307
0.572076 1.66067 3.11657
0.677614 1.20849 2.68346
1.03201 0.55887 2.11437
1.26391 0.499573 2.03576
1.14429 0.4348 2.34829
0.851373 0.727713 2.34829
0.991827 0.771654 2.03576
0.702531 0.688169 2.72307
0.677614 0.944796 2.68346
0.766398 0.462834 2.83139
0.572076 0.648006 3.11657
1.01695 0.373753 2.72307
0.886512 0.33357 3.11657
1.28298 0.339432 2.68346
0.986817 1.02637 5.20699
0.942093 1.02895 5.18632
0.986817 0.986817 5.20699
1.02637 0.986817 5.20699
1.02898 1.02895 5.18632
1.02898 0.942063 5.18632
2.13038 0.45933 3.81933
2.08825 0.50294 3.94111
2.1273 0.417216 3.90973
2.143 0.401515 3.72131
2.11004 0.481151 3.67963
2.13038 0.365122 3.81933
2.11004 0.350505 3.67963
2.08825 0.372294 3.94111
0.493756 0.417216 3.90973
0.445322 0.50294 3.94111
0.455457 0.45933 3.81933
0.549664 0.365122 3.81933
0.575968 0.372294 3.94111
0.509458 0.401515 3.72131
0.597757 0.350505 3.67963
0.467112 0.481151 3.67963
0.455457 2.04005 3.81933
0.445322 2.01522 3.94111
0.493756 2.05076 3.90973
0.509458 2.03506 3.72131
0.467112 1.99344 3.67963
0.549664 2.04005 3.81933
0.597757 1.99344 3.67963
0.575968 2.01522 3.94111
1.28857 0.685069 1.58602
1.2387 0.732352 1.62719
1.28857 0.72462 1.58602
1.32812 0.685069 1.58602
1.32558 0.645468 1.62719
1.32558 0.732352 1.62719
0.62042 1.61022 4.67726
0.595919 1.50988 4.69744
0.66747 1.52002 4.78567
0.665144 1.67754 4.63571
0.578012 1.69516 4.55907
0.776059 1.61022 4.67726
0.736947 1.69516 4.55907
0.816518 1.52002 4.78567
0.900437 1.50988 4.69744
0.75164 1.49956 4.84713
0.859394 1.42758 4.87893
0.715383 1.42758 4.87893
0.328234 1.37135 3.63565
0.382712 1.26692 3.44764
0.328234 1.23668 3.63565
0.300451 1.45984 3.81084
0.338378 1.4996 3.63666
0.30089 1.39869 3.96378
0.311141 1.52683 3.96351
0.30089 1.26402 3.96378
0.328062 1.32157 4.10344
0.300451 1.19242 3.81084
0.311141 1.12566 3.96351
0.338378 1.09843 3.63666
0.776059 0.607023 4.67726
0.900437 0.583442 4.69744
0.816518 0.659462 4.78567
0.665144 0.649481 4.63571
0.736947 0.557767 4.55907
0.62042 0.762663 4.67726
0.578012 0.716703 4.55907
0.66747 0.80851 4.78567
0.595919 0.88796 4.69744
0.75164 0.745967 4.84713
0.715383 0.854682 4.87893
0.859394 0.71067 4.87893
1.62362 0.762663 4.67726
1.52236 0.88796 4.69744
1.52802 0.80851 4.78567
1.6932 0.649482 4.63571
1.71541 0.716703 4.55907
1.62362 0.607023 4.67726
1.71541 0.557767 4.55907
1.52802 0.659462 4.78567
1.52236 0.583442 4.69744
1.50523 0.745968 4.84713
1.43229 0.710671 4.87893
1.43229 0.854683 4.87893
1.33681 1.39869 3.96378
1.37915 1.32157 4.10344
1.47149 1.26402 3.96378
1.28699 1.45984 3.81084
1.19838 1.52683 3.96351
1.36416 1.37135 3.63565
1.22562 1.4996 3.63666
1.49883 1.23668 3.63565
1.4338 1.26692 3.44764
1.55442 1.19242 3.81084
1.62679 1.09843 3.63666
1.59955 1.12566 3.96351
1.28699 0.205874 3.81084
1.22562 0.211186 3.63666
1.36416 0.20075 3.63565
1.33681 0.228094 3.96378
1.19838 0.238423 3.96351
1.47149 0.228094 3.96378
1.37915 0.270484 4.10344
1.55442 0.205874 3.81084
1.59955 0.238423 3.96351
1.49883 0.20075 3.63565
1.62679 0.211186 3.63666
1.4338 0.215835 3.44764
1.71985 0.531349 2.27171
1.65438 0.632596 2.21388
1.72845 0.60809 2.38062
1.72845 0.459042 2.38062
1.65438 0.488583 2.21388
1.79964 0.431009 2.5651
1.70296 0.402843 2.53025
1.85997 0.482722 2.6346
1.8653 0.407876 2.76038
1.79964 0.586649 2.5651
1.8653 0.566811 2.76038
1.70296 0.707362 2.53025
0.867891 1.31959 2.38062
0.776518 1.32928 2.53025
0.796434 1.4342 2.5651
0.966261 1.28494 2.27171
0.937472 1.20549 2.21388
1.01694 1.31959 2.38062
1.08149 1.20549 2.21388
0.952076 1.4342 2.5651
1.08104 1.32928 2.53025
0.831905 1.51078 2.6346
0.886841 1.54527 2.76038
0.727904 1.54527 2.76038
1.01694 0.459042 2.38062
1.08104 0.402843 2.53025
0.952076 0.431009 2.5651
0.966261 0.531349 2.27171
1.08149 0.488583 2.21388
0.867891 0.60809 2.38062
0.937472 0.632596 2.21388
0.796434 0.586649 2.5651
0.776518 0.707362 2.53025
0.831905 0.482722 2.6346
0.727904 0.566811 2.76038
0.886841 0.407876 2.76038
0.842293 0.840481 5.01216
0.903037 0.759766 4.96184
0.942645 0.809648 5.03756
0.810993 0.9413 5.03756
0.762505 0.900299 4.96184
0.858968 0.975827 5.10124
0.800552 1.04831 5.04573
0.923859 0.923638 5.13692
0.902827 1.00513 5.15022
0.976339 0.858458 5.10124
1.00528 0.902682 5.15022
1.04949 0.799371 5.04573
1.31148 0.626028 4.816
1.32912 0.69219 4.89548
1.21814 0.682096 4.90447
1.28732 0.559889 4.71801
1.40934 0.568308 4.71068
1.15862 0.559889 4.71801
1.25647 0.496055 4.60671
1.06591 0.626028 4.816
1.02831 0.568308 4.71068
1.1017 0.682096 4.90447
0.98077 0.69219 4.89548
1.13086 0.739413 4.97926
1.31813 0.840481 5.01216
1.33856 0.900299 4.96184
1.24838 0.9413 5.03756
1.24838 0.809648 5.03756
1.33856 0.759766 4.96184
1.16546 0.858458 5.10124
1.15173 0.799371 5.04573
1.15261 0.923638 5.13692
1.09212 0.902682 5.15022
1.16546 0.975827 5.10124
1.09212 1.00513 5.15022
1.15173 1.04831 5.04573
0.842293 1.31632 5.01216
0.762505 1.33582 4.96184
0.810993 1.24703 5.03756
0.942645 1.24703 5.03756
0.903037 1.33582 4.96184
0.976339 1.16495 5.10124
1.04949 1.15054 5.04573
0.923859 1.15239 5.13692
1.00528 1.09197 5.15022
0.858968 1.16495 5.10124
0.902827 1.09197 5.15022
0.800552 1.15054 5.04573
0.63287 1.05907 4.816
0.696352 0.976608 4.89548
0.685962 1.09783 4.90447
0.571537 1.14697 4.71801
0.580247 1.01637 4.71068
0.571537 1.27567 4.71801
0.514043 1.23848 4.60671
0.63287 1.30464 4.816
0.580247 1.39741 4.71068
0.685962 1.21427 4.90447
0.696352 1.32495 4.89548
0.741683 1.12859 4.97926
1.31148 1.05907 4.816
1.40934 1.01637 4.71068
1.28732 1.14697 4.71801
1.21814 1.09783 4.90447
1.32912 0.976608 4.89548
1.1017 1.21427 4.90447
1.13086 1.12859 4.97926
1.06591 1.30464 4.816
0.98077 1.32495 4.89548
1.15862 1.27567 4.71801
1.02831 1.39741 4.71068
1.25647 1.23848 4.60671
1.79886 0.238165 3.81226
1.74902 0.227523 3.63873
1.86338 0.249105 3.64496
1.8371 0.27538 3.96027
1.72199 0.254547 3.96301
1.93815 0.302366 3.95515
1.86361 0.331097 4.08911
1.99929 0.291728 3.81592
2.02171 0.335211 3.94883
1.96315 0.277373 3.65523
2.04521 0.311713 3.66685
1.91486 0.279846 3.4741
1.73692 0.322688 2.89287
1.83878 0.350925 2.9198
1.80104 0.301803 3.08944
1.62002 0.30649 2.87688
1.66654 0.351566 2.69795
1.56354 0.269271 3.06478
1.49101 0.300406 2.87055
1.63167 0.245745 3.259
1.50028 0.239551 3.25664
1.75223 0.262163 3.26707
1.69295 0.232456 3.45108
1.85981 0.288149 3.28395
1.98269 0.44411 3.02857
1.92693 0.547391 2.95782
1.98542 0.527628 3.15371
1.98542 0.371988 3.15371
1.92693 0.388456 2.95782
2.03691 0.359972 3.34202
1.95574 0.320957 3.30982
2.08266 0.414933 3.40219
2.07836 0.352888 3.51807
2.03691 0.50902 3.34202
2.07836 0.493604 3.51807
1.95574 0.625515 3.30982
1.86892 0.557878 4.39378
1.80361 0.511771 4.43761
1.88881 0.468593 4.31297
1.88881 0.624233 4.31297
1.80361 0.670708 4.43761
1.96651 0.579415 4.18676
1.88099 0.70027 4.20688
2.02068 0.476908 4.1459
2.03302 0.538936 4.06206
1.96651 0.430367 4.18676
2.03302 0.398219 4.06206
1.88099 0.395712 4.20688
1.55019 0.327225 4.23676
1.63872 0.286688 4.10186
1.6718 0.342594 4.23224
1.45509 0.377732 4.36631
1.4185 0.321332 4.23801
1.48595 0.440559 4.48571
1.35611 0.435303 4.48932
1.60495 0.454655 4.47649
1.50839 0.509713 4.59573
1.69583 0.407018 4.35203
1.71038 0.479326 4.46061
1.78161 0.366356 4.22243
1.79886 0.916037 3.81226
1.72199 0.987186 3.96301
1.8371 0.851307 3.96027
1.86338 0.825031 3.64496
1.74902 0.960163 3.63873
1.96315 0.698282 3.65523
1.91486 0.72507 3.4741
1.99929 0.662963 3.81592
2.04521 0.583285 3.66685
1.93815 0.723276 3.95515
2.02171 0.606783 3.94883
1.86361 0.776321 4.08911
1.55019 1.1003 4.23676
1.4185 1.23789 4.23801
1.45509 1.1503 4.36631
1.6718 0.963237 4.23224
1.63872 1.04582 4.10186
1.69583 0.879954 4.35203
1.78161 0.829442 4.22243
1.60495 0.927552 4.47649
1.71038 0.79705 4.46061
1.48595 1.06085 4.48571
1.50839 0.972681 4.59573
1.35611 1.19602 4.48932
1.73692 0.795582 2.89287
1.66654 0.814533 2.69795
1.62002 0.926782 2.87688
1.80104 0.774735 3.08944
1.83878 0.668647 2.9198
1.75223 0.882804 3.26707
1.85981 0.751233 3.28395
1.63167 1.01881 3.259
1.69295 0.991591 3.45108
1.56354 1.04184 3.06478
1.50028 1.15611 3.25664
1.49101 1.06112 2.87055
0.702287 0.44411 3.02857
0.821848 0.388456 2.95782
0.757562 0.371988 3.15371
0.601922 0.527628 3.15371
0.662912 0.547391 2.95782
0.548172 0.50902 3.34202
0.516534 0.625515 3.30982
0.589886 0.414933 3.40219
0.503187 0.493604 3.51807
0.69722 0.359972 3.34202
0.643904 0.352888 3.51807
0.821092 0.320957 3.30982
1.08521 0.322688 2.89287
1.14926 0.351566 2.69795
1.2202 0.30649 2.87688
1.01958 0.301803 3.08944
0.951948 0.350925 2.9198
1.08841 0.262163 3.26707
0.952843 0.288149 3.28395
1.22635 0.245745 3.259
1.15758 0.232456 3.45108
1.29252 0.269271 3.06478
1.36422 0.239551 3.25664
1.35605 0.300406 2.87055
0.949997 0.249105 3.64496
1.08675 0.227523 3.63873
1.00991 0.238165 3.81226
0.82068 0.277373 3.65523
0.885515 0.279846 3.4741
0.755002 0.291728 3.81592
0.702864 0.311713 3.66685
0.795686 0.302366 3.95515
0.679365 0.335211 3.94883
0.923722 0.27538 3.96027
0.834265 0.331097 4.08911
1.05972 0.254547 3.96301
0.332035 0.916037 3.81226
0.35411 0.960163 3.63873
0.374072 0.825031 3.64496
0.347796 0.851307 3.96027
0.327087 0.987186 3.96301
0.374778 0.723276 3.95515
0.389042 0.776321 4.08911
0.383768 0.662963 3.81592
0.407794 0.606783 3.94883
0.399772 0.698282 3.65523
0.431292 0.583285 3.66685
0.440292 0.72507 3.4741
0.612315 0.795582 2.89287
0.634225 0.668647 2.9198
0.546649 0.774735 3.08944
0.599911 0.926782 2.87688
0.686294 0.814533 2.69795
0.519958 1.04184 3.06478
0.595336 1.06112 2.87055
0.453283 1.01881 3.259
0.447668 1.15611 3.25664
0.467766 0.882804 3.26707
0.398452 0.991591 3.45108
0.48976 0.751233 3.28395
0.588519 0.557878 4.39378
0.539596 0.670708 4.43761
0.505317 0.624233 4.31297
0.660955 0.468593 4.31297
0.698531 0.511771 4.43761
0.626825 0.430367 4.18676
0.746336 0.395712 4.20688
0.527911 0.476908 4.1459
0.598572 0.398219 4.06206
0.477778 0.579415 4.18676
0.457855 0.538936 4.06206
0.441779 0.70027 4.20688
0.480347 0.927552 4.47649
0.528146 0.972681 4.59573
0.465842 1.06085 4.48571
0.441434 0.879954 4.35203
0.505824 0.79705 4.46061
0.387336 0.963237 4.23224
0.411553 0.829442 4.22243
0.371803 1.1003 4.23676
0.34422 1.04582 4.10186
0.411497 1.1503 4.36631
0.365886 1.23789 4.23802
0.460438 1.19602 4.48932
1.14487 0.327225 4.23676
1.28244 0.321332 4.23801
1.18406 0.377732 4.36631
1.00797 0.342594 4.23224
1.10335 0.286688 4.10186
0.914366 0.407018 4.35203
0.874635 0.366356 4.22243
0.953241 0.454655 4.47649
0.823545 0.479326 4.46061
1.08613 0.440559 4.48571
0.991113 0.509713 4.59573
1.22115 0.435303 4.48932
1.00991 1.705 3.81226
1.08675 1.62243 3.63873
0.949997 1.73842 3.64496
0.923722 1.76469 3.96027
1.05972 1.64946 3.96301
0.795686 1.86574 3.95515
0.834265 1.80567 4.08911
0.755002 1.90725 3.81592
0.679365 1.94913 3.94883
0.82068 1.84075 3.65523
0.702864 1.92564 3.66685
0.885515 1.75442 3.4741
1.08521 1.44729 2.89287
0.951948 1.55548 2.9198
1.01958 1.55619 3.08944
1.2202 1.32659 2.87688
1.14926 1.3318 2.69795
1.29252 1.31286 3.06478
1.35605 1.19608 2.87055
1.22635 1.42413 3.259
1.36422 1.29217 3.25664
1.08841 1.54663 3.26707
1.15758 1.52696 3.45108
0.952843 1.6582 3.28395
0.702287 1.72451 3.02857
0.662912 1.65247 2.95782
0.601922 1.75549 3.15371
0.757562 1.75549 3.15371
0.821848 1.65247 2.95782
0.69722 1.84871 3.34202
0.821092 1.76017 3.30982
0.589886 1.90771 3.40219
0.643904 1.92806 3.51807
0.548172 1.84871 3.34202
0.503187 1.92806 3.51807
0.516534 1.76017 3.30982
0.588519 1.83828 4.39378
0.698531 1.77578 4.43761
0.660955 1.85209 4.31297
0.505317 1.85209 4.31297
0.539596 1.77578 4.43761
0.477778 1.91911 4.18676
0.441779 1.83492 4.20688
0.527911 1.96968 4.1459
0.457855 1.97339 4.06206
0.626825 1.91911 4.18676
0.598572 1.97339 4.06206
0.746336 1.83492 4.20688
1.18406 1.42132 4.36631
1.28244 1.37395 4.23801
1.14487 1.50562 4.23676
1.08613 1.46067 4.48571
1.22115 1.33098 4.48932
0.953241 1.57926 4.47649
0.991113 1.48996 4.59573
0.914366 1.66141 4.35203
0.823545 1.68388 4.46061
1.00797 1.62706 4.23224
0.874635 1.73641 4.22243
1.10335 1.58119 4.10186
0.332035 1.705 3.81226
0.327087 1.64946 3.96301
0.347796 1.76469 3.96027
0.374072 1.73842 3.64496
0.35411 1.62243 3.63873
0.399772 1.84075 3.65523
0.440292 1.75442 3.4741
0.383768 1.90725 3.81592
0.431292 1.92564 3.66685
0.374778 1.86574 3.95515
0.407794 1.94913 3.94883
0.389042 1.80567 4.08911
0.371803 1.50562 4.23676
0.365886 1.37395 4.23802
0.411497 1.42132 4.36631
0.387336 1.62706 4.23224
0.34422 1.58119 4.10186
0.441434 1.66141 4.35203
0.411553 1.73641 4.22243
0.480347 1.57926 4.47649
0.505824 1.68388 4.46061
0.465842 1.46067 4.48571
0.528146 1.48996 4.59573
0.460438 1.33098 4.48932
0.612315 1.44729 2.89287
0.686294 1.3318 2.69795
0.599911 1.32659 2.87688
0.546649 1.55619 3.08944
0.634225 1.55548 2.9198
0.467766 1.54663 3.26707
0.48976 1.6582 3.28395
0.453283 1.42413 3.259
0.398452 1.52696 3.45108
0.519958 1.31286 3.06478
0.447668 1.29217 3.25664
0.595336 1.19608 2.87055
1.09624 1.06238 1.96482
1.14487 1.094 2.05989
1.20271 0.986971 1.9168
1.07106 0.986971 1.9168
1.00434 1.094 2.05989
1.13454 0.889385 1.79445
1.06258 0.888525 1.90145
1.2082 0.868056 1.72484
1.19046 0.804345 1.69869
1.25191 0.889385 1.79445
1.29291 0.804345 1.69869
1.31152 0.888525 1.90145
1.27334 1.09722 2.32696
1.21196 1.21377 2.50701
1.34395 1.09034 2.4941
1.32975 0.986224 2.16787
1.20673 1.09901 2.18406
1.44619 0.869781 2.16787
1.37681 0.882643 2.02787
1.5189 0.851654 2.32696
1.55507 0.750657 2.18406
1.47265 0.961645 2.4941
1.59299 0.832736 2.50701
1.41714 1.07781 2.67865
1.50845 0.681239 1.9168
1.5804 0.658471 2.05989
1.57208 0.586538 1.96482
1.44103 0.700263 1.79445
1.41376 0.786288 1.90145
1.43696 0.639299 1.72484
1.37975 0.717503 1.69869
1.44103 0.582892 1.79445
1.37975 0.615054 1.69869
1.50845 0.549586 1.9168
1.41376 0.537348 1.90145
1.5804 0.517938 2.05989
1.09624 0.586538 1.96482
1.00434 0.658471 2.05989
1.07106 0.681239 1.9168
1.20271 0.549586 1.9168
1.14487 0.517938 2.05989
1.25191 0.582892 1.79445
1.31152 0.537348 1.90145
1.2082 0.639299 1.72484
1.29291 0.615054 1.69869
1.13454 0.700263 1.79445
1.19046 0.717503 1.69869
1.06258 0.786288 1.90145
0.84029 0.851654 2.32696
0.763887 0.832736 2.50701
0.756863 0.961645 2.4941
0.914013 0.869781 2.16787
0.922305 0.750657 2.18406
0.914013 0.986224 2.16787
0.987633 0.882643 2.02787
0.84029 1.09722 2.32696
0.922305 1.09901 2.18406
0.756863 1.09034 2.4941
0.763887 1.21377 2.50701
0.674714 1.07781 2.67865
1.34395 0.374564 2.4941
1.21196 0.384669 2.50701
1.27334 0.418608 2.32696
1.47265 0.374564 2.4941
1.41714 0.335385 2.67865
1.5189 0.418608 2.32696
1.59299 0.384669 2.50701
1.44619 0.454047 2.16787
1.55507 0.466238 2.18406
1.32975 0.454047 2.16787
1.37681 0.493465 2.02787
1.20673 0.466238 2.18406
3 522 507 337
3 189 337 507
3 192 507 522
3 191 522 337
3 510 555 336
3 187 336 555
3 190 555 510
3 189 510 336
3 558 747 334
3 185 334 747
3 188 747 558
3 187 558 334
3 759 519 327
3 191 327 519
3 193 519 759
3 184 759 327
3 738 769 330
3 184 330 769
3 183 769 738
3 182 738 330
3 750 735 332
3 182 332 735
3 186 735 750
3 185 750 332
3 690 627 325
3 177 325 627
3 180 627 690
3 179 690 325
3 630 615 324
3 175 324 615
3 178 615 630
3 177 630 324
3 618 711 322
3 173 322 711
3 176 711 618
3 175 618 322
3 756 687 315
3 179 315 687
3 181 687 756
3 172 756 315
3 702 754 318
3 172 318 754
3 171 754 702
3 170 702 318
3 714 699 320
3 170 320 699
3 174 699 714
3 173 714 320
3 720 495 313
3 165 313 495
3 168 495 720
3 167 720 313
3 498 435 312
3 163 312 435
3 166 435 498
3 165 498 312
3 438 423 310
3 161 310 423
3 164 423 438
3 163 438 310
3 723 718 303
3 167 303 718
3 169 718 723
3 160 723 303
3 766 733 306
3 160 306 733
3 159 733 766
3 158 766 306
3 426 764 308
3 158 308 764
3 162 764 426
3 161 426 308
3 762 428 529
3 156 529 428
3 162 428 762
3 193 762 529
3 528 430 301
3 153 301 430
3 156 430 528
3 155 528 301
3 432 411 300
3 151 300 411
3 154 411 432
3 153 432 300
3 414 459 298
3 149 298 459
3 152 459 414
3 151 414 298
3 531 526 291
3 155 291 526
3 157 526 531
3 148 531 291
3 594 541 294
3 148 294 541
3 147 541 594
3 146 594 294
3 462 591 296
3 146 296 591
3 150 591 462
3 149 462 296
3 486 471 289
3 141 289 471
3 144 471 486
3 143 486 289
3 721 620 505
3 140 505 620
3 176 620 721
3 168 721 505
3 474 502 288
3 139 288 502
3 142 502 474
3 141 474 288
3 504 622 286
3 137 286 622
3 140 622 504
3 139 504 286
3 651 483 279
3 143 279 483
3 145 483 651
3 136 651 279
3 606 661 282
3 136 282 661
3 135 661 606
3 134 606 282
3 624 603 284
3 134 284 603
3 138 603 624
3 137 624 284
3 402 363 277
3 129 277 363
3 132 363 402
3 131 402 277
3 366 351 276
3 127 276 351
3 130 351 366
3 129 366 276
3 354 466 274
3 125 274 466
3 128 466 354
3 127 354 274
3 492 399 267
3 131 267 399
3 133 399 492
3 124 492 267
3 450 490 270
3 124 270 490
3 123 490 450
3 122 450 270
3 468 447 272
3 122 272 447
3 126 447 468
3 125 468 272
3 464 356 601
3 121 601 356
3 128 356 464
3 150 464 601
3 360 339 265
3 117 265 339
3 120 339 360
3 119 360 265
3 342 387 264
3 115 264 387
3 118 387 342
3 117 342 264
3 390 579 262
3 113 262 579
3 116 579 390
3 115 390 262
3 600 358 255
3 119 255 358
3 121 358 600
3 112 600 255
3 570 598 258
3 112 258 598
3 111 598 570
3 110 570 258
3 582 567 260
3 110 260 567
3 114 567 582
3 113 582 260
3 757 560 697
3 109 697 560
3 188 560 757
3 181 757 697
3 564 543 253
3 105 253 543
3 108 543 564
3 107 564 253
3 546 586 252
3 103 252 586
3 106 586 546
3 105 546 252
3 588 675 250
3 101 250 675
3 104 675 588
3 103 588 250
3 696 562 243
3 107 243 562
3 109 562 696
3 100 696 243
3 666 694 246
3 100 246 694
3 99 694 666
3 98 666 246
3 678 663 248
3 98 248 663
3 102 663 678
3 101 678 248
3 589 392 685
3 97 685 392
3 116 392 589
3 104 589 685
3 396 375 241
3 93 241 375
3 96 375 396
3 95 396 241
3 654 409 493
3 133 493 409
3 92 409 654
3 145 654 493
3 378 406 240
3 91 240 406
3 94 406 378
3 93 378 240
3 408 656 238
3 89 238 656
3 92 656 408
3 91 408 238
3 684 394 231
3 95 231 394
3 97 394 684
3 88 684 231
3 642 682 234
3 88 234 682
3 87 682 642
3 86 642 234
3 658 639 236
3 86 236 639
3 90 639 658
3 89 658 236
3 752 704 745
3 85 745 704
3 171 704 752
3 186 752 745
3 716 726 709
3 84 709 726
3 169 726 716
3 174 716 709
3 744 706 225
3 83 225 706
3 85 706 744
3 82 744 225
3 768 740 732
3 81 732 740
3 183 740 768
3 159 768 732
3 730 742 228
3 82 228 742
3 81 742 730
3 80 730 228
3 708 728 229
3 80 229 728
3 84 728 708
3 83 708 229
3 680 644 673
3 79 673 644
3 87 644 680
3 102 680 673
3 660 608 649
3 78 649 608
3 135 608 660
3 90 660 649
3 625 632 613
3 76 613 632
3 178 632 625
3 138 625 613
3 648 610 223
3 75 223 610
3 78 610 648
3 77 648 223
3 672 646 217
3 77 217 646
3 79 646 672
3 74 672 217
3 692 668 637
3 73 637 668
3 99 668 692
3 180 692 637
3 636 670 220
3 74 220 670
3 73 670 636
3 72 636 220
3 612 634 222
3 72 222 634
3 76 634 612
3 75 612 222
3 584 548 577
3 71 577 548
3 106 548 584
3 114 584 577
3 565 512 553
3 70 553 512
3 190 512 565
3 108 565 553
3 524 534 517
3 68 517 534
3 157 534 524
3 192 524 517
3 552 514 215
3 67 215 514
3 70 514 552
3 69 552 215
3 576 550 209
3 69 209 550
3 71 550 576
3 66 576 209
3 596 572 540
3 65 540 572
3 111 572 596
3 147 596 540
3 538 574 212
3 66 212 574
3 65 574 538
3 64 538 212
3 516 536 214
3 64 214 536
3 68 536 516
3 67 516 214
3 488 452 481
3 63 481 452
3 123 452 488
3 144 488 481
3 469 416 457
3 62 457 416
3 152 416 469
3 126 469 457
3 433 440 421
3 60 421 440
3 164 440 433
3 154 433 421
3 456 418 207
3 59 207 418
3 62 418 456
3 61 456 207
3 480 454 201
3 61 201 454
3 63 454 480
3 58 480 201
3 500 476 445
3 57 445 476
3 142 476 500
3 166 500 445
3 444 478 204
3 58 204 478
3 57 478 444
3 56 444 204
3 420 442 206
3 56 206 442
3 60 442 420
3 59 420 206
3 397 344 385
3 55 385 344
3 118 344 397
3 96 397 385
3 361 368 349
3 54 349 368
3 130 368 361
3 120 361 349
3 384 346 195
3 53 195 346
3 55 346 384
3 52 384 195
3 404 380 373
3 51 373 380
3 94 380 404
3 132 404 373
3 372 382 198
3 52 198 382
3 51 382 372
3 50 372 198
3 348 370 199
3 50 199 370
3 54 370 348
3 53 348 199
3 0 194 196
3 52 195 194
3 53 196 195
3 194 195 196
3 0 197 194
3 50 198 197
3 52 194 198
3 197 198 194
3 0 196 197
3 53 199 196
3 50 197 199
3 196 199 197
3 1 200 202
3 58 201 200
3 61 202 201
3 200 201 202
3 1 203 200
3 56 204 203
3 58 200 204
3 203 204 200
3 1 205 203
3 59 206 205
3 56 203 206
3 205 206 203
3 1 202 205
3 61 207 202
3 59 205 207
3 202 207 205
3 2 208 210
3 66 209 208
3 69 210 209
3 208 209 210
3 2 211 208
3 64 212 211
3 66 208 212
3 211 212 208
3 2 213 211
3 67 214 213
3 64 211 214
3 213 214 211
3 2 210 213
3 69 215 210
3 67 213 215
3 210 215 213
3 3 216 218
3 74 217 216
3 77 218 217
3 216 217 218
3 3 219 216
3 72 220 219
3 74 216 220
3 219 220 216
3 3 221 219
3 75 222 221
3 72 219 222
3 221 222 219
3 3 218 221
3 77 223 218
3 75 221 223
3 218 223 221
3 4 224 226
3 82 225 224
3 83 226 225
3 224 225 226
3 4 227 224
3 80 228 227
3 82 224 228
3 227 228 224
3 4 226 227
3 83 229 226
3 80 227 229
3 226 229 227
3 5 230 232
3 88 231 230
3 95 232 231
3 230 231 232
3 5 233 230
3 86 234 233
3 88 230 234
3 233 234 230
3 5 235 233
3 89 236 235
3 86 233 236
3 235 236 233
3 5 237 235
3 91 238 237
3 89 235 238
3 237 238 235
3 5 239 237
3 93 240 239
3 91 237 240
3 239 240 237
3 5 232 239
3 95 241 232
3 93 239 241
3 232 241 239
3 6 242 244
3 100 243 242
3 107 244 243
3 242 243 244
3 6 245 242
3 98 246 245
3 100 242 246
3 245 246 242
3 6 247 245
3 101 248 247
3 98 245 248
3 247 248 245
3 6 249 247
3 103 250 249
3 101 247 250
3 249 250 247
3 6 251 249
3 105 252 251
3 103 249 252
3 251 252 249
3 6 244 251
3 107 253 244
3 105 251 253
3 244 253 251
3 7 254 256
3 112 255 254
3 119 256 255
3 254 255 256
3 7 257 254
3 110 258 257
3 112 254 258
3 257 258 254
3 7 259 257
3 113 260 259
3 110 257 260
3 259 260 257
3 7 261 259
3 115 262 261
3 113 259 262
3 261 262 259
3 7 263 261
3 117 264 263
3 115 261 264
3 263 264 261
3 7 256 263
3 119 265 256
3 117 263 265
3 256 265 263
3 8 266 268
3 124 267 266
3 131 268 267
3 266 267 268
3 8 269 266
3 122 270 269
3 124 266 270
3 269 270 266
3 8 271 269
3 125 272 271
3 122 269 272
3 271 272 269
3 8 273 271
3 127 274 273
3 125 271 274
3 273 274 271
3 8 275 273
3 129 276 275
3 127 273 276
3 275 276 273
3 8 268 275
3 131 277 268
3 129 275 277
3 268 277 275
3 9 278 280
3 136 279 278
3 143 280 279
3 278 279 280
3 9 281 278
3 134 282 281
3 136 278 282
3 281 282 278
3 9 283 281
3 137 284 283
3 134 281 284
3 283 284 281
3 9 285 283
3 139 286 285
3 137 283 286
3 285 286 283
3 9 287 285
3 141 288 287
3 139 285 288
3 287 288 285
3 9 280 287
3 143 289 280
3 141 287 289
3 280 289 287
3 10 290 292
3 148 291 290
3 155 292 291
3 290 291 292
3 10 293 290
3 146 294 293
3 148 290 294
3 293 294 290
3 10 295 293
3 149 296 295
3 146 293 296
3 295 296 293
3 10 297 295
3 151 298 297
3 149 295 298
3 297 298 295
3 10 299 297
3 153 300 299
3 151 297 300
3 299 300 297
3 10 292 299
3 155 301 292
3 153 299 301
3 292 301 299
3 11 302 304
3 160 303 302
3 167 304 303
3 302 303 304
3 11 305 302
3 158 306 305
3 160 302 306
3 305 306 302
3 11 307 305
3 161 308 307
3 158 305 308
3 307 308 305
3 11 309 307
3 163 310 309
3 161 307 310
3 309 310 307
3 11 311 309
3 165 312 311
3 163 309 312
3 311 312 309
3 11 304 311
3 167 313 304
3 165 311 313
3 304 313 311
3 12 314 316
3 172 315 314
3 179 316 315
3 314 315 316
3 12 317 314
3 170 318 317
3 172 314 318
3 317 318 314
3 12 319 317
3 173 320 319
3 170 317 320
3 319 320 317
3 12 321 319
3 175 322 321
3 173 319 322
3 321 322 319
3 12 323 321
3 177 324 323
3 175 321 324
3 323 324 321
3 12 316 323
3 179 325 316
3 177 323 325
3 316 325 323
3 13 326 328
3 184 327 326
3 191 328 327
3 326 327 328
3 13 329 326
3 182 330 329
3 184 326 330
3 329 330 326
3 13 331 329
3 185 332 331
3 182 329 332
3 331 332 329
3 13 333 331
3 187 334 333
3 185 331 334
3 333 334 331
3 13 335 333
3 189 336 335
3 187 333 336
3 335 336 333
3 13 328 335
3 191 337 328
3 189 335 337
3 328 337 335
3 14 338 340
3 117 339 338
3 120 340 339
3 338 339 340
3 14 341 338
3 118 342 341
3 117 338 342
3 341 342 338
3 14 343 341
3 55 344 343
3 118 341 344
3 343 344 341
3 14 345 343
3 53 346 345
3 55 343 346
3 345 346 343
3 14 347 345
3 54 348 347
3 53 345 348
3 347 348 345
3 14 340 347
3 120 349 340
3 54 347 349
3 340 349 347
3 15 350 352
3 127 351 350
3 130 352 351
3 350 351 352
3 15 353 350
3 128 354 353
3 127 350 354
3 353 354 350
3 15 355 353
3 121 356 355
3 128 353 356
3 355 356 353
3 15 357 355
3 119 358 357
3 121 355 358
3 357 358 355
3 15 359 357
3 120 360 359
3 119 357 360
3 359 360 357
3 15 352 359
3 130 361 352
3 120 359 361
3 352 361 359
3 16 362 364
3 129 363 362
3 132 364 363
3 362 363 364
3 16 365 362
3 130 366 365
3 129 362 366
3 365 366 362
3 16 367 365
3 54 368 367
3 130 365 368
3 367 368 365
3 16 369 367
3 50 370 369
3 54 367 370
3 369 370 367
3 16 371 369
3 51 372 371
3 50 369 372
3 371 372 369
3 16 364 371
3 132 373 364
3 51 371 373
3 364 373 371
3 17 374 376
3 93 375 374
3 96 376 375
3 374 375 376
3 17 377 374
3 94 378 377
3 93 374 378
3 377 378 374
3 17 379 377
3 51 380 379
3 94 377 380
3 379 380 377
3 17 381 379
3 52 382 381
3 51 379 382
3 381 382 379
3 17 383 381
3 55 384 383
3 52 381 384
3 383 384 381
3 17 376 383
3 96 385 376
3 55 383 385
3 376 385 383
3 18 386 388
3 115 387 386
3 118 388 387
3 386 387 388
3 18 389 386
3 116 390 389
3 115 386 390
3 389 390 386
3 18 391 389
3 97 392 391
3 116 389 392
3 391 392 389
3 18 393 391
3 95 394 393
3 97 391 394
3 393 394 391
3 18 395 393
3 96 396 395
3 95 393 396
3 395 396 393
3 18 388 395
3 118 397 388
3 96 395 397
3 388 397 395
3 19 398 400
3 131 399 398
3 133 400 399
3 398 399 400
3 19 401 398
3 132 402 401
3 131 398 402
3 401 402 398
3 19 403 401
3 94 404 403
3 132 401 404
3 403 404 401
3 19 405 403
3 91 406 405
3 94 403 406
3 405 406 403
3 19 407 405
3 92 408 407
3 91 405 408
3 407 408 405
3 19 400 407
3 133 409 400
3 92 407 409
3 400 409 407
3 20 410 412
3 151 411 410
3 154 412 411
3 410 411 412
3 20 413 410
3 152 414 413
3 151 410 414
3 413 414 410
3 20 415 413
3 62 416 415
3 152 413 416
3 415 416 413
3 20 417 415
3 59 418 417
3 62 415 418
3 417 418 415
3 20 419 417
3 60 420 419
3 59 417 420
3 419 420 417
3 20 412 419
3 154 421 412
3 60 419 421
3 412 421 419
3 21 422 424
3 161 423 422
3 164 424 423
3 422 423 424
3 21 425 422
3 162 426 425
3 161 422 426
3 425 426 422
3 21 427 425
3 156 428 427
3 162 425 428
3 427 428 425
3 21 429 427
3 153 430 429
3 156 427 430
3 429 430 427
3 21 431 429
3 154 432 431
3 153 429 432
3 431 432 429
3 21 424 431
3 164 433 424
3 154 431 433
3 424 433 431
3 22 434 436
3 163 435 434
3 166 436 435
3 434 435 436
3 22 437 434
3 164 438 437
3 163 434 438
3 437 438 434
3 22 439 437
3 60 440 439
3 164 437 440
3 439 440 437
3 22 441 439
3 56 442 441
3 60 439 442
3 441 442 439
3 22 443 441
3 57 444 443
3 56 441 444
3 443 444 441
3 22 436 443
3 166 445 436
3 57 443 445
3 436 445 443
3 23 446 448
3 122 447 446
3 126 448 447
3 446 447 448
3 23 449 446
3 123 450 449
3 122 446 450
3 449 450 446
3 23 451 449
3 63 452 451
3 123 449 452
3 451 452 449
3 23 453 451
3 61 454 453
3 63 451 454
3 453 454 451
3 23 455 453
3 62 456 455
3 61 453 456
3 455 456 453
3 23 448 455
3 126 457 448
3 62 455 457
3 448 457 455
3 24 458 460
3 149 459 458
3 152 460 459
3 458 459 460
3 24 461 458
3 150 462 461
3 149 458 462
3 461 462 458
3 24 463 461
3 128 464 463
3 150 461 464
3 463 464 461
3 24 465 463
3 125 466 465
3 128 463 466
3 465 466 463
3 24 467 465
3 126 468 467
3 125 465 468
3 467 468 465
3 24 460 467
3 152 469 460
3 126 467 469
3 460 469 467
3 25 470 472
3 141 471 470
3 144 472 471
3 470 471 472
3 25 473 470
3 142 474 473
3 141 470 474
3 473 474 470
3 25 475 473
3 57 476 475
3 142 473 476
3 475 476 473
3 25 477 475
3 58 478 477
3 57 475 478
3 477 478 475
3 25 479 477
3 63 480 479
3 58 477 480
3 479 480 477
3 25 472 479
3 144 481 472
3 63 479 481
3 472 481 479
3 26 482 484
3 143 483 482
3 145 484 483
3 482 483 484
3 26 485 482
3 144 486 485
3 143 482 486
3 485 486 482
3 26 487 485
3 123 488 487
3 144 485 488
3 487 488 485
3 26 489 487
3 124 490 489
3 123 487 490
3 489 490 487
3 26 491 489
3 133 492 491
3 124 489 492
3 491 492 489
3 26 484 491
3 145 493 484
3 133 491 493
3 484 493 491
3 27 494 496
3 165 495 494
3 168 496 495
3 494 495 496
3 27 497 494
3 166 498 497
3 165 494 498
3 497 498 494
3 27 499 497
3 142 500 499
3 166 497 500
3 499 500 497
3 27 501 499
3 139 502 501
3 142 499 502
3 501 502 499
3 27 503 501
3 140 504 503
3 139 501 504
3 503 504 501
3 27 496 503
3 168 505 496
3 140 503 505
3 496 505 503
3 28 506 508
3 189 507 506
3 192 508 507
3 506 507 508
3 28 509 506
3 190 510 509
3 189 506 510
3 509 510 506
3 28 511 509
3 70 512 511
3 190 509 512
3 511 512 509
3 28 513 511
3 67 514 513
3 70 511 514
3 513 514 511
3 28 515 513
3 68 516 515
3 67 513 516
3 515 516 513
3 28 508 515
3 192 517 508
3 68 515 517
3 508 517 515
3 29 518 520
3 191 519 518
3 193 520 519
3 518 519 520
3 29 521 518
3 192 522 521
3 191 518 522
3 521 522 518
3 29 523 521
3 157 524 523
3 192 521 524
3 523 524 521
3 29 525 523
3 155 526 525
3 157 523 526
3 525 526 523
3 29 527 525
3 156 528 527
3 155 525 528
3 527 528 525
3 29 520 527
3 193 529 520
3 156 527 529
3 520 529 527
3 30 530 532
3 157 531 530
3 148 532 531
3 530 531 532
3 30 533 530
3 68 534 533
3 157 530 534
3 533 534 530
3 30 535 533
3 64 536 535
3 68 533 536
3 535 536 533
3 30 537 535
3 65 538 537
3 64 535 538
3 537 538 535
3 30 539 537
3 147 540 539
3 65 537 540
3 539 540 537
3 30 532 539
3 148 541 532
3 147 539 541
3 532 541 539
3 31 542 544
3 105 543 542
3 108 544 543
3 542 543 544
3 31 545 542
3 106 546 545
3 105 542 546
3 545 546 542
3 31 547 545
3 71 548 547
3 106 545 548
3 547 548 545
3 31 549 547
3 69 550 549
3 71 547 550
3 549 550 547
3 31 551 549
3 70 552 551
3 69 549 552
3 551 552 549
3 31 544 551
3 108 553 544
3 70 551 553
3 544 553 551
3 32 554 556
3 187 555 554
3 190 556 555
3 554 555 556
3 32 557 554
3 188 558 557
3 187 554 558
3 557 558 554
3 32 559 557
3 109 560 559
3 188 557 560
3 559 560 557
3 32 561 559
3 107 562 561
3 109 559 562
3 561 562 559
3 32 563 561
3 108 564 563
3 107 561 564
3 563 564 561
3 32 556 563
3 190 565 556
3 108 563 565
3 556 565 563
3 33 566 568
3 110 567 566
3 114 568 567
3 566 567 568
3 33 569 566
3 111 570 569
3 110 566 570
3 569 570 566
3 33 571 569
3 65 572 571
3 111 569 572
3 571 572 569
3 33 573 571
3 66 574 573
3 65 571 574
3 573 574 571
3 33 575 573
3 71 576 575
3 66 573 576
3 575 576 573
3 33 568 575
3 114 577 568
3 71 575 577
3 568 577 575
3 34 578 580
3 113 579 578
3 116 580 579
3 578 579 580
3 34 581 578
3 114 582 581
3 113 578 582
3 581 582 578
3 34 583 581
3 106 584 583
3 114 581 584
3 583 584 581
3 34 585 583
3 103 586 585
3 106 583 586
3 585 586 583
3 34 587 585
3 104 588 587
3 103 585 588
3 587 588 585
3 34 580 587
3 116 589 580
3 104 587 589
3 580 589 587
3 35 590 592
3 146 591 590
3 150 592 591
3 590 591 592
3 35 593 590
3 147 594 593
3 146 590 594
3 593 594 590
3 35 595 593
3 111 596 595
3 147 593 596
3 595 596 593
3 35 597 595
3 112 598 597
3 111 595 598
3 597 598 595
3 35 599 597
3 121 600 599
3 112 597 600
3 599 600 597
3 35 592 599
3 150 601 592
3 121 599 601
3 592 601 599
3 36 602 604
3 134 603 602
3 138 604 603
3 602 603 604
3 36 605 602
3 135 606 605
3 134 602 606
3 605 606 602
3 36 607 605
3 78 608 607
3 135 605 608
3 607 608 605
3 36 609 607
3 75 610 609
3 78 607 610
3 609 610 607
3 36 611 609
3 76 612 611
3 75 609 612
3 611 612 609
3 36 604 611
3 138 613 604
3 76 611 613
3 604 613 611
3 37 614 616
3 175 615 614
3 178 616 615
3 614 615 616
3 37 617 614
3 176 618 617
3 175 614 618
3 617 618 614
3 37 619 617
3 140 620 619
3 176 617 620
3 619 620 617
3 37 621 619
3 137 622 621
3 140 619 622
3 621 622 619
3 37 623 621
3 138 624 623
3 137 621 624
3 623 624 621
3 37 616 623
3 178 625 616
3 138 623 625
3 616 625 623
3 38 626 628
3 177 627 626
3 180 628 627
3 626 627 628
3 38 629 626
3 178 630 629
3 177 626 630
3 629 630 626
3 38 631 629
3 76 632 631
3 178 629 632
3 631 632 629
3 38 633 631
3 72 634 633
3 76 631 634
3 633 634 631
3 38 635 633
3 73 636 635
3 72 633 636
3 635 636 633
3 38 628 635
3 180 637 628
3 73 635 637
3 628 637 635
3 39 638 640
3 86 639 638
3 90 640 639
3 638 639 640
3 39 641 638
3 87 642 641
3 86 638 642
3 641 642 638
3 39 643 641
3 79 644 643
3 87 641 644
3 643 644 641
3 39 645 643
3 77 646 645
3 79 643 646
3 645 646 643
3 39 647 645
3 78 648 647
3 77 645 648
3 647 648 645
3 39 640 647
3 90 649 640
3 78 647 649
3 640 649 647
3 40 650 652
3 145 651 650
3 136 652 651
3 650 651 652
3 40 653 650
3 92 654 653
3 145 650 654
3 653 654 650
3 40 655 653
3 89 656 655
3 92 653 656
3 655 656 653
3 40 657 655
3 90 658 657
3 89 655 658
3 657 658 655
3 40 659 657
3 135 660 659
3 90 657 660
3 659 660 657
3 40 652 659
3 136 661 652
3 135 659 661
3 652 661 659
3 41 662 664
3 98 663 662
3 102 664 663
3 662 663 664
3 41 665 662
3 99 666 665
3 98 662 666
3 665 666 662
3 41 667 665
3 73 668 667
3 99 665 668
3 667 668 665
3 41 669 667
3 74 670 669
3 73 667 670
3 669 670 667
3 41 671 669
3 79 672 671
3 74 669 672
3 671 672 669
3 41 664 671
3 102 673 664
3 79 671 673
3 664 673 671
3 42 674 676
3 101 675 674
3 104 676 675
3 674 675 676
3 42 677 674
3 102 678 677
3 101 674 678
3 677 678 674
3 42 679 677
3 87 680 679
3 102 677 680
3 679 680 677
3 42 681 679
3 88 682 681
3 87 679 682
3 681 682 679
3 42 683 681
3 97 684 683
3 88 681 684
3 683 684 681
3 42 676 683
3 104 685 676
3 97 683 685
3 676 685 683
3 43 686 688
3 179 687 686
3 181 688 687
3 686 687 688
3 43 689 686
3 180 690 689
3 179 686 690
3 689 690 686
3 43 691 689
3 99 692 691
3 180 689 692
3 691 692 689
3 43 693 691
3 100 694 693
3 99 691 694
3 693 694 691
3 43 695 693
3 109 696 695
3 100 693 696
3 695 696 693
3 43 688 695
3 181 697 688
3 109 695 697
3 688 697 695
3 44 698 700
3 170 699 698
3 174 700 699
3 698 699 700
3 44 701 698
3 171 702 701
3 170 698 702
3 701 702 698
3 44 703 701
3 85 704 703
3 171 701 704
3 703 704 701
3 44 705 703
3 83 706 705
3 85 703 706
3 705 706 703
3 44 707 705
3 84 708 707
3 83 705 708
3 707 708 705
3 44 700 707
3 174 709 700
3 84 707 709
3 700 709 707
3 45 710 712
3 173 711 710
3 176 712 711
3 710 711 712
3 45 713 710
3 174 714 713
3 173 710 714
3 713 714 710
3 45 715 713
3 169 716 715
3 174 713 716
3 715 716 713
3 45 717 715
3 167 718 717
3 169 715 718
3 717 718 715
3 45 719 717
3 168 720 719
3 167 717 720
3 719 720 717
3 45 712 719
3 176 721 712
3 168 719 721
3 712 721 719
3 46 722 724
3 169 723 722
3 160 724 723
3 722 723 724
3 46 725 722
3 84 726 725
3 169 722 726
3 725 726 722
3 46 727 725
3 80 728 727
3 84 725 728
3 727 728 725
3 46 729 727
3 81 730 729
3 80 727 730
3 729 730 727
3 46 731 729
3 159 732 731
3 81 729 732
3 731 732 729
3 46 724 731
3 160 733 724
3 159 731 733
3 724 733 731
3 47 734 736
3 182 735 734
3 186 736 735
3 734 735 736
3 47 737 734
3 183 738 737
3 182 734 738
3 737 738 734
3 47 739 737
3 81 740 739
3 183 737 740
3 739 740 737
3 47 741 739
3 82 742 741
3 81 739 742
3 741 742 739
3 47 743 741
3 85 744 743
3 82 741 744
3 743 744 741
3 47 736 743
3 186 745 736
3 85 743 745
3 736 745 743
3 48 746 748
3 185 747 746
3 188 748 747
3 746 747 748
3 48 749 746
3 186 750 749
3 185 746 750
3 749 750 746
3 48 751 749
3 171 752 751
3 186 749 752
3 751 752 749
3 48 753 751
3 172 754 753
3 171 751 754
3 753 754 751
3 48 755 753
3 181 756 755
3 172 753 756
3 755 756 753
3 48 748 755
3 188 757 748
3 181 755 757
3 748 757 755
3 49 758 760
3 193 759 758
3 184 760 759
3 758 759 760
3 49 761 758
3 162 762 761
3 193 758 762
3 761 762 758
3 49 763 761
3 158 764 763
3 162 761 764
3 763 764 761
3 49 765 763
3 159 766 765
3 158 763 766
3 765 766 763
3 49 767 765
3 183 768 767
3 159 765 768
3 767 768 765
3 49 760 767
3 184 769 760
3 183 767 769
3 760 769 767
