ply
format ascii 1.0
element vertex 50
property float x
property float y
property float z
element face 96
property list uchar int vertex_indices
end_header
1 1 4.80469
1.68784 0.621552 3.72375
0.759674 0.621552 3.72375
0.759674 1.54972 3.72375
1.20117 0.798828 2.39063
0.822876 0.799683 4.5708
1.36035 0.349365 3.71973
1.38904 0.799683 4.5708
1.36035 1.22022 3.71973
0.822876 1.36584 4.5708
0.489502 1.22022 3.71973
0.977173 0.645386 2.71924
1.54333 0.645386 2.71924
0.977173 1.21155 2.71924
1.42651 0.513428 4.25098
1.14844 0.710938 4.64063
1.09106 0.513428 4.25098
1.09106 1.3645 4.25098
1.14844 1.13281 4.64063
1.42651 1.02905 4.25098
0.57544 1.3645 4.25098
0.57544 1.02905 4.25098
0.726563 1.13281 4.64063
1.31641 0.542969 2.625
1.52026 0.419678 3.12598
1.18481 0.419678 3.12598
1.31641 0.964844 2.625
1.18481 1.27075 3.12598
1.52026 0.935303 3.12598
0.66919 1.27075 3.12598
0.894531 0.964844 2.625
0.66919 0.935303 3.12598
1.6311 0.438721 3.72168
1.61548 0.673096 4.12793
1.125 0.9375 4.79688
0.9375 0.9375 4.79688
0.749756 0.673096 4.12793
0.999756 0.438721 3.72168
0.999756 1.49195 3.72168
0.749756 1.53882 4.12793
0.9375 1.125 4.79688
1.6311 0.860596 3.72168
0.577881 1.49195 3.72168
0.577881 0.860596 3.72168
1.13672 0.738281 2.40625
1.32422 0.738281 2.40625
1.68579 0.602783 3.28418
0.820068 0.602783 3.28418
1.13672 0.925781 2.40625
0.820068 1.46851 3.28418
3 15 16 14
3 18 19 17
3 21 22 20
3 24 25 23
3 27 28 26
3 30 31 29
3 32 33 14
3 34 35 15
3 36 37 16
3 38 39 17
3 18 40 34
3 33 41 19
3 39 42 20
3 21 43 36
3 35 40 22
3 44 45 23
3 24 46 32
3 37 47 25
3 45 48 26
3 27 49 38
3 41 46 28
3 42 49 29
3 30 48 44
3 31 47 43
3 16 15 5
3 14 16 6
3 15 14 7
3 19 18 7
3 17 19 8
3 18 17 9
3 22 21 5
3 20 22 9
3 21 20 10
3 25 24 6
3 23 25 11
3 24 23 12
3 28 27 8
3 26 28 12
3 27 26 13
3 31 30 11
3 29 31 10
3 30 29 13
3 33 32 1
3 14 33 7
3 32 14 6
3 35 34 0
3 15 35 5
3 34 15 7
3 37 36 2
3 16 37 6
3 36 16 5
3 39 38 3
3 17 39 9
3 38 17 8
3 40 18 9
3 34 40 0
3 18 34 7
3 41 33 1
3 19 41 8
3 33 19 7
3 42 39 3
3 20 42 10
3 39 20 9
3 43 21 10
3 36 43 2
3 21 36 5
3 40 35 0
3 22 40 9
3 35 22 5
3 45 44 4
3 23 45 12
3 44 23 11
3 46 24 12
3 32 46 1
3 24 32 6
3 47 37 2
3 25 47 11
3 37 25 6
3 48 45 4
3 26 48 13
3 45 26 12
3 49 27 13
3 38 49 3
3 27 38 8
3 46 41 1
3 28 46 12
3 41 28 8
3 49 42 3
3 29 49 13
3 42 29 10
3 48 30 13
3 44 48 4
3 30 44 11
3 47 31 11
3 43 47 2
3 31 43 10
