ply
format ascii 1.0
element vertex 14
property float x
property float y
property float z
element face 24
property list uchar int vertex_indices
end_header
1 1 4.875
1.84961 0.544922 3.75781
0.666016 0.544922 3.75781
0.666016 1.72852 3.75781
1.21875 0.78125 2.25
0.75 0.75 4.75
1.4375 0.1875 3.75
1.5 0.75 4.75
1.4375 1.3125 3.75
0.75 1.5 4.75
0.3125 1.3125 3.75
0.9375 0.5625 2.5
1.6875 0.5625 2.5
0.9375 1.3125 2.5
3 6 7 5
3 8 9 7
3 9 10 5
3 11 12 6
3 12 13 8
3 10 13 11
3 7 6 1
3 5 7 0
3 6 5 2
3 9 8 3
3 7 9 0
3 8 7 1
3 10 9 3
3 5 10 2
3 9 5 0
3 12 11 4
3 6 12 1
3 11 6 2
3 13 12 4
3 8 13 3
3 12 8 1
3 13 10 3
3 11 13 4
3 10 11 2
