ply
format ascii 1.0
element vertex 50
property float x
property float y
property float z
element face 96
property list uchar int vertex_indices
end_header
1 1 5.2793
2.24056 0.359734 3.84012
0.439675 0.359734 3.84012
0.439675 2.16062 3.84012
1.31983 0.680176 1.44141
0.674469 1.65396 4.79895
0.239563 1.35974 3.83618
0.674469 0.668671 4.79895
1.65976 0.668671 4.79895
1.44165 1.35974 3.83618
1.44165 0.157654 3.83618
1.8624 0.466034 2.36731
0.877106 1.45132 2.36731
0.877106 0.466034 2.36731
0.859375 0.859375 5.12109
1.19336 0.615234 4.84766
1.28125 0.859375 5.12109
0.859375 1.28125 5.12109
0.619141 1.18945 4.84766
1.19336 1.18945 4.84766
1.93585 0.22467 3.83765
1.70819 0.261169 3.06274
2.10577 0.390686 3.16577
2.01007 0.486389 4.31421
1.59882 0.370544 4.37524
1.93585 0.798889 3.83765
1.59882 1.01508 4.37524
1.70819 0.905701 3.06274
0.616394 0.390686 3.16577
1.15558 0.261169 3.06274
0.880066 0.22467 3.83765
0.305847 0.798889 3.83765
0.511047 0.905701 3.06274
0.520691 0.486389 4.31421
0.401672 1.01508 4.37524
1.0462 0.370544 4.37524
0.880066 1.85468 3.83765
1.15558 1.45831 3.06274
0.616394 1.88007 3.16577
0.520691 1.97577 4.31421
1.0462 1.56769 4.37524
0.305847 1.85468 3.83765
0.401672 1.56769 4.37524
0.511047 1.45831 3.06274
1.13965 1.00098 1.75781
1.40723 0.975586 2.28125
1.56153 0.579102 1.75781
1.13965 0.579102 1.75781
0.833008 0.975586 2.28125
1.40723 0.401367 2.28125
3 29 49 21
3 11 21 49
3 13 49 29
3 10 29 21
3 27 45 37
3 12 37 45
3 11 45 27
3 9 27 37
3 35 24 15
3 8 15 24
3 10 24 35
3 7 35 15
3 43 48 32
3 13 32 48
3 12 48 43
3 6 43 32
3 42 34 18
3 7 18 34
3 6 34 42
3 5 42 18
3 26 40 19
3 5 19 40
3 9 40 26
3 8 26 19
3 0 14 16
3 7 15 14
3 8 16 15
3 14 15 16
3 0 17 14
3 5 18 17
3 7 14 18
3 17 18 14
3 0 16 17
3 8 19 16
3 5 17 19
3 16 19 17
3 1 20 22
3 10 21 20
3 11 22 21
3 20 21 22
3 1 23 20
3 8 24 23
3 10 20 24
3 23 24 20
3 1 25 23
3 9 26 25
3 8 23 26
3 25 26 23
3 1 22 25
3 11 27 22
3 9 25 27
3 22 27 25
3 2 28 30
3 13 29 28
3 10 30 29
3 28 29 30
3 2 31 28
3 6 32 31
3 13 28 32
3 31 32 28
3 2 33 31
3 7 34 33
3 6 31 34
3 33 34 31
3 2 30 33
3 10 35 30
3 7 33 35
3 30 35 33
3 3 36 38
3 9 37 36
3 12 38 37
3 36 37 38
3 3 39 36
3 5 40 39
3 9 36 40
3 39 40 36
3 3 41 39
3 6 42 41
3 5 39 42
3 41 42 39
3 3 38 41
3 12 43 38
3 6 41 43
3 38 43 41
3 4 44 46
3 12 45 44
3 11 46 45
3 44 45 46
3 4 47 44
3 13 48 47
3 12 44 48
3 47 48 44
3 4 46 47
3 11 49 46
3 13 47 49
3 46 49 47
