ply
format ascii 1.0
element vertex 194
property float x
property float y
property float z
element face 384
property list uchar int vertex_indices
end_header
1 1 5.2348
2.18155 0.387688 3.8277
0.473841 0.387688 3.8277
0.473841 2.09539 3.8277
1.30871 0.6913 1.5304
0.69302 1.61795 4.77043
0.270805 1.3423 3.82162
0.69302 0.685047 4.77043
1.62592 0.685048 4.77043
1.43149 1.3423 3.82162
1.43149 0.181618 3.82162
1.82252 0.488453 2.4113
0.889615 1.42135 2.4113
0.889615 0.488453 2.4113
0.874104 0.873679 5.09888
1.1921 0.618539 4.83218
1.25243 0.873679 5.09888
0.874104 1.252 5.09888
0.624022 1.18662 4.83218
1.1921 1.18662 4.83218
1.91991 0.245862 3.82416
1.69754 0.271624 3.06819
2.06691 0.411689 3.19744
1.97598 0.502616 4.28857
1.58926 0.379916 4.36769
1.91991 0.790264 3.82416
1.58926 1.01447 4.36769
1.69754 0.906171 3.06819
0.631111 0.411689 3.19744
1.15549 0.271624 3.06819
0.878185 0.245862 3.82416
0.333783 0.790264 3.82416
0.520943 0.906171 3.06819
0.540184 0.502616 4.28857
0.412652 1.01447 4.36769
1.0472 0.379916 4.36769
0.878185 1.832 3.82416
1.15549 1.44822 3.06819
0.631111 1.84749 3.19744
0.540184 1.93842 4.28857
1.0472 1.55652 4.36769
0.333783 1.832 3.82416
0.412652 1.55652 4.36769
0.520943 1.44822 3.06819
1.14904 0.977074 1.79968
1.40289 0.975834 2.30276
1.52737 0.598747 1.79968
1.14904 0.598747 1.79968
0.834807 0.975834 2.30276
1.40289 0.407755 2.30276
1.10547 0.947266 5.19031
1.07361 1.07336 5.11389
0.947266 1.10547 5.19031
0.947266 0.947266 5.19031
1.07361 0.852905 5.11389
0.853149 1.07336 5.11389
2.1435 0.392281 3.54478
2.01501 0.599529 3.49542
2.08442 0.561715 3.82652
2.08442 0.310494 3.82652
2.01501 0.308025 3.49542
2.10163 0.434151 4.04723
1.9663 0.356731 4.0799
1.9663 0.648235 4.0799
0.648454 0.310494 3.82652
0.705698 0.356731 4.0799
0.49428 0.434151 4.04723
0.53615 0.392281 3.54478
0.754405 0.308025 3.49542
0.397234 0.561715 3.82652
0.462901 0.599529 3.49542
0.414195 0.648235 4.0799
0.53615 1.99964 3.54478
0.462901 1.86014 3.49542
0.397234 1.99768 3.82652
0.648454 1.99768 3.82652
0.754405 1.86014 3.49542
0.49428 2.04151 4.04723
0.705698 1.90884 4.0799
0.414195 1.90884 4.0799
1.40305 0.649689 1.61939
1.35221 0.574311 1.77075
1.24485 0.649689 1.61939
1.24485 0.807894 1.61939
1.35221 0.794771 1.77075
1.13175 0.794771 1.77075
0.613374 1.78397 4.53391
0.464804 1.76955 4.34142
0.542051 1.6073 4.58633
0.859921 1.6073 4.58633
0.782673 1.76955 4.34142
0.936274 1.42205 4.81391
1.12189 1.37306 4.60841
0.784338 1.43284 4.94598
1.0203 1.23801 4.98133
0.64477 1.42205 4.81391
0.742716 1.23801 4.98133
0.513865 1.37306 4.60841
0.295662 1.59543 3.82217
0.410888 1.65192 3.45654
0.379448 1.40542 3.44955
0.32476 1.46011 4.1058
0.357055 1.70576 4.10254
0.32476 1.18689 4.1058
0.405132 1.28929 4.37108
0.295662 1.06445 3.82217
0.357055 0.908994 4.10254
0.379448 1.13221 3.44955
0.410888 0.85516 3.45654
0.514202 1.18021 3.06224
0.613374 0.59194 4.53391
0.782673 0.430742 4.34142
0.859921 0.523508 4.58633
0.542051 0.841381 4.58633
0.464804 0.748615 4.34142
0.64477 0.930081 4.81391
0.513865 1.10425 4.60841
0.784338 0.781313 4.94598
0.742716 1.01823 4.98133
0.936274 0.638578 4.81391
1.0203 0.740644 4.98133
1.12189 0.496229 4.60841
1.8054 0.59194 4.53391
1.80362 0.748615 4.34142
1.62584 0.841381 4.58633
1.62584 0.523508 4.58633
1.80362 0.430742 4.34142
1.42824 0.638578 4.81391
1.3907 0.496229 4.60841
1.43586 0.781313 4.94598
1.24009 0.740644 4.98133
1.42824 0.930081 4.81391
1.24009 1.01823 4.98133
1.3907 1.10425 4.60841
1.15336 1.59543 3.82217
0.965388 1.70576 4.10254
1.24336 1.46011 4.1058
1.29805 1.40542 3.44955
1.01922 1.65192 3.45654
1.57127 1.13221 3.44955
1.43095 1.18021 3.06224
1.68434 1.06445 3.82217
1.81598 0.85516 3.45654
1.51658 1.18689 4.1058
1.76215 0.908994 4.10254
1.32188 1.28929 4.37107
1.24336 0.268288 4.1058
0.965388 0.300659 4.10254
1.15336 0.206749 3.82217
1.51658 0.268287 4.1058
1.32188 0.372531 4.37107
1.68434 0.206749 3.82217
1.76215 0.300659 4.10254
1.57127 0.2136 3.44955
1.81598 0.246826 3.45654
1.29805 0.2136 3.44955
1.43095 0.263462 3.06224
1.01922 0.246826 3.45654
1.63482 0.432005 2.33503
1.48646 0.494276 2.02491
1.67387 0.543307 2.0899
1.7817 0.367655 2.71609
1.55162 0.33531 2.67737
1.9496 0.447744 2.80357
1.906 0.328356 3.11278
1.7817 0.685526 2.71609
1.906 0.646227 3.11278
1.63482 0.723509 2.33503
1.55162 0.943335 2.67737
1.48646 0.771864 2.02491
1.02235 1.19483 2.0899
0.989085 0.991649 2.02491
0.851343 1.21548 2.33503
1.14285 1.21548 2.33503
1.26667 0.991649 2.02491
1.01578 1.45144 2.71609
1.28281 1.21214 2.67737
0.75757 1.63977 2.80357
0.885062 1.66717 3.11278
0.697905 1.45144 2.71609
0.56719 1.66717 3.11278
0.674784 1.21214 2.67737
1.02235 0.543307 2.0899
1.26667 0.494276 2.02491
1.14285 0.432005 2.33503
0.851343 0.723509 2.33503
0.989085 0.771864 2.02491
0.697905 0.685526 2.71609
0.674784 0.943335 2.67737
0.75757 0.447744 2.80357
0.56719 0.646227 3.11278
1.01578 0.367655 2.71609
0.885062 0.328356 3.11278
1.28281 0.33531 2.67737
3 159 183 81
3 47 81 183
3 49 183 159
3 46 159 81
3 174 169 84
3 46 84 169
3 45 169 174
3 44 174 84
3 186 171 85
3 44 85 171
3 48 171 186
3 47 186 85
3 102 87 79
3 39 79 87
3 42 87 102
3 41 102 79
3 180 99 73
3 41 73 99
3 43 99 180
3 38 180 73
3 138 178 76
3 38 76 178
3 37 178 138
3 36 138 76
3 90 135 78
3 36 78 135
3 40 135 90
3 39 90 78
3 181 188 109
3 32 109 188
3 48 188 181
3 43 181 109
3 114 106 71
3 31 71 106
3 34 106 114
3 33 114 71
3 147 111 65
3 33 65 111
3 35 111 147
3 30 147 65
3 192 157 68
3 30 68 157
3 29 157 192
3 28 192 68
3 108 190 70
3 28 70 190
3 32 190 108
3 31 108 70
3 168 176 140
3 37 140 176
3 45 176 168
3 27 168 140
3 144 123 63
3 23 63 123
3 26 123 144
3 25 144 63
3 166 142 57
3 25 57 142
3 27 142 166
3 22 166 57
3 193 162 156
3 21 156 162
3 49 162 193
3 29 193 156
3 154 164 60
3 22 60 164
3 21 164 154
3 20 154 60
3 126 152 62
3 20 62 152
3 24 152 126
3 23 126 62
3 145 92 133
3 19 133 92
3 40 92 145
3 26 145 133
3 104 116 97
3 18 97 116
3 34 116 104
3 42 104 97
3 132 94 51
3 17 51 94
3 19 94 132
3 16 132 51
3 150 128 121
3 15 121 128
3 24 128 150
3 35 150 121
3 120 130 54
3 16 54 130
3 15 130 120
3 14 120 54
3 96 118 55
3 14 55 118
3 18 118 96
3 17 96 55
3 0 50 52
3 16 51 50
3 17 52 51
3 50 51 52
3 0 53 50
3 14 54 53
3 16 50 54
3 53 54 50
3 0 52 53
3 17 55 52
3 14 53 55
3 52 55 53
3 1 56 58
3 22 57 56
3 25 58 57
3 56 57 58
3 1 59 56
3 20 60 59
3 22 56 60
3 59 60 56
3 1 61 59
3 23 62 61
3 20 59 62
3 61 62 59
3 1 58 61
3 25 63 58
3 23 61 63
3 58 63 61
3 2 64 66
3 30 65 64
3 33 66 65
3 64 65 66
3 2 67 64
3 28 68 67
3 30 64 68
3 67 68 64
3 2 69 67
3 31 70 69
3 28 67 70
3 69 70 67
3 2 66 69
3 33 71 66
3 31 69 71
3 66 71 69
3 3 72 74
3 38 73 72
3 41 74 73
3 72 73 74
3 3 75 72
3 36 76 75
3 38 72 76
3 75 76 72
3 3 77 75
3 39 78 77
3 36 75 78
3 77 78 75
3 3 74 77
3 41 79 74
3 39 77 79
3 74 79 77
3 4 80 82
3 46 81 80
3 47 82 81
3 80 81 82
3 4 83 80
3 44 84 83
3 46 80 84
3 83 84 80
3 4 82 83
3 47 85 82
3 44 83 85
3 82 85 83
3 5 86 88
3 39 87 86
3 42 88 87
3 86 87 88
3 5 89 86
3 40 90 89
3 39 86 90
3 89 90 86
3 5 91 89
3 19 92 91
3 40 89 92
3 91 92 89
3 5 93 91
3 17 94 93
3 19 91 94
3 93 94 91
3 5 95 93
3 18 96 95
3 17 93 96
3 95 96 93
3 5 88 95
3 42 97 88
3 18 95 97
3 88 97 95
3 6 98 100
3 41 99 98
3 43 100 99
3 98 99 100
3 6 101 98
3 42 102 101
3 41 98 102
3 101 102 98
3 6 103 101
3 34 104 103
3 42 101 104
3 103 104 101
3 6 105 103
3 31 106 105
3 34 103 106
3 105 106 103
3 6 107 105
3 32 108 107
3 31 105 108
3 107 108 105
3 6 100 107
3 43 109 100
3 32 107 109
3 100 109 107
3 7 110 112
3 33 111 110
3 35 112 111
3 110 111 112
3 7 113 110
3 34 114 113
3 33 110 114
3 113 114 110
3 7 115 113
3 18 116 115
3 34 113 116
3 115 116 113
3 7 117 115
3 14 118 117
3 18 115 118
3 117 118 115
3 7 119 117
3 15 120 119
3 14 117 120
3 119 120 117
3 7 112 119
3 35 121 112
3 15 119 121
3 112 121 119
3 8 122 124
3 23 123 122
3 26 124 123
3 122 123 124
3 8 125 122
3 24 126 125
3 23 122 126
3 125 126 122
3 8 127 125
3 15 128 127
3 24 125 128
3 127 128 125
3 8 129 127
3 16 130 129
3 15 127 130
3 129 130 127
3 8 131 129
3 19 132 131
3 16 129 132
3 131 132 129
3 8 124 131
3 26 133 124
3 19 131 133
3 124 133 131
3 9 134 136
3 36 135 134
3 40 136 135
3 134 135 136
3 9 137 134
3 37 138 137
3 36 134 138
3 137 138 134
3 9 139 137
3 27 140 139
3 37 137 140
3 139 140 137
3 9 141 139
3 25 142 141
3 27 139 142
3 141 142 139
3 9 143 141
3 26 144 143
3 25 141 144
3 143 144 141
3 9 136 143
3 40 145 136
3 26 143 145
3 136 145 143
3 10 146 148
3 35 147 146
3 30 148 147
3 146 147 148
3 10 149 146
3 24 150 149
3 35 146 150
3 149 150 146
3 10 151 149
3 20 152 151
3 24 149 152
3 151 152 149
3 10 153 151
3 21 154 153
3 20 151 154
3 153 154 151
3 10 155 153
3 29 156 155
3 21 153 156
3 155 156 153
3 10 148 155
3 30 157 148
3 29 155 157
3 148 157 155
3 11 158 160
3 49 159 158
3 46 160 159
3 158 159 160
3 11 161 158
3 21 162 161
3 49 158 162
3 161 162 158
3 11 163 161
3 22 164 163
3 21 161 164
3 163 164 161
3 11 165 163
3 27 166 165
3 22 163 166
3 165 166 163
3 11 167 165
3 45 168 167
3 27 165 168
3 167 168 165
3 11 160 167
3 46 169 160
3 45 167 169
3 160 169 167
3 12 170 172
3 44 171 170
3 48 172 171
3 170 171 172
3 12 173 170
3 45 174 173
3 44 170 174
3 173 174 170
3 12 175 173
3 37 176 175
3 45 173 176
3 175 176 173
3 12 177 175
3 38 178 177
3 37 175 178
3 177 178 175
3 12 179 177
3 43 180 179
3 38 177 180
3 179 180 177
3 12 172 179
3 48 181 172
3 43 179 181
3 172 181 179
3 13 182 184
3 47 183 182
3 49 184 183
3 182 183 184
3 13 185 182
3 48 186 185
3 47 182 186
3 185 186 182
3 13 187 185
3 32 188 187
3 48 185 188
3 187 188 185
3 13 189 187
3 28 190 189
3 32 187 190
3 189 190 187
3 13 191 189
3 29 192 191
3 28 189 192
3 191 192 189
3 13 184 191
3 49 193 184
3 29 191 193
3 184 193 191
